solid 
 facet normal -7.071068e-01  0.000000e+00  7.071068e-01
   outer loop
     vertex  1.615000e+01  2.855000e+01  7.100000e+00
     vertex  1.515000e+01  2.755000e+01  6.100000e+00
     vertex  1.515000e+01  2.850000e+00  6.100000e+00
   endloop
 endfacet
 facet normal -7.071068e-01  0.000000e+00  7.071068e-01
   outer loop
     vertex  1.615000e+01  2.855000e+01  7.100000e+00
     vertex  1.515000e+01  2.850000e+00  6.100000e+00
     vertex  1.615000e+01  1.850000e+00  7.100000e+00
   endloop
 endfacet
 facet normal  0.000000e+00  7.071068e-01  7.071068e-01
   outer loop
     vertex  1.515000e+01  2.850000e+00  6.100000e+00
     vertex  1.400000e+01  2.850000e+00  6.100000e+00
     vertex  1.400000e+01  1.850000e+00  7.100000e+00
   endloop
 endfacet
 facet normal  0.000000e+00  7.071068e-01  7.071068e-01
   outer loop
     vertex  1.515000e+01  2.850000e+00  6.100000e+00
     vertex  1.400000e+01  1.850000e+00  7.100000e+00
     vertex  1.615000e+01  1.850000e+00  7.100000e+00
   endloop
 endfacet
 facet normal  0.000000e+00 -7.071068e-01  7.071068e-01
   outer loop
     vertex  1.515000e+01  2.755000e+01  6.100000e+00
     vertex  1.300000e+01  2.855000e+01  7.100000e+00
     vertex  1.300000e+01  2.755000e+01  6.100000e+00
   endloop
 endfacet
 facet normal  0.000000e+00 -7.071068e-01  7.071068e-01
   outer loop
     vertex  1.615000e+01  2.855000e+01  7.100000e+00
     vertex  1.300000e+01  2.855000e+01  7.100000e+00
     vertex  1.515000e+01  2.755000e+01  6.100000e+00
   endloop
 endfacet
 facet normal -1.000000e+00  0.000000e+00  0.000000e+00
   outer loop
     vertex  1.400000e+01  2.850000e+00  6.100000e+00
     vertex  1.400000e+01  0.000000e+00  7.100000e+00
     vertex  1.400000e+01  1.850000e+00  7.100000e+00
   endloop
 endfacet
 facet normal -1.000000e+00  0.000000e+00  0.000000e+00
   outer loop
     vertex  1.400000e+01  0.000000e+00  2.100000e+00
     vertex  1.400000e+01  0.000000e+00  7.100000e+00
     vertex  1.400000e+01  2.850000e+00  6.100000e+00
   endloop
 endfacet
 facet normal -1.000000e+00  0.000000e+00  0.000000e+00
   outer loop
     vertex  1.400000e+01  2.850000e+00  2.100000e+00
     vertex  1.400000e+01  0.000000e+00  2.100000e+00
     vertex  1.400000e+01  2.850000e+00  6.100000e+00
   endloop
 endfacet
 facet normal  0.000000e+00  1.000000e+00  0.000000e+00
   outer loop
     vertex  2.850000e+00  2.850000e+00  6.100000e+00
     vertex  4.000000e+00  2.850000e+00  2.100000e+00
     vertex  2.850000e+00  2.850000e+00  1.950000e+00
   endloop
 endfacet
 facet normal  0.000000e+00  1.000000e+00  0.000000e+00
   outer loop
     vertex  4.000000e+00  2.850000e+00  6.100000e+00
     vertex  4.000000e+00  2.850000e+00  2.100000e+00
     vertex  2.850000e+00  2.850000e+00  6.100000e+00
   endloop
 endfacet
 facet normal  0.000000e+00  1.000000e+00  0.000000e+00
   outer loop
     vertex  1.515000e+01  2.850000e+00  6.100000e+00
     vertex  1.400000e+01  2.850000e+00  2.100000e+00
     vertex  1.400000e+01  2.850000e+00  6.100000e+00
   endloop
 endfacet
 facet normal  0.000000e+00  1.000000e+00  0.000000e+00
   outer loop
     vertex  1.515000e+01  2.850000e+00  6.100000e+00
     vertex  1.515000e+01  2.850000e+00  1.950000e+00
     vertex  1.400000e+01  2.850000e+00  2.100000e+00
   endloop
 endfacet
 facet normal  0.000000e+00  1.000000e+00  0.000000e+00
   outer loop
     vertex  1.515000e+01  2.850000e+00  1.950000e+00
     vertex  2.850000e+00  2.850000e+00  1.950000e+00
     vertex  4.000000e+00  2.850000e+00  2.100000e+00
   endloop
 endfacet
 facet normal  0.000000e+00  1.000000e+00  0.000000e+00
   outer loop
     vertex  1.515000e+01  2.850000e+00  1.950000e+00
     vertex  4.000000e+00  2.850000e+00  2.100000e+00
     vertex  1.400000e+01  2.850000e+00  2.100000e+00
   endloop
 endfacet
 facet normal -1.000000e+00  0.000000e+00 -0.000000e+00
   outer loop
     vertex  1.515000e+01  2.755000e+01  6.100000e+00
     vertex  1.515000e+01  2.755000e+01  1.950000e+00
     vertex  1.515000e+01  2.850000e+00  1.950000e+00
   endloop
 endfacet
 facet normal -1.000000e+00 -0.000000e+00  0.000000e+00
   outer loop
     vertex  1.515000e+01  2.755000e+01  6.100000e+00
     vertex  1.515000e+01  2.850000e+00  1.950000e+00
     vertex  1.515000e+01  2.850000e+00  6.100000e+00
   endloop
 endfacet
 facet normal  0.000000e+00 -7.071068e-01  7.071068e-01
   outer loop
     vertex  5.000000e+00  2.855000e+01  7.100000e+00
     vertex  2.850000e+00  2.755000e+01  6.100000e+00
     vertex  5.000000e+00  2.755000e+01  6.100000e+00
   endloop
 endfacet
 facet normal  0.000000e+00 -7.071068e-01  7.071068e-01
   outer loop
     vertex  5.000000e+00  2.855000e+01  7.100000e+00
     vertex  1.850000e+00  2.855000e+01  7.100000e+00
     vertex  2.850000e+00  2.755000e+01  6.100000e+00
   endloop
 endfacet
 facet normal  7.071068e-01  0.000000e+00  7.071068e-01
   outer loop
     vertex  2.850000e+00  2.755000e+01  6.100000e+00
     vertex  1.850000e+00  2.855000e+01  7.100000e+00
     vertex  1.850000e+00  1.850000e+00  7.100000e+00
   endloop
 endfacet
 facet normal  7.071068e-01  0.000000e+00  7.071068e-01
   outer loop
     vertex  2.850000e+00  2.755000e+01  6.100000e+00
     vertex  1.850000e+00  1.850000e+00  7.100000e+00
     vertex  2.850000e+00  2.850000e+00  6.100000e+00
   endloop
 endfacet
 facet normal  0.000000e+00  7.071068e-01  7.071068e-01
   outer loop
     vertex  2.850000e+00  2.850000e+00  6.100000e+00
     vertex  1.850000e+00  1.850000e+00  7.100000e+00
     vertex  4.000000e+00  1.850000e+00  7.100000e+00
   endloop
 endfacet
 facet normal  0.000000e+00  7.071068e-01  7.071068e-01
   outer loop
     vertex  4.000000e+00  2.850000e+00  6.100000e+00
     vertex  2.850000e+00  2.850000e+00  6.100000e+00
     vertex  4.000000e+00  1.850000e+00  7.100000e+00
   endloop
 endfacet
 facet normal  1.000000e+00  0.000000e+00  0.000000e+00
   outer loop
     vertex  4.000000e+00  2.850000e+00  6.100000e+00
     vertex  4.000000e+00  0.000000e+00  2.100000e+00
     vertex  4.000000e+00  2.850000e+00  2.100000e+00
   endloop
 endfacet
 facet normal  1.000000e+00  0.000000e+00  0.000000e+00
   outer loop
     vertex  4.000000e+00  2.850000e+00  6.100000e+00
     vertex  4.000000e+00  0.000000e+00  7.100000e+00
     vertex  4.000000e+00  0.000000e+00  2.100000e+00
   endloop
 endfacet
 facet normal  1.000000e+00  0.000000e+00  0.000000e+00
   outer loop
     vertex  4.000000e+00  2.850000e+00  6.100000e+00
     vertex  4.000000e+00  1.850000e+00  7.100000e+00
     vertex  4.000000e+00  0.000000e+00  7.100000e+00
   endloop
 endfacet
 facet normal -0.000000e+00  0.000000e+00  1.000000e+00
   outer loop
     vertex  1.850000e+00  1.850000e+00  7.100000e+00
     vertex  4.000000e+00  0.000000e+00  7.100000e+00
     vertex  4.000000e+00  1.850000e+00  7.100000e+00
   endloop
 endfacet
 facet normal  0.000000e+00  0.000000e+00  1.000000e+00
   outer loop
     vertex  1.850000e+00  1.850000e+00  7.100000e+00
     vertex  0.000000e+00  0.000000e+00  7.100000e+00
     vertex  4.000000e+00  0.000000e+00  7.100000e+00
   endloop
 endfacet
 facet normal  0.000000e+00  0.000000e+00  1.000000e+00
   outer loop
     vertex  1.850000e+00  2.855000e+01  7.100000e+00
     vertex  5.000000e+00  2.855000e+01  7.100000e+00
     vertex  5.000000e+00  3.040000e+01  7.100000e+00
   endloop
 endfacet
 facet normal  0.000000e+00  0.000000e+00  1.000000e+00
   outer loop
     vertex  0.000000e+00  3.040000e+01  7.100000e+00
     vertex  1.850000e+00  1.850000e+00  7.100000e+00
     vertex  1.850000e+00  2.855000e+01  7.100000e+00
   endloop
 endfacet
 facet normal  0.000000e+00  0.000000e+00  1.000000e+00
   outer loop
     vertex  0.000000e+00  3.040000e+01  7.100000e+00
     vertex  0.000000e+00  0.000000e+00  7.100000e+00
     vertex  1.850000e+00  1.850000e+00  7.100000e+00
   endloop
 endfacet
 facet normal -0.000000e+00  0.000000e+00  1.000000e+00
   outer loop
     vertex  0.000000e+00  3.040000e+01  7.100000e+00
     vertex  1.850000e+00  2.855000e+01  7.100000e+00
     vertex  5.000000e+00  3.040000e+01  7.100000e+00
   endloop
 endfacet
 facet normal -1.000000e+00  0.000000e+00  0.000000e+00
   outer loop
     vertex  0.000000e+00  0.000000e+00  7.100000e+00
     vertex  0.000000e+00  3.040000e+01  7.100000e+00
     vertex  0.000000e+00  3.040000e+01  1.000002e-01
   endloop
 endfacet
 facet normal -1.000000e+00  0.000000e+00  0.000000e+00
   outer loop
     vertex  0.000000e+00  0.000000e+00  7.100000e+00
     vertex  0.000000e+00  3.040000e+01  1.000002e-01
     vertex  0.000000e+00  0.000000e+00  1.000002e-01
   endloop
 endfacet
 facet normal -0.000000e+00  1.000000e+00  0.000000e+00
   outer loop
     vertex  1.300000e+01  3.040000e+01  2.100000e+00
     vertex  1.800000e+01  3.040000e+01  7.100000e+00
     vertex  1.800000e+01  3.040000e+01  1.000002e-01
   endloop
 endfacet
 facet normal -0.000000e+00  1.000000e+00  0.000000e+00
   outer loop
     vertex  1.300000e+01  3.040000e+01  7.100000e+00
     vertex  1.800000e+01  3.040000e+01  7.100000e+00
     vertex  1.300000e+01  3.040000e+01  2.100000e+00
   endloop
 endfacet
 facet normal  0.000000e+00  1.000000e+00  0.000000e+00
   outer loop
     vertex  0.000000e+00  3.040000e+01  1.000002e-01
     vertex  5.000000e+00  3.040000e+01  2.100000e+00
     vertex  1.300000e+01  3.040000e+01  2.100000e+00
   endloop
 endfacet
 facet normal  0.000000e+00  1.000000e+00  0.000000e+00
   outer loop
     vertex  0.000000e+00  3.040000e+01  1.000002e-01
     vertex  1.300000e+01  3.040000e+01  2.100000e+00
     vertex  1.800000e+01  3.040000e+01  1.000002e-01
   endloop
 endfacet
 facet normal -0.000000e+00  1.000000e+00  0.000000e+00
   outer loop
     vertex  0.000000e+00  3.040000e+01  7.100000e+00
     vertex  5.000000e+00  3.040000e+01  7.100000e+00
     vertex  5.000000e+00  3.040000e+01  2.100000e+00
   endloop
 endfacet
 facet normal  0.000000e+00  1.000000e+00  0.000000e+00
   outer loop
     vertex  0.000000e+00  3.040000e+01  7.100000e+00
     vertex  5.000000e+00  3.040000e+01  2.100000e+00
     vertex  0.000000e+00  3.040000e+01  1.000002e-01
   endloop
 endfacet
 facet normal  1.000000e+00  0.000000e+00  0.000000e+00
   outer loop
     vertex  5.000000e+00  3.040000e+01  7.100000e+00
     vertex  5.000000e+00  2.855000e+01  7.100000e+00
     vertex  5.000000e+00  2.755000e+01  6.100000e+00
   endloop
 endfacet
 facet normal  1.000000e+00  0.000000e+00  0.000000e+00
   outer loop
     vertex  5.000000e+00  3.040000e+01  2.100000e+00
     vertex  5.000000e+00  2.755000e+01  6.100000e+00
     vertex  5.000000e+00  2.755000e+01  2.100000e+00
   endloop
 endfacet
 facet normal  1.000000e+00  0.000000e+00 -0.000000e+00
   outer loop
     vertex  5.000000e+00  3.040000e+01  2.100000e+00
     vertex  5.000000e+00  3.040000e+01  7.100000e+00
     vertex  5.000000e+00  2.755000e+01  6.100000e+00
   endloop
 endfacet
 facet normal  0.000000e+00 -1.000000e+00  0.000000e+00
   outer loop
     vertex  5.000000e+00  2.755000e+01  2.100000e+00
     vertex  5.000000e+00  2.755000e+01  6.100000e+00
     vertex  2.850000e+00  2.755000e+01  6.100000e+00
   endloop
 endfacet
 facet normal -0.000000e+00 -1.000000e+00  0.000000e+00
   outer loop
     vertex  5.000000e+00  2.755000e+01  2.100000e+00
     vertex  2.850000e+00  2.755000e+01  6.100000e+00
     vertex  2.850000e+00  2.755000e+01  1.950000e+00
   endloop
 endfacet
 facet normal  0.000000e+00 -1.000000e+00  0.000000e+00
   outer loop
     vertex  1.300000e+01  2.755000e+01  2.100000e+00
     vertex  1.515000e+01  2.755000e+01  6.100000e+00
     vertex  1.300000e+01  2.755000e+01  6.100000e+00
   endloop
 endfacet
 facet normal  0.000000e+00 -1.000000e+00  0.000000e+00
   outer loop
     vertex  1.515000e+01  2.755000e+01  1.950000e+00
     vertex  1.515000e+01  2.755000e+01  6.100000e+00
     vertex  1.300000e+01  2.755000e+01  2.100000e+00
   endloop
 endfacet
 facet normal  0.000000e+00 -1.000000e+00  0.000000e+00
   outer loop
     vertex  2.850000e+00  2.755000e+01  1.950000e+00
     vertex  1.515000e+01  2.755000e+01  1.950000e+00
     vertex  1.300000e+01  2.755000e+01  2.100000e+00
   endloop
 endfacet
 facet normal  0.000000e+00 -1.000000e+00  0.000000e+00
   outer loop
     vertex  2.850000e+00  2.755000e+01  1.950000e+00
     vertex  1.300000e+01  2.755000e+01  2.100000e+00
     vertex  5.000000e+00  2.755000e+01  2.100000e+00
   endloop
 endfacet
 facet normal  0.000000e+00  0.000000e+00  1.000000e+00
   outer loop
     vertex  1.400000e+01  0.000000e+00  7.100000e+00
     vertex  1.800000e+01  0.000000e+00  7.100000e+00
     vertex  1.615000e+01  1.850000e+00  7.100000e+00
   endloop
 endfacet
 facet normal -0.000000e+00  0.000000e+00  1.000000e+00
   outer loop
     vertex  1.400000e+01  1.850000e+00  7.100000e+00
     vertex  1.400000e+01  0.000000e+00  7.100000e+00
     vertex  1.615000e+01  1.850000e+00  7.100000e+00
   endloop
 endfacet
 facet normal  0.000000e+00  0.000000e+00  1.000000e+00
   outer loop
     vertex  1.800000e+01  3.040000e+01  7.100000e+00
     vertex  1.615000e+01  1.850000e+00  7.100000e+00
     vertex  1.800000e+01  0.000000e+00  7.100000e+00
   endloop
 endfacet
 facet normal -0.000000e+00  0.000000e+00  1.000000e+00
   outer loop
     vertex  1.615000e+01  2.855000e+01  7.100000e+00
     vertex  1.615000e+01  1.850000e+00  7.100000e+00
     vertex  1.800000e+01  3.040000e+01  7.100000e+00
   endloop
 endfacet
 facet normal  0.000000e+00  0.000000e+00  1.000000e+00
   outer loop
     vertex  1.300000e+01  3.040000e+01  7.100000e+00
     vertex  1.300000e+01  2.855000e+01  7.100000e+00
     vertex  1.615000e+01  2.855000e+01  7.100000e+00
   endloop
 endfacet
 facet normal -0.000000e+00  0.000000e+00  1.000000e+00
   outer loop
     vertex  1.300000e+01  3.040000e+01  7.100000e+00
     vertex  1.615000e+01  2.855000e+01  7.100000e+00
     vertex  1.800000e+01  3.040000e+01  7.100000e+00
   endloop
 endfacet
 facet normal -1.000000e+00  0.000000e+00  0.000000e+00
   outer loop
     vertex  1.300000e+01  2.755000e+01  6.100000e+00
     vertex  1.300000e+01  2.855000e+01  7.100000e+00
     vertex  1.300000e+01  3.040000e+01  7.100000e+00
   endloop
 endfacet
 facet normal -1.000000e+00  0.000000e+00  0.000000e+00
   outer loop
     vertex  1.300000e+01  3.040000e+01  2.100000e+00
     vertex  1.300000e+01  2.755000e+01  6.100000e+00
     vertex  1.300000e+01  3.040000e+01  7.100000e+00
   endloop
 endfacet
 facet normal -1.000000e+00  0.000000e+00  0.000000e+00
   outer loop
     vertex  1.300000e+01  2.755000e+01  2.100000e+00
     vertex  1.300000e+01  2.755000e+01  6.100000e+00
     vertex  1.300000e+01  3.040000e+01  2.100000e+00
   endloop
 endfacet
 facet normal  0.000000e+00  0.000000e+00  1.000000e+00
   outer loop
     vertex  2.850000e+00  2.755000e+01  1.950000e+00
     vertex  2.850000e+00  2.850000e+00  1.950000e+00
     vertex  1.515000e+01  2.850000e+00  1.950000e+00
   endloop
 endfacet
 facet normal  0.000000e+00  0.000000e+00  1.000000e+00
   outer loop
     vertex  1.515000e+01  2.755000e+01  1.950000e+00
     vertex  2.850000e+00  2.755000e+01  1.950000e+00
     vertex  1.515000e+01  2.850000e+00  1.950000e+00
   endloop
 endfacet
 facet normal  1.000000e+00  0.000000e+00 -0.000000e+00
   outer loop
     vertex  2.850000e+00  2.755000e+01  1.950000e+00
     vertex  2.850000e+00  2.755000e+01  6.100000e+00
     vertex  2.850000e+00  2.850000e+00  6.100000e+00
   endloop
 endfacet
 facet normal  1.000000e+00  0.000000e+00  0.000000e+00
   outer loop
     vertex  2.850000e+00  2.755000e+01  1.950000e+00
     vertex  2.850000e+00  2.850000e+00  6.100000e+00
     vertex  2.850000e+00  2.850000e+00  1.950000e+00
   endloop
 endfacet
 facet normal  0.000000e+00  0.000000e+00  1.000000e+00
   outer loop
     vertex  1.300000e+01  3.040000e+01  2.100000e+00
     vertex  5.000000e+00  3.040000e+01  2.100000e+00
     vertex  5.000000e+00  2.755000e+01  2.100000e+00
   endloop
 endfacet
 facet normal  0.000000e+00  0.000000e+00  1.000000e+00
   outer loop
     vertex  1.300000e+01  3.040000e+01  2.100000e+00
     vertex  5.000000e+00  2.755000e+01  2.100000e+00
     vertex  1.300000e+01  2.755000e+01  2.100000e+00
   endloop
 endfacet
 facet normal  0.000000e+00  0.000000e+00  1.000000e+00
   outer loop
     vertex  1.400000e+01  2.850000e+00  2.100000e+00
     vertex  4.000000e+00  2.850000e+00  2.100000e+00
     vertex  4.000000e+00  0.000000e+00  2.100000e+00
   endloop
 endfacet
 facet normal  0.000000e+00  0.000000e+00  1.000000e+00
   outer loop
     vertex  1.400000e+01  2.850000e+00  2.100000e+00
     vertex  4.000000e+00  0.000000e+00  2.100000e+00
     vertex  1.400000e+01  0.000000e+00  2.100000e+00
   endloop
 endfacet
 facet normal  0.000000e+00 -1.000000e+00  0.000000e+00
   outer loop
     vertex  0.000000e+00  0.000000e+00  7.100000e+00
     vertex  0.000000e+00  0.000000e+00  1.000002e-01
     vertex  4.000000e+00  0.000000e+00  2.100000e+00
   endloop
 endfacet
 facet normal -0.000000e+00 -1.000000e+00 -0.000000e+00
   outer loop
     vertex  4.000000e+00  0.000000e+00  7.100000e+00
     vertex  0.000000e+00  0.000000e+00  7.100000e+00
     vertex  4.000000e+00  0.000000e+00  2.100000e+00
   endloop
 endfacet
 facet normal  0.000000e+00 -1.000000e+00  0.000000e+00
   outer loop
     vertex  1.800000e+01  0.000000e+00  1.000002e-01
     vertex  1.400000e+01  0.000000e+00  2.100000e+00
     vertex  4.000000e+00  0.000000e+00  2.100000e+00
   endloop
 endfacet
 facet normal  0.000000e+00 -1.000000e+00  0.000000e+00
   outer loop
     vertex  1.800000e+01  0.000000e+00  1.000002e-01
     vertex  4.000000e+00  0.000000e+00  2.100000e+00
     vertex  0.000000e+00  0.000000e+00  1.000002e-01
   endloop
 endfacet
 facet normal -0.000000e+00 -1.000000e+00  0.000000e+00
   outer loop
     vertex  1.800000e+01  0.000000e+00  7.100000e+00
     vertex  1.400000e+01  0.000000e+00  7.100000e+00
     vertex  1.400000e+01  0.000000e+00  2.100000e+00
   endloop
 endfacet
 facet normal  0.000000e+00 -1.000000e+00 -0.000000e+00
   outer loop
     vertex  1.800000e+01  0.000000e+00  7.100000e+00
     vertex  1.400000e+01  0.000000e+00  2.100000e+00
     vertex  1.800000e+01  0.000000e+00  1.000002e-01
   endloop
 endfacet
 facet normal  1.000000e+00  0.000000e+00  0.000000e+00
   outer loop
     vertex  1.800000e+01  3.040000e+01  7.100000e+00
     vertex  1.800000e+01  0.000000e+00  7.100000e+00
     vertex  1.800000e+01  0.000000e+00  1.000002e-01
   endloop
 endfacet
 facet normal  1.000000e+00  0.000000e+00  0.000000e+00
   outer loop
     vertex  1.800000e+01  3.040000e+01  7.100000e+00
     vertex  1.800000e+01  0.000000e+00  1.000002e-01
     vertex  1.800000e+01  3.040000e+01  1.000002e-01
   endloop
 endfacet
 facet normal -0.000000e+00  0.000000e+00 -1.000000e+00
   outer loop
     vertex  1.800000e+01  3.040000e+01  1.000002e-01
     vertex  0.000000e+00  0.000000e+00  1.000002e-01
     vertex  0.000000e+00  3.040000e+01  1.000002e-01
   endloop
 endfacet
 facet normal  0.000000e+00 -0.000000e+00 -1.000000e+00
   outer loop
     vertex  1.800000e+01  3.040000e+01  1.000002e-01
     vertex  1.800000e+01  0.000000e+00  1.000002e-01
     vertex  0.000000e+00  0.000000e+00  1.000002e-01
   endloop
 endfacet
endsolid
