solid 
 facet normal -1.000000e+00  3.073123e-09  0.000000e+00
   outer loop
     vertex  1.015993e+01  2.112920e+01 -5.243852e+00
     vertex  1.015993e+01  2.112920e+01 -1.024385e+01
     vertex  1.015993e+01  1.112920e+01 -1.024385e+01
   endloop
 endfacet
 facet normal -1.000000e+00  3.073123e-09  0.000000e+00
   outer loop
     vertex  1.015993e+01  2.112920e+01 -5.243852e+00
     vertex  1.015993e+01  1.112920e+01 -1.024385e+01
     vertex  1.015993e+01  1.112920e+01 -5.243852e+00
   endloop
 endfacet
 facet normal -3.073123e-09 -1.000000e+00  0.000000e+00
   outer loop
     vertex  2.015993e+01  1.112920e+01 -5.243852e+00
     vertex  1.015993e+01  1.112920e+01 -5.243852e+00
     vertex  1.015993e+01  1.112920e+01 -1.024385e+01
   endloop
 endfacet
 facet normal -3.073123e-09 -1.000000e+00 -0.000000e+00
   outer loop
     vertex  2.015993e+01  1.112920e+01 -5.243852e+00
     vertex  1.015993e+01  1.112920e+01 -1.024385e+01
     vertex  2.015993e+01  1.112920e+01 -1.024385e+01
   endloop
 endfacet
 facet normal  1.000000e+00 -3.073124e-09  0.000000e+00
   outer loop
     vertex  2.015993e+01  1.112920e+01 -5.243852e+00
     vertex  2.015993e+01  2.112920e+01 -1.024385e+01
     vertex  2.015993e+01  2.112920e+01 -5.243852e+00
   endloop
 endfacet
 facet normal  1.000000e+00 -3.073124e-09  0.000000e+00
   outer loop
     vertex  2.015993e+01  1.112920e+01 -5.243852e+00
     vertex  2.015993e+01  1.112920e+01 -1.024385e+01
     vertex  2.015993e+01  2.112920e+01 -1.024385e+01
   endloop
 endfacet
 facet normal  3.073123e-09  1.000000e+00  0.000000e+00
   outer loop
     vertex  2.015993e+01  2.112920e+01 -5.243852e+00
     vertex  2.015993e+01  2.112920e+01 -1.024385e+01
     vertex  1.015993e+01  2.112920e+01 -1.024385e+01
   endloop
 endfacet
 facet normal  3.073123e-09  1.000000e+00  0.000000e+00
   outer loop
     vertex  2.015993e+01  2.112920e+01 -5.243852e+00
     vertex  1.015993e+01  2.112920e+01 -1.024385e+01
     vertex  1.015993e+01  2.112920e+01 -5.243852e+00
   endloop
 endfacet
 facet normal  0.000000e+00  0.000000e+00  1.000000e+00
   outer loop
     vertex  2.015993e+01  2.112920e+01 -5.243852e+00
     vertex  1.015993e+01  2.112920e+01 -5.243852e+00
     vertex  1.015993e+01  1.112920e+01 -5.243852e+00
   endloop
 endfacet
 facet normal  0.000000e+00  0.000000e+00  1.000000e+00
   outer loop
     vertex  2.015993e+01  2.112920e+01 -5.243852e+00
     vertex  1.015993e+01  1.112920e+01 -5.243852e+00
     vertex  2.015993e+01  1.112920e+01 -5.243852e+00
   endloop
 endfacet
 facet normal  0.000000e+00  0.000000e+00 -1.000000e+00
   outer loop
     vertex  2.015993e+01  2.112920e+01 -1.024385e+01
     vertex  2.015993e+01  1.112920e+01 -1.024385e+01
     vertex  1.015993e+01  1.112920e+01 -1.024385e+01
   endloop
 endfacet
 facet normal -0.000000e+00  0.000000e+00 -1.000000e+00
   outer loop
     vertex  2.015993e+01  2.112920e+01 -1.024385e+01
     vertex  1.015993e+01  1.112920e+01 -1.024385e+01
     vertex  1.015993e+01  2.112920e+01 -1.024385e+01
   endloop
 endfacet
 facet normal  3.073123e-09  1.000000e+00  0.000000e+00
   outer loop
     vertex  3.015993e+01  3.112920e+01 -5.243852e+00
     vertex  1.515993e+01  3.112920e+01 -5.243852e+00
     vertex  1.515993e+01  3.112920e+01 -1.243852e+00
   endloop
 endfacet
 facet normal  3.073123e-09  1.000000e+00  0.000000e+00
   outer loop
     vertex  3.015993e+01  3.112920e+01 -1.243852e+00
     vertex  3.015993e+01  3.112920e+01 -5.243852e+00
     vertex  1.515993e+01  3.112920e+01 -1.243852e+00
   endloop
 endfacet
 facet normal -1.000000e+00  3.073123e-09  0.000000e+00
   outer loop
     vertex  1.515993e+01  3.112920e+01 -5.243852e+00
     vertex  1.515993e+01  1.612920e+01 -1.243852e+00
     vertex  1.515993e+01  3.112920e+01 -1.243852e+00
   endloop
 endfacet
 facet normal -1.000000e+00  3.073123e-09  0.000000e+00
   outer loop
     vertex  1.515993e+01  3.112920e+01 -5.243852e+00
     vertex  1.515993e+01  1.612920e+01 -5.243852e+00
     vertex  1.515993e+01  1.612920e+01 -1.243852e+00
   endloop
 endfacet
 facet normal -3.073123e-09 -1.000000e+00  0.000000e+00
   outer loop
     vertex  3.015993e+01  1.612920e+01 -5.243852e+00
     vertex  1.515993e+01  1.612920e+01 -1.243852e+00
     vertex  1.515993e+01  1.612920e+01 -5.243852e+00
   endloop
 endfacet
 facet normal -3.073123e-09 -1.000000e+00 -0.000000e+00
   outer loop
     vertex  3.015993e+01  1.612920e+01 -1.243852e+00
     vertex  1.515993e+01  1.612920e+01 -1.243852e+00
     vertex  3.015993e+01  1.612920e+01 -5.243852e+00
   endloop
 endfacet
 facet normal  1.000000e+00 -3.073123e-09  0.000000e+00
   outer loop
     vertex  3.015993e+01  3.112920e+01 -5.243852e+00
     vertex  3.015993e+01  3.112920e+01 -1.243852e+00
     vertex  3.015993e+01  1.612920e+01 -1.243852e+00
   endloop
 endfacet
 facet normal  1.000000e+00 -3.073123e-09  0.000000e+00
   outer loop
     vertex  3.015993e+01  3.112920e+01 -5.243852e+00
     vertex  3.015993e+01  1.612920e+01 -1.243852e+00
     vertex  3.015993e+01  1.612920e+01 -5.243852e+00
   endloop
 endfacet
 facet normal  0.000000e+00  0.000000e+00  1.000000e+00
   outer loop
     vertex  3.015993e+01  3.112920e+01 -1.243852e+00
     vertex  1.515993e+01  3.112920e+01 -1.243852e+00
     vertex  1.515993e+01  1.612920e+01 -1.243852e+00
   endloop
 endfacet
 facet normal  0.000000e+00  0.000000e+00  1.000000e+00
   outer loop
     vertex  3.015993e+01  3.112920e+01 -1.243852e+00
     vertex  1.515993e+01  1.612920e+01 -1.243852e+00
     vertex  3.015993e+01  1.612920e+01 -1.243852e+00
   endloop
 endfacet
 facet normal -0.000000e+00  0.000000e+00 -1.000000e+00
   outer loop
     vertex  3.015993e+01  3.112920e+01 -5.243852e+00
     vertex  1.515993e+01  1.612920e+01 -5.243852e+00
     vertex  1.515993e+01  3.112920e+01 -5.243852e+00
   endloop
 endfacet
 facet normal  0.000000e+00  0.000000e+00 -1.000000e+00
   outer loop
     vertex  3.015993e+01  3.112920e+01 -5.243852e+00
     vertex  3.015993e+01  1.612920e+01 -5.243852e+00
     vertex  1.515993e+01  1.612920e+01 -5.243852e+00
   endloop
 endfacet
endsolid
