solid 
 facet normal  1.205367e-01  0.000000e+00 -9.927089e-01
   outer loop
     vertex -4.786313e-02  0.000000e+00  1.941884e-01
     vertex  0.000000e+00  2.000000e+00  2.000000e-01
     vertex  0.000000e+00  0.000000e+00  2.000000e-01
   endloop
 endfacet
 facet normal  1.205367e-01  0.000000e+00 -9.927089e-01
   outer loop
     vertex -4.786313e-02  0.000000e+00  1.941884e-01
     vertex -4.786313e-02  2.000000e+00  1.941884e-01
     vertex  0.000000e+00  2.000000e+00  2.000000e-01
   endloop
 endfacet
 facet normal  3.546049e-01  0.000000e+00 -9.350162e-01
   outer loop
     vertex -9.294463e-02  0.000000e+00  1.770912e-01
     vertex -9.294463e-02  2.000000e+00  1.770912e-01
     vertex -4.786313e-02  2.000000e+00  1.941884e-01
   endloop
 endfacet
 facet normal  3.546049e-01  0.000000e+00 -9.350162e-01
   outer loop
     vertex -9.294463e-02  0.000000e+00  1.770912e-01
     vertex -4.786313e-02  2.000000e+00  1.941884e-01
     vertex -4.786313e-02  0.000000e+00  1.941884e-01
   endloop
 endfacet
 facet normal  5.680647e-01 -7.309565e-16 -8.229839e-01
   outer loop
     vertex -1.326245e-01  0.000000e+00  1.497021e-01
     vertex -1.326245e-01  2.000000e+00  1.497021e-01
     vertex -9.294463e-02  2.000000e+00  1.770912e-01
   endloop
 endfacet
 facet normal  5.680647e-01  0.000000e+00 -8.229839e-01
   outer loop
     vertex -1.326245e-01  0.000000e+00  1.497021e-01
     vertex -9.294463e-02  2.000000e+00  1.770912e-01
     vertex -9.294463e-02  0.000000e+00  1.770912e-01
   endloop
 endfacet
 facet normal  7.485107e-01  0.000000e+00 -6.631227e-01
   outer loop
     vertex -1.645968e-01  0.000000e+00  1.136129e-01
     vertex -1.645968e-01  2.000000e+00  1.136129e-01
     vertex -1.326245e-01  2.000000e+00  1.497021e-01
   endloop
 endfacet
 facet normal  7.485107e-01 -5.891588e-16 -6.631227e-01
   outer loop
     vertex -1.645968e-01  0.000000e+00  1.136129e-01
     vertex -1.326245e-01  2.000000e+00  1.497021e-01
     vertex -1.326245e-01  0.000000e+00  1.497021e-01
   endloop
 endfacet
 facet normal  8.854560e-01  0.000000e+00 -4.647232e-01
   outer loop
     vertex -1.870032e-01  0.000000e+00  7.092098e-02
     vertex -1.870032e-01  2.000000e+00  7.092098e-02
     vertex -1.645968e-01  2.000000e+00  1.136129e-01
   endloop
 endfacet
 facet normal  8.854560e-01  0.000000e+00 -4.647232e-01
   outer loop
     vertex -1.870032e-01  0.000000e+00  7.092098e-02
     vertex -1.645968e-01  2.000000e+00  1.136129e-01
     vertex -1.645968e-01  0.000000e+00  1.136129e-01
   endloop
 endfacet
 facet normal  9.709418e-01  0.000000e+00 -2.393157e-01
   outer loop
     vertex -1.985418e-01  0.000000e+00  2.410734e-02
     vertex -1.985418e-01  2.000000e+00  2.410734e-02
     vertex -1.870032e-01  2.000000e+00  7.092098e-02
   endloop
 endfacet
 facet normal  9.709418e-01  0.000000e+00 -2.393157e-01
   outer loop
     vertex -1.985418e-01  0.000000e+00  2.410734e-02
     vertex -1.870032e-01  2.000000e+00  7.092098e-02
     vertex -1.870032e-01  0.000000e+00  7.092098e-02
   endloop
 endfacet
 facet normal  1.000000e+00  0.000000e+00  0.000000e+00
   outer loop
     vertex -1.985418e-01  0.000000e+00 -2.410734e-02
     vertex -1.985418e-01  2.000000e+00 -2.410734e-02
     vertex -1.985418e-01  2.000000e+00  2.410734e-02
   endloop
 endfacet
 facet normal  1.000000e+00  0.000000e+00  0.000000e+00
   outer loop
     vertex -1.985418e-01  0.000000e+00 -2.410734e-02
     vertex -1.985418e-01  2.000000e+00  2.410734e-02
     vertex -1.985418e-01  0.000000e+00  2.410734e-02
   endloop
 endfacet
 facet normal  9.709418e-01 -0.000000e+00  2.393157e-01
   outer loop
     vertex -1.870032e-01  0.000000e+00 -7.092098e-02
     vertex -1.870032e-01  2.000000e+00 -7.092098e-02
     vertex -1.985418e-01  2.000000e+00 -2.410734e-02
   endloop
 endfacet
 facet normal  9.709418e-01  0.000000e+00  2.393157e-01
   outer loop
     vertex -1.870032e-01  0.000000e+00 -7.092098e-02
     vertex -1.985418e-01  2.000000e+00 -2.410734e-02
     vertex -1.985418e-01  0.000000e+00 -2.410734e-02
   endloop
 endfacet
 facet normal  8.854560e-01 -0.000000e+00  4.647232e-01
   outer loop
     vertex -1.645968e-01  0.000000e+00 -1.136129e-01
     vertex -1.645968e-01  2.000000e+00 -1.136129e-01
     vertex -1.870032e-01  2.000000e+00 -7.092098e-02
   endloop
 endfacet
 facet normal  8.854560e-01  0.000000e+00  4.647232e-01
   outer loop
     vertex -1.645968e-01  0.000000e+00 -1.136129e-01
     vertex -1.870032e-01  2.000000e+00 -7.092098e-02
     vertex -1.870032e-01  0.000000e+00 -7.092098e-02
   endloop
 endfacet
 facet normal  7.485107e-01  5.889712e-16  6.631227e-01
   outer loop
     vertex -1.326245e-01  0.000000e+00 -1.497021e-01
     vertex -1.326245e-01  2.000000e+00 -1.497021e-01
     vertex -1.645968e-01  2.000000e+00 -1.136129e-01
   endloop
 endfacet
 facet normal  7.485107e-01  0.000000e+00  6.631227e-01
   outer loop
     vertex -1.326245e-01  0.000000e+00 -1.497021e-01
     vertex -1.645968e-01  2.000000e+00 -1.136129e-01
     vertex -1.645968e-01  0.000000e+00 -1.136129e-01
   endloop
 endfacet
 facet normal  5.680647e-01 -0.000000e+00  8.229839e-01
   outer loop
     vertex -9.294463e-02  0.000000e+00 -1.770912e-01
     vertex -9.294463e-02  2.000000e+00 -1.770912e-01
     vertex -1.326245e-01  2.000000e+00 -1.497021e-01
   endloop
 endfacet
 facet normal  5.680647e-01  7.308267e-16  8.229839e-01
   outer loop
     vertex -9.294463e-02  0.000000e+00 -1.770912e-01
     vertex -1.326245e-01  2.000000e+00 -1.497021e-01
     vertex -1.326245e-01  0.000000e+00 -1.497021e-01
   endloop
 endfacet
 facet normal  3.546049e-01  0.000000e+00  9.350162e-01
   outer loop
     vertex -4.786313e-02  0.000000e+00 -1.941884e-01
     vertex -9.294463e-02  2.000000e+00 -1.770912e-01
     vertex -9.294463e-02  0.000000e+00 -1.770912e-01
   endloop
 endfacet
 facet normal  3.546049e-01 -0.000000e+00  9.350162e-01
   outer loop
     vertex -4.786313e-02  0.000000e+00 -1.941884e-01
     vertex -4.786313e-02  2.000000e+00 -1.941884e-01
     vertex -9.294463e-02  2.000000e+00 -1.770912e-01
   endloop
 endfacet
 facet normal  1.205367e-01 -0.000000e+00  9.927089e-01
   outer loop
     vertex -4.786313e-02  0.000000e+00 -1.941884e-01
     vertex -8.881784e-16  2.000000e+00 -2.000000e-01
     vertex -4.786313e-02  2.000000e+00 -1.941884e-01
   endloop
 endfacet
 facet normal  1.205367e-01  8.817026e-16  9.927089e-01
   outer loop
     vertex -8.881784e-16  0.000000e+00 -2.000000e-01
     vertex -8.881784e-16  2.000000e+00 -2.000000e-01
     vertex -4.786313e-02  0.000000e+00 -1.941884e-01
   endloop
 endfacet
 facet normal -1.205367e-01  8.820516e-16  9.927089e-01
   outer loop
     vertex  4.786313e-02  0.000000e+00 -1.941884e-01
     vertex -8.881784e-16  2.000000e+00 -2.000000e-01
     vertex -8.881784e-16  0.000000e+00 -2.000000e-01
   endloop
 endfacet
 facet normal -1.205367e-01  0.000000e+00  9.927089e-01
   outer loop
     vertex  4.786313e-02  0.000000e+00 -1.941884e-01
     vertex  4.786313e-02  2.000000e+00 -1.941884e-01
     vertex -8.881784e-16  2.000000e+00 -2.000000e-01
   endloop
 endfacet
 facet normal -3.546049e-01  0.000000e+00  9.350162e-01
   outer loop
     vertex  9.294463e-02  0.000000e+00 -1.770912e-01
     vertex  4.786313e-02  2.000000e+00 -1.941884e-01
     vertex  4.786313e-02  0.000000e+00 -1.941884e-01
   endloop
 endfacet
 facet normal -3.546049e-01  0.000000e+00  9.350162e-01
   outer loop
     vertex  9.294463e-02  0.000000e+00 -1.770912e-01
     vertex  9.294463e-02  2.000000e+00 -1.770912e-01
     vertex  4.786313e-02  2.000000e+00 -1.941884e-01
   endloop
 endfacet
 facet normal -5.680647e-01  0.000000e+00  8.229839e-01
   outer loop
     vertex  9.294463e-02  0.000000e+00 -1.770912e-01
     vertex  1.326245e-01  2.000000e+00 -1.497021e-01
     vertex  9.294463e-02  2.000000e+00 -1.770912e-01
   endloop
 endfacet
 facet normal -5.680647e-01  0.000000e+00  8.229839e-01
   outer loop
     vertex  1.326245e-01  0.000000e+00 -1.497021e-01
     vertex  1.326245e-01  2.000000e+00 -1.497021e-01
     vertex  9.294463e-02  0.000000e+00 -1.770912e-01
   endloop
 endfacet
 facet normal -7.485107e-01  0.000000e+00  6.631227e-01
   outer loop
     vertex  1.326245e-01  0.000000e+00 -1.497021e-01
     vertex  1.645968e-01  2.000000e+00 -1.136129e-01
     vertex  1.326245e-01  2.000000e+00 -1.497021e-01
   endloop
 endfacet
 facet normal -7.485107e-01  0.000000e+00  6.631227e-01
   outer loop
     vertex  1.645968e-01  0.000000e+00 -1.136129e-01
     vertex  1.645968e-01  2.000000e+00 -1.136129e-01
     vertex  1.326245e-01  0.000000e+00 -1.497021e-01
   endloop
 endfacet
 facet normal -8.854560e-01  0.000000e+00  4.647232e-01
   outer loop
     vertex  1.870032e-01  0.000000e+00 -7.092098e-02
     vertex  1.645968e-01  2.000000e+00 -1.136129e-01
     vertex  1.645968e-01  0.000000e+00 -1.136129e-01
   endloop
 endfacet
 facet normal -8.854560e-01  4.127571e-16  4.647232e-01
   outer loop
     vertex  1.870032e-01  0.000000e+00 -7.092098e-02
     vertex  1.870032e-01  2.000000e+00 -7.092098e-02
     vertex  1.645968e-01  2.000000e+00 -1.136129e-01
   endloop
 endfacet
 facet normal -9.709418e-01  2.125019e-16  2.393157e-01
   outer loop
     vertex  1.985418e-01  0.000000e+00 -2.410734e-02
     vertex  1.870032e-01  2.000000e+00 -7.092098e-02
     vertex  1.870032e-01  0.000000e+00 -7.092098e-02
   endloop
 endfacet
 facet normal -9.709418e-01  0.000000e+00  2.393157e-01
   outer loop
     vertex  1.985418e-01  0.000000e+00 -2.410734e-02
     vertex  1.985418e-01  2.000000e+00 -2.410734e-02
     vertex  1.870032e-01  2.000000e+00 -7.092098e-02
   endloop
 endfacet
 facet normal -1.000000e+00  0.000000e+00  0.000000e+00
   outer loop
     vertex  1.985418e-01  0.000000e+00  2.410734e-02
     vertex  1.985418e-01  2.000000e+00 -2.410734e-02
     vertex  1.985418e-01  0.000000e+00 -2.410734e-02
   endloop
 endfacet
 facet normal -1.000000e+00  0.000000e+00  0.000000e+00
   outer loop
     vertex  1.985418e-01  0.000000e+00  2.410734e-02
     vertex  1.985418e-01  2.000000e+00  2.410734e-02
     vertex  1.985418e-01  2.000000e+00 -2.410734e-02
   endloop
 endfacet
 facet normal -9.709418e-01  0.000000e+00 -2.393157e-01
   outer loop
     vertex  1.870032e-01  0.000000e+00  7.092098e-02
     vertex  1.985418e-01  2.000000e+00  2.410734e-02
     vertex  1.985418e-01  0.000000e+00  2.410734e-02
   endloop
 endfacet
 facet normal -9.709418e-01 -2.125550e-16 -2.393157e-01
   outer loop
     vertex  1.870032e-01  0.000000e+00  7.092098e-02
     vertex  1.870032e-01  2.000000e+00  7.092098e-02
     vertex  1.985418e-01  2.000000e+00  2.410734e-02
   endloop
 endfacet
 facet normal -8.854560e-01 -4.126360e-16 -4.647232e-01
   outer loop
     vertex  1.645968e-01  0.000000e+00  1.136129e-01
     vertex  1.870032e-01  2.000000e+00  7.092098e-02
     vertex  1.870032e-01  0.000000e+00  7.092098e-02
   endloop
 endfacet
 facet normal -8.854560e-01  0.000000e+00 -4.647232e-01
   outer loop
     vertex  1.645968e-01  0.000000e+00  1.136129e-01
     vertex  1.645968e-01  2.000000e+00  1.136129e-01
     vertex  1.870032e-01  2.000000e+00  7.092098e-02
   endloop
 endfacet
 facet normal -7.485107e-01  0.000000e+00 -6.631227e-01
   outer loop
     vertex  1.326245e-01  0.000000e+00  1.497021e-01
     vertex  1.645968e-01  2.000000e+00  1.136129e-01
     vertex  1.645968e-01  0.000000e+00  1.136129e-01
   endloop
 endfacet
 facet normal -7.485107e-01  0.000000e+00 -6.631227e-01
   outer loop
     vertex  1.326245e-01  0.000000e+00  1.497021e-01
     vertex  1.326245e-01  2.000000e+00  1.497021e-01
     vertex  1.645968e-01  2.000000e+00  1.136129e-01
   endloop
 endfacet
 facet normal -5.680647e-01  0.000000e+00 -8.229839e-01
   outer loop
     vertex  9.294463e-02  0.000000e+00  1.770912e-01
     vertex  9.294463e-02  2.000000e+00  1.770912e-01
     vertex  1.326245e-01  2.000000e+00  1.497021e-01
   endloop
 endfacet
 facet normal -5.680647e-01  0.000000e+00 -8.229839e-01
   outer loop
     vertex  9.294463e-02  0.000000e+00  1.770912e-01
     vertex  1.326245e-01  2.000000e+00  1.497021e-01
     vertex  1.326245e-01  0.000000e+00  1.497021e-01
   endloop
 endfacet
 facet normal -3.546049e-01  0.000000e+00 -9.350162e-01
   outer loop
     vertex  4.786313e-02  0.000000e+00  1.941884e-01
     vertex  4.786313e-02  2.000000e+00  1.941884e-01
     vertex  9.294463e-02  2.000000e+00  1.770912e-01
   endloop
 endfacet
 facet normal -3.546049e-01  0.000000e+00 -9.350162e-01
   outer loop
     vertex  4.786313e-02  0.000000e+00  1.941884e-01
     vertex  9.294463e-02  2.000000e+00  1.770912e-01
     vertex  9.294463e-02  0.000000e+00  1.770912e-01
   endloop
 endfacet
 facet normal -1.205367e-01  0.000000e+00 -9.927089e-01
   outer loop
     vertex  0.000000e+00  0.000000e+00  2.000000e-01
     vertex  4.786313e-02  2.000000e+00  1.941884e-01
     vertex  4.786313e-02  0.000000e+00  1.941884e-01
   endloop
 endfacet
 facet normal -1.205367e-01  0.000000e+00 -9.927089e-01
   outer loop
     vertex  0.000000e+00  0.000000e+00  2.000000e-01
     vertex  0.000000e+00  2.000000e+00  2.000000e-01
     vertex  4.786313e-02  2.000000e+00  1.941884e-01
   endloop
 endfacet
 facet normal -1.205367e-01  0.000000e+00  9.927089e-01
   outer loop
     vertex -4.786313e-01 -3.552714e-15  1.941884e+00
     vertex  0.000000e+00 -3.552714e-15  2.000000e+00
     vertex  0.000000e+00  2.000000e+00  2.000000e+00
   endloop
 endfacet
 facet normal -1.205367e-01  0.000000e+00  9.927089e-01
   outer loop
     vertex -4.786313e-01 -3.552714e-15  1.941884e+00
     vertex  0.000000e+00  2.000000e+00  2.000000e+00
     vertex -4.786313e-01  2.000000e+00  1.941884e+00
   endloop
 endfacet
 facet normal -3.546049e-01  0.000000e+00  9.350162e-01
   outer loop
     vertex -9.294463e-01 -3.552714e-15  1.770912e+00
     vertex -4.786313e-01  2.000000e+00  1.941884e+00
     vertex -9.294463e-01  2.000000e+00  1.770912e+00
   endloop
 endfacet
 facet normal -3.546049e-01  0.000000e+00  9.350162e-01
   outer loop
     vertex -9.294463e-01 -3.552714e-15  1.770912e+00
     vertex -4.786313e-01 -3.552714e-15  1.941884e+00
     vertex -4.786313e-01  2.000000e+00  1.941884e+00
   endloop
 endfacet
 facet normal -5.680647e-01  0.000000e+00  8.229839e-01
   outer loop
     vertex -1.326245e+00  0.000000e+00  1.497021e+00
     vertex -9.294463e-01  2.000000e+00  1.770912e+00
     vertex -1.326245e+00  2.000000e+00  1.497021e+00
   endloop
 endfacet
 facet normal -5.680647e-01  0.000000e+00  8.229839e-01
   outer loop
     vertex -1.326245e+00  0.000000e+00  1.497021e+00
     vertex -9.294463e-01 -3.552714e-15  1.770912e+00
     vertex -9.294463e-01  2.000000e+00  1.770912e+00
   endloop
 endfacet
 facet normal -7.485107e-01  0.000000e+00  6.631227e-01
   outer loop
     vertex -1.645968e+00  0.000000e+00  1.136129e+00
     vertex -1.326245e+00  2.000000e+00  1.497021e+00
     vertex -1.645968e+00  2.000000e+00  1.136129e+00
   endloop
 endfacet
 facet normal -7.485107e-01  0.000000e+00  6.631227e-01
   outer loop
     vertex -1.645968e+00  0.000000e+00  1.136129e+00
     vertex -1.326245e+00  0.000000e+00  1.497021e+00
     vertex -1.326245e+00  2.000000e+00  1.497021e+00
   endloop
 endfacet
 facet normal -8.854560e-01  0.000000e+00  4.647232e-01
   outer loop
     vertex -1.870032e+00  0.000000e+00  7.092098e-01
     vertex -1.645968e+00  2.000000e+00  1.136129e+00
     vertex -1.870032e+00  2.000000e+00  7.092098e-01
   endloop
 endfacet
 facet normal -8.854560e-01  0.000000e+00  4.647232e-01
   outer loop
     vertex -1.870032e+00  0.000000e+00  7.092098e-01
     vertex -1.645968e+00  0.000000e+00  1.136129e+00
     vertex -1.645968e+00  2.000000e+00  1.136129e+00
   endloop
 endfacet
 facet normal -9.709418e-01  2.125550e-16  2.393157e-01
   outer loop
     vertex -1.985418e+00  0.000000e+00  2.410734e-01
     vertex -1.870032e+00  2.000000e+00  7.092098e-01
     vertex -1.985418e+00  2.000000e+00  2.410734e-01
   endloop
 endfacet
 facet normal -9.709418e-01  0.000000e+00  2.393157e-01
   outer loop
     vertex -1.985418e+00  0.000000e+00  2.410734e-01
     vertex -1.870032e+00  0.000000e+00  7.092098e-01
     vertex -1.870032e+00  2.000000e+00  7.092098e-01
   endloop
 endfacet
 facet normal -1.000000e+00  0.000000e+00 -3.684266e-15
   outer loop
     vertex -1.985418e+00  0.000000e+00 -2.410734e-01
     vertex -1.985418e+00  2.000000e+00  2.410734e-01
     vertex -1.985418e+00  2.000000e+00 -2.410734e-01
   endloop
 endfacet
 facet normal -1.000000e+00 -3.272286e-30 -3.684266e-15
   outer loop
     vertex -1.985418e+00  0.000000e+00 -2.410734e-01
     vertex -1.985418e+00  0.000000e+00  2.410734e-01
     vertex -1.985418e+00  2.000000e+00  2.410734e-01
   endloop
 endfacet
 facet normal -9.709418e-01  0.000000e+00 -2.393157e-01
   outer loop
     vertex -1.870032e+00  0.000000e+00 -7.092098e-01
     vertex -1.985418e+00  2.000000e+00 -2.410734e-01
     vertex -1.870032e+00  2.000000e+00 -7.092098e-01
   endloop
 endfacet
 facet normal -9.709418e-01  0.000000e+00 -2.393157e-01
   outer loop
     vertex -1.870032e+00  0.000000e+00 -7.092098e-01
     vertex -1.985418e+00  0.000000e+00 -2.410734e-01
     vertex -1.985418e+00  2.000000e+00 -2.410734e-01
   endloop
 endfacet
 facet normal -8.854560e-01  0.000000e+00 -4.647232e-01
   outer loop
     vertex -1.645968e+00  0.000000e+00 -1.136129e+00
     vertex -1.870032e+00  2.000000e+00 -7.092098e-01
     vertex -1.645968e+00  2.000000e+00 -1.136129e+00
   endloop
 endfacet
 facet normal -8.854560e-01  0.000000e+00 -4.647232e-01
   outer loop
     vertex -1.645968e+00  0.000000e+00 -1.136129e+00
     vertex -1.870032e+00  0.000000e+00 -7.092098e-01
     vertex -1.870032e+00  2.000000e+00 -7.092098e-01
   endloop
 endfacet
 facet normal -7.485107e-01  0.000000e+00 -6.631227e-01
   outer loop
     vertex -1.326245e+00  0.000000e+00 -1.497021e+00
     vertex -1.645968e+00  2.000000e+00 -1.136129e+00
     vertex -1.326245e+00  2.000000e+00 -1.497021e+00
   endloop
 endfacet
 facet normal -7.485107e-01  0.000000e+00 -6.631227e-01
   outer loop
     vertex -1.326245e+00  0.000000e+00 -1.497021e+00
     vertex -1.645968e+00  0.000000e+00 -1.136129e+00
     vertex -1.645968e+00  2.000000e+00 -1.136129e+00
   endloop
 endfacet
 facet normal -5.680647e-01  0.000000e+00 -8.229839e-01
   outer loop
     vertex -9.294463e-01  0.000000e+00 -1.770912e+00
     vertex -1.326245e+00  0.000000e+00 -1.497021e+00
     vertex -1.326245e+00  2.000000e+00 -1.497021e+00
   endloop
 endfacet
 facet normal -5.680647e-01  0.000000e+00 -8.229839e-01
   outer loop
     vertex -9.294463e-01  0.000000e+00 -1.770912e+00
     vertex -1.326245e+00  2.000000e+00 -1.497021e+00
     vertex -9.294463e-01  2.000000e+00 -1.770912e+00
   endloop
 endfacet
 facet normal -3.546049e-01  0.000000e+00 -9.350162e-01
   outer loop
     vertex -4.786313e-01  0.000000e+00 -1.941884e+00
     vertex -9.294463e-01  0.000000e+00 -1.770912e+00
     vertex -9.294463e-01  2.000000e+00 -1.770912e+00
   endloop
 endfacet
 facet normal -3.546049e-01  0.000000e+00 -9.350162e-01
   outer loop
     vertex -4.786313e-01  0.000000e+00 -1.941884e+00
     vertex -9.294463e-01  2.000000e+00 -1.770912e+00
     vertex -4.786313e-01  2.000000e+00 -1.941884e+00
   endloop
 endfacet
 facet normal -1.205367e-01  0.000000e+00 -9.927089e-01
   outer loop
     vertex  1.776357e-15  0.000000e+00 -2.000000e+00
     vertex -4.786313e-01  0.000000e+00 -1.941884e+00
     vertex -4.786313e-01  2.000000e+00 -1.941884e+00
   endloop
 endfacet
 facet normal -1.205367e-01  0.000000e+00 -9.927089e-01
   outer loop
     vertex  1.776357e-15  0.000000e+00 -2.000000e+00
     vertex -4.786313e-01  2.000000e+00 -1.941884e+00
     vertex  1.776357e-15  2.000000e+00 -2.000000e+00
   endloop
 endfacet
 facet normal  1.205367e-01  0.000000e+00 -9.927089e-01
   outer loop
     vertex  4.786313e-01  0.000000e+00 -1.941884e+00
     vertex  1.776357e-15  0.000000e+00 -2.000000e+00
     vertex  1.776357e-15  2.000000e+00 -2.000000e+00
   endloop
 endfacet
 facet normal  3.546049e-01  0.000000e+00 -9.350162e-01
   outer loop
     vertex  4.786313e-01  0.000000e+00 -1.941884e+00
     vertex  4.786313e-01  2.000000e+00 -1.941884e+00
     vertex  9.294463e-01  2.000000e+00 -1.770912e+00
   endloop
 endfacet
 facet normal  1.205367e-01  0.000000e+00 -9.927089e-01
   outer loop
     vertex  4.786313e-01  0.000000e+00 -1.941884e+00
     vertex  1.776357e-15  2.000000e+00 -2.000000e+00
     vertex  4.786313e-01  2.000000e+00 -1.941884e+00
   endloop
 endfacet
 facet normal  3.546049e-01  0.000000e+00 -9.350162e-01
   outer loop
     vertex  9.294463e-01  0.000000e+00 -1.770912e+00
     vertex  4.786313e-01  0.000000e+00 -1.941884e+00
     vertex  9.294463e-01  2.000000e+00 -1.770912e+00
   endloop
 endfacet
 facet normal  5.680647e-01  0.000000e+00 -8.229839e-01
   outer loop
     vertex  1.326245e+00  0.000000e+00 -1.497021e+00
     vertex  9.294463e-01  0.000000e+00 -1.770912e+00
     vertex  9.294463e-01  2.000000e+00 -1.770912e+00
   endloop
 endfacet
 facet normal  5.680647e-01 -3.654783e-16 -8.229839e-01
   outer loop
     vertex  1.326245e+00  0.000000e+00 -1.497021e+00
     vertex  9.294463e-01  2.000000e+00 -1.770912e+00
     vertex  1.326245e+00  2.000000e+00 -1.497021e+00
   endloop
 endfacet
 facet normal  7.485107e-01 -3.022250e-16 -6.631227e-01
   outer loop
     vertex  1.645968e+00  0.000000e+00 -1.136129e+00
     vertex  1.326245e+00  0.000000e+00 -1.497021e+00
     vertex  1.326245e+00  2.000000e+00 -1.497021e+00
   endloop
 endfacet
 facet normal  7.485107e-01  0.000000e+00 -6.631227e-01
   outer loop
     vertex  1.645968e+00  0.000000e+00 -1.136129e+00
     vertex  1.326245e+00  2.000000e+00 -1.497021e+00
     vertex  1.645968e+00  2.000000e+00 -1.136129e+00
   endloop
 endfacet
 facet normal  8.854560e-01  0.000000e+00 -4.647232e-01
   outer loop
     vertex  1.870032e+00  0.000000e+00 -7.092098e-01
     vertex  1.645968e+00  0.000000e+00 -1.136129e+00
     vertex  1.645968e+00  2.000000e+00 -1.136129e+00
   endloop
 endfacet
 facet normal  9.709418e-01  0.000000e+00 -2.393157e-01
   outer loop
     vertex  1.870032e+00  0.000000e+00 -7.092098e-01
     vertex  1.870032e+00  2.000000e+00 -7.092098e-01
     vertex  1.985418e+00  2.000000e+00 -2.410734e-01
   endloop
 endfacet
 facet normal  8.854560e-01  0.000000e+00 -4.647232e-01
   outer loop
     vertex  1.870032e+00  0.000000e+00 -7.092098e-01
     vertex  1.645968e+00  2.000000e+00 -1.136129e+00
     vertex  1.870032e+00  2.000000e+00 -7.092098e-01
   endloop
 endfacet
 facet normal  9.709418e-01  0.000000e+00 -2.393157e-01
   outer loop
     vertex  1.985418e+00  0.000000e+00 -2.410734e-01
     vertex  1.870032e+00  0.000000e+00 -7.092098e-01
     vertex  1.985418e+00  2.000000e+00 -2.410734e-01
   endloop
 endfacet
 facet normal  1.000000e+00  0.000000e+00  0.000000e+00
   outer loop
     vertex  1.985418e+00  0.000000e+00  2.410734e-01
     vertex  1.985418e+00  2.000000e+00 -2.410734e-01
     vertex  1.985418e+00  2.000000e+00  2.410734e-01
   endloop
 endfacet
 facet normal  1.000000e+00  0.000000e+00  0.000000e+00
   outer loop
     vertex  1.985418e+00  0.000000e+00  2.410734e-01
     vertex  1.985418e+00  0.000000e+00 -2.410734e-01
     vertex  1.985418e+00  2.000000e+00 -2.410734e-01
   endloop
 endfacet
 facet normal  9.709418e-01 -0.000000e+00  2.393157e-01
   outer loop
     vertex  1.870032e+00  0.000000e+00  7.092098e-01
     vertex  1.985418e+00  2.000000e+00  2.410734e-01
     vertex  1.870032e+00  2.000000e+00  7.092098e-01
   endloop
 endfacet
 facet normal  9.709418e-01  2.158750e-16  2.393157e-01
   outer loop
     vertex  1.870032e+00  0.000000e+00  7.092098e-01
     vertex  1.985418e+00  0.000000e+00  2.410734e-01
     vertex  1.985418e+00  2.000000e+00  2.410734e-01
   endloop
 endfacet
 facet normal  7.485107e-01 -0.000000e+00  6.631227e-01
   outer loop
     vertex  1.645968e+00  0.000000e+00  1.136129e+00
     vertex  1.645968e+00  2.000000e+00  1.136129e+00
     vertex  1.326245e+00  2.000000e+00  1.497021e+00
   endloop
 endfacet
 facet normal  8.854560e-01 -0.000000e+00  4.647232e-01
   outer loop
     vertex  1.645968e+00  0.000000e+00  1.136129e+00
     vertex  1.870032e+00  2.000000e+00  7.092098e-01
     vertex  1.645968e+00  2.000000e+00  1.136129e+00
   endloop
 endfacet
 facet normal  8.854560e-01  0.000000e+00  4.647232e-01
   outer loop
     vertex  1.645968e+00  0.000000e+00  1.136129e+00
     vertex  1.870032e+00  0.000000e+00  7.092098e-01
     vertex  1.870032e+00  2.000000e+00  7.092098e-01
   endloop
 endfacet
 facet normal  7.485107e-01  5.889712e-16  6.631227e-01
   outer loop
     vertex  1.326245e+00  0.000000e+00  1.497021e+00
     vertex  1.645968e+00  0.000000e+00  1.136129e+00
     vertex  1.326245e+00  2.000000e+00  1.497021e+00
   endloop
 endfacet
 facet normal  5.680647e-01 -0.000000e+00  8.229839e-01
   outer loop
     vertex  9.294463e-01 -3.552714e-15  1.770912e+00
     vertex  1.326245e+00  2.000000e+00  1.497021e+00
     vertex  9.294463e-01  2.000000e+00  1.770912e+00
   endloop
 endfacet
 facet normal  5.680647e-01  7.339749e-16  8.229839e-01
   outer loop
     vertex  9.294463e-01 -3.552714e-15  1.770912e+00
     vertex  1.326245e+00  0.000000e+00  1.497021e+00
     vertex  1.326245e+00  2.000000e+00  1.497021e+00
   endloop
 endfacet
 facet normal  3.546049e-01 -0.000000e+00  9.350162e-01
   outer loop
     vertex  4.786313e-01 -3.552714e-15  1.941884e+00
     vertex  9.294463e-01  2.000000e+00  1.770912e+00
     vertex  4.786313e-01  2.000000e+00  1.941884e+00
   endloop
 endfacet
 facet normal  3.546049e-01  0.000000e+00  9.350162e-01
   outer loop
     vertex  4.786313e-01 -3.552714e-15  1.941884e+00
     vertex  9.294463e-01 -3.552714e-15  1.770912e+00
     vertex  9.294463e-01  2.000000e+00  1.770912e+00
   endloop
 endfacet
 facet normal  1.205367e-01 -0.000000e+00  9.927089e-01
   outer loop
     vertex  0.000000e+00 -3.552714e-15  2.000000e+00
     vertex  4.786313e-01  2.000000e+00  1.941884e+00
     vertex  0.000000e+00  2.000000e+00  2.000000e+00
   endloop
 endfacet
 facet normal  1.205367e-01  0.000000e+00  9.927089e-01
   outer loop
     vertex  0.000000e+00 -3.552714e-15  2.000000e+00
     vertex  4.786313e-01 -3.552714e-15  1.941884e+00
     vertex  4.786313e-01  2.000000e+00  1.941884e+00
   endloop
 endfacet
 facet normal  0.000000e+00  1.000000e+00  0.000000e+00
   outer loop
     vertex -1.645968e-01  2.000000e+00 -1.136129e-01
     vertex -1.326245e+00  2.000000e+00 -1.497021e+00
     vertex -1.645968e+00  2.000000e+00 -1.136129e+00
   endloop
 endfacet
 facet normal  0.000000e+00  1.000000e+00  0.000000e+00
   outer loop
     vertex -1.645968e-01  2.000000e+00 -1.136129e-01
     vertex -1.326245e-01  2.000000e+00 -1.497021e-01
     vertex -1.326245e+00  2.000000e+00 -1.497021e+00
   endloop
 endfacet
 facet normal  0.000000e+00  1.000000e+00  0.000000e+00
   outer loop
     vertex -9.294463e-02  2.000000e+00 -1.770912e-01
     vertex -9.294463e-01  2.000000e+00 -1.770912e+00
     vertex -1.326245e+00  2.000000e+00 -1.497021e+00
   endloop
 endfacet
 facet normal  0.000000e+00  1.000000e+00  0.000000e+00
   outer loop
     vertex -9.294463e-02  2.000000e+00 -1.770912e-01
     vertex -1.326245e+00  2.000000e+00 -1.497021e+00
     vertex -1.326245e-01  2.000000e+00 -1.497021e-01
   endloop
 endfacet
 facet normal  0.000000e+00  1.000000e+00  0.000000e+00
   outer loop
     vertex -1.870032e-01  2.000000e+00 -7.092098e-02
     vertex -1.645968e+00  2.000000e+00 -1.136129e+00
     vertex -1.870032e+00  2.000000e+00 -7.092098e-01
   endloop
 endfacet
 facet normal  0.000000e+00  1.000000e+00  0.000000e+00
   outer loop
     vertex -1.870032e-01  2.000000e+00 -7.092098e-02
     vertex -1.645968e-01  2.000000e+00 -1.136129e-01
     vertex -1.645968e+00  2.000000e+00 -1.136129e+00
   endloop
 endfacet
 facet normal  0.000000e+00  1.000000e+00  0.000000e+00
   outer loop
     vertex -4.786313e-02  2.000000e+00 -1.941884e-01
     vertex -4.786313e-01  2.000000e+00 -1.941884e+00
     vertex -9.294463e-01  2.000000e+00 -1.770912e+00
   endloop
 endfacet
 facet normal  0.000000e+00  1.000000e+00  0.000000e+00
   outer loop
     vertex -4.786313e-02  2.000000e+00 -1.941884e-01
     vertex -9.294463e-01  2.000000e+00 -1.770912e+00
     vertex -9.294463e-02  2.000000e+00 -1.770912e-01
   endloop
 endfacet
 facet normal  0.000000e+00  1.000000e+00  0.000000e+00
   outer loop
     vertex -1.985418e-01  2.000000e+00 -2.410734e-02
     vertex -1.870032e+00  2.000000e+00 -7.092098e-01
     vertex -1.985418e+00  2.000000e+00 -2.410734e-01
   endloop
 endfacet
 facet normal  0.000000e+00  1.000000e+00  0.000000e+00
   outer loop
     vertex -1.985418e-01  2.000000e+00 -2.410734e-02
     vertex -1.870032e-01  2.000000e+00 -7.092098e-02
     vertex -1.870032e+00  2.000000e+00 -7.092098e-01
   endloop
 endfacet
 facet normal  0.000000e+00  1.000000e+00  0.000000e+00
   outer loop
     vertex -8.881784e-16  2.000000e+00 -2.000000e-01
     vertex  1.776357e-15  2.000000e+00 -2.000000e+00
     vertex -4.786313e-01  2.000000e+00 -1.941884e+00
   endloop
 endfacet
 facet normal  0.000000e+00  1.000000e+00  0.000000e+00
   outer loop
     vertex -8.881784e-16  2.000000e+00 -2.000000e-01
     vertex -4.786313e-01  2.000000e+00 -1.941884e+00
     vertex -4.786313e-02  2.000000e+00 -1.941884e-01
   endloop
 endfacet
 facet normal  0.000000e+00  1.000000e+00  0.000000e+00
   outer loop
     vertex -1.985418e-01  2.000000e+00  2.410734e-02
     vertex -1.985418e+00  2.000000e+00 -2.410734e-01
     vertex -1.985418e+00  2.000000e+00  2.410734e-01
   endloop
 endfacet
 facet normal  0.000000e+00  1.000000e+00  0.000000e+00
   outer loop
     vertex -1.985418e-01  2.000000e+00  2.410734e-02
     vertex -1.985418e-01  2.000000e+00 -2.410734e-02
     vertex -1.985418e+00  2.000000e+00 -2.410734e-01
   endloop
 endfacet
 facet normal  0.000000e+00  1.000000e+00  0.000000e+00
   outer loop
     vertex  4.786313e-02  2.000000e+00 -1.941884e-01
     vertex  4.786313e-01  2.000000e+00 -1.941884e+00
     vertex  1.776357e-15  2.000000e+00 -2.000000e+00
   endloop
 endfacet
 facet normal  0.000000e+00  1.000000e+00  0.000000e+00
   outer loop
     vertex  4.786313e-02  2.000000e+00 -1.941884e-01
     vertex  1.776357e-15  2.000000e+00 -2.000000e+00
     vertex -8.881784e-16  2.000000e+00 -2.000000e-01
   endloop
 endfacet
 facet normal  0.000000e+00  1.000000e+00  0.000000e+00
   outer loop
     vertex -1.870032e-01  2.000000e+00  7.092098e-02
     vertex -1.985418e+00  2.000000e+00  2.410734e-01
     vertex -1.870032e+00  2.000000e+00  7.092098e-01
   endloop
 endfacet
 facet normal  0.000000e+00  1.000000e+00  0.000000e+00
   outer loop
     vertex -1.870032e-01  2.000000e+00  7.092098e-02
     vertex -1.985418e-01  2.000000e+00  2.410734e-02
     vertex -1.985418e+00  2.000000e+00  2.410734e-01
   endloop
 endfacet
 facet normal  0.000000e+00  1.000000e+00  0.000000e+00
   outer loop
     vertex  9.294463e-02  2.000000e+00 -1.770912e-01
     vertex  9.294463e-01  2.000000e+00 -1.770912e+00
     vertex  4.786313e-01  2.000000e+00 -1.941884e+00
   endloop
 endfacet
 facet normal  0.000000e+00  1.000000e+00  0.000000e+00
   outer loop
     vertex  9.294463e-02  2.000000e+00 -1.770912e-01
     vertex  4.786313e-01  2.000000e+00 -1.941884e+00
     vertex  4.786313e-02  2.000000e+00 -1.941884e-01
   endloop
 endfacet
 facet normal  0.000000e+00  1.000000e+00  0.000000e+00
   outer loop
     vertex -1.645968e-01  2.000000e+00  1.136129e-01
     vertex -1.870032e+00  2.000000e+00  7.092098e-01
     vertex -1.645968e+00  2.000000e+00  1.136129e+00
   endloop
 endfacet
 facet normal  0.000000e+00  1.000000e+00  0.000000e+00
   outer loop
     vertex -1.645968e-01  2.000000e+00  1.136129e-01
     vertex -1.870032e-01  2.000000e+00  7.092098e-02
     vertex -1.870032e+00  2.000000e+00  7.092098e-01
   endloop
 endfacet
 facet normal  0.000000e+00  1.000000e+00  0.000000e+00
   outer loop
     vertex  1.326245e-01  2.000000e+00 -1.497021e-01
     vertex  1.326245e+00  2.000000e+00 -1.497021e+00
     vertex  9.294463e-01  2.000000e+00 -1.770912e+00
   endloop
 endfacet
 facet normal  0.000000e+00  1.000000e+00  0.000000e+00
   outer loop
     vertex  1.326245e-01  2.000000e+00 -1.497021e-01
     vertex  9.294463e-01  2.000000e+00 -1.770912e+00
     vertex  9.294463e-02  2.000000e+00 -1.770912e-01
   endloop
 endfacet
 facet normal  0.000000e+00  1.000000e+00  0.000000e+00
   outer loop
     vertex -1.326245e+00  2.000000e+00  1.497021e+00
     vertex -1.645968e-01  2.000000e+00  1.136129e-01
     vertex -1.645968e+00  2.000000e+00  1.136129e+00
   endloop
 endfacet
 facet normal  0.000000e+00  1.000000e+00  0.000000e+00
   outer loop
     vertex -1.326245e+00  2.000000e+00  1.497021e+00
     vertex -9.294463e-02  2.000000e+00  1.770912e-01
     vertex -1.326245e-01  2.000000e+00  1.497021e-01
   endloop
 endfacet
 facet normal  0.000000e+00  1.000000e+00  0.000000e+00
   outer loop
     vertex -1.326245e+00  2.000000e+00  1.497021e+00
     vertex -1.326245e-01  2.000000e+00  1.497021e-01
     vertex -1.645968e-01  2.000000e+00  1.136129e-01
   endloop
 endfacet
 facet normal  0.000000e+00  1.000000e+00  0.000000e+00
   outer loop
     vertex  1.645968e+00  2.000000e+00 -1.136129e+00
     vertex  1.326245e+00  2.000000e+00 -1.497021e+00
     vertex  1.326245e-01  2.000000e+00 -1.497021e-01
   endloop
 endfacet
 facet normal  0.000000e+00  1.000000e+00  0.000000e+00
   outer loop
     vertex  1.645968e+00  2.000000e+00 -1.136129e+00
     vertex  1.326245e-01  2.000000e+00 -1.497021e-01
     vertex  1.645968e-01  2.000000e+00 -1.136129e-01
   endloop
 endfacet
 facet normal  0.000000e+00  1.000000e+00  0.000000e+00
   outer loop
     vertex  1.645968e+00  2.000000e+00 -1.136129e+00
     vertex  1.645968e-01  2.000000e+00 -1.136129e-01
     vertex  1.870032e-01  2.000000e+00 -7.092098e-02
   endloop
 endfacet
 facet normal  5.442991e-15  1.000000e+00  5.085756e-15
   outer loop
     vertex -9.294463e-01  2.000000e+00  1.770912e+00
     vertex -9.294463e-02  2.000000e+00  1.770912e-01
     vertex -1.326245e+00  2.000000e+00  1.497021e+00
   endloop
 endfacet
 facet normal  0.000000e+00  1.000000e+00  0.000000e+00
   outer loop
     vertex  1.870032e+00  2.000000e+00 -7.092098e-01
     vertex  1.645968e+00  2.000000e+00 -1.136129e+00
     vertex  1.870032e-01  2.000000e+00 -7.092098e-02
   endloop
 endfacet
 facet normal -7.050347e-16  1.000000e+00  1.859024e-15
   outer loop
     vertex -4.786313e-01  2.000000e+00  1.941884e+00
     vertex -9.294463e-02  2.000000e+00  1.770912e-01
     vertex -9.294463e-01  2.000000e+00  1.770912e+00
   endloop
 endfacet
 facet normal -2.396542e-16  1.000000e+00  1.973730e-15
   outer loop
     vertex -4.786313e-01  2.000000e+00  1.941884e+00
     vertex  0.000000e+00  2.000000e+00  2.000000e-01
     vertex -4.786313e-02  2.000000e+00  1.941884e-01
   endloop
 endfacet
 facet normal -7.050347e-16  1.000000e+00  1.859024e-15
   outer loop
     vertex -4.786313e-01  2.000000e+00  1.941884e+00
     vertex -4.786313e-02  2.000000e+00  1.941884e-01
     vertex -9.294463e-02  2.000000e+00  1.770912e-01
   endloop
 endfacet
 facet normal  0.000000e+00  1.000000e+00  0.000000e+00
   outer loop
     vertex  1.985418e+00  2.000000e+00 -2.410734e-01
     vertex  1.870032e+00  2.000000e+00 -7.092098e-01
     vertex  1.870032e-01  2.000000e+00 -7.092098e-02
   endloop
 endfacet
 facet normal  0.000000e+00  1.000000e+00  0.000000e+00
   outer loop
     vertex  1.985418e+00  2.000000e+00 -2.410734e-01
     vertex  1.870032e-01  2.000000e+00 -7.092098e-02
     vertex  1.985418e-01  2.000000e+00 -2.410734e-02
   endloop
 endfacet
 facet normal  0.000000e+00  1.000000e+00  0.000000e+00
   outer loop
     vertex  1.985418e+00  2.000000e+00 -2.410734e-01
     vertex  1.985418e-01  2.000000e+00 -2.410734e-02
     vertex  1.985418e-01  2.000000e+00  2.410734e-02
   endloop
 endfacet
 facet normal -2.396542e-16  1.000000e+00  1.973730e-15
   outer loop
     vertex  0.000000e+00  2.000000e+00  2.000000e+00
     vertex  0.000000e+00  2.000000e+00  2.000000e-01
     vertex -4.786313e-01  2.000000e+00  1.941884e+00
   endloop
 endfacet
 facet normal  0.000000e+00  1.000000e+00  0.000000e+00
   outer loop
     vertex  1.985418e+00  2.000000e+00  2.410734e-01
     vertex  1.985418e+00  2.000000e+00 -2.410734e-01
     vertex  1.985418e-01  2.000000e+00  2.410734e-02
   endloop
 endfacet
 facet normal  2.396542e-16  1.000000e+00  1.973730e-15
   outer loop
     vertex  4.786313e-01  2.000000e+00  1.941884e+00
     vertex  0.000000e+00  2.000000e+00  2.000000e-01
     vertex  0.000000e+00  2.000000e+00  2.000000e+00
   endloop
 endfacet
 facet normal  2.396542e-16  1.000000e+00  1.973730e-15
   outer loop
     vertex  4.786313e-01  2.000000e+00  1.941884e+00
     vertex  4.786313e-02  2.000000e+00  1.941884e-01
     vertex  0.000000e+00  2.000000e+00  2.000000e-01
   endloop
 endfacet
 facet normal  0.000000e+00  1.000000e+00  0.000000e+00
   outer loop
     vertex  1.870032e+00  2.000000e+00  7.092098e-01
     vertex  1.985418e+00  2.000000e+00  2.410734e-01
     vertex  1.985418e-01  2.000000e+00  2.410734e-02
   endloop
 endfacet
 facet normal  0.000000e+00  1.000000e+00  0.000000e+00
   outer loop
     vertex  1.870032e+00  2.000000e+00  7.092098e-01
     vertex  1.985418e-01  2.000000e+00  2.410734e-02
     vertex  1.870032e-01  2.000000e+00  7.092098e-02
   endloop
 endfacet
 facet normal  1.129441e-15  1.000000e+00  1.636278e-15
   outer loop
     vertex  9.294463e-01  2.000000e+00  1.770912e+00
     vertex  1.326245e-01  2.000000e+00  1.497021e-01
     vertex  9.294463e-02  2.000000e+00  1.770912e-01
   endloop
 endfacet
 facet normal  7.050347e-16  1.000000e+00  1.859024e-15
   outer loop
     vertex  9.294463e-01  2.000000e+00  1.770912e+00
     vertex  4.786313e-02  2.000000e+00  1.941884e-01
     vertex  4.786313e-01  2.000000e+00  1.941884e+00
   endloop
 endfacet
 facet normal  7.050347e-16  1.000000e+00  1.859024e-15
   outer loop
     vertex  9.294463e-01  2.000000e+00  1.770912e+00
     vertex  9.294463e-02  2.000000e+00  1.770912e-01
     vertex  4.786313e-02  2.000000e+00  1.941884e-01
   endloop
 endfacet
 facet normal  0.000000e+00  1.000000e+00  0.000000e+00
   outer loop
     vertex  1.645968e+00  2.000000e+00  1.136129e+00
     vertex  1.870032e-01  2.000000e+00  7.092098e-02
     vertex  1.645968e-01  2.000000e+00  1.136129e-01
   endloop
 endfacet
 facet normal  0.000000e+00  1.000000e+00  0.000000e+00
   outer loop
     vertex  1.645968e+00  2.000000e+00  1.136129e+00
     vertex  1.870032e+00  2.000000e+00  7.092098e-01
     vertex  1.870032e-01  2.000000e+00  7.092098e-02
   endloop
 endfacet
 facet normal  0.000000e+00  1.000000e+00  0.000000e+00
   outer loop
     vertex  1.645968e+00  2.000000e+00  1.136129e+00
     vertex  1.645968e-01  2.000000e+00  1.136129e-01
     vertex  1.326245e-01  2.000000e+00  1.497021e-01
   endloop
 endfacet
 facet normal -5.555935e-15  1.000000e+00  4.922129e-15
   outer loop
     vertex  1.326245e+00  2.000000e+00  1.497021e+00
     vertex  1.326245e-01  2.000000e+00  1.497021e-01
     vertex  9.294463e-01  2.000000e+00  1.770912e+00
   endloop
 endfacet
 facet normal  0.000000e+00  1.000000e+00  0.000000e+00
   outer loop
     vertex  1.326245e+00  2.000000e+00  1.497021e+00
     vertex  1.645968e+00  2.000000e+00  1.136129e+00
     vertex  1.326245e-01  2.000000e+00  1.497021e-01
   endloop
 endfacet
 facet normal  0.000000e+00 -1.000000e+00  0.000000e+00
   outer loop
     vertex -1.645968e-01  0.000000e+00 -1.136129e-01
     vertex -1.645968e+00  0.000000e+00 -1.136129e+00
     vertex -1.326245e+00  0.000000e+00 -1.497021e+00
   endloop
 endfacet
 facet normal  0.000000e+00 -1.000000e+00 -0.000000e+00
   outer loop
     vertex -1.645968e-01  0.000000e+00 -1.136129e-01
     vertex -1.326245e+00  0.000000e+00 -1.497021e+00
     vertex -1.326245e-01  0.000000e+00 -1.497021e-01
   endloop
 endfacet
 facet normal  0.000000e+00 -1.000000e+00  0.000000e+00
   outer loop
     vertex -9.294463e-02  0.000000e+00 -1.770912e-01
     vertex -1.326245e+00  0.000000e+00 -1.497021e+00
     vertex -9.294463e-01  0.000000e+00 -1.770912e+00
   endloop
 endfacet
 facet normal -0.000000e+00 -1.000000e+00  0.000000e+00
   outer loop
     vertex -9.294463e-02  0.000000e+00 -1.770912e-01
     vertex -1.326245e-01  0.000000e+00 -1.497021e-01
     vertex -1.326245e+00  0.000000e+00 -1.497021e+00
   endloop
 endfacet
 facet normal  0.000000e+00 -1.000000e+00  0.000000e+00
   outer loop
     vertex -1.870032e-01  0.000000e+00 -7.092098e-02
     vertex -1.870032e+00  0.000000e+00 -7.092098e-01
     vertex -1.645968e+00  0.000000e+00 -1.136129e+00
   endloop
 endfacet
 facet normal  0.000000e+00 -1.000000e+00 -0.000000e+00
   outer loop
     vertex -1.870032e-01  0.000000e+00 -7.092098e-02
     vertex -1.645968e+00  0.000000e+00 -1.136129e+00
     vertex -1.645968e-01  0.000000e+00 -1.136129e-01
   endloop
 endfacet
 facet normal  0.000000e+00 -1.000000e+00  0.000000e+00
   outer loop
     vertex -4.786313e-02  0.000000e+00 -1.941884e-01
     vertex -9.294463e-01  0.000000e+00 -1.770912e+00
     vertex -4.786313e-01  0.000000e+00 -1.941884e+00
   endloop
 endfacet
 facet normal -0.000000e+00 -1.000000e+00  0.000000e+00
   outer loop
     vertex -4.786313e-02  0.000000e+00 -1.941884e-01
     vertex -9.294463e-02  0.000000e+00 -1.770912e-01
     vertex -9.294463e-01  0.000000e+00 -1.770912e+00
   endloop
 endfacet
 facet normal  0.000000e+00 -1.000000e+00  0.000000e+00
   outer loop
     vertex -1.985418e-01  0.000000e+00 -2.410734e-02
     vertex -1.985418e+00  0.000000e+00 -2.410734e-01
     vertex -1.870032e+00  0.000000e+00 -7.092098e-01
   endloop
 endfacet
 facet normal  0.000000e+00 -1.000000e+00 -0.000000e+00
   outer loop
     vertex -1.985418e-01  0.000000e+00 -2.410734e-02
     vertex -1.870032e+00  0.000000e+00 -7.092098e-01
     vertex -1.870032e-01  0.000000e+00 -7.092098e-02
   endloop
 endfacet
 facet normal  0.000000e+00 -1.000000e+00 -0.000000e+00
   outer loop
     vertex -8.881784e-16  0.000000e+00 -2.000000e-01
     vertex -4.786313e-01  0.000000e+00 -1.941884e+00
     vertex  1.776357e-15  0.000000e+00 -2.000000e+00
   endloop
 endfacet
 facet normal -0.000000e+00 -1.000000e+00  0.000000e+00
   outer loop
     vertex -8.881784e-16  0.000000e+00 -2.000000e-01
     vertex -4.786313e-02  0.000000e+00 -1.941884e-01
     vertex -4.786313e-01  0.000000e+00 -1.941884e+00
   endloop
 endfacet
 facet normal -0.000000e+00 -1.000000e+00  0.000000e+00
   outer loop
     vertex -1.985418e-01  0.000000e+00  2.410734e-02
     vertex -1.985418e+00  0.000000e+00  2.410734e-01
     vertex -1.985418e+00  0.000000e+00 -2.410734e-01
   endloop
 endfacet
 facet normal  0.000000e+00 -1.000000e+00 -0.000000e+00
   outer loop
     vertex -1.985418e-01  0.000000e+00  2.410734e-02
     vertex -1.985418e+00  0.000000e+00 -2.410734e-01
     vertex -1.985418e-01  0.000000e+00 -2.410734e-02
   endloop
 endfacet
 facet normal  0.000000e+00 -1.000000e+00 -0.000000e+00
   outer loop
     vertex  4.786313e-02  0.000000e+00 -1.941884e-01
     vertex  1.776357e-15  0.000000e+00 -2.000000e+00
     vertex  4.786313e-01  0.000000e+00 -1.941884e+00
   endloop
 endfacet
 facet normal  0.000000e+00 -1.000000e+00  0.000000e+00
   outer loop
     vertex  4.786313e-02  0.000000e+00 -1.941884e-01
     vertex -8.881784e-16  0.000000e+00 -2.000000e-01
     vertex  1.776357e-15  0.000000e+00 -2.000000e+00
   endloop
 endfacet
 facet normal  0.000000e+00 -1.000000e+00  0.000000e+00
   outer loop
     vertex -1.870032e-01  0.000000e+00  7.092098e-02
     vertex -1.870032e+00  0.000000e+00  7.092098e-01
     vertex -1.985418e+00  0.000000e+00  2.410734e-01
   endloop
 endfacet
 facet normal -0.000000e+00 -1.000000e+00  0.000000e+00
   outer loop
     vertex -1.870032e-01  0.000000e+00  7.092098e-02
     vertex -1.985418e+00  0.000000e+00  2.410734e-01
     vertex -1.985418e-01  0.000000e+00  2.410734e-02
   endloop
 endfacet
 facet normal  0.000000e+00 -1.000000e+00  0.000000e+00
   outer loop
     vertex  9.294463e-02  0.000000e+00 -1.770912e-01
     vertex  4.786313e-01  0.000000e+00 -1.941884e+00
     vertex  9.294463e-01  0.000000e+00 -1.770912e+00
   endloop
 endfacet
 facet normal  0.000000e+00 -1.000000e+00 -0.000000e+00
   outer loop
     vertex  9.294463e-02  0.000000e+00 -1.770912e-01
     vertex  4.786313e-02  0.000000e+00 -1.941884e-01
     vertex  4.786313e-01  0.000000e+00 -1.941884e+00
   endloop
 endfacet
 facet normal  0.000000e+00 -1.000000e+00  0.000000e+00
   outer loop
     vertex -1.645968e-01  0.000000e+00  1.136129e-01
     vertex -1.645968e+00  0.000000e+00  1.136129e+00
     vertex -1.870032e+00  0.000000e+00  7.092098e-01
   endloop
 endfacet
 facet normal -0.000000e+00 -1.000000e+00  0.000000e+00
   outer loop
     vertex -1.645968e-01  0.000000e+00  1.136129e-01
     vertex -1.870032e+00  0.000000e+00  7.092098e-01
     vertex -1.870032e-01  0.000000e+00  7.092098e-02
   endloop
 endfacet
 facet normal  0.000000e+00 -1.000000e+00  0.000000e+00
   outer loop
     vertex  1.326245e-01  0.000000e+00 -1.497021e-01
     vertex  9.294463e-01  0.000000e+00 -1.770912e+00
     vertex  1.326245e+00  0.000000e+00 -1.497021e+00
   endloop
 endfacet
 facet normal  0.000000e+00 -1.000000e+00 -0.000000e+00
   outer loop
     vertex  1.326245e-01  0.000000e+00 -1.497021e-01
     vertex  9.294463e-02  0.000000e+00 -1.770912e-01
     vertex  9.294463e-01  0.000000e+00 -1.770912e+00
   endloop
 endfacet
 facet normal  0.000000e+00 -1.000000e+00 -0.000000e+00
   outer loop
     vertex -1.326245e+00  0.000000e+00  1.497021e+00
     vertex -1.645968e+00  0.000000e+00  1.136129e+00
     vertex -1.645968e-01  0.000000e+00  1.136129e-01
   endloop
 endfacet
 facet normal  0.000000e+00 -1.000000e+00  0.000000e+00
   outer loop
     vertex -1.326245e+00  0.000000e+00  1.497021e+00
     vertex -1.326245e-01  0.000000e+00  1.497021e-01
     vertex -9.294463e-02  0.000000e+00  1.770912e-01
   endloop
 endfacet
 facet normal  0.000000e+00 -1.000000e+00  0.000000e+00
   outer loop
     vertex -1.326245e+00  0.000000e+00  1.497021e+00
     vertex -1.645968e-01  0.000000e+00  1.136129e-01
     vertex -1.326245e-01  0.000000e+00  1.497021e-01
   endloop
 endfacet
 facet normal -0.000000e+00 -1.000000e+00  0.000000e+00
   outer loop
     vertex  1.645968e+00  0.000000e+00 -1.136129e+00
     vertex  1.326245e-01  0.000000e+00 -1.497021e-01
     vertex  1.326245e+00  0.000000e+00 -1.497021e+00
   endloop
 endfacet
 facet normal  0.000000e+00 -1.000000e+00  0.000000e+00
   outer loop
     vertex  1.645968e+00  0.000000e+00 -1.136129e+00
     vertex  1.645968e-01  0.000000e+00 -1.136129e-01
     vertex  1.326245e-01  0.000000e+00 -1.497021e-01
   endloop
 endfacet
 facet normal  0.000000e+00 -1.000000e+00  0.000000e+00
   outer loop
     vertex  1.645968e+00  0.000000e+00 -1.136129e+00
     vertex  1.870032e-01  0.000000e+00 -7.092098e-02
     vertex  1.645968e-01  0.000000e+00 -1.136129e-01
   endloop
 endfacet
 facet normal -5.442991e-15 -1.000000e+00 -5.085756e-15
   outer loop
     vertex -9.294463e-01 -3.552714e-15  1.770912e+00
     vertex -1.326245e+00  0.000000e+00  1.497021e+00
     vertex -9.294463e-02  0.000000e+00  1.770912e-01
   endloop
 endfacet
 facet normal -0.000000e+00 -1.000000e+00  0.000000e+00
   outer loop
     vertex  1.870032e+00  0.000000e+00 -7.092098e-01
     vertex  1.870032e-01  0.000000e+00 -7.092098e-02
     vertex  1.645968e+00  0.000000e+00 -1.136129e+00
   endloop
 endfacet
 facet normal  7.050347e-16 -1.000000e+00 -1.859024e-15
   outer loop
     vertex -4.786313e-01 -3.552714e-15  1.941884e+00
     vertex -9.294463e-01 -3.552714e-15  1.770912e+00
     vertex -9.294463e-02  0.000000e+00  1.770912e-01
   endloop
 endfacet
 facet normal  2.396542e-16 -1.000000e+00 -1.973730e-15
   outer loop
     vertex -4.786313e-01 -3.552714e-15  1.941884e+00
     vertex -4.786313e-02  0.000000e+00  1.941884e-01
     vertex  0.000000e+00  0.000000e+00  2.000000e-01
   endloop
 endfacet
 facet normal  7.050347e-16 -1.000000e+00 -1.859024e-15
   outer loop
     vertex -4.786313e-01 -3.552714e-15  1.941884e+00
     vertex -9.294463e-02  0.000000e+00  1.770912e-01
     vertex -4.786313e-02  0.000000e+00  1.941884e-01
   endloop
 endfacet
 facet normal -0.000000e+00 -1.000000e+00  0.000000e+00
   outer loop
     vertex  1.985418e+00  0.000000e+00 -2.410734e-01
     vertex  1.870032e-01  0.000000e+00 -7.092098e-02
     vertex  1.870032e+00  0.000000e+00 -7.092098e-01
   endloop
 endfacet
 facet normal  0.000000e+00 -1.000000e+00  0.000000e+00
   outer loop
     vertex  1.985418e+00  0.000000e+00 -2.410734e-01
     vertex  1.985418e-01  0.000000e+00 -2.410734e-02
     vertex  1.870032e-01  0.000000e+00 -7.092098e-02
   endloop
 endfacet
 facet normal  0.000000e+00 -1.000000e+00  0.000000e+00
   outer loop
     vertex  1.985418e+00  0.000000e+00 -2.410734e-01
     vertex  1.985418e-01  0.000000e+00  2.410734e-02
     vertex  1.985418e-01  0.000000e+00 -2.410734e-02
   endloop
 endfacet
 facet normal  2.396542e-16 -1.000000e+00 -1.973730e-15
   outer loop
     vertex  0.000000e+00 -3.552714e-15  2.000000e+00
     vertex -4.786313e-01 -3.552714e-15  1.941884e+00
     vertex  0.000000e+00  0.000000e+00  2.000000e-01
   endloop
 endfacet
 facet normal  0.000000e+00 -1.000000e+00 -0.000000e+00
   outer loop
     vertex  1.985418e+00  0.000000e+00  2.410734e-01
     vertex  1.985418e-01  0.000000e+00  2.410734e-02
     vertex  1.985418e+00  0.000000e+00 -2.410734e-01
   endloop
 endfacet
 facet normal -2.396542e-16 -1.000000e+00 -1.973730e-15
   outer loop
     vertex  4.786313e-01 -3.552714e-15  1.941884e+00
     vertex  0.000000e+00 -3.552714e-15  2.000000e+00
     vertex  0.000000e+00  0.000000e+00  2.000000e-01
   endloop
 endfacet
 facet normal -2.396542e-16 -1.000000e+00 -1.973730e-15
   outer loop
     vertex  4.786313e-01 -3.552714e-15  1.941884e+00
     vertex  0.000000e+00  0.000000e+00  2.000000e-01
     vertex  4.786313e-02  0.000000e+00  1.941884e-01
   endloop
 endfacet
 facet normal  0.000000e+00 -1.000000e+00 -0.000000e+00
   outer loop
     vertex  1.870032e+00  0.000000e+00  7.092098e-01
     vertex  1.985418e-01  0.000000e+00  2.410734e-02
     vertex  1.985418e+00  0.000000e+00  2.410734e-01
   endloop
 endfacet
 facet normal  0.000000e+00 -1.000000e+00  0.000000e+00
   outer loop
     vertex  1.870032e+00  0.000000e+00  7.092098e-01
     vertex  1.870032e-01  0.000000e+00  7.092098e-02
     vertex  1.985418e-01  0.000000e+00  2.410734e-02
   endloop
 endfacet
 facet normal -1.129441e-15 -1.000000e+00 -1.636278e-15
   outer loop
     vertex  9.294463e-01 -3.552714e-15  1.770912e+00
     vertex  9.294463e-02  0.000000e+00  1.770912e-01
     vertex  1.326245e-01  0.000000e+00  1.497021e-01
   endloop
 endfacet
 facet normal -7.050347e-16 -1.000000e+00 -1.859024e-15
   outer loop
     vertex  9.294463e-01 -3.552714e-15  1.770912e+00
     vertex  4.786313e-01 -3.552714e-15  1.941884e+00
     vertex  4.786313e-02  0.000000e+00  1.941884e-01
   endloop
 endfacet
 facet normal -7.050347e-16 -1.000000e+00 -1.859024e-15
   outer loop
     vertex  9.294463e-01 -3.552714e-15  1.770912e+00
     vertex  4.786313e-02  0.000000e+00  1.941884e-01
     vertex  9.294463e-02  0.000000e+00  1.770912e-01
   endloop
 endfacet
 facet normal  0.000000e+00 -1.000000e+00  0.000000e+00
   outer loop
     vertex  1.645968e+00  0.000000e+00  1.136129e+00
     vertex  1.645968e-01  0.000000e+00  1.136129e-01
     vertex  1.870032e-01  0.000000e+00  7.092098e-02
   endloop
 endfacet
 facet normal  0.000000e+00 -1.000000e+00 -0.000000e+00
   outer loop
     vertex  1.645968e+00  0.000000e+00  1.136129e+00
     vertex  1.870032e-01  0.000000e+00  7.092098e-02
     vertex  1.870032e+00  0.000000e+00  7.092098e-01
   endloop
 endfacet
 facet normal  0.000000e+00 -1.000000e+00  0.000000e+00
   outer loop
     vertex  1.645968e+00  0.000000e+00  1.136129e+00
     vertex  1.326245e-01  0.000000e+00  1.497021e-01
     vertex  1.645968e-01  0.000000e+00  1.136129e-01
   endloop
 endfacet
 facet normal  5.555935e-15 -1.000000e+00 -4.922129e-15
   outer loop
     vertex  1.326245e+00  0.000000e+00  1.497021e+00
     vertex  9.294463e-01 -3.552714e-15  1.770912e+00
     vertex  1.326245e-01  0.000000e+00  1.497021e-01
   endloop
 endfacet
 facet normal  0.000000e+00 -1.000000e+00 -0.000000e+00
   outer loop
     vertex  1.326245e+00  0.000000e+00  1.497021e+00
     vertex  1.326245e-01  0.000000e+00  1.497021e-01
     vertex  1.645968e+00  0.000000e+00  1.136129e+00
   endloop
 endfacet
 facet normal  8.204221e-01  0.000000e+00 -5.717583e-01
   outer loop
     vertex  1.325213e+00  2.000000e+00 -7.027170e-01
     vertex  1.118034e+00  1.230000e+01 -1.000000e+00
     vertex  1.325213e+00  1.230000e+01 -7.027170e-01
   endloop
 endfacet
 facet normal  8.204221e-01 -7.064865e-17 -5.717583e-01
   outer loop
     vertex  1.325213e+00  2.000000e+00 -7.027170e-01
     vertex  1.118034e+00  2.000000e+00 -1.000000e+00
     vertex  1.118034e+00  1.230000e+01 -1.000000e+00
   endloop
 endfacet
 facet normal  9.335919e-01  0.000000e+00 -3.583380e-01
   outer loop
     vertex  1.455058e+00  2.000000e+00 -3.644265e-01
     vertex  1.325213e+00  1.230000e+01 -7.027170e-01
     vertex  1.455058e+00  1.230000e+01 -3.644265e-01
   endloop
 endfacet
 facet normal  9.335919e-01  0.000000e+00 -3.583380e-01
   outer loop
     vertex  1.455058e+00  2.000000e+00 -3.644265e-01
     vertex  1.325213e+00  2.000000e+00 -7.027170e-01
     vertex  1.325213e+00  1.230000e+01 -7.027170e-01
   endloop
 endfacet
 facet normal  9.922814e-01 -8.556533e-17 -1.240066e-01
   outer loop
     vertex  1.499992e+00  2.000000e+00 -4.869589e-03
     vertex  1.455058e+00  1.230000e+01 -3.644265e-01
     vertex  1.499992e+00  1.230000e+01 -4.869589e-03
   endloop
 endfacet
 facet normal  9.922814e-01  0.000000e+00 -1.240066e-01
   outer loop
     vertex  1.499992e+00  2.000000e+00 -4.869589e-03
     vertex  1.455058e+00  2.000000e+00 -3.644265e-01
     vertex  1.455058e+00  1.230000e+01 -3.644265e-01
   endloop
 endfacet
 facet normal  9.930656e-01 -8.563296e-17  1.175613e-01
   outer loop
     vertex  1.457393e+00  2.000000e+00  3.549715e-01
     vertex  1.499992e+00  1.230000e+01 -4.869589e-03
     vertex  1.457393e+00  1.230000e+01  3.549715e-01
   endloop
 endfacet
 facet normal  9.930656e-01 -8.552205e-17  1.175613e-01
   outer loop
     vertex  1.457393e+00  2.000000e+00  3.549715e-01
     vertex  1.499992e+00  2.000000e+00 -4.869589e-03
     vertex  1.499992e+00  1.230000e+01 -4.869589e-03
   endloop
 endfacet
 facet normal  9.358989e-01 -8.070341e-17  3.522688e-01
   outer loop
     vertex  1.329747e+00  2.000000e+00  6.940979e-01
     vertex  1.457393e+00  1.230000e+01  3.549715e-01
     vertex  1.329747e+00  1.230000e+01  6.940979e-01
   endloop
 endfacet
 facet normal  9.358989e-01 -8.180370e-17  3.522688e-01
   outer loop
     vertex  1.329747e+00  2.000000e+00  6.940979e-01
     vertex  1.457393e+00  2.000000e+00  3.549715e-01
     vertex  1.457393e+00  1.230000e+01  3.549715e-01
   endloop
 endfacet
 facet normal  6.642434e-01 -5.727832e-17  7.475163e-01
   outer loop
     vertex  1.124503e+00  2.000000e+00  9.927198e-01
     vertex  1.124503e+00  1.230000e+01  9.927198e-01
     vertex  8.536378e-01  1.230000e+01  1.233411e+00
   endloop
 endfacet
 facet normal  8.241171e-01 -7.106437e-17  5.664195e-01
   outer loop
     vertex  1.124503e+00  2.000000e+00  9.927198e-01
     vertex  1.329747e+00  1.230000e+01  6.940979e-01
     vertex  1.124503e+00  1.230000e+01  9.927198e-01
   endloop
 endfacet
 facet normal  8.241171e-01 -7.250783e-17  5.664195e-01
   outer loop
     vertex  1.124503e+00  2.000000e+00  9.927198e-01
     vertex  1.329747e+00  2.000000e+00  6.940979e-01
     vertex  1.329747e+00  1.230000e+01  6.940979e-01
   endloop
 endfacet
 facet normal  6.642434e-01 -5.727832e-17  7.475163e-01
   outer loop
     vertex  8.536378e-01  2.000000e+00  1.233411e+00
     vertex  1.124503e+00  2.000000e+00  9.927198e-01
     vertex  8.536378e-01  1.230000e+01  1.233411e+00
   endloop
 endfacet
 facet normal  2.398006e-01 -2.067822e-17  9.708222e-01
   outer loop
     vertex  5.329579e-01  2.000000e+00  1.402125e+00
     vertex  5.329579e-01  1.230000e+01  1.402125e+00
     vertex  1.811769e-01  1.230000e+01  1.489018e+00
   endloop
 endfacet
 facet normal  4.656074e-01 -4.014975e-17  8.849914e-01
   outer loop
     vertex  5.329579e-01  2.000000e+00  1.402125e+00
     vertex  8.536378e-01  1.230000e+01  1.233411e+00
     vertex  5.329579e-01  1.230000e+01  1.402125e+00
   endloop
 endfacet
 facet normal  4.656074e-01 -3.904268e-17  8.849914e-01
   outer loop
     vertex  5.329579e-01  2.000000e+00  1.402125e+00
     vertex  8.536378e-01  2.000000e+00  1.233411e+00
     vertex  8.536378e-01  1.230000e+01  1.233411e+00
   endloop
 endfacet
 facet normal  2.398006e-01 -2.067822e-17  9.708222e-01
   outer loop
     vertex  1.811769e-01  2.000000e+00  1.489018e+00
     vertex  5.329579e-01  2.000000e+00  1.402125e+00
     vertex  1.811769e-01  1.230000e+01  1.489018e+00
   endloop
 endfacet
 facet normal  0.000000e+00  0.000000e+00  1.000000e+00
   outer loop
     vertex -1.811769e-01  2.000000e+00  1.489018e+00
     vertex  1.811769e-01  1.230000e+01  1.489018e+00
     vertex -1.811769e-01  1.230000e+01  1.489018e+00
   endloop
 endfacet
 facet normal  0.000000e+00  0.000000e+00  1.000000e+00
   outer loop
     vertex -1.811769e-01  2.000000e+00  1.489018e+00
     vertex  1.811769e-01  2.000000e+00  1.489018e+00
     vertex  1.811769e-01  1.230000e+01  1.489018e+00
   endloop
 endfacet
 facet normal -2.398006e-01  2.067822e-17  9.708222e-01
   outer loop
     vertex -5.329579e-01  2.000000e+00  1.402125e+00
     vertex -1.811769e-01  1.230000e+01  1.489018e+00
     vertex -5.329579e-01  1.230000e+01  1.402125e+00
   endloop
 endfacet
 facet normal -2.398006e-01  2.138051e-17  9.708222e-01
   outer loop
     vertex -5.329579e-01  2.000000e+00  1.402125e+00
     vertex -1.811769e-01  2.000000e+00  1.489018e+00
     vertex -1.811769e-01  1.230000e+01  1.489018e+00
   endloop
 endfacet
 facet normal -4.656074e-01  4.014975e-17  8.849914e-01
   outer loop
     vertex -8.536378e-01  2.000000e+00  1.233411e+00
     vertex -5.329579e-01  1.230000e+01  1.402125e+00
     vertex -8.536378e-01  1.230000e+01  1.233411e+00
   endloop
 endfacet
 facet normal -4.656074e-01  4.090185e-17  8.849914e-01
   outer loop
     vertex -8.536378e-01  2.000000e+00  1.233411e+00
     vertex -5.329579e-01  2.000000e+00  1.402125e+00
     vertex -5.329579e-01  1.230000e+01  1.402125e+00
   endloop
 endfacet
 facet normal -6.642434e-01  0.000000e+00  7.475163e-01
   outer loop
     vertex -1.124503e+00  2.000000e+00  9.927198e-01
     vertex -8.536378e-01  1.230000e+01  1.233411e+00
     vertex -1.124503e+00  1.230000e+01  9.927198e-01
   endloop
 endfacet
 facet normal -6.642434e-01  5.577525e-17  7.475163e-01
   outer loop
     vertex -1.124503e+00  2.000000e+00  9.927198e-01
     vertex -8.536378e-01  2.000000e+00  1.233411e+00
     vertex -8.536378e-01  1.230000e+01  1.233411e+00
   endloop
 endfacet
 facet normal -8.241171e-01  0.000000e+00  5.664195e-01
   outer loop
     vertex -1.329747e+00  2.000000e+00  6.940979e-01
     vertex -1.124503e+00  2.000000e+00  9.927198e-01
     vertex -1.124503e+00  1.230000e+01  9.927198e-01
   endloop
 endfacet
 facet normal -9.358989e-01 -1.614068e-16  3.522688e-01
   outer loop
     vertex -1.329747e+00  2.000000e+00  6.940979e-01
     vertex -1.329747e+00  1.230000e+01  6.940979e-01
     vertex -1.457393e+00  1.230000e+01  3.549715e-01
   endloop
 endfacet
 facet normal -8.241171e-01 -1.421287e-16  5.664195e-01
   outer loop
     vertex -1.329747e+00  2.000000e+00  6.940979e-01
     vertex -1.124503e+00  1.230000e+01  9.927198e-01
     vertex -1.329747e+00  1.230000e+01  6.940979e-01
   endloop
 endfacet
 facet normal -9.358989e-01  0.000000e+00  3.522688e-01
   outer loop
     vertex -1.457393e+00  2.000000e+00  3.549715e-01
     vertex -1.329747e+00  2.000000e+00  6.940979e-01
     vertex -1.457393e+00  1.230000e+01  3.549715e-01
   endloop
 endfacet
 facet normal -9.930656e-01  0.000000e+00  1.175613e-01
   outer loop
     vertex -1.499992e+00  2.000000e+00 -4.869589e-03
     vertex -1.457393e+00  1.230000e+01  3.549715e-01
     vertex -1.499992e+00  1.230000e+01 -4.869589e-03
   endloop
 endfacet
 facet normal -9.930656e-01  0.000000e+00  1.175613e-01
   outer loop
     vertex -1.499992e+00  2.000000e+00 -4.869589e-03
     vertex -1.457393e+00  2.000000e+00  3.549715e-01
     vertex -1.457393e+00  1.230000e+01  3.549715e-01
   endloop
 endfacet
 facet normal -9.922814e-01  0.000000e+00 -1.240066e-01
   outer loop
     vertex -1.455058e+00  2.000000e+00 -3.644265e-01
     vertex -1.499992e+00  2.000000e+00 -4.869589e-03
     vertex -1.499992e+00  1.230000e+01 -4.869589e-03
   endloop
 endfacet
 facet normal -9.922814e-01 -1.711307e-16 -1.240066e-01
   outer loop
     vertex -1.455058e+00  2.000000e+00 -3.644265e-01
     vertex -1.499992e+00  1.230000e+01 -4.869589e-03
     vertex -1.455058e+00  1.230000e+01 -3.644265e-01
   endloop
 endfacet
 facet normal -9.335919e-01  6.179962e-17 -3.583380e-01
   outer loop
     vertex -1.325213e+00  2.000000e+00 -7.027170e-01
     vertex -1.455058e+00  1.230000e+01 -3.644265e-01
     vertex -1.325213e+00  1.230000e+01 -7.027170e-01
   endloop
 endfacet
 facet normal -9.335919e-01 -1.617482e-16 -3.583380e-01
   outer loop
     vertex -1.325213e+00  2.000000e+00 -7.027170e-01
     vertex -1.455058e+00  2.000000e+00 -3.644265e-01
     vertex -1.455058e+00  1.230000e+01 -3.644265e-01
   endloop
 endfacet
 facet normal -8.204221e-01  0.000000e+00 -5.717583e-01
   outer loop
     vertex -1.118034e+00  2.000000e+00 -1.000000e+00
     vertex -1.325213e+00  1.230000e+01 -7.027170e-01
     vertex -1.118034e+00  1.230000e+01 -1.000000e+00
   endloop
 endfacet
 facet normal -8.204221e-01  9.853628e-17 -5.717583e-01
   outer loop
     vertex -1.118034e+00  2.000000e+00 -1.000000e+00
     vertex -1.325213e+00  2.000000e+00 -7.027170e-01
     vertex -1.325213e+00  1.230000e+01 -7.027170e-01
   endloop
 endfacet
 facet normal  0.000000e+00  1.000000e+00  0.000000e+00
   outer loop
     vertex -8.536378e-01  1.230000e+01  1.233411e+00
     vertex -1.457393e+00  1.230000e+01  3.549715e-01
     vertex -1.329747e+00  1.230000e+01  6.940979e-01
   endloop
 endfacet
 facet normal  0.000000e+00  1.000000e+00  0.000000e+00
   outer loop
     vertex -8.536378e-01  1.230000e+01  1.233411e+00
     vertex -1.329747e+00  1.230000e+01  6.940979e-01
     vertex -1.124503e+00  1.230000e+01  9.927198e-01
   endloop
 endfacet
 facet normal  0.000000e+00  1.000000e+00  0.000000e+00
   outer loop
     vertex  1.325213e+00  1.230000e+01 -7.027170e-01
     vertex  1.118034e+00  1.230000e+01 -1.000000e+00
     vertex -1.118034e+00  1.230000e+01 -1.000000e+00
   endloop
 endfacet
 facet normal  0.000000e+00  1.000000e+00  0.000000e+00
   outer loop
     vertex  1.325213e+00  1.230000e+01 -7.027170e-01
     vertex -1.118034e+00  1.230000e+01 -1.000000e+00
     vertex -1.325213e+00  1.230000e+01 -7.027170e-01
   endloop
 endfacet
 facet normal  0.000000e+00  1.000000e+00  0.000000e+00
   outer loop
     vertex -1.811769e-01  1.230000e+01  1.489018e+00
     vertex -8.536378e-01  1.230000e+01  1.233411e+00
     vertex -5.329579e-01  1.230000e+01  1.402125e+00
   endloop
 endfacet
 facet normal  0.000000e+00  1.000000e+00  0.000000e+00
   outer loop
     vertex -1.811769e-01  1.230000e+01  1.489018e+00
     vertex -1.457393e+00  1.230000e+01  3.549715e-01
     vertex -8.536378e-01  1.230000e+01  1.233411e+00
   endloop
 endfacet
 facet normal  0.000000e+00  1.000000e+00  0.000000e+00
   outer loop
     vertex  1.811769e-01  1.230000e+01  1.489018e+00
     vertex -1.325213e+00  1.230000e+01 -7.027170e-01
     vertex -1.455058e+00  1.230000e+01 -3.644265e-01
   endloop
 endfacet
 facet normal  0.000000e+00  1.000000e+00  0.000000e+00
   outer loop
     vertex  1.811769e-01  1.230000e+01  1.489018e+00
     vertex -1.455058e+00  1.230000e+01 -3.644265e-01
     vertex -1.499992e+00  1.230000e+01 -4.869589e-03
   endloop
 endfacet
 facet normal  0.000000e+00  1.000000e+00  0.000000e+00
   outer loop
     vertex  1.811769e-01  1.230000e+01  1.489018e+00
     vertex -1.499992e+00  1.230000e+01 -4.869589e-03
     vertex -1.457393e+00  1.230000e+01  3.549715e-01
   endloop
 endfacet
 facet normal  0.000000e+00  1.000000e+00  0.000000e+00
   outer loop
     vertex  1.811769e-01  1.230000e+01  1.489018e+00
     vertex -1.457393e+00  1.230000e+01  3.549715e-01
     vertex -1.811769e-01  1.230000e+01  1.489018e+00
   endloop
 endfacet
 facet normal  0.000000e+00  1.000000e+00  0.000000e+00
   outer loop
     vertex  1.457393e+00  1.230000e+01  3.549715e-01
     vertex  1.499992e+00  1.230000e+01 -4.869589e-03
     vertex  1.455058e+00  1.230000e+01 -3.644265e-01
   endloop
 endfacet
 facet normal  0.000000e+00  1.000000e+00  0.000000e+00
   outer loop
     vertex  8.536378e-01  1.230000e+01  1.233411e+00
     vertex  1.811769e-01  1.230000e+01  1.489018e+00
     vertex  5.329579e-01  1.230000e+01  1.402125e+00
   endloop
 endfacet
 facet normal  0.000000e+00  1.000000e+00  0.000000e+00
   outer loop
     vertex  1.124503e+00  1.230000e+01  9.927198e-01
     vertex  1.329747e+00  1.230000e+01  6.940979e-01
     vertex  1.457393e+00  1.230000e+01  3.549715e-01
   endloop
 endfacet
 facet normal  0.000000e+00  1.000000e+00  0.000000e+00
   outer loop
     vertex  1.124503e+00  1.230000e+01  9.927198e-01
     vertex  1.455058e+00  1.230000e+01 -3.644265e-01
     vertex  1.325213e+00  1.230000e+01 -7.027170e-01
   endloop
 endfacet
 facet normal  0.000000e+00  1.000000e+00  0.000000e+00
   outer loop
     vertex  1.124503e+00  1.230000e+01  9.927198e-01
     vertex  1.325213e+00  1.230000e+01 -7.027170e-01
     vertex -1.325213e+00  1.230000e+01 -7.027170e-01
   endloop
 endfacet
 facet normal  0.000000e+00  1.000000e+00  0.000000e+00
   outer loop
     vertex  1.124503e+00  1.230000e+01  9.927198e-01
     vertex -1.325213e+00  1.230000e+01 -7.027170e-01
     vertex  1.811769e-01  1.230000e+01  1.489018e+00
   endloop
 endfacet
 facet normal  0.000000e+00  1.000000e+00  0.000000e+00
   outer loop
     vertex  1.124503e+00  1.230000e+01  9.927198e-01
     vertex  1.457393e+00  1.230000e+01  3.549715e-01
     vertex  1.455058e+00  1.230000e+01 -3.644265e-01
   endloop
 endfacet
 facet normal  0.000000e+00  1.000000e+00  0.000000e+00
   outer loop
     vertex  1.124503e+00  1.230000e+01  9.927198e-01
     vertex  1.811769e-01  1.230000e+01  1.489018e+00
     vertex  8.536378e-01  1.230000e+01  1.233411e+00
   endloop
 endfacet
 facet normal  0.000000e+00 -1.000000e+00  0.000000e+00
   outer loop
     vertex -8.536378e-01  2.000000e+00  1.233411e+00
     vertex -1.329747e+00  2.000000e+00  6.940979e-01
     vertex -1.457393e+00  2.000000e+00  3.549715e-01
   endloop
 endfacet
 facet normal  0.000000e+00 -1.000000e+00  0.000000e+00
   outer loop
     vertex -8.536378e-01  2.000000e+00  1.233411e+00
     vertex -1.124503e+00  2.000000e+00  9.927198e-01
     vertex -1.329747e+00  2.000000e+00  6.940979e-01
   endloop
 endfacet
 facet normal  0.000000e+00 -1.000000e+00  0.000000e+00
   outer loop
     vertex  1.325213e+00  2.000000e+00 -7.027170e-01
     vertex -1.118034e+00  2.000000e+00 -1.000000e+00
     vertex  1.118034e+00  2.000000e+00 -1.000000e+00
   endloop
 endfacet
 facet normal  0.000000e+00 -1.000000e+00  0.000000e+00
   outer loop
     vertex  1.325213e+00  2.000000e+00 -7.027170e-01
     vertex -1.325213e+00  2.000000e+00 -7.027170e-01
     vertex -1.118034e+00  2.000000e+00 -1.000000e+00
   endloop
 endfacet
 facet normal  0.000000e+00 -1.000000e+00  0.000000e+00
   outer loop
     vertex -1.811769e-01  2.000000e+00  1.489018e+00
     vertex -1.455058e+00  2.000000e+00 -3.644265e-01
     vertex -1.325213e+00  2.000000e+00 -7.027170e-01
   endloop
 endfacet
 facet normal  0.000000e+00 -1.000000e+00  0.000000e+00
   outer loop
     vertex -1.811769e-01  2.000000e+00  1.489018e+00
     vertex -1.499992e+00  2.000000e+00 -4.869589e-03
     vertex -1.455058e+00  2.000000e+00 -3.644265e-01
   endloop
 endfacet
 facet normal  0.000000e+00 -1.000000e+00  0.000000e+00
   outer loop
     vertex -1.811769e-01  2.000000e+00  1.489018e+00
     vertex -1.457393e+00  2.000000e+00  3.549715e-01
     vertex -1.499992e+00  2.000000e+00 -4.869589e-03
   endloop
 endfacet
 facet normal  0.000000e+00 -1.000000e+00  0.000000e+00
   outer loop
     vertex -1.811769e-01  2.000000e+00  1.489018e+00
     vertex -5.329579e-01  2.000000e+00  1.402125e+00
     vertex -8.536378e-01  2.000000e+00  1.233411e+00
   endloop
 endfacet
 facet normal  0.000000e+00 -1.000000e+00  0.000000e+00
   outer loop
     vertex -1.811769e-01  2.000000e+00  1.489018e+00
     vertex -8.536378e-01  2.000000e+00  1.233411e+00
     vertex -1.457393e+00  2.000000e+00  3.549715e-01
   endloop
 endfacet
 facet normal  0.000000e+00 -1.000000e+00  0.000000e+00
   outer loop
     vertex  1.499992e+00  2.000000e+00 -4.869589e-03
     vertex  1.325213e+00  2.000000e+00 -7.027170e-01
     vertex  1.455058e+00  2.000000e+00 -3.644265e-01
   endloop
 endfacet
 facet normal  0.000000e+00 -1.000000e+00  0.000000e+00
   outer loop
     vertex  1.124503e+00  2.000000e+00  9.927198e-01
     vertex  1.811769e-01  2.000000e+00  1.489018e+00
     vertex -1.811769e-01  2.000000e+00  1.489018e+00
   endloop
 endfacet
 facet normal  0.000000e+00 -1.000000e+00  0.000000e+00
   outer loop
     vertex  1.124503e+00  2.000000e+00  9.927198e-01
     vertex  5.329579e-01  2.000000e+00  1.402125e+00
     vertex  1.811769e-01  2.000000e+00  1.489018e+00
   endloop
 endfacet
 facet normal  0.000000e+00 -1.000000e+00  0.000000e+00
   outer loop
     vertex  1.124503e+00  2.000000e+00  9.927198e-01
     vertex  8.536378e-01  2.000000e+00  1.233411e+00
     vertex  5.329579e-01  2.000000e+00  1.402125e+00
   endloop
 endfacet
 facet normal  0.000000e+00 -1.000000e+00  0.000000e+00
   outer loop
     vertex  1.124503e+00  2.000000e+00  9.927198e-01
     vertex  1.457393e+00  2.000000e+00  3.549715e-01
     vertex  1.329747e+00  2.000000e+00  6.940979e-01
   endloop
 endfacet
 facet normal  0.000000e+00 -1.000000e+00  0.000000e+00
   outer loop
     vertex  1.124503e+00  2.000000e+00  9.927198e-01
     vertex  1.499992e+00  2.000000e+00 -4.869589e-03
     vertex  1.457393e+00  2.000000e+00  3.549715e-01
   endloop
 endfacet
 facet normal  0.000000e+00 -1.000000e+00 -0.000000e+00
   outer loop
     vertex  1.124503e+00  2.000000e+00  9.927198e-01
     vertex -1.325213e+00  2.000000e+00 -7.027170e-01
     vertex  1.325213e+00  2.000000e+00 -7.027170e-01
   endloop
 endfacet
 facet normal  0.000000e+00 -1.000000e+00  0.000000e+00
   outer loop
     vertex  1.124503e+00  2.000000e+00  9.927198e-01
     vertex  1.325213e+00  2.000000e+00 -7.027170e-01
     vertex  1.499992e+00  2.000000e+00 -4.869589e-03
   endloop
 endfacet
 facet normal -0.000000e+00 -1.000000e+00  0.000000e+00
   outer loop
     vertex  1.124503e+00  2.000000e+00  9.927198e-01
     vertex -1.811769e-01  2.000000e+00  1.489018e+00
     vertex -1.325213e+00  2.000000e+00 -7.027170e-01
   endloop
 endfacet
 facet normal -0.000000e+00  0.000000e+00 -1.000000e+00
   outer loop
     vertex  1.118034e+00  1.230000e+01 -1.000000e+00
     vertex -1.118034e+00  2.000000e+00 -1.000000e+00
     vertex -1.118034e+00  1.230000e+01 -1.000000e+00
   endloop
 endfacet
 facet normal  0.000000e+00  0.000000e+00 -1.000000e+00
   outer loop
     vertex  1.118034e+00  1.230000e+01 -1.000000e+00
     vertex  1.118034e+00  2.000000e+00 -1.000000e+00
     vertex -1.118034e+00  2.000000e+00 -1.000000e+00
   endloop
 endfacet
endsolid
