solid polyhedron
  facet normal -0 75 -0
    outer loop
      vertex 150 65 5
      vertex 165 65 -0
      vertex 150 65 -0
    endloop
  endfacet
  facet normal -0 75 0
    outer loop
      vertex 150 65 5
      vertex 165 65 5
      vertex 165 65 -0
    endloop
  endfacet
  facet normal 75 -0 -0
    outer loop
      vertex 165 65 5
      vertex 165 50 -0
      vertex 165 65 -0
    endloop
  endfacet
  facet normal 75 -0 -0
    outer loop
      vertex 165 65 5
      vertex 165 50 5
      vertex 165 50 -0
    endloop
  endfacet
  facet normal -0 -75 -0
    outer loop
      vertex 165 50 5
      vertex 150 50 -0
      vertex 165 50 -0
    endloop
  endfacet
  facet normal -0 -75 -0
    outer loop
      vertex 165 50 5
      vertex 150 50 5
      vertex 150 50 -0
    endloop
  endfacet
  facet normal -75 -0 0
    outer loop
      vertex 150 50 5
      vertex 150 65 -0
      vertex 150 50 -0
    endloop
  endfacet
  facet normal -75 -0 0
    outer loop
      vertex 150 50 5
      vertex 150 65 5
      vertex 150 65 -0
    endloop
  endfacet
  facet normal -0 -0 225
    outer loop
      vertex 165 65 5
      vertex 150 65 5
      vertex 150 50 5
    endloop
  endfacet
  facet normal -0 -0 225
    outer loop
      vertex 165 65 5
      vertex 150 50 5
      vertex 165 50 5
    endloop
  endfacet
  facet normal -0 -0 -225
    outer loop
      vertex 165 65 -0
      vertex 165 50 -0
      vertex 150 50 -0
    endloop
  endfacet
  facet normal -0 -0 -225
    outer loop
      vertex 165 65 -0
      vertex 150 50 -0
      vertex 150 65 -0
    endloop
  endfacet
endsolid polyhedron
