solid polyhedron
  facet normal 0 -15.4 -0
    outer loop
      vertex 125.2 90.2 1
      vertex 109.8 90.2 2
      vertex 109.8 90.2 1
    endloop
  endfacet
  facet normal 0 -15.4 -0
    outer loop
      vertex 125.2 90.2 1
      vertex 125.2 90.2 2
      vertex 109.8 90.2 2
    endloop
  endfacet
  facet normal 15.4 0 0
    outer loop
      vertex 109.8 90.2 1
      vertex 109.8 74.8 2
      vertex 109.8 74.8 1
    endloop
  endfacet
  facet normal 15.4 0 0
    outer loop
      vertex 109.8 90.2 1
      vertex 109.8 90.2 2
      vertex 109.8 74.8 2
    endloop
  endfacet
  facet normal 0 15.4 0
    outer loop
      vertex 109.8 74.8 1
      vertex 125.2 74.8 2
      vertex 125.2 74.8 1
    endloop
  endfacet
  facet normal 0 15.4 0
    outer loop
      vertex 109.8 74.8 1
      vertex 109.8 74.8 2
      vertex 125.2 74.8 2
    endloop
  endfacet
  facet normal -15.4 -0 0
    outer loop
      vertex 125.2 74.8 1
      vertex 125.2 90.2 2
      vertex 125.2 90.2 1
    endloop
  endfacet
  facet normal -15.4 0 -0
    outer loop
      vertex 125.2 74.8 1
      vertex 125.2 74.8 2
      vertex 125.2 90.2 2
    endloop
  endfacet
  facet normal 0 0 237.16
    outer loop
      vertex 109.8 74.8 1
      vertex 125.2 74.8 1
      vertex 125.2 90.2 1
    endloop
  endfacet
  facet normal -0 -0 237.16
    outer loop
      vertex 109.8 90.2 1
      vertex 109.8 74.8 1
      vertex 125.2 90.2 1
    endloop
  endfacet
  facet normal -0 90 -0
    outer loop
      vertex 85 95 2
      vertex 130 95 -0
      vertex 85 95 -0
    endloop
  endfacet
  facet normal -0 90 0
    outer loop
      vertex 85 95 2
      vertex 130 95 2
      vertex 130 95 -0
    endloop
  endfacet
  facet normal 90 -0 -0
    outer loop
      vertex 130 95 2
      vertex 130 50 -0
      vertex 130 95 -0
    endloop
  endfacet
  facet normal 90 -0 -0
    outer loop
      vertex 130 95 2
      vertex 130 50 2
      vertex 130 50 -0
    endloop
  endfacet
  facet normal -0 -90 -0
    outer loop
      vertex 130 50 2
      vertex 85 50 -0
      vertex 130 50 -0
    endloop
  endfacet
  facet normal -0 -90 -0
    outer loop
      vertex 130 50 2
      vertex 85 50 2
      vertex 85 50 -0
    endloop
  endfacet
  facet normal -90 -0 0
    outer loop
      vertex 85 50 2
      vertex 85 95 -0
      vertex 85 50 -0
    endloop
  endfacet
  facet normal -90 -0 0
    outer loop
      vertex 85 50 2
      vertex 85 95 2
      vertex 85 95 -0
    endloop
  endfacet
  facet normal -0 -0 73.92
    outer loop
      vertex 89.8 70.2 2
      vertex 85 50 2
      vertex 89.8 54.8 2
    endloop
  endfacet
  facet normal -0 -0 73.92
    outer loop
      vertex 105.2 54.8 2
      vertex 89.8 54.8 2
      vertex 85 50 2
    endloop
  endfacet
  facet normal -0 -0 22.08
    outer loop
      vertex 109.8 54.8 2
      vertex 105.2 54.8 2
      vertex 85 50 2
    endloop
  endfacet
  facet normal -0 -0 70.84
    outer loop
      vertex 105.2 70.2 2
      vertex 89.8 74.8 2
      vertex 89.8 70.2 2
    endloop
  endfacet
  facet normal -0 -0 216
    outer loop
      vertex 85 95 2
      vertex 85 50 2
      vertex 89.8 70.2 2
    endloop
  endfacet
  facet normal -0 0 22.08
    outer loop
      vertex 85 95 2
      vertex 89.8 70.2 2
      vertex 89.8 74.8 2
    endloop
  endfacet
  facet normal -0 -0 73.92
    outer loop
      vertex 89.8 90.2 2
      vertex 85 95 2
      vertex 89.8 74.8 2
    endloop
  endfacet
  facet normal -0 -0 70.84
    outer loop
      vertex 105.2 74.8 2
      vertex 89.8 74.8 2
      vertex 105.2 70.2 2
    endloop
  endfacet
  facet normal -0 -0 216
    outer loop
      vertex 130 50 2
      vertex 109.8 54.8 2
      vertex 85 50 2
    endloop
  endfacet
  facet normal -0 -0 73.92
    outer loop
      vertex 125.2 54.8 2
      vertex 109.8 54.8 2
      vertex 130 50 2
    endloop
  endfacet
  facet normal -0 -0 70.84
    outer loop
      vertex 109.8 70.2 2
      vertex 105.2 70.2 2
      vertex 105.2 54.8 2
    endloop
  endfacet
  facet normal -0 -0 70.84
    outer loop
      vertex 109.8 70.2 2
      vertex 105.2 54.8 2
      vertex 109.8 54.8 2
    endloop
  endfacet
  facet normal -0 -0 21.16
    outer loop
      vertex 109.8 74.8 2
      vertex 105.2 74.8 2
      vertex 105.2 70.2 2
    endloop
  endfacet
  facet normal -0 -0 21.16
    outer loop
      vertex 109.8 74.8 2
      vertex 105.2 70.2 2
      vertex 109.8 70.2 2
    endloop
  endfacet
  facet normal -0 -0 73.92
    outer loop
      vertex 125.2 70.2 2
      vertex 125.2 54.8 2
      vertex 130 50 2
    endloop
  endfacet
  facet normal -0 -0 70.84
    outer loop
      vertex 125.2 70.2 2
      vertex 109.8 74.8 2
      vertex 109.8 70.2 2
    endloop
  endfacet
  facet normal -0 -0 73.92
    outer loop
      vertex 105.2 90.2 2
      vertex 85 95 2
      vertex 89.8 90.2 2
    endloop
  endfacet
  facet normal -0 -0 70.84
    outer loop
      vertex 105.2 90.2 2
      vertex 105.2 74.8 2
      vertex 109.8 74.8 2
    endloop
  endfacet
  facet normal -0 -0 70.84
    outer loop
      vertex 109.8 90.2 2
      vertex 105.2 90.2 2
      vertex 109.8 74.8 2
    endloop
  endfacet
  facet normal -0 -0 70.84
    outer loop
      vertex 125.2 74.8 2
      vertex 109.8 74.8 2
      vertex 125.2 70.2 2
    endloop
  endfacet
  facet normal -0 -0 73.92
    outer loop
      vertex 130 95 2
      vertex 109.8 90.2 2
      vertex 125.2 90.2 2
    endloop
  endfacet
  facet normal -0 -0 73.92
    outer loop
      vertex 130 95 2
      vertex 125.2 90.2 2
      vertex 125.2 74.8 2
    endloop
  endfacet
  facet normal -0 -0 216
    outer loop
      vertex 130 95 2
      vertex 125.2 70.2 2
      vertex 130 50 2
    endloop
  endfacet
  facet normal -0 -0 22.08
    outer loop
      vertex 130 95 2
      vertex 125.2 74.8 2
      vertex 125.2 70.2 2
    endloop
  endfacet
  facet normal -0 -0 216
    outer loop
      vertex 130 95 2
      vertex 85 95 2
      vertex 105.2 90.2 2
    endloop
  endfacet
  facet normal -0 -0 22.08
    outer loop
      vertex 130 95 2
      vertex 105.2 90.2 2
      vertex 109.8 90.2 2
    endloop
  endfacet
  facet normal -0 -0 -2025
    outer loop
      vertex 130 95 -0
      vertex 130 50 -0
      vertex 85 50 -0
    endloop
  endfacet
  facet normal -0 -0 -2025
    outer loop
      vertex 130 95 -0
      vertex 85 50 -0
      vertex 85 95 -0
    endloop
  endfacet
  facet normal 0 15.4 0
    outer loop
      vertex 125.2 54.8 1
      vertex 109.8 54.8 2
      vertex 125.2 54.8 2
    endloop
  endfacet
  facet normal 0 15.4 0
    outer loop
      vertex 125.2 54.8 1
      vertex 109.8 54.8 1
      vertex 109.8 54.8 2
    endloop
  endfacet
  facet normal 15.4 0 0
    outer loop
      vertex 109.8 54.8 1
      vertex 109.8 70.2 2
      vertex 109.8 54.8 2
    endloop
  endfacet
  facet normal 15.4 0 0
    outer loop
      vertex 109.8 54.8 1
      vertex 109.8 70.2 1
      vertex 109.8 70.2 2
    endloop
  endfacet
  facet normal 0 -15.4 0
    outer loop
      vertex 109.8 70.2 1
      vertex 125.2 70.2 2
      vertex 109.8 70.2 2
    endloop
  endfacet
  facet normal 0 -15.4 0
    outer loop
      vertex 109.8 70.2 1
      vertex 125.2 70.2 1
      vertex 125.2 70.2 2
    endloop
  endfacet
  facet normal -15.4 0 -0
    outer loop
      vertex 125.2 70.2 1
      vertex 125.2 54.8 2
      vertex 125.2 70.2 2
    endloop
  endfacet
  facet normal -15.4 0 -0
    outer loop
      vertex 125.2 70.2 1
      vertex 125.2 54.8 1
      vertex 125.2 54.8 2
    endloop
  endfacet
  facet normal 0 0 237.16
    outer loop
      vertex 109.8 54.8 1
      vertex 125.2 54.8 1
      vertex 125.2 70.2 1
    endloop
  endfacet
  facet normal 0 0 237.16
    outer loop
      vertex 109.8 54.8 1
      vertex 125.2 70.2 1
      vertex 109.8 70.2 1
    endloop
  endfacet
  facet normal 0 -15.4 -0
    outer loop
      vertex 89.8 90.2 1
      vertex 105.2 90.2 2
      vertex 89.8 90.2 2
    endloop
  endfacet
  facet normal -0 -15.4 0
    outer loop
      vertex 89.8 90.2 1
      vertex 105.2 90.2 1
      vertex 105.2 90.2 2
    endloop
  endfacet
  facet normal -15.4 0 0
    outer loop
      vertex 105.2 90.2 1
      vertex 105.2 74.8 2
      vertex 105.2 90.2 2
    endloop
  endfacet
  facet normal -15.4 0 0
    outer loop
      vertex 105.2 90.2 1
      vertex 105.2 74.8 1
      vertex 105.2 74.8 2
    endloop
  endfacet
  facet normal 0 15.4 0
    outer loop
      vertex 105.2 74.8 1
      vertex 89.8 74.8 2
      vertex 105.2 74.8 2
    endloop
  endfacet
  facet normal 0 15.4 0
    outer loop
      vertex 105.2 74.8 1
      vertex 89.8 74.8 1
      vertex 89.8 74.8 2
    endloop
  endfacet
  facet normal 15.4 0 0
    outer loop
      vertex 89.8 74.8 1
      vertex 89.8 90.2 2
      vertex 89.8 74.8 2
    endloop
  endfacet
  facet normal 15.4 0 0
    outer loop
      vertex 89.8 74.8 1
      vertex 89.8 90.2 1
      vertex 89.8 90.2 2
    endloop
  endfacet
  facet normal -0 -0 237.16
    outer loop
      vertex 89.8 90.2 1
      vertex 89.8 74.8 1
      vertex 105.2 74.8 1
    endloop
  endfacet
  facet normal -0 -0 237.16
    outer loop
      vertex 105.2 90.2 1
      vertex 89.8 90.2 1
      vertex 105.2 74.8 1
    endloop
  endfacet
  facet normal 0 15.4 0
    outer loop
      vertex 89.8 54.8 1
      vertex 105.2 54.8 2
      vertex 105.2 54.8 1
    endloop
  endfacet
  facet normal 0 15.4 0
    outer loop
      vertex 89.8 54.8 1
      vertex 89.8 54.8 2
      vertex 105.2 54.8 2
    endloop
  endfacet
  facet normal -15.4 0 0
    outer loop
      vertex 105.2 54.8 1
      vertex 105.2 70.2 2
      vertex 105.2 70.2 1
    endloop
  endfacet
  facet normal -15.4 0 0
    outer loop
      vertex 105.2 54.8 1
      vertex 105.2 54.8 2
      vertex 105.2 70.2 2
    endloop
  endfacet
  facet normal 0 -15.4 0
    outer loop
      vertex 105.2 70.2 1
      vertex 89.8 70.2 2
      vertex 89.8 70.2 1
    endloop
  endfacet
  facet normal 0 -15.4 0
    outer loop
      vertex 105.2 70.2 1
      vertex 105.2 70.2 2
      vertex 89.8 70.2 2
    endloop
  endfacet
  facet normal 15.4 0 0
    outer loop
      vertex 89.8 70.2 1
      vertex 89.8 54.8 2
      vertex 89.8 54.8 1
    endloop
  endfacet
  facet normal 15.4 0 0
    outer loop
      vertex 89.8 70.2 1
      vertex 89.8 70.2 2
      vertex 89.8 54.8 2
    endloop
  endfacet
  facet normal 0 -0 237.16
    outer loop
      vertex 105.2 54.8 1
      vertex 105.2 70.2 1
      vertex 89.8 70.2 1
    endloop
  endfacet
  facet normal -0 -0 237.16
    outer loop
      vertex 105.2 54.8 1
      vertex 89.8 70.2 1
      vertex 89.8 54.8 1
    endloop
  endfacet
endsolid polyhedron
