solid polyhedron
  facet normal -0 75 -0
    outer loop
      vertex 50 65 5
      vertex 65 65 -0
      vertex 50 65 -0
    endloop
  endfacet
  facet normal -0 75 0
    outer loop
      vertex 50 65 5
      vertex 65 65 5
      vertex 65 65 -0
    endloop
  endfacet
  facet normal 75 -0 -0
    outer loop
      vertex 65 65 5
      vertex 65 50 -0
      vertex 65 65 -0
    endloop
  endfacet
  facet normal 75 -0 -0
    outer loop
      vertex 65 65 5
      vertex 65 50 5
      vertex 65 50 -0
    endloop
  endfacet
  facet normal -0 -75 -0
    outer loop
      vertex 65 50 5
      vertex 50 50 -0
      vertex 65 50 -0
    endloop
  endfacet
  facet normal -0 -75 -0
    outer loop
      vertex 65 50 5
      vertex 50 50 5
      vertex 50 50 -0
    endloop
  endfacet
  facet normal -75 -0 0
    outer loop
      vertex 50 50 5
      vertex 50 65 -0
      vertex 50 50 -0
    endloop
  endfacet
  facet normal -75 -0 0
    outer loop
      vertex 50 50 5
      vertex 50 65 5
      vertex 50 65 -0
    endloop
  endfacet
  facet normal -0 -0 225
    outer loop
      vertex 65 65 5
      vertex 50 65 5
      vertex 50 50 5
    endloop
  endfacet
  facet normal -0 -0 225
    outer loop
      vertex 65 65 5
      vertex 50 50 5
      vertex 65 50 5
    endloop
  endfacet
  facet normal -0 -0 -225
    outer loop
      vertex 65 65 -0
      vertex 65 50 -0
      vertex 50 50 -0
    endloop
  endfacet
  facet normal -0 -0 -225
    outer loop
      vertex 65 65 -0
      vertex 50 50 -0
      vertex 50 65 -0
    endloop
  endfacet
endsolid polyhedron
