solid polyhedron
  facet normal -0 75 -0
    outer loop
      vertex 50 130 5
      vertex 65 130 -0
      vertex 50 130 -0
    endloop
  endfacet
  facet normal -0 75 0
    outer loop
      vertex 50 130 5
      vertex 65 130 5
      vertex 65 130 -0
    endloop
  endfacet
  facet normal 75 -0 -0
    outer loop
      vertex 65 130 5
      vertex 65 115 -0
      vertex 65 130 -0
    endloop
  endfacet
  facet normal 75 -0 -0
    outer loop
      vertex 65 130 5
      vertex 65 115 5
      vertex 65 115 -0
    endloop
  endfacet
  facet normal -0 -75 -0
    outer loop
      vertex 65 115 5
      vertex 50 115 -0
      vertex 65 115 -0
    endloop
  endfacet
  facet normal -0 -75 -0
    outer loop
      vertex 65 115 5
      vertex 50 115 5
      vertex 50 115 -0
    endloop
  endfacet
  facet normal -75 -0 0
    outer loop
      vertex 50 115 5
      vertex 50 130 -0
      vertex 50 115 -0
    endloop
  endfacet
  facet normal -75 -0 0
    outer loop
      vertex 50 115 5
      vertex 50 130 5
      vertex 50 130 -0
    endloop
  endfacet
  facet normal -0 -0 225
    outer loop
      vertex 65 130 5
      vertex 50 130 5
      vertex 50 115 5
    endloop
  endfacet
  facet normal -0 -0 225
    outer loop
      vertex 65 130 5
      vertex 50 115 5
      vertex 65 115 5
    endloop
  endfacet
  facet normal -0 -0 -225
    outer loop
      vertex 65 130 -0
      vertex 65 115 -0
      vertex 50 115 -0
    endloop
  endfacet
  facet normal -0 -0 -225
    outer loop
      vertex 65 130 -0
      vertex 50 115 -0
      vertex 50 130 -0
    endloop
  endfacet
endsolid polyhedron
