solid polyhedron
  facet normal -0 75 -0
    outer loop
      vertex 185 65 5
      vertex 200 65 -0
      vertex 185 65 -0
    endloop
  endfacet
  facet normal -0 75 0
    outer loop
      vertex 185 65 5
      vertex 200 65 5
      vertex 200 65 -0
    endloop
  endfacet
  facet normal 75 -0 -0
    outer loop
      vertex 200 65 5
      vertex 200 50 -0
      vertex 200 65 -0
    endloop
  endfacet
  facet normal 75 -0 -0
    outer loop
      vertex 200 65 5
      vertex 200 50 5
      vertex 200 50 -0
    endloop
  endfacet
  facet normal -0 -75 -0
    outer loop
      vertex 200 50 5
      vertex 185 50 -0
      vertex 200 50 -0
    endloop
  endfacet
  facet normal -0 -75 -0
    outer loop
      vertex 200 50 5
      vertex 185 50 5
      vertex 185 50 -0
    endloop
  endfacet
  facet normal -75 -0 0
    outer loop
      vertex 185 50 5
      vertex 185 65 -0
      vertex 185 50 -0
    endloop
  endfacet
  facet normal -75 -0 0
    outer loop
      vertex 185 50 5
      vertex 185 65 5
      vertex 185 65 -0
    endloop
  endfacet
  facet normal -0 -0 225
    outer loop
      vertex 200 65 5
      vertex 185 65 5
      vertex 185 50 5
    endloop
  endfacet
  facet normal -0 -0 225
    outer loop
      vertex 200 65 5
      vertex 185 50 5
      vertex 200 50 5
    endloop
  endfacet
  facet normal -0 -0 -225
    outer loop
      vertex 200 65 -0
      vertex 200 50 -0
      vertex 185 50 -0
    endloop
  endfacet
  facet normal -0 -0 -225
    outer loop
      vertex 200 65 -0
      vertex 185 50 -0
      vertex 185 65 -0
    endloop
  endfacet
endsolid polyhedron
