solid 
 facet normal -1.000000e+00  0.000000e+00  0.000000e+00
   outer loop
     vertex -1.100000e+01 -9.000000e-01  5.934315e+00
     vertex -1.100000e+01  3.910000e+01 -6.568472e-02
     vertex -1.100000e+01 -9.000000e-01 -6.568472e-02
   endloop
 endfacet
 facet normal -1.000000e+00  0.000000e+00  0.000000e+00
   outer loop
     vertex -1.100000e+01 -9.000000e-01  5.934315e+00
     vertex -1.100000e+01  3.910000e+01  5.934315e+00
     vertex -1.100000e+01  3.910000e+01 -6.568472e-02
   endloop
 endfacet
 facet normal  0.000000e+00 -1.000000e+00 -0.000000e+00
   outer loop
     vertex  2.900000e+01 -9.000000e-01  5.934315e+00
     vertex -1.100000e+01 -9.000000e-01 -6.568472e-02
     vertex  2.900000e+01 -9.000000e-01 -6.568472e-02
   endloop
 endfacet
 facet normal -0.000000e+00 -1.000000e+00  0.000000e+00
   outer loop
     vertex  2.900000e+01 -9.000000e-01  5.934315e+00
     vertex -1.100000e+01 -9.000000e-01  5.934315e+00
     vertex -1.100000e+01 -9.000000e-01 -6.568472e-02
   endloop
 endfacet
 facet normal  0.000000e+00  0.000000e+00  1.000000e+00
   outer loop
     vertex  2.585009e+00  1.043528e+00  5.934315e+00
     vertex -1.100000e+01 -9.000000e-01  5.934315e+00
     vertex  2.588410e+00  5.298753e-01  5.934315e+00
   endloop
 endfacet
 facet normal  0.000000e+00  0.000000e+00  1.000000e+00
   outer loop
     vertex  2.588410e+00  1.043528e+00  5.934315e+00
     vertex  2.585009e+00  1.043528e+00  5.934315e+00
     vertex  2.588410e+00  5.298753e-01  5.934315e+00
   endloop
 endfacet
 facet normal  0.000000e+00  0.000000e+00  1.000000e+00
   outer loop
     vertex  2.582121e+00  1.350075e+00  5.934315e+00
     vertex -1.100000e+01 -9.000000e-01  5.934315e+00
     vertex  2.585009e+00  1.043528e+00  5.934315e+00
   endloop
 endfacet
 facet normal  0.000000e+00  0.000000e+00  1.000000e+00
   outer loop
     vertex  2.585009e+00  1.350075e+00  5.934315e+00
     vertex  2.582121e+00  1.350075e+00  5.934315e+00
     vertex  2.585009e+00  1.043528e+00  5.934315e+00
   endloop
 endfacet
 facet normal  0.000000e+00  0.000000e+00  1.000000e+00
   outer loop
     vertex  2.571184e+00  2.370793e+00  5.934315e+00
     vertex -1.100000e+01 -9.000000e-01  5.934315e+00
     vertex  2.582121e+00  1.350075e+00  5.934315e+00
   endloop
 endfacet
 facet normal  0.000000e+00  0.000000e+00  1.000000e+00
   outer loop
     vertex  2.582121e+00  2.370793e+00  5.934315e+00
     vertex  2.571184e+00  2.370793e+00  5.934315e+00
     vertex  2.582121e+00  1.350075e+00  5.934315e+00
   endloop
 endfacet
 facet normal  0.000000e+00  0.000000e+00  1.000000e+00
   outer loop
     vertex  1.541499e+01  1.043528e+00  5.934315e+00
     vertex  1.541159e+01  1.043528e+00  5.934315e+00
     vertex  1.541159e+01  5.298753e-01  5.934315e+00
   endloop
 endfacet
 facet normal  0.000000e+00  0.000000e+00  1.000000e+00
   outer loop
     vertex  1.541788e+01  1.350075e+00  5.934315e+00
     vertex  1.541499e+01  1.350075e+00  5.934315e+00
     vertex  1.541499e+01  1.043528e+00  5.934315e+00
   endloop
 endfacet
 facet normal  0.000000e+00  0.000000e+00  1.000000e+00
   outer loop
     vertex  1.542882e+01  2.370793e+00  5.934315e+00
     vertex  1.541788e+01  2.370793e+00  5.934315e+00
     vertex  1.541788e+01  1.350075e+00  5.934315e+00
   endloop
 endfacet
 facet normal  0.000000e+00  0.000000e+00  1.000000e+00
   outer loop
     vertex  2.900000e+01 -9.000000e-01  5.934315e+00
     vertex  1.541159e+01  5.298753e-01  5.934315e+00
     vertex  2.588410e+00  5.298753e-01  5.934315e+00
   endloop
 endfacet
 facet normal  0.000000e+00  0.000000e+00  1.000000e+00
   outer loop
     vertex  2.900000e+01 -9.000000e-01  5.934315e+00
     vertex  1.541499e+01  1.043528e+00  5.934315e+00
     vertex  1.541159e+01  5.298753e-01  5.934315e+00
   endloop
 endfacet
 facet normal  0.000000e+00  0.000000e+00  1.000000e+00
   outer loop
     vertex  2.900000e+01 -9.000000e-01  5.934315e+00
     vertex  2.588410e+00  5.298753e-01  5.934315e+00
     vertex -1.100000e+01 -9.000000e-01  5.934315e+00
   endloop
 endfacet
 facet normal  0.000000e+00  0.000000e+00  1.000000e+00
   outer loop
     vertex  2.900000e+01 -9.000000e-01  5.934315e+00
     vertex  1.541788e+01  1.350075e+00  5.934315e+00
     vertex  1.541499e+01  1.043528e+00  5.934315e+00
   endloop
 endfacet
 facet normal  0.000000e+00  0.000000e+00  1.000000e+00
   outer loop
     vertex  2.900000e+01 -9.000000e-01  5.934315e+00
     vertex  1.542882e+01  2.370793e+00  5.934315e+00
     vertex  1.541788e+01  1.350075e+00  5.934315e+00
   endloop
 endfacet
 facet normal  0.000000e+00  0.000000e+00  1.000000e+00
   outer loop
     vertex  2.571184e+00  2.802921e+01  5.934315e+00
     vertex -1.100000e+01  3.910000e+01  5.934315e+00
     vertex -1.100000e+01 -9.000000e-01  5.934315e+00
   endloop
 endfacet
 facet normal  0.000000e+00  0.000000e+00  1.000000e+00
   outer loop
     vertex  2.571184e+00  2.802921e+01  5.934315e+00
     vertex -1.100000e+01 -9.000000e-01  5.934315e+00
     vertex  2.571184e+00  2.370793e+00  5.934315e+00
   endloop
 endfacet
 facet normal  0.000000e+00  0.000000e+00  1.000000e+00
   outer loop
     vertex  2.582121e+00  2.804992e+01  5.934315e+00
     vertex  2.571184e+00  2.802921e+01  5.934315e+00
     vertex  2.582121e+00  2.802921e+01  5.934315e+00
   endloop
 endfacet
 facet normal  0.000000e+00  0.000000e+00  1.000000e+00
   outer loop
     vertex  2.582121e+00  2.804992e+01  5.934315e+00
     vertex -1.100000e+01  3.910000e+01  5.934315e+00
     vertex  2.571184e+00  2.802921e+01  5.934315e+00
   endloop
 endfacet
 facet normal  0.000000e+00  0.000000e+00  1.000000e+00
   outer loop
     vertex  2.585009e+00  3.765647e+01  5.934315e+00
     vertex  2.582121e+00  2.804992e+01  5.934315e+00
     vertex  2.585009e+00  2.804992e+01  5.934315e+00
   endloop
 endfacet
 facet normal  0.000000e+00  0.000000e+00  1.000000e+00
   outer loop
     vertex  2.585009e+00  3.765647e+01  5.934315e+00
     vertex -1.100000e+01  3.910000e+01  5.934315e+00
     vertex  2.582121e+00  2.804992e+01  5.934315e+00
   endloop
 endfacet
 facet normal  0.000000e+00  0.000000e+00  1.000000e+00
   outer loop
     vertex  2.588410e+00  3.767012e+01  5.934315e+00
     vertex  2.585009e+00  3.765647e+01  5.934315e+00
     vertex  2.588410e+00  3.765647e+01  5.934315e+00
   endloop
 endfacet
 facet normal  0.000000e+00  0.000000e+00  1.000000e+00
   outer loop
     vertex  2.588410e+00  3.767012e+01  5.934315e+00
     vertex -1.100000e+01  3.910000e+01  5.934315e+00
     vertex  2.585009e+00  3.765647e+01  5.934315e+00
   endloop
 endfacet
 facet normal  0.000000e+00  0.000000e+00  1.000000e+00
   outer loop
     vertex  1.542882e+01  2.802921e+01  5.934315e+00
     vertex  1.542882e+01  2.370793e+00  5.934315e+00
     vertex  2.900000e+01 -9.000000e-01  5.934315e+00
   endloop
 endfacet
 facet normal  0.000000e+00  0.000000e+00  1.000000e+00
   outer loop
     vertex  1.541788e+01  2.804992e+01  5.934315e+00
     vertex  1.541788e+01  2.802921e+01  5.934315e+00
     vertex  1.542882e+01  2.802921e+01  5.934315e+00
   endloop
 endfacet
 facet normal  0.000000e+00  0.000000e+00  1.000000e+00
   outer loop
     vertex  1.541499e+01  3.765647e+01  5.934315e+00
     vertex  1.541499e+01  2.804992e+01  5.934315e+00
     vertex  1.541788e+01  2.804992e+01  5.934315e+00
   endloop
 endfacet
 facet normal  0.000000e+00  0.000000e+00  1.000000e+00
   outer loop
     vertex  1.541159e+01  3.767012e+01  5.934315e+00
     vertex  1.541159e+01  3.765647e+01  5.934315e+00
     vertex  1.541499e+01  3.765647e+01  5.934315e+00
   endloop
 endfacet
 facet normal  0.000000e+00  0.000000e+00  1.000000e+00
   outer loop
     vertex  2.900000e+01  3.910000e+01  5.934315e+00
     vertex  1.541159e+01  3.767012e+01  5.934315e+00
     vertex  1.541499e+01  3.765647e+01  5.934315e+00
   endloop
 endfacet
 facet normal  0.000000e+00  0.000000e+00  1.000000e+00
   outer loop
     vertex  2.900000e+01  3.910000e+01  5.934315e+00
     vertex  1.541499e+01  3.765647e+01  5.934315e+00
     vertex  1.541788e+01  2.804992e+01  5.934315e+00
   endloop
 endfacet
 facet normal  0.000000e+00  0.000000e+00  1.000000e+00
   outer loop
     vertex  2.900000e+01  3.910000e+01  5.934315e+00
     vertex  1.542882e+01  2.802921e+01  5.934315e+00
     vertex  2.900000e+01 -9.000000e-01  5.934315e+00
   endloop
 endfacet
 facet normal  0.000000e+00  0.000000e+00  1.000000e+00
   outer loop
     vertex  2.900000e+01  3.910000e+01  5.934315e+00
     vertex  1.541788e+01  2.804992e+01  5.934315e+00
     vertex  1.542882e+01  2.802921e+01  5.934315e+00
   endloop
 endfacet
 facet normal  0.000000e+00  0.000000e+00  1.000000e+00
   outer loop
     vertex  2.900000e+01  3.910000e+01  5.934315e+00
     vertex -1.100000e+01  3.910000e+01  5.934315e+00
     vertex  1.541159e+01  3.767012e+01  5.934315e+00
   endloop
 endfacet
 facet normal  0.000000e+00  0.000000e+00  1.000000e+00
   outer loop
     vertex  1.541159e+01  3.767012e+01  5.934315e+00
     vertex -1.100000e+01  3.910000e+01  5.934315e+00
     vertex  2.588410e+00  3.767012e+01  5.934315e+00
   endloop
 endfacet
 facet normal  0.000000e+00  1.000000e+00  0.000000e+00
   outer loop
     vertex  2.900000e+01  3.910000e+01  5.934315e+00
     vertex  2.900000e+01  3.910000e+01 -6.568472e-02
     vertex -1.100000e+01  3.910000e+01 -6.568472e-02
   endloop
 endfacet
 facet normal  0.000000e+00  1.000000e+00  0.000000e+00
   outer loop
     vertex  2.900000e+01  3.910000e+01  5.934315e+00
     vertex -1.100000e+01  3.910000e+01 -6.568472e-02
     vertex -1.100000e+01  3.910000e+01  5.934315e+00
   endloop
 endfacet
 facet normal -0.000000e+00  0.000000e+00 -1.000000e+00
   outer loop
     vertex  2.900000e+01  3.910000e+01 -6.568472e-02
     vertex -1.100000e+01 -9.000000e-01 -6.568472e-02
     vertex -1.100000e+01  3.910000e+01 -6.568472e-02
   endloop
 endfacet
 facet normal  0.000000e+00 -0.000000e+00 -1.000000e+00
   outer loop
     vertex  2.900000e+01  3.910000e+01 -6.568472e-02
     vertex  2.900000e+01 -9.000000e-01 -6.568472e-02
     vertex -1.100000e+01 -9.000000e-01 -6.568472e-02
   endloop
 endfacet
 facet normal  1.000000e+00  0.000000e+00  0.000000e+00
   outer loop
     vertex  2.900000e+01 -9.000000e-01  5.934315e+00
     vertex  2.900000e+01 -9.000000e-01 -6.568472e-02
     vertex  2.900000e+01  3.910000e+01 -6.568472e-02
   endloop
 endfacet
 facet normal  1.000000e+00 -0.000000e+00  0.000000e+00
   outer loop
     vertex  2.900000e+01 -9.000000e-01  5.934315e+00
     vertex  2.900000e+01  3.910000e+01 -6.568472e-02
     vertex  2.900000e+01  3.910000e+01  5.934315e+00
   endloop
 endfacet
 facet normal -1.000000e+00  0.000000e+00  4.299898e-16
   outer loop
     vertex  1.542882e+01  2.370793e+00  5.934315e+00
     vertex  1.542882e+01  2.802921e+01  1.803155e+00
     vertex  1.542882e+01  2.370793e+00  1.803155e+00
   endloop
 endfacet
 facet normal -1.000000e+00  0.000000e+00  4.299898e-16
   outer loop
     vertex  1.542882e+01  2.370793e+00  5.934315e+00
     vertex  1.542882e+01  2.802921e+01  5.934315e+00
     vertex  1.542882e+01  2.802921e+01  1.803155e+00
   endloop
 endfacet
 facet normal -0.000000e+00 -1.000000e+00 -1.626663e-15
   outer loop
     vertex  2.582121e+00  2.802921e+01  5.934315e+00
     vertex  2.571184e+00  2.802921e+01  5.934315e+00
     vertex  2.582121e+00  2.802921e+01  3.750265e+00
   endloop
 endfacet
 facet normal  0.000000e+00 -1.000000e+00  1.824609e-15
   outer loop
     vertex  1.541788e+01  2.802921e+01  3.750265e+00
     vertex  2.571184e+00  2.802921e+01  1.803155e+00
     vertex  1.542882e+01  2.802921e+01  1.803155e+00
   endloop
 endfacet
 facet normal  0.000000e+00 -1.000000e+00  1.824609e-15
   outer loop
     vertex  1.541788e+01  2.802921e+01  3.750265e+00
     vertex  2.582121e+00  2.802921e+01  3.750265e+00
     vertex  2.571184e+00  2.802921e+01  1.803155e+00
   endloop
 endfacet
 facet normal -0.000000e+00 -1.000000e+00 -1.626663e-15
   outer loop
     vertex  1.542882e+01  2.802921e+01  5.934315e+00
     vertex  1.541788e+01  2.802921e+01  5.934315e+00
     vertex  1.541788e+01  2.802921e+01  3.750265e+00
   endloop
 endfacet
 facet normal -3.248398e-13 -1.000000e+00  1.396778e-28
   outer loop
     vertex  1.542882e+01  2.802921e+01  5.934315e+00
     vertex  1.541788e+01  2.802921e+01  3.750265e+00
     vertex  1.542882e+01  2.802921e+01  1.803155e+00
   endloop
 endfacet
 facet normal  3.248398e-13 -1.000000e+00 -3.491945e-29
   outer loop
     vertex  2.571184e+00  2.802921e+01  1.803155e+00
     vertex  2.582121e+00  2.802921e+01  3.750265e+00
     vertex  2.571184e+00  2.802921e+01  5.934315e+00
   endloop
 endfacet
 facet normal -1.000000e+00 -8.573934e-14 -1.394690e-28
   outer loop
     vertex  1.541788e+01  2.802921e+01  5.934315e+00
     vertex  1.541788e+01  2.804992e+01  3.750265e+00
     vertex  1.541788e+01  2.802921e+01  3.750265e+00
   endloop
 endfacet
 facet normal -1.000000e+00  0.000000e+00  8.133313e-16
   outer loop
     vertex  1.541788e+01  2.802921e+01  5.934315e+00
     vertex  1.541788e+01  2.804992e+01  5.934315e+00
     vertex  1.541788e+01  2.804992e+01  3.750265e+00
   endloop
 endfacet
 facet normal -0.000000e+00 -1.000000e+00  0.000000e+00
   outer loop
     vertex  2.585009e+00  2.804992e+01  5.934315e+00
     vertex  2.582121e+00  2.804992e+01  5.934315e+00
     vertex  2.585009e+00  2.804992e+01  4.753073e+00
   endloop
 endfacet
 facet normal -0.000000e+00 -1.000000e+00 -3.542764e-15
   outer loop
     vertex  1.541788e+01  2.804992e+01  3.750265e+00
     vertex  2.585009e+00  2.804992e+01  4.753073e+00
     vertex  2.582121e+00  2.804992e+01  3.750265e+00
   endloop
 endfacet
 facet normal -0.000000e+00 -1.000000e+00 -3.542764e-15
   outer loop
     vertex  1.541499e+01  2.804992e+01  4.753073e+00
     vertex  2.585009e+00  2.804992e+01  4.753073e+00
     vertex  1.541788e+01  2.804992e+01  3.750265e+00
   endloop
 endfacet
 facet normal -0.000000e+00 -1.000000e+00  0.000000e+00
   outer loop
     vertex  1.541788e+01  2.804992e+01  5.934315e+00
     vertex  1.541499e+01  2.804992e+01  5.934315e+00
     vertex  1.541499e+01  2.804992e+01  4.753073e+00
   endloop
 endfacet
 facet normal  6.653031e-13 -1.000000e+00 -1.626663e-15
   outer loop
     vertex  1.541788e+01  2.804992e+01  5.934315e+00
     vertex  1.541499e+01  2.804992e+01  4.753073e+00
     vertex  1.541788e+01  2.804992e+01  3.750265e+00
   endloop
 endfacet
 facet normal -6.653031e-13 -1.000000e+00 -1.626663e-15
   outer loop
     vertex  2.582121e+00  2.804992e+01  3.750265e+00
     vertex  2.585009e+00  2.804992e+01  4.753073e+00
     vertex  2.582121e+00  2.804992e+01  5.934315e+00
   endloop
 endfacet
 facet normal -1.000000e+00  0.000000e+00  0.000000e+00
   outer loop
     vertex  1.541499e+01  2.804992e+01  5.934315e+00
     vertex  1.541499e+01  3.765647e+01  4.753073e+00
     vertex  1.541499e+01  2.804992e+01  4.753073e+00
   endloop
 endfacet
 facet normal -1.000000e+00  0.000000e+00  0.000000e+00
   outer loop
     vertex  1.541499e+01  2.804992e+01  5.934315e+00
     vertex  1.541499e+01  3.765647e+01  5.934315e+00
     vertex  1.541499e+01  3.765647e+01  4.753073e+00
   endloop
 endfacet
 facet normal  0.000000e+00 -1.000000e+00  0.000000e+00
   outer loop
     vertex  2.585009e+00  3.765647e+01  5.934315e+00
     vertex  2.585009e+00  3.765647e+01  4.753073e+00
     vertex  2.588410e+00  3.765647e+01  5.756380e+00
   endloop
 endfacet
 facet normal -0.000000e+00 -1.000000e+00 -0.000000e+00
   outer loop
     vertex  2.588410e+00  3.765647e+01  5.934315e+00
     vertex  2.585009e+00  3.765647e+01  5.934315e+00
     vertex  2.588410e+00  3.765647e+01  5.756380e+00
   endloop
 endfacet
 facet normal  0.000000e+00 -1.000000e+00  0.000000e+00
   outer loop
     vertex  1.541499e+01  3.765647e+01  4.753073e+00
     vertex  2.588410e+00  3.765647e+01  5.756380e+00
     vertex  2.585009e+00  3.765647e+01  4.753073e+00
   endloop
 endfacet
 facet normal -0.000000e+00 -1.000000e+00 -0.000000e+00
   outer loop
     vertex  1.541159e+01  3.765647e+01  5.756380e+00
     vertex  2.588410e+00  3.765647e+01  5.756380e+00
     vertex  1.541499e+01  3.765647e+01  4.753073e+00
   endloop
 endfacet
 facet normal -0.000000e+00 -1.000000e+00  0.000000e+00
   outer loop
     vertex  1.541499e+01  3.765647e+01  5.934315e+00
     vertex  1.541159e+01  3.765647e+01  5.934315e+00
     vertex  1.541159e+01  3.765647e+01  5.756380e+00
   endloop
 endfacet
 facet normal  0.000000e+00 -1.000000e+00 -0.000000e+00
   outer loop
     vertex  1.541499e+01  3.765647e+01  5.934315e+00
     vertex  1.541159e+01  3.765647e+01  5.756380e+00
     vertex  1.541499e+01  3.765647e+01  4.753073e+00
   endloop
 endfacet
 facet normal -1.000000e+00 -1.301076e-13  9.983160e-15
   outer loop
     vertex  1.541159e+01  3.767012e+01  5.934315e+00
     vertex  1.541159e+01  3.767012e+01  5.756380e+00
     vertex  1.541159e+01  3.765647e+01  5.756380e+00
   endloop
 endfacet
 facet normal -1.000000e+00  0.000000e+00  0.000000e+00
   outer loop
     vertex  1.541159e+01  3.765647e+01  5.934315e+00
     vertex  1.541159e+01  3.767012e+01  5.934315e+00
     vertex  1.541159e+01  3.765647e+01  5.756380e+00
   endloop
 endfacet
 facet normal -0.000000e+00 -1.000000e+00 -3.993264e-14
   outer loop
     vertex  1.541159e+01  3.767012e+01  5.756380e+00
     vertex  2.588410e+00  3.767012e+01  5.934315e+00
     vertex  2.588410e+00  3.767012e+01  5.756380e+00
   endloop
 endfacet
 facet normal -0.000000e+00 -1.000000e+00 -3.993264e-14
   outer loop
     vertex  1.541159e+01  3.767012e+01  5.934315e+00
     vertex  2.588410e+00  3.767012e+01  5.934315e+00
     vertex  1.541159e+01  3.767012e+01  5.756380e+00
   endloop
 endfacet
 facet normal  1.000000e+00  0.000000e+00  0.000000e+00
   outer loop
     vertex  2.588410e+00  3.767012e+01  5.934315e+00
     vertex  2.588410e+00  3.765647e+01  5.756380e+00
     vertex  2.588410e+00  3.767012e+01  5.756380e+00
   endloop
 endfacet
 facet normal  1.000000e+00 -0.000000e+00  0.000000e+00
   outer loop
     vertex  2.588410e+00  3.765647e+01  5.934315e+00
     vertex  2.588410e+00  3.765647e+01  5.756380e+00
     vertex  2.588410e+00  3.767012e+01  5.934315e+00
   endloop
 endfacet
 facet normal  1.000000e+00  0.000000e+00 -3.759510e-16
   outer loop
     vertex  2.585009e+00  2.804992e+01  5.934315e+00
     vertex  2.585009e+00  2.804992e+01  4.753073e+00
     vertex  2.585009e+00  3.765647e+01  4.753073e+00
   endloop
 endfacet
 facet normal  1.000000e+00  4.622777e-17  0.000000e+00
   outer loop
     vertex  2.585009e+00  2.804992e+01  5.934315e+00
     vertex  2.585009e+00  3.765647e+01  4.753073e+00
     vertex  2.585009e+00  3.765647e+01  5.934315e+00
   endloop
 endfacet
 facet normal  1.000000e+00  4.358406e-30 -2.033328e-16
   outer loop
     vertex  2.582121e+00  2.802921e+01  5.934315e+00
     vertex  2.582121e+00  2.802921e+01  3.750265e+00
     vertex  2.582121e+00  2.804992e+01  3.750265e+00
   endloop
 endfacet
 facet normal  1.000000e+00  2.143484e-14  3.486725e-29
   outer loop
     vertex  2.582121e+00  2.802921e+01  5.934315e+00
     vertex  2.582121e+00  2.804992e+01  3.750265e+00
     vertex  2.582121e+00  2.804992e+01  5.934315e+00
   endloop
 endfacet
 facet normal  1.000000e+00  0.000000e+00 -1.074974e-16
   outer loop
     vertex  2.571184e+00  2.370793e+00  5.934315e+00
     vertex  2.571184e+00  2.370793e+00  1.803155e+00
     vertex  2.571184e+00  2.802921e+01  1.803155e+00
   endloop
 endfacet
 facet normal  1.000000e+00  0.000000e+00 -1.074974e-16
   outer loop
     vertex  2.571184e+00  2.370793e+00  5.934315e+00
     vertex  2.571184e+00  2.802921e+01  1.803155e+00
     vertex  2.571184e+00  2.802921e+01  5.934315e+00
   endloop
 endfacet
 facet normal  0.000000e+00  1.000000e+00  0.000000e+00
   outer loop
     vertex  2.582121e+00  2.370793e+00  5.934315e+00
     vertex  2.582121e+00  2.370793e+00  3.750265e+00
     vertex  2.571184e+00  2.370793e+00  5.934315e+00
   endloop
 endfacet
 facet normal  0.000000e+00  1.000000e+00 -2.280761e-16
   outer loop
     vertex  1.541788e+01  2.370793e+00  3.750265e+00
     vertex  1.542882e+01  2.370793e+00  1.803155e+00
     vertex  2.571184e+00  2.370793e+00  1.803155e+00
   endloop
 endfacet
 facet normal  0.000000e+00  1.000000e+00 -2.280761e-16
   outer loop
     vertex  1.541788e+01  2.370793e+00  3.750265e+00
     vertex  2.571184e+00  2.370793e+00  1.803155e+00
     vertex  2.582121e+00  2.370793e+00  3.750265e+00
   endloop
 endfacet
 facet normal  0.000000e+00  1.000000e+00  0.000000e+00
   outer loop
     vertex  1.542882e+01  2.370793e+00  5.934315e+00
     vertex  1.541788e+01  2.370793e+00  3.750265e+00
     vertex  1.541788e+01  2.370793e+00  5.934315e+00
   endloop
 endfacet
 facet normal  2.146693e-14  1.000000e+00 -1.074974e-16
   outer loop
     vertex  1.542882e+01  2.370793e+00  5.934315e+00
     vertex  1.542882e+01  2.370793e+00  1.803155e+00
     vertex  1.541788e+01  2.370793e+00  3.750265e+00
   endloop
 endfacet
 facet normal -2.146693e-14  1.000000e+00 -1.074974e-16
   outer loop
     vertex  2.571184e+00  2.370793e+00  1.803155e+00
     vertex  2.571184e+00  2.370793e+00  5.934315e+00
     vertex  2.582121e+00  2.370793e+00  3.750265e+00
   endloop
 endfacet
 facet normal  1.000000e+00  0.000000e+00  0.000000e+00
   outer loop
     vertex  2.582121e+00  1.350075e+00  5.934315e+00
     vertex  2.582121e+00  1.350075e+00  3.750265e+00
     vertex  2.582121e+00  2.370793e+00  3.750265e+00
   endloop
 endfacet
 facet normal  1.000000e+00 -4.350753e-16 -2.033328e-16
   outer loop
     vertex  2.582121e+00  1.350075e+00  5.934315e+00
     vertex  2.582121e+00  2.370793e+00  3.750265e+00
     vertex  2.582121e+00  2.370793e+00  5.934315e+00
   endloop
 endfacet
 facet normal  0.000000e+00  1.000000e+00  0.000000e+00
   outer loop
     vertex  2.585009e+00  1.350075e+00  5.934315e+00
     vertex  2.585009e+00  1.350075e+00  4.753073e+00
     vertex  2.582121e+00  1.350075e+00  5.934315e+00
   endloop
 endfacet
 facet normal  0.000000e+00  1.000000e+00  2.214228e-16
   outer loop
     vertex  1.541788e+01  1.350075e+00  3.750265e+00
     vertex  2.582121e+00  1.350075e+00  3.750265e+00
     vertex  2.585009e+00  1.350075e+00  4.753073e+00
   endloop
 endfacet
 facet normal  0.000000e+00  1.000000e+00  2.214228e-16
   outer loop
     vertex  1.541499e+01  1.350075e+00  4.753073e+00
     vertex  1.541788e+01  1.350075e+00  3.750265e+00
     vertex  2.585009e+00  1.350075e+00  4.753073e+00
   endloop
 endfacet
 facet normal  0.000000e+00  1.000000e+00  0.000000e+00
   outer loop
     vertex  1.541788e+01  1.350075e+00  5.934315e+00
     vertex  1.541499e+01  1.350075e+00  4.753073e+00
     vertex  1.541499e+01  1.350075e+00  5.934315e+00
   endloop
 endfacet
 facet normal -4.158144e-14  1.000000e+00  1.016664e-16
   outer loop
     vertex  1.541788e+01  1.350075e+00  5.934315e+00
     vertex  1.541788e+01  1.350075e+00  3.750265e+00
     vertex  1.541499e+01  1.350075e+00  4.753073e+00
   endloop
 endfacet
 facet normal  4.158144e-14  1.000000e+00  1.016664e-16
   outer loop
     vertex  2.582121e+00  1.350075e+00  3.750265e+00
     vertex  2.582121e+00  1.350075e+00  5.934315e+00
     vertex  2.585009e+00  1.350075e+00  4.753073e+00
   endloop
 endfacet
 facet normal  1.000000e+00  0.000000e+00  0.000000e+00
   outer loop
     vertex  2.585009e+00  1.043528e+00  5.934315e+00
     vertex  2.585009e+00  1.043528e+00  4.753073e+00
     vertex  2.585009e+00  1.350075e+00  4.753073e+00
   endloop
 endfacet
 facet normal  1.000000e+00 -1.448684e-15 -3.759510e-16
   outer loop
     vertex  2.585009e+00  1.043528e+00  5.934315e+00
     vertex  2.585009e+00  1.350075e+00  4.753073e+00
     vertex  2.585009e+00  1.350075e+00  5.934315e+00
   endloop
 endfacet
 facet normal  0.000000e+00  1.000000e+00  0.000000e+00
   outer loop
     vertex  2.585009e+00  1.043528e+00  5.934315e+00
     vertex  2.588410e+00  1.043528e+00  5.756380e+00
     vertex  2.585009e+00  1.043528e+00  4.753073e+00
   endloop
 endfacet
 facet normal  0.000000e+00  1.000000e+00  0.000000e+00
   outer loop
     vertex  2.588410e+00  1.043528e+00  5.934315e+00
     vertex  2.588410e+00  1.043528e+00  5.756380e+00
     vertex  2.585009e+00  1.043528e+00  5.934315e+00
   endloop
 endfacet
 facet normal  0.000000e+00  1.000000e+00  0.000000e+00
   outer loop
     vertex  1.541499e+01  1.043528e+00  4.753073e+00
     vertex  2.585009e+00  1.043528e+00  4.753073e+00
     vertex  2.588410e+00  1.043528e+00  5.756380e+00
   endloop
 endfacet
 facet normal  0.000000e+00  1.000000e+00  0.000000e+00
   outer loop
     vertex  1.541159e+01  1.043528e+00  5.756380e+00
     vertex  1.541499e+01  1.043528e+00  4.753073e+00
     vertex  2.588410e+00  1.043528e+00  5.756380e+00
   endloop
 endfacet
 facet normal  0.000000e+00  1.000000e+00  0.000000e+00
   outer loop
     vertex  1.541499e+01  1.043528e+00  5.934315e+00
     vertex  1.541159e+01  1.043528e+00  5.756380e+00
     vertex  1.541159e+01  1.043528e+00  5.934315e+00
   endloop
 endfacet
 facet normal  0.000000e+00  1.000000e+00  0.000000e+00
   outer loop
     vertex  1.541499e+01  1.043528e+00  5.934315e+00
     vertex  1.541499e+01  1.043528e+00  4.753073e+00
     vertex  1.541159e+01  1.043528e+00  5.756380e+00
   endloop
 endfacet
 facet normal  1.000000e+00  0.000000e+00  0.000000e+00
   outer loop
     vertex  2.588410e+00  5.298753e-01  5.934315e+00
     vertex  2.588410e+00  5.298753e-01  5.756380e+00
     vertex  2.588410e+00  1.043528e+00  5.756380e+00
   endloop
 endfacet
 facet normal  1.000000e+00 -0.000000e+00  0.000000e+00
   outer loop
     vertex  2.588410e+00  5.298753e-01  5.934315e+00
     vertex  2.588410e+00  1.043528e+00  5.756380e+00
     vertex  2.588410e+00  1.043528e+00  5.934315e+00
   endloop
 endfacet
 facet normal  0.000000e+00  1.000000e+00 -1.247895e-15
   outer loop
     vertex  1.541159e+01  5.298753e-01  5.756380e+00
     vertex  2.588410e+00  5.298753e-01  5.756380e+00
     vertex  2.588410e+00  5.298753e-01  5.934315e+00
   endloop
 endfacet
 facet normal  0.000000e+00  1.000000e+00 -1.247895e-15
   outer loop
     vertex  1.541159e+01  5.298753e-01  5.934315e+00
     vertex  1.541159e+01  5.298753e-01  5.756380e+00
     vertex  2.588410e+00  5.298753e-01  5.934315e+00
   endloop
 endfacet
 facet normal -1.000000e+00  3.458282e-15  9.983160e-15
   outer loop
     vertex  1.541159e+01  5.298753e-01  5.934315e+00
     vertex  1.541159e+01  1.043528e+00  5.756380e+00
     vertex  1.541159e+01  5.298753e-01  5.756380e+00
   endloop
 endfacet
 facet normal -1.000000e+00  0.000000e+00  0.000000e+00
   outer loop
     vertex  1.541159e+01  5.298753e-01  5.934315e+00
     vertex  1.541159e+01  1.043528e+00  5.934315e+00
     vertex  1.541159e+01  1.043528e+00  5.756380e+00
   endloop
 endfacet
 facet normal -1.000000e+00  0.000000e+00  0.000000e+00
   outer loop
     vertex  1.541499e+01  1.043528e+00  5.934315e+00
     vertex  1.541499e+01  1.350075e+00  4.753073e+00
     vertex  1.541499e+01  1.043528e+00  4.753073e+00
   endloop
 endfacet
 facet normal -1.000000e+00  0.000000e+00  0.000000e+00
   outer loop
     vertex  1.541499e+01  1.043528e+00  5.934315e+00
     vertex  1.541499e+01  1.350075e+00  5.934315e+00
     vertex  1.541499e+01  1.350075e+00  4.753073e+00
   endloop
 endfacet
 facet normal -1.000000e+00  1.740301e-15  8.133313e-16
   outer loop
     vertex  1.541788e+01  1.350075e+00  5.934315e+00
     vertex  1.541788e+01  2.370793e+00  3.750265e+00
     vertex  1.541788e+01  1.350075e+00  3.750265e+00
   endloop
 endfacet
 facet normal -1.000000e+00  0.000000e+00  0.000000e+00
   outer loop
     vertex  1.541788e+01  1.350075e+00  5.934315e+00
     vertex  1.541788e+01  2.370793e+00  5.934315e+00
     vertex  1.541788e+01  2.370793e+00  3.750265e+00
   endloop
 endfacet
 facet normal  0.000000e+00  0.000000e+00  1.000000e+00
   outer loop
     vertex  1.542882e+01  2.802921e+01  1.803155e+00
     vertex  2.571184e+00  2.802921e+01  1.803155e+00
     vertex  2.571184e+00  2.370793e+00  1.803155e+00
   endloop
 endfacet
 facet normal  0.000000e+00  0.000000e+00  1.000000e+00
   outer loop
     vertex  1.542882e+01  2.802921e+01  1.803155e+00
     vertex  2.571184e+00  2.370793e+00  1.803155e+00
     vertex  1.542882e+01  2.370793e+00  1.803155e+00
   endloop
 endfacet
 facet normal  0.000000e+00 -2.143484e-14  1.000000e+00
   outer loop
     vertex  1.541788e+01  2.804992e+01  3.750265e+00
     vertex  2.582121e+00  2.804992e+01  3.750265e+00
     vertex  2.582121e+00  2.802921e+01  3.750265e+00
   endloop
 endfacet
 facet normal  0.000000e+00 -2.143484e-14  1.000000e+00
   outer loop
     vertex  1.541788e+01  2.804992e+01  3.750265e+00
     vertex  2.582121e+00  2.802921e+01  3.750265e+00
     vertex  1.541788e+01  2.802921e+01  3.750265e+00
   endloop
 endfacet
 facet normal  0.000000e+00  0.000000e+00  1.000000e+00
   outer loop
     vertex  1.541499e+01  3.765647e+01  4.753073e+00
     vertex  2.585009e+00  3.765647e+01  4.753073e+00
     vertex  2.585009e+00  2.804992e+01  4.753073e+00
   endloop
 endfacet
 facet normal  0.000000e+00  0.000000e+00  1.000000e+00
   outer loop
     vertex  1.541499e+01  3.765647e+01  4.753073e+00
     vertex  2.585009e+00  2.804992e+01  4.753073e+00
     vertex  1.541499e+01  2.804992e+01  4.753073e+00
   endloop
 endfacet
 facet normal  0.000000e+00  0.000000e+00  1.000000e+00
   outer loop
     vertex  1.541159e+01  3.767012e+01  5.756380e+00
     vertex  2.588410e+00  3.767012e+01  5.756380e+00
     vertex  2.588410e+00  3.765647e+01  5.756380e+00
   endloop
 endfacet
 facet normal  0.000000e+00  0.000000e+00  1.000000e+00
   outer loop
     vertex  1.541159e+01  3.767012e+01  5.756380e+00
     vertex  2.588410e+00  3.765647e+01  5.756380e+00
     vertex  1.541159e+01  3.765647e+01  5.756380e+00
   endloop
 endfacet
 facet normal  0.000000e+00  4.350753e-16  1.000000e+00
   outer loop
     vertex  1.541788e+01  2.370793e+00  3.750265e+00
     vertex  2.582121e+00  2.370793e+00  3.750265e+00
     vertex  2.582121e+00  1.350075e+00  3.750265e+00
   endloop
 endfacet
 facet normal  0.000000e+00  4.350753e-16  1.000000e+00
   outer loop
     vertex  1.541788e+01  2.370793e+00  3.750265e+00
     vertex  2.582121e+00  1.350075e+00  3.750265e+00
     vertex  1.541788e+01  1.350075e+00  3.750265e+00
   endloop
 endfacet
 facet normal  0.000000e+00  0.000000e+00  1.000000e+00
   outer loop
     vertex  1.541499e+01  1.350075e+00  4.753073e+00
     vertex  2.585009e+00  1.350075e+00  4.753073e+00
     vertex  2.585009e+00  1.043528e+00  4.753073e+00
   endloop
 endfacet
 facet normal  0.000000e+00  0.000000e+00  1.000000e+00
   outer loop
     vertex  1.541499e+01  1.350075e+00  4.753073e+00
     vertex  2.585009e+00  1.043528e+00  4.753073e+00
     vertex  1.541499e+01  1.043528e+00  4.753073e+00
   endloop
 endfacet
 facet normal  0.000000e+00  0.000000e+00  1.000000e+00
   outer loop
     vertex  1.541159e+01  1.043528e+00  5.756380e+00
     vertex  2.588410e+00  1.043528e+00  5.756380e+00
     vertex  2.588410e+00  5.298753e-01  5.756380e+00
   endloop
 endfacet
 facet normal  0.000000e+00  0.000000e+00  1.000000e+00
   outer loop
     vertex  1.541159e+01  1.043528e+00  5.756380e+00
     vertex  2.588410e+00  5.298753e-01  5.756380e+00
     vertex  1.541159e+01  5.298753e-01  5.756380e+00
   endloop
 endfacet
endsolid
