solid polyhedron
  facet normal -0 328 -0
    outer loop
      vertex -20.5 20.5 4
      vertex 20.5 20.5 4
      vertex -20.5 20.5 -4
    endloop
  endfacet
  facet normal 0 328 0
    outer loop
      vertex -20.5 20.5 -4
      vertex 20.5 20.5 4
      vertex 20.5 20.5 -4
    endloop
  endfacet
  facet normal 328 0 0
    outer loop
      vertex 20.5 -20.5 -4
      vertex 20.5 20.5 -4
      vertex 20.5 20.5 4
    endloop
  endfacet
  facet normal 328 -0 -0
    outer loop
      vertex 20.5 -20.5 4
      vertex 20.5 -20.5 -4
      vertex 20.5 20.5 4
    endloop
  endfacet
  facet normal -0 0 584.25
    outer loop
      vertex 6.25 -0.912431 4
      vertex 20.5 -20.5 4
      vertex 20.5 20.5 4
    endloop
  endfacet
  facet normal -0 -0 0.757608
    outer loop
      vertex 5.3397 -16.5251 4
      vertex 4.16667 -17.3941 4
      vertex 6.21153 -16.5251 4
    endloop
  endfacet
  facet normal -0 -0 584.25
    outer loop
      vertex -20.5 20.5 4
      vertex -20.5 -20.5 4
      vertex -6.25 -0.912431 4
    endloop
  endfacet
  facet normal -0 -0 23.693
    outer loop
      vertex 1.55648 18.35 4
      vertex 1.55648 17.0993 4
      vertex 20.5 20.5 4
    endloop
  endfacet
  facet normal -0 0 130.021
    outer loop
      vertex -20.5 20.5 4
      vertex -6.25 -0.912431 4
      vertex -6.25 8.21188 4
    endloop
  endfacet
  facet normal 0 0 51.2745
    outer loop
      vertex 2.07731 8.21188 4
      vertex 6.25 8.21188 4
      vertex 20.5 20.5 4
    endloop
  endfacet
  facet normal 0 0 2.66661
    outer loop
      vertex -6.25 8.21188 4
      vertex -2.07731 8.21188 4
      vertex -2.07731 8.85094 4
    endloop
  endfacet
  facet normal -0 -0 154.915
    outer loop
      vertex 1.55648 17.0993 4
      vertex 1.55648 8.92155 4
      vertex 20.5 20.5 4
    endloop
  endfacet
  facet normal 0 0 0.294613
    outer loop
      vertex -6.25 8.21188 4
      vertex -2.07731 8.85094 4
      vertex -2.07731 8.92155 4
    endloop
  endfacet
  facet normal -0 -0 130.021
    outer loop
      vertex 6.25 8.21188 4
      vertex 6.25 -0.912431 4
      vertex 20.5 20.5 4
    endloop
  endfacet
  facet normal -0 0 184.32
    outer loop
      vertex -20.5 20.5 4
      vertex -6.25 8.21188 4
      vertex -1.55648 17.0993 4
    endloop
  endfacet
  facet normal -0 0 88.15
    outer loop
      vertex -20.5 20.5 4
      vertex -1.55648 18.35 4
      vertex 20.5 20.5 4
    endloop
  endfacet
  facet normal -0 0 23.693
    outer loop
      vertex -20.5 20.5 4
      vertex -1.55648 17.0993 4
      vertex -1.55648 18.35 4
    endloop
  endfacet
  facet normal 0 0 6.69285
    outer loop
      vertex -1.55648 18.35 4
      vertex 1.55648 18.35 4
      vertex 20.5 20.5 4
    endloop
  endfacet
  facet normal 0 0 6.03044
    outer loop
      vertex 1.55648 8.92155 4
      vertex 2.07731 8.92155 4
      vertex 20.5 20.5 4
    endloop
  endfacet
  facet normal -0 -0 11.7733
    outer loop
      vertex 2.07731 8.92155 4
      vertex 2.07731 8.28248 4
      vertex 20.5 20.5 4
    endloop
  endfacet
  facet normal -0 -0 1.30073
    outer loop
      vertex 2.07731 8.28248 4
      vertex 2.07731 8.21188 4
      vertex 20.5 20.5 4
    endloop
  endfacet
  facet normal -0 0 16.101
    outer loop
      vertex 6.24723 -2.03851 4
      vertex 20.5 -20.5 4
      vertex 6.25 -0.912431 4
    endloop
  endfacet
  facet normal -0 0 0.00563718
    outer loop
      vertex 6.24499 -0.912431 4
      vertex 6.24723 -2.03851 4
      vertex 6.25 -0.912431 4
    endloop
  endfacet
  facet normal -0 0 207.134
    outer loop
      vertex 6.21153 -16.5251 4
      vertex 20.5 -20.5 4
      vertex 6.24723 -2.03851 4
    endloop
  endfacet
  facet normal -0 0 20.5445
    outer loop
      vertex 4.16667 -17.3941 4
      vertex 20.5 -20.5 4
      vertex 6.21153 -16.5251 4
    endloop
  endfacet
  facet normal -0 -0 207.134
    outer loop
      vertex -6.21153 -16.5251 4
      vertex -6.24723 -2.03851 4
      vertex -20.5 -20.5 4
    endloop
  endfacet
  facet normal -0 0 15.6127
    outer loop
      vertex 4.16667 -18.35 4
      vertex 20.5 -20.5 4
      vertex 4.16667 -17.3941 4
    endloop
  endfacet
  facet normal 0 0 88.15
    outer loop
      vertex -20.5 -20.5 4
      vertex 20.5 -20.5 4
      vertex 4.16667 -18.35 4
    endloop
  endfacet
  facet normal -0 -0 14.1934
    outer loop
      vertex -4.16667 -18.35 4
      vertex -4.16667 -17.481 4
      vertex -20.5 -20.5 4
    endloop
  endfacet
  facet normal 0 0 9.38492
    outer loop
      vertex -20.5 -20.5 4
      vertex 4.16667 -18.35 4
      vertex -0.198413 -18.35 4
    endloop
  endfacet
  facet normal -0 -0 8.53175
    outer loop
      vertex -0.198413 -18.35 4
      vertex -4.16667 -18.35 4
      vertex -20.5 -20.5 4
    endloop
  endfacet
  facet normal 0 0 15.6127
    outer loop
      vertex -20.5 -20.5 4
      vertex -4.16667 -17.481 4
      vertex -4.16667 -16.5251 4
    endloop
  endfacet
  facet normal 0 0 4.66263
    outer loop
      vertex -20.5 -20.5 4
      vertex -4.16667 -16.5251 4
      vertex -5.3397 -16.5251 4
    endloop
  endfacet
  facet normal 0 0 3.46542
    outer loop
      vertex -20.5 -20.5 4
      vertex -5.3397 -16.5251 4
      vertex -6.21153 -16.5251 4
    endloop
  endfacet
  facet normal -0 -0 16.101
    outer loop
      vertex -6.25 -0.912431 4
      vertex -20.5 -20.5 4
      vertex -6.24723 -2.03851 4
    endloop
  endfacet
  facet normal -0 0 0.00563719
    outer loop
      vertex -6.25 -0.912431 4
      vertex -6.24723 -2.03851 4
      vertex -6.24499 -0.912431 4
    endloop
  endfacet
  facet normal -0 -0 1.01934
    outer loop
      vertex 4.16667 -16.5251 4
      vertex 4.16667 -17.3941 4
      vertex 5.3397 -16.5251 4
    endloop
  endfacet
  facet normal -0 -0 33.7535
    outer loop
      vertex -2.07731 8.92155 4
      vertex -1.55648 17.0993 4
      vertex -6.25 8.21188 4
    endloop
  endfacet
  facet normal -0 -0 4.25924
    outer loop
      vertex -1.55648 8.92155 4
      vertex -1.55648 17.0993 4
      vertex -2.07731 8.92155 4
    endloop
  endfacet
  facet normal -0 0 -1681
    outer loop
      vertex -20.5 20.5 -4
      vertex 20.5 20.5 -4
      vertex -20.5 -20.5 -4
    endloop
  endfacet
  facet normal -0 0 -1681
    outer loop
      vertex -20.5 -20.5 -4
      vertex 20.5 20.5 -4
      vertex 20.5 -20.5 -4
    endloop
  endfacet
  facet normal -328 -0 0
    outer loop
      vertex -20.5 -20.5 4
      vertex -20.5 20.5 4
      vertex -20.5 -20.5 -4
    endloop
  endfacet
  facet normal -328 -0 0
    outer loop
      vertex -20.5 -20.5 -4
      vertex -20.5 20.5 4
      vertex -20.5 20.5 -4
    endloop
  endfacet
  facet normal -0 -328 0
    outer loop
      vertex -20.5 -20.5 -4
      vertex 20.5 -20.5 -4
      vertex 20.5 -20.5 4
    endloop
  endfacet
  facet normal -0 -328 0
    outer loop
      vertex -20.5 -20.5 4
      vertex -20.5 -20.5 -4
      vertex 20.5 -20.5 4
    endloop
  endfacet
  facet normal 47.4464 0 0
    outer loop
      vertex -6.25 -0.912431 -1.2
      vertex -6.25 8.21188 -1.2
      vertex -6.25 8.21188 4
    endloop
  endfacet
  facet normal 47.4464 0 0
    outer loop
      vertex -6.25 -0.912431 4
      vertex -6.25 -0.912431 -1.2
      vertex -6.25 8.21188 4
    endloop
  endfacet
  facet normal 0 0.0260314 0
    outer loop
      vertex -6.25 -0.912431 4
      vertex -6.24499 -0.912431 4
      vertex -6.25 -0.912431 -1.2
    endloop
  endfacet
  facet normal 0 0.626557 0
    outer loop
      vertex -6.25 -0.912431 -1.2
      vertex -6.24499 -0.912431 4
      vertex -6.12565 -0.912431 2.808
    endloop
  endfacet
  facet normal 0 1.6233 0
    outer loop
      vertex -6.25 -0.912431 -1.2
      vertex -6.12565 -0.912431 2.808
      vertex -5.75762 -0.912431 1.61608
    endloop
  endfacet
  facet normal 0 2.2194 0
    outer loop
      vertex -5.75762 -0.912431 1.61608
      vertex -5.16074 -0.912431 0.522327
      vertex -6.25 -0.912431 -1.2
    endloop
  endfacet
  facet normal 0 2.41711 0
    outer loop
      vertex -5.16074 -0.912431 0.522327
      vertex -4.35909 -0.912431 -0.429158
      vertex -6.25 -0.912431 -1.2
    endloop
  endfacet
  facet normal 0 2.20846 0
    outer loop
      vertex -4.35909 -0.912431 -0.429158
      vertex -3.38501 -0.912431 -1.2
      vertex -6.25 -0.912431 -1.2
    endloop
  endfacet
  facet normal 17.9924 -0.0356529 1.80141
    outer loop
      vertex -6.24723 -2.03851 4
      vertex -6.21153 -16.5251 3.35677
      vertex -6.12565 -0.912431 2.808
    endloop
  endfacet
  facet normal 1.34229 -0.00265982 0.134391
    outer loop
      vertex -6.24499 -0.912431 4
      vertex -6.24723 -2.03851 4
      vertex -6.12565 -0.912431 2.808
    endloop
  endfacet
  facet normal 9.31827 0.0229601 1.49115e-17
    outer loop
      vertex -6.24723 -2.03851 4
      vertex -6.21153 -16.5251 4
      vertex -6.21153 -16.5251 3.35677
    endloop
  endfacet
  facet normal 9.87878e-17 0.871834 5.66216e-16
    outer loop
      vertex -5.3397 -16.5251 4
      vertex -4.16667 -16.5251 3
      vertex -6.21153 -16.5251 4
    endloop
  endfacet
  facet normal 1.4904e-16 1.31532 8.54242e-16
    outer loop
      vertex -6.21153 -16.5251 4
      vertex -4.16667 -16.5251 3
      vertex -6.21153 -16.5251 3.35677
    endloop
  endfacet
  facet normal -9.45322e-16 1.17303 -5.02976e-16
    outer loop
      vertex -5.3397 -16.5251 4
      vertex -4.16667 -16.5251 4
      vertex -4.16667 -16.5251 3
    endloop
  endfacet
  facet normal 1.82486 -1.36485e-22 6.67674e-08
    outer loop
      vertex -4.16667 -17.481 4
      vertex -4.16667 -18.35 3
      vertex -4.16667 -16.5251 3
    endloop
  endfacet
  facet normal 0.95588 -7.1492e-23 3.49734e-08
    outer loop
      vertex -4.16667 -16.5251 4
      vertex -4.16667 -17.481 4
      vertex -4.16667 -16.5251 3
    endloop
  endfacet
  facet normal 0.868982 0 3.1794e-08
    outer loop
      vertex -4.16667 -18.35 4
      vertex -4.16667 -18.35 3
      vertex -4.16667 -17.481 4
    endloop
  endfacet
  facet normal -9.58405e-24 3.96825 -3.40305e-15
    outer loop
      vertex -4.16667 -18.35 4
      vertex -0.198413 -18.35 4
      vertex -4.16667 -18.35 3
    endloop
  endfacet
  facet normal 0 4.36508 -3.74335e-15
    outer loop
      vertex -0.198413 -18.35 4
      vertex 4.16667 -18.35 4
      vertex -4.16667 -18.35 3
    endloop
  endfacet
  facet normal 0 8.33333 -7.1464e-15
    outer loop
      vertex -4.16667 -18.35 3
      vertex 4.16667 -18.35 4
      vertex 4.16667 -18.35 3
    endloop
  endfacet
  facet normal -0.95588 7.1492e-23 -3.49734e-08
    outer loop
      vertex 4.16667 -17.3941 4
      vertex 4.16667 -16.5251 3
      vertex 4.16667 -18.35 4
    endloop
  endfacet
  facet normal -1.82486 1.36485e-22 -6.67674e-08
    outer loop
      vertex 4.16667 -18.35 4
      vertex 4.16667 -16.5251 3
      vertex 4.16667 -18.35 3
    endloop
  endfacet
  facet normal -0.868982 0 -3.1794e-08
    outer loop
      vertex 4.16667 -17.3941 4
      vertex 4.16667 -16.5251 4
      vertex 4.16667 -16.5251 3
    endloop
  endfacet
  facet normal 9.45322e-16 1.17303 -5.02976e-16
    outer loop
      vertex 4.16667 -16.5251 4
      vertex 5.3397 -16.5251 4
      vertex 4.16667 -16.5251 3
    endloop
  endfacet
  facet normal -9.87878e-17 0.871834 5.66217e-16
    outer loop
      vertex 5.3397 -16.5251 4
      vertex 6.21153 -16.5251 4
      vertex 4.16667 -16.5251 3
    endloop
  endfacet
  facet normal -1.4904e-16 1.31532 8.54243e-16
    outer loop
      vertex 4.16667 -16.5251 3
      vertex 6.21153 -16.5251 4
      vertex 6.21153 -16.5251 3.35677
    endloop
  endfacet
  facet normal -9.31827 0.0229599 1.49114e-17
    outer loop
      vertex 6.21153 -16.5251 4
      vertex 6.24723 -2.03851 4
      vertex 6.21153 -16.5251 3.35677
    endloop
  endfacet
  facet normal -17.9924 -0.0356531 1.80141
    outer loop
      vertex 6.21153 -16.5251 3.35677
      vertex 6.24723 -2.03851 4
      vertex 6.12565 -0.912431 2.808
    endloop
  endfacet
  facet normal -1.34229 -0.00265983 0.134391
    outer loop
      vertex 6.12565 -0.912431 2.808
      vertex 6.24723 -2.03851 4
      vertex 6.24499 -0.912431 4
    endloop
  endfacet
  facet normal 0 2.20846 0
    outer loop
      vertex 4.35909 -0.912431 -0.429158
      vertex 6.25 -0.912431 -1.2
      vertex 3.38501 -0.912431 -1.2
    endloop
  endfacet
  facet normal 0 2.41711 0
    outer loop
      vertex 4.35909 -0.912431 -0.429158
      vertex 5.16074 -0.912431 0.522327
      vertex 6.25 -0.912431 -1.2
    endloop
  endfacet
  facet normal 0 2.2194 0
    outer loop
      vertex 5.16074 -0.912431 0.522327
      vertex 5.75762 -0.912431 1.61608
      vertex 6.25 -0.912431 -1.2
    endloop
  endfacet
  facet normal 0 0.00596719 0
    outer loop
      vertex 6.25 -0.912431 4
      vertex 6.12565 -0.912431 2.808
      vertex 6.24499 -0.912431 4
    endloop
  endfacet
  facet normal 0 0.646619 0
    outer loop
      vertex 6.25 -0.912431 -1.2
      vertex 6.12565 -0.912431 2.808
      vertex 6.25 -0.912431 4
    endloop
  endfacet
  facet normal 0 1.6233 0
    outer loop
      vertex 5.75762 -0.912431 1.61608
      vertex 6.12565 -0.912431 2.808
      vertex 6.25 -0.912431 -1.2
    endloop
  endfacet
  facet normal -47.4464 0 0
    outer loop
      vertex 6.25 -0.912431 4
      vertex 6.25 8.21188 4
      vertex 6.25 -0.912431 -1.2
    endloop
  endfacet
  facet normal -47.4464 0 0
    outer loop
      vertex 6.25 -0.912431 -1.2
      vertex 6.25 8.21188 4
      vertex 6.25 8.21188 -1.2
    endloop
  endfacet
  facet normal 0 -65 0
    outer loop
      vertex -6.25 8.21188 -1.2
      vertex 6.25 8.21188 -1.2
      vertex 6.25 8.21188 4
    endloop
  endfacet
  facet normal 0 -4.73927 0
    outer loop
      vertex 0.73876 8.21188 2.08647
      vertex -6.25 8.21188 -1.2
      vertex 6.25 8.21188 4
    endloop
  endfacet
  facet normal 0 -1.8884 0
    outer loop
      vertex 2.07731 8.21188 4
      vertex 2.0228 8.21188 3.54744
      vertex 6.25 8.21188 4
    endloop
  endfacet
  facet normal 0 -1.92037 0
    outer loop
      vertex 2.0228 8.21188 3.54744
      vertex 1.8447 8.21188 3.07408
      vertex 6.25 8.21188 4
    endloop
  endfacet
  facet normal 0 -2.75814 0
    outer loop
      vertex -0.73876 8.21188 2.08647
      vertex -1.18347 8.21188 2.32173
      vertex -6.25 8.21188 -1.2
    endloop
  endfacet
  facet normal 0 -1.57125 0
    outer loop
      vertex 1.8447 8.21188 3.07408
      vertex 1.5594 8.21188 2.65744
      vertex 6.25 8.21188 4
    endloop
  endfacet
  facet normal 0 -1.06997 0
    outer loop
      vertex 1.5594 8.21188 2.65744
      vertex 1.18347 8.21188 2.32173
      vertex 6.25 8.21188 4
    endloop
  endfacet
  facet normal 0 -0.445654 0
    outer loop
      vertex 1.18347 8.21188 2.32173
      vertex 0.73876 8.21188 2.08647
      vertex 6.25 8.21188 4
    endloop
  endfacet
  facet normal 0 -1.58973 0
    outer loop
      vertex 0.251118 8.21188 1.96531
      vertex -0.251118 8.21188 1.96531
      vertex -6.25 8.21188 -1.2
    endloop
  endfacet
  facet normal 0 -3.0248 0
    outer loop
      vertex -1.5594 8.21188 2.65744
      vertex -6.25 8.21188 -1.2
      vertex -1.18347 8.21188 2.32173
    endloop
  endfacet
  facet normal 0 -3.05483 0
    outer loop
      vertex -1.8447 8.21188 3.07408
      vertex -6.25 8.21188 -1.2
      vertex -1.5594 8.21188 2.65744
    endloop
  endfacet
  facet normal 0 -2.84647 0
    outer loop
      vertex -2.0228 8.21188 3.54744
      vertex -6.25 8.21188 -1.2
      vertex -1.8447 8.21188 3.07408
    endloop
  endfacet
  facet normal 0 -2.17188 0
    outer loop
      vertex -2.07731 8.21188 4
      vertex -6.25 8.21188 -1.2
      vertex -2.0228 8.21188 3.54744
    endloop
  endfacet
  facet normal 0 -21.698 0
    outer loop
      vertex -6.25 8.21188 4
      vertex -6.25 8.21188 -1.2
      vertex -2.07731 8.21188 4
    endloop
  endfacet
  facet normal 0 -0.755899 0
    outer loop
      vertex 0.73876 8.21188 2.08647
      vertex 0.251118 8.21188 1.96531
      vertex -6.25 8.21188 -1.2
    endloop
  endfacet
  facet normal 0 -2.27033 0
    outer loop
      vertex -0.251118 8.21188 1.96531
      vertex -0.73876 8.21188 2.08647
      vertex -6.25 8.21188 -1.2
    endloop
  endfacet
  facet normal -0.0319532 -2.02323e-17 0.00384903
    outer loop
      vertex 2.07731 8.21188 4
      vertex 2.07731 8.28248 4
      vertex 2.0228 8.21188 3.54744
    endloop
  endfacet
  facet normal -0.32117 -2.0336e-16 0.0386876
    outer loop
      vertex 2.0228 8.21188 3.54744
      vertex 2.07731 8.28248 4
      vertex 2.0228 8.92155 3.54744
    endloop
  endfacet
  facet normal -0.289216 0 0.0348385
    outer loop
      vertex 2.0228 8.92155 3.54744
      vertex 2.07731 8.28248 4
      vertex 2.07731 8.92155 4
    endloop
  endfacet
  facet normal 0 -0.0547944 0
    outer loop
      vertex -2.07731 8.92155 4
      vertex -2.0228 8.92155 3.54744
      vertex -1.8447 8.92155 3.07408
    endloop
  endfacet
  facet normal 0 -0.330839 0
    outer loop
      vertex -1.18347 8.92155 2.32173
      vertex -2.07731 8.92155 4
      vertex -1.5594 8.92155 2.65744
    endloop
  endfacet
  facet normal 0 -0.167253 0
    outer loop
      vertex -1.5594 8.92155 2.65744
      vertex -2.07731 8.92155 4
      vertex -1.8447 8.92155 3.07408
    endloop
  endfacet
  facet normal 0 -0.536046 0
    outer loop
      vertex -0.73876 8.92155 2.08647
      vertex -2.07731 8.92155 4
      vertex -1.18347 8.92155 2.32173
    endloop
  endfacet
  facet normal 0 -0.770948 0
    outer loop
      vertex -0.251118 8.92155 1.96531
      vertex -2.07731 8.92155 4
      vertex -0.73876 8.92155 2.08647
    endloop
  endfacet
  facet normal 0 -0.0310149 0
    outer loop
      vertex -1.16955 8.92155 3.00558
      vertex -2.07731 8.92155 4
      vertex -0.251118 8.92155 1.96531
    endloop
  endfacet
  facet normal 0 -0.0708742 0
    outer loop
      vertex -1.16955 8.92155 3.00558
      vertex -1.38353 8.92155 3.31806
      vertex -2.07731 8.92155 4
    endloop
  endfacet
  facet normal 0 -0.150677 0
    outer loop
      vertex -0.188339 8.92155 2.48648
      vertex -0.55407 8.92155 2.57735
      vertex 0.251118 8.92155 1.96531
    endloop
  endfacet
  facet normal 0 -0.150677 0
    outer loop
      vertex 0.188339 8.92155 2.48648
      vertex -0.188339 8.92155 2.48648
      vertex 0.73876 8.92155 2.08647
    endloop
  endfacet
  facet normal 0 -0.196314 0
    outer loop
      vertex 0.887601 8.92155 2.7538
      vertex 0.55407 8.92155 2.57735
      vertex 1.18347 8.92155 2.32173
    endloop
  endfacet
  facet normal 0 -0.196314 0
    outer loop
      vertex 1.16955 8.92155 3.00558
      vertex 0.887601 8.92155 2.7538
      vertex 1.5594 8.92155 2.65744
    endloop
  endfacet
  facet normal 0 -0.196314 0
    outer loop
      vertex 1.38353 8.92155 3.31806
      vertex 1.16955 8.92155 3.00558
      vertex 1.8447 8.92155 3.07408
    endloop
  endfacet
  facet normal 0 -0.23571 0
    outer loop
      vertex 2.07731 8.92155 4
      vertex 1.55648 8.92155 4
      vertex 2.0228 8.92155 3.54744
    endloop
  endfacet
  facet normal 0 -0.170272 0
    outer loop
      vertex 1.55648 8.92155 4
      vertex 1.5171 8.92155 3.67308
      vertex 2.0228 8.92155 3.54744
    endloop
  endfacet
  facet normal 0 -0.261752 0
    outer loop
      vertex 2.0228 8.92155 3.54744
      vertex 1.38353 8.92155 3.31806
      vertex 1.8447 8.92155 3.07408
    endloop
  endfacet
  facet normal 0 -0.261752 0
    outer loop
      vertex 1.8447 8.92155 3.07408
      vertex 1.16955 8.92155 3.00558
      vertex 1.5594 8.92155 2.65744
    endloop
  endfacet
  facet normal 0 -0.261752 0
    outer loop
      vertex 1.5594 8.92155 2.65744
      vertex 0.887601 8.92155 2.7538
      vertex 1.18347 8.92155 2.32173
    endloop
  endfacet
  facet normal 0 -0.261752 0
    outer loop
      vertex 1.18347 8.92155 2.32173
      vertex 0.55407 8.92155 2.57735
      vertex 0.73876 8.92155 2.08647
    endloop
  endfacet
  facet normal 0 -0.196314 0
    outer loop
      vertex 0.55407 8.92155 2.57735
      vertex 0.188339 8.92155 2.48648
      vertex 0.73876 8.92155 2.08647
    endloop
  endfacet
  facet normal 0 -0.307388 0
    outer loop
      vertex 0.73876 8.92155 2.08647
      vertex -0.188339 8.92155 2.48648
      vertex 0.251118 8.92155 1.96531
    endloop
  endfacet
  facet normal 0 -0.307388 0
    outer loop
      vertex 0.251118 8.92155 1.96531
      vertex -0.55407 8.92155 2.57735
      vertex -0.251118 8.92155 1.96531
    endloop
  endfacet
  facet normal 0 -0.150677 0
    outer loop
      vertex -0.55407 8.92155 2.57735
      vertex -0.887601 8.92155 2.7538
      vertex -0.251118 8.92155 1.96531
    endloop
  endfacet
  facet normal 0 -0.0620574 0
    outer loop
      vertex -0.887601 8.92155 2.7538
      vertex -1.16955 8.92155 3.00558
      vertex -0.251118 8.92155 1.96531
    endloop
  endfacet
  facet normal 0 -0.196314 0
    outer loop
      vertex 1.5171 8.92155 3.67308
      vertex 1.38353 8.92155 3.31806
      vertex 2.0228 8.92155 3.54744
    endloop
  endfacet
  facet normal 0 -0.155218 0
    outer loop
      vertex -1.38353 8.92155 3.31806
      vertex -1.5171 8.92155 3.67308
      vertex -2.07731 8.92155 4
    endloop
  endfacet
  facet normal 0 -0.170272 0
    outer loop
      vertex -1.5171 8.92155 3.67308
      vertex -1.55648 8.92155 4
      vertex -2.07731 8.92155 4
    endloop
  endfacet
  facet normal -2.67348 1.27416e-16 0.322043
    outer loop
      vertex 1.5171 8.92155 3.67308
      vertex 1.55648 8.92155 4
      vertex 1.55648 17.0993 4
    endloop
  endfacet
  facet normal -0.408887 0 0.0492538
    outer loop
      vertex 1.55648 17.0993 4
      vertex 1.55648 18.35 4
      vertex 1.5171 8.92155 3.67308
    endloop
  endfacet
  facet normal -3.08237 0 0.371297
    outer loop
      vertex 1.5171 8.92155 3.67308
      vertex 1.55648 18.35 4
      vertex 1.5171 18.35 3.67308
    endloop
  endfacet
  facet normal 0 -0.0296868 0
    outer loop
      vertex -1.55648 18.35 4
      vertex -1.5171 18.35 3.67308
      vertex -1.38353 18.35 3.31806
    endloop
  endfacet
  facet normal 0 -0.182952 0
    outer loop
      vertex -0.887601 18.35 2.7538
      vertex -1.55648 18.35 4
      vertex -1.16955 18.35 3.00558
    endloop
  endfacet
  facet normal 0 -0.0918753 0
    outer loop
      vertex -1.16955 18.35 3.00558
      vertex -1.55648 18.35 4
      vertex -1.38353 18.35 3.31806
    endloop
  endfacet
  facet normal 0 -0.297622 0
    outer loop
      vertex -0.55407 18.35 2.57735
      vertex -1.55648 18.35 4
      vertex -0.887601 18.35 2.7538
    endloop
  endfacet
  facet normal 0 -0.429224 0
    outer loop
      vertex -0.188339 18.35 2.48648
      vertex -1.55648 18.35 4
      vertex -0.55407 18.35 2.57735
    endloop
  endfacet
  facet normal 0 -0.570107 0
    outer loop
      vertex 0.188339 18.35 2.48648
      vertex -1.55648 18.35 4
      vertex -0.188339 18.35 2.48648
    endloop
  endfacet
  facet normal 0 -0.712085 0
    outer loop
      vertex 0.55407 18.35 2.57735
      vertex -1.55648 18.35 4
      vertex 0.188339 18.35 2.48648
    endloop
  endfacet
  facet normal 0 -0.846906 0
    outer loop
      vertex 0.887601 18.35 2.7538
      vertex -1.55648 18.35 4
      vertex 0.55407 18.35 2.57735
    endloop
  endfacet
  facet normal 0 -0.966736 0
    outer loop
      vertex 1.16955 18.35 3.00558
      vertex -1.55648 18.35 4
      vertex 0.887601 18.35 2.7538
    endloop
  endfacet
  facet normal 0 -1.06461 0
    outer loop
      vertex 1.38353 18.35 3.31806
      vertex -1.55648 18.35 4
      vertex 1.16955 18.35 3.00558
    endloop
  endfacet
  facet normal 0 -1.13484 0
    outer loop
      vertex 1.5171 18.35 3.67308
      vertex -1.55648 18.35 4
      vertex 1.38353 18.35 3.31806
    endloop
  endfacet
  facet normal 0 -1.01769 0
    outer loop
      vertex 1.55648 18.35 4
      vertex -1.55648 18.35 4
      vertex 1.5171 18.35 3.67308
    endloop
  endfacet
  facet normal 3.08237 -1.64219e-16 0.371297
    outer loop
      vertex -1.55648 17.0993 4
      vertex -1.5171 8.92155 3.67308
      vertex -1.5171 18.35 3.67308
    endloop
  endfacet
  facet normal 0.408887 -2.17841e-17 0.0492538
    outer loop
      vertex -1.55648 18.35 4
      vertex -1.55648 17.0993 4
      vertex -1.5171 18.35 3.67308
    endloop
  endfacet
  facet normal 2.67348 3.82247e-16 0.322043
    outer loop
      vertex -1.55648 17.0993 4
      vertex -1.55648 8.92155 4
      vertex -1.5171 8.92155 3.67308
    endloop
  endfacet
  facet normal 0.32117 -1.06474e-15 0.0386876
    outer loop
      vertex -2.07731 8.85094 4
      vertex -2.0228 8.21188 3.54744
      vertex -2.0228 8.92155 3.54744
    endloop
  endfacet
  facet normal 0.0319532 -1.05931e-16 0.00384903
    outer loop
      vertex -2.07731 8.92155 4
      vertex -2.07731 8.85094 4
      vertex -2.0228 8.92155 3.54744
    endloop
  endfacet
  facet normal 0.289216 7.3251e-16 0.0348385
    outer loop
      vertex -2.07731 8.85094 4
      vertex -2.07731 8.21188 4
      vertex -2.0228 8.21188 3.54744
    endloop
  endfacet
  facet normal 0 0 61.7717
    outer loop
      vertex -3.38501 -0.912431 -1.2
      vertex 3.38501 -0.912431 -1.2
      vertex 6.25 8.21188 -1.2
    endloop
  endfacet
  facet normal 0 0 26.1411
    outer loop
      vertex -6.25 -0.912431 -1.2
      vertex -3.38501 -0.912431 -1.2
      vertex 6.25 8.21188 -1.2
    endloop
  endfacet
  facet normal 0 0 26.1411
    outer loop
      vertex 3.38501 -0.912431 -1.2
      vertex 6.25 -0.912431 -1.2
      vertex 6.25 8.21188 -1.2
    endloop
  endfacet
  facet normal 0 0 114.054
    outer loop
      vertex -6.25 8.21188 -1.2
      vertex -6.25 -0.912431 -1.2
      vertex 6.25 8.21188 -1.2
    endloop
  endfacet
  facet normal 0 3.78818e-14 105.698
    outer loop
      vertex -3.38501 -16.5251 -1.2
      vertex 3.38501 -16.5251 -1.2
      vertex 3.38501 -0.912431 -1.2
    endloop
  endfacet
  facet normal 0 3.78818e-14 105.698
    outer loop
      vertex -3.38501 -0.912431 -1.2
      vertex -3.38501 -16.5251 -1.2
      vertex 3.38501 -0.912431 -1.2
    endloop
  endfacet
  facet normal 12.0349 5.45053e-15 15.2081
    outer loop
      vertex -4.35909 -0.912431 -0.429158
      vertex -3.38501 -16.5251 -1.2
      vertex -3.38501 -0.912431 -1.2
    endloop
  endfacet
  facet normal 13.5563 0.0191882 16.742
    outer loop
      vertex -4.45734 -16.5251 -0.331714
      vertex -3.38501 -16.5251 -1.2
      vertex -4.35909 -0.912431 -0.429158
    endloop
  endfacet
  facet normal 14.8553 -0.0153621 12.5159
    outer loop
      vertex -5.16074 -0.912431 0.522327
      vertex -4.45734 -16.5251 -0.331714
      vertex -4.35909 -0.912431 -0.429158
    endloop
  endfacet
  facet normal 16.9597 0.0341224 13.3445
    outer loop
      vertex -5.31206 -16.5251 0.754564
      vertex -4.45734 -16.5251 -0.331714
      vertex -5.16074 -0.912431 0.522327
    endloop
  endfacet
  facet normal 17.0765 -0.0268904 9.31886
    outer loop
      vertex -5.75762 -0.912431 1.61608
      vertex -5.31206 -16.5251 0.754564
      vertex -5.16074 -0.912431 0.522327
    endloop
  endfacet
  facet normal 18.609 -0.0345791 5.74602
    outer loop
      vertex -6.12565 -0.912431 2.808
      vertex -5.90665 -16.5251 2.00479
      vertex -5.75762 -0.912431 1.61608
    endloop
  endfacet
  facet normal 19.5194 0.0447949 9.28319
    outer loop
      vertex -5.90665 -16.5251 2.00479
      vertex -5.31206 -16.5251 0.754564
      vertex -5.75762 -0.912431 1.61608
    endloop
  endfacet
  facet normal 21.108 0.0512006 4.76
    outer loop
      vertex -6.21153 -16.5251 3.35677
      vertex -5.90665 -16.5251 2.00479
      vertex -6.12565 -0.912431 2.808
    endloop
  endfacet
  facet normal 0 2.65584 0
    outer loop
      vertex -6.21153 -16.5251 3.35677
      vertex -4.16667 -16.5251 3
      vertex -5.90665 -16.5251 2.00479
    endloop
  endfacet
  facet normal -3.0255e-15 -6.63968e-15 3.24809
    outer loop
      vertex -4.16667 -18.35 3
      vertex -2.38676 -17.3362 3
      vertex -4.16667 -16.5251 3
    endloop
  endfacet
  facet normal -8.96132e-16 2.76712 1.56676e-15
    outer loop
      vertex -5.90665 -16.5251 2.00479
      vertex -4.16667 -16.5251 3
      vertex -5.31206 -16.5251 0.754564
    endloop
  endfacet
  facet normal 5.02192e-15 3.16344 -1.2931e-15
    outer loop
      vertex -5.31206 -16.5251 0.754564
      vertex -4.16667 -16.5251 3
      vertex -4.45734 -16.5251 -0.331714
    endloop
  endfacet
  facet normal -4.72491e-16 7.09293 -1.87575e-15
    outer loop
      vertex -4.45734 -16.5251 -0.331714
      vertex -4.16667 -16.5251 3
      vertex -2.08353 -16.5251 2.47527
    endloop
  endfacet
  facet normal 0 0.933972 0
    outer loop
      vertex -4.16667 -16.5251 3
      vertex -2.38676 -16.5251 3
      vertex -2.08353 -16.5251 2.47527
    endloop
  endfacet
  facet normal 0 0 1.44359
    outer loop
      vertex -4.16667 -16.5251 3
      vertex -2.38676 -17.3362 3
      vertex -2.38676 -16.5251 3
    endloop
  endfacet
  facet normal 0 -3.10862e-14 8.44843
    outer loop
      vertex -4.16667 -18.35 3
      vertex 4.16667 -18.35 3
      vertex 2.38676 -17.3362 3
    endloop
  endfacet
  facet normal 0 -1.78069e-14 4.83945
    outer loop
      vertex -2.38676 -17.3362 3
      vertex -4.16667 -18.35 3
      vertex 2.38676 -17.3362 3
    endloop
  endfacet
  facet normal 3.0255e-15 -6.63968e-15 3.24809
    outer loop
      vertex 2.38676 -17.3362 3
      vertex 4.16667 -18.35 3
      vertex 4.16667 -16.5251 3
    endloop
  endfacet
  facet normal 0 0 1.44359
    outer loop
      vertex 2.38676 -17.3362 3
      vertex 4.16667 -16.5251 3
      vertex 2.38676 -16.5251 3
    endloop
  endfacet
  facet normal 0 0.933972 0
    outer loop
      vertex 2.08353 -16.5251 2.47527
      vertex 2.38676 -16.5251 3
      vertex 4.16667 -16.5251 3
    endloop
  endfacet
  facet normal 4.72491e-16 7.09293 -1.87575e-15
    outer loop
      vertex 2.08353 -16.5251 2.47527
      vertex 4.16667 -16.5251 3
      vertex 4.45734 -16.5251 -0.331714
    endloop
  endfacet
  facet normal -5.02192e-15 3.16344 -1.2931e-15
    outer loop
      vertex 4.16667 -16.5251 3
      vertex 5.31206 -16.5251 0.754564
      vertex 4.45734 -16.5251 -0.331714
    endloop
  endfacet
  facet normal 8.96132e-16 2.76712 1.56676e-15
    outer loop
      vertex 4.16667 -16.5251 3
      vertex 5.90665 -16.5251 2.00479
      vertex 5.31206 -16.5251 0.754564
    endloop
  endfacet
  facet normal 0 2.65584 0
    outer loop
      vertex 4.16667 -16.5251 3
      vertex 6.21153 -16.5251 3.35677
      vertex 5.90665 -16.5251 2.00479
    endloop
  endfacet
  facet normal -21.108 0.0512006 4.76
    outer loop
      vertex 5.90665 -16.5251 2.00479
      vertex 6.21153 -16.5251 3.35677
      vertex 6.12565 -0.912431 2.808
    endloop
  endfacet
  facet normal -18.609 -0.0345791 5.74602
    outer loop
      vertex 5.75762 -0.912431 1.61608
      vertex 5.90665 -16.5251 2.00479
      vertex 6.12565 -0.912431 2.808
    endloop
  endfacet
  facet normal -12.0349 5.45053e-15 15.2081
    outer loop
      vertex 3.38501 -16.5251 -1.2
      vertex 4.35909 -0.912431 -0.429158
      vertex 3.38501 -0.912431 -1.2
    endloop
  endfacet
  facet normal -19.5194 0.0447949 9.28319
    outer loop
      vertex 5.31206 -16.5251 0.754564
      vertex 5.90665 -16.5251 2.00479
      vertex 5.75762 -0.912431 1.61608
    endloop
  endfacet
  facet normal -17.0765 -0.0268904 9.31886
    outer loop
      vertex 5.16074 -0.912431 0.522327
      vertex 5.31206 -16.5251 0.754564
      vertex 5.75762 -0.912431 1.61608
    endloop
  endfacet
  facet normal -16.9597 0.0341224 13.3445
    outer loop
      vertex 4.45734 -16.5251 -0.331714
      vertex 5.31206 -16.5251 0.754564
      vertex 5.16074 -0.912431 0.522327
    endloop
  endfacet
  facet normal -14.8553 -0.0153621 12.5159
    outer loop
      vertex 4.35909 -0.912431 -0.429158
      vertex 4.45734 -16.5251 -0.331714
      vertex 5.16074 -0.912431 0.522327
    endloop
  endfacet
  facet normal -13.5563 0.0191882 16.742
    outer loop
      vertex 3.38501 -16.5251 -1.2
      vertex 4.45734 -16.5251 -0.331714
      vertex 4.35909 -0.912431 -0.429158
    endloop
  endfacet
  facet normal 0.335926 2.41306e-16 0.126389
    outer loop
      vertex -2.0228 8.21188 3.54744
      vertex -1.8447 8.21188 3.07408
      vertex -2.0228 8.92155 3.54744
    endloop
  endfacet
  facet normal 0.295676 8.80025e-16 0.20247
    outer loop
      vertex -1.8447 8.21188 3.07408
      vertex -1.5594 8.21188 2.65744
      vertex -1.8447 8.92155 3.07408
    endloop
  endfacet
  facet normal 0.335926 -6.34578e-16 0.126389
    outer loop
      vertex -2.0228 8.92155 3.54744
      vertex -1.8447 8.21188 3.07408
      vertex -1.8447 8.92155 3.07408
    endloop
  endfacet
  facet normal 0.238242 1.02113e-15 0.266785
    outer loop
      vertex -1.5594 8.21188 2.65744
      vertex -1.18347 8.21188 2.32173
      vertex -1.5594 8.92155 2.65744
    endloop
  endfacet
  facet normal 0.295676 -4.23051e-16 0.20247
    outer loop
      vertex -1.8447 8.92155 3.07408
      vertex -1.5594 8.21188 2.65744
      vertex -1.5594 8.92155 2.65744
    endloop
  endfacet
  facet normal 0.166962 1.75296e-15 0.315595
    outer loop
      vertex -1.18347 8.21188 2.32173
      vertex -0.73876 8.21188 2.08647
      vertex -1.18347 8.92155 2.32173
    endloop
  endfacet
  facet normal 0.238242 8.93472e-17 0.266785
    outer loop
      vertex -1.5594 8.92155 2.65744
      vertex -1.18347 8.21188 2.32173
      vertex -1.18347 8.92155 2.32173
    endloop
  endfacet
  facet normal 0.0859796 3.2026e-15 0.346064
    outer loop
      vertex -0.73876 8.21188 2.08647
      vertex -0.251118 8.21188 1.96531
      vertex -0.73876 8.92155 2.08647
    endloop
  endfacet
  facet normal 0.166962 1.53529e-15 0.315595
    outer loop
      vertex -1.18347 8.92155 2.32173
      vertex -0.73876 8.21188 2.08647
      vertex -0.73876 8.92155 2.08647
    endloop
  endfacet
  facet normal 2.64731e-15 2.81027e-15 0.356421
    outer loop
      vertex -0.251118 8.21188 1.96531
      vertex 0.251118 8.21188 1.96531
      vertex -0.251118 8.92155 1.96531
    endloop
  endfacet
  facet normal 0.0859796 1.38353e-15 0.346064
    outer loop
      vertex -0.73876 8.92155 2.08647
      vertex -0.251118 8.21188 1.96531
      vertex -0.251118 8.92155 1.96531
    endloop
  endfacet
  facet normal 0 9.36758e-16 0.356421
    outer loop
      vertex -0.251118 8.92155 1.96531
      vertex 0.251118 8.21188 1.96531
      vertex 0.251118 8.92155 1.96531
    endloop
  endfacet
  facet normal -0.0859796 2.4788e-15 0.346064
    outer loop
      vertex 0.251118 8.21188 1.96531
      vertex 0.73876 8.21188 2.08647
      vertex 0.251118 8.92155 1.96531
    endloop
  endfacet
  facet normal -0.166962 1.78254e-15 0.315595
    outer loop
      vertex 0.73876 8.21188 2.08647
      vertex 1.18347 8.21188 2.32173
      vertex 0.73876 8.92155 2.08647
    endloop
  endfacet
  facet normal -0.0859796 4.35548e-16 0.346064
    outer loop
      vertex 0.251118 8.92155 1.96531
      vertex 0.73876 8.21188 2.08647
      vertex 0.73876 8.92155 2.08647
    endloop
  endfacet
  facet normal -0.238242 1.78357e-15 0.266785
    outer loop
      vertex 1.18347 8.21188 2.32173
      vertex 1.5594 8.21188 2.65744
      vertex 1.18347 8.92155 2.32173
    endloop
  endfacet
  facet normal -0.166962 9.11875e-16 0.315595
    outer loop
      vertex 0.73876 8.92155 2.08647
      vertex 1.18347 8.21188 2.32173
      vertex 1.18347 8.92155 2.32173
    endloop
  endfacet
  facet normal -0.295676 1.00973e-15 0.20247
    outer loop
      vertex 1.5594 8.21188 2.65744
      vertex 1.8447 8.21188 3.07408
      vertex 1.5594 8.92155 2.65744
    endloop
  endfacet
  facet normal -0.238242 5.41198e-16 0.266785
    outer loop
      vertex 1.18347 8.92155 2.32173
      vertex 1.5594 8.21188 2.65744
      vertex 1.5594 8.92155 2.65744
    endloop
  endfacet
  facet normal -0.295676 4.77595e-16 0.20247
    outer loop
      vertex 1.5594 8.92155 2.65744
      vertex 1.8447 8.21188 3.07408
      vertex 1.8447 8.92155 3.07408
    endloop
  endfacet
  facet normal -0.335926 1.08741e-15 0.126389
    outer loop
      vertex 1.8447 8.21188 3.07408
      vertex 2.0228 8.21188 3.54744
      vertex 1.8447 8.92155 3.07408
    endloop
  endfacet
  facet normal -0.335926 -6.64358e-16 0.126389
    outer loop
      vertex 1.8447 8.92155 3.07408
      vertex 2.0228 8.21188 3.54744
      vertex 2.0228 8.92155 3.54744
    endloop
  endfacet
  facet normal 3.34726 8.37893e-16 1.25937
    outer loop
      vertex -1.5171 8.92155 3.67308
      vertex -1.38353 8.92155 3.31806
      vertex -1.5171 18.35 3.67308
    endloop
  endfacet
  facet normal 3.34726 1.80979e-16 1.25937
    outer loop
      vertex -1.5171 18.35 3.67308
      vertex -1.38353 8.92155 3.31806
      vertex -1.38353 18.35 3.31806
    endloop
  endfacet
  facet normal 2.9462 1.23822e-15 2.01747
    outer loop
      vertex -1.38353 8.92155 3.31806
      vertex -1.16955 8.92155 3.00558
      vertex -1.38353 18.35 3.31806
    endloop
  endfacet
  facet normal 2.9462 6.60019e-16 2.01747
    outer loop
      vertex -1.38353 18.35 3.31806
      vertex -1.16955 8.92155 3.00558
      vertex -1.16955 18.35 3.00558
    endloop
  endfacet
  facet normal 2.37391 1.75761e-15 2.65832
    outer loop
      vertex -1.16955 8.92155 3.00558
      vertex -0.887601 8.92155 2.7538
      vertex -1.16955 18.35 3.00558
    endloop
  endfacet
  facet normal 2.37391 2.39964e-16 2.65832
    outer loop
      vertex -1.16955 18.35 3.00558
      vertex -0.887601 8.92155 2.7538
      vertex -0.887601 18.35 2.7538
    endloop
  endfacet
  facet normal 1.66366 1.18237e-15 3.14468
    outer loop
      vertex -0.887601 8.92155 2.7538
      vertex -0.55407 8.92155 2.57735
      vertex -0.887601 18.35 2.7538
    endloop
  endfacet
  facet normal 1.66366 5.60281e-16 3.14468
    outer loop
      vertex -0.887601 18.35 2.7538
      vertex -0.55407 8.92155 2.57735
      vertex -0.55407 18.35 2.57735
    endloop
  endfacet
  facet normal 0.856725 1.37392e-15 3.44828
    outer loop
      vertex -0.55407 8.92155 2.57735
      vertex -0.188339 8.92155 2.48648
      vertex -0.55407 18.35 2.57735
    endloop
  endfacet
  facet normal 0.856725 -1.58525e-16 3.44828
    outer loop
      vertex -0.55407 18.35 2.57735
      vertex -0.188339 8.92155 2.48648
      vertex -0.188339 18.35 2.48648
    endloop
  endfacet
  facet normal 0 7.02569e-16 3.55148
    outer loop
      vertex -0.188339 8.92155 2.48648
      vertex 0.188339 8.92155 2.48648
      vertex 0.188339 18.35 2.48648
    endloop
  endfacet
  facet normal 0 7.02569e-16 3.55148
    outer loop
      vertex -0.188339 18.35 2.48648
      vertex -0.188339 8.92155 2.48648
      vertex 0.188339 18.35 2.48648
    endloop
  endfacet
  facet normal -0.856725 1.52283e-15 3.44828
    outer loop
      vertex 0.188339 8.92155 2.48648
      vertex 0.55407 8.92155 2.57735
      vertex 0.188339 18.35 2.48648
    endloop
  endfacet
  facet normal -0.856725 -9.61055e-18 3.44828
    outer loop
      vertex 0.188339 18.35 2.48648
      vertex 0.55407 8.92155 2.57735
      vertex 0.55407 18.35 2.57735
    endloop
  endfacet
  facet normal -1.66366 6.83906e-16 3.14468
    outer loop
      vertex 0.55407 8.92155 2.57735
      vertex 0.887601 8.92155 2.7538
      vertex 0.55407 18.35 2.57735
    endloop
  endfacet
  facet normal -1.66366 9.795e-16 3.14468
    outer loop
      vertex 0.55407 18.35 2.57735
      vertex 0.887601 8.92155 2.7538
      vertex 0.887601 18.35 2.7538
    endloop
  endfacet
  facet normal -2.37391 1.39767e-15 2.65832
    outer loop
      vertex 0.887601 8.92155 2.7538
      vertex 1.16955 8.92155 3.00558
      vertex 0.887601 18.35 2.7538
    endloop
  endfacet
  facet normal -2.9462 1.15641e-15 2.01747
    outer loop
      vertex 1.16955 8.92155 3.00558
      vertex 1.38353 8.92155 3.31806
      vertex 1.16955 18.35 3.00558
    endloop
  endfacet
  facet normal -2.37391 9.31778e-16 2.65832
    outer loop
      vertex 0.887601 18.35 2.7538
      vertex 1.16955 8.92155 3.00558
      vertex 1.16955 18.35 3.00558
    endloop
  endfacet
  facet normal -2.9462 5.78203e-16 2.01747
    outer loop
      vertex 1.16955 18.35 3.00558
      vertex 1.38353 8.92155 3.31806
      vertex 1.38353 18.35 3.31806
    endloop
  endfacet
  facet normal -3.34726 6.56913e-16 1.25937
    outer loop
      vertex 1.38353 8.92155 3.31806
      vertex 1.5171 18.35 3.67308
      vertex 1.38353 18.35 3.31806
    endloop
  endfacet
  facet normal -3.34726 0 1.25937
    outer loop
      vertex 1.38353 8.92155 3.31806
      vertex 1.5171 8.92155 3.67308
      vertex 1.5171 18.35 3.67308
    endloop
  endfacet
  facet normal 0 17.7713 -1.21921e-14
    outer loop
      vertex -3.38501 -16.5251 -1.2
      vertex -1.39698e-07 -16.5251 1.425
      vertex 3.38501 -16.5251 -1.2
    endloop
  endfacet
  facet normal -1.26496e-16 1.80856 -1.07765e-15
    outer loop
      vertex -3.38501 -16.5251 -1.2
      vertex -0.598396 -16.5251 1.49524
      vertex -1.39698e-07 -16.5251 1.425
    endloop
  endfacet
  facet normal -3.72718e-16 2.10323 -1.01997e-15
    outer loop
      vertex -3.38501 -16.5251 -1.2
      vertex -1.16477 -16.5251 1.7022
      vertex -0.598396 -16.5251 1.49524
    endloop
  endfacet
  facet normal -3.21227e-15 2.20129 1.09149e-15
    outer loop
      vertex -3.38501 -16.5251 -1.2
      vertex -1.66881 -16.5251 2.03481
      vertex -1.16477 -16.5251 1.7022
    endloop
  endfacet
  facet normal -7.81845e-16 4.95894 -9.65576e-16
    outer loop
      vertex -4.45734 -16.5251 -0.331714
      vertex -1.66881 -16.5251 2.03481
      vertex -3.38501 -16.5251 -1.2
    endloop
  endfacet
  facet normal 7.81845e-16 4.95894 -9.65576e-16
    outer loop
      vertex 1.66881 -16.5251 2.03481
      vertex 4.45734 -16.5251 -0.331714
      vertex 3.38501 -16.5251 -1.2
    endloop
  endfacet
  facet normal 3.21227e-15 2.20129 1.09149e-15
    outer loop
      vertex 1.16477 -16.5251 1.7022
      vertex 1.66881 -16.5251 2.03481
      vertex 3.38501 -16.5251 -1.2
    endloop
  endfacet
  facet normal 3.72718e-16 2.10323 -1.01997e-15
    outer loop
      vertex 0.598396 -16.5251 1.49524
      vertex 1.16477 -16.5251 1.7022
      vertex 3.38501 -16.5251 -1.2
    endloop
  endfacet
  facet normal 1.26496e-16 1.80856 -1.07765e-15
    outer loop
      vertex -1.39698e-07 -16.5251 1.425
      vertex 0.598396 -16.5251 1.49524
      vertex 3.38501 -16.5251 -1.2
    endloop
  endfacet
  facet normal -3.96607e-16 2.20969 -3.7344e-16
    outer loop
      vertex -4.45734 -16.5251 -0.331714
      vertex -2.08353 -16.5251 2.47527
      vertex -1.66881 -16.5251 2.03481
    endloop
  endfacet
  facet normal 0 2.50481 0
    outer loop
      vertex 2.38676 -17.3362 3
      vertex 2.08353 -17.3362 2.47527
      vertex -2.38676 -17.3362 3
    endloop
  endfacet
  facet normal 0 2.18659 0
    outer loop
      vertex -2.38676 -17.3362 3
      vertex 2.08353 -17.3362 2.47527
      vertex -2.08353 -17.3362 2.47527
    endloop
  endfacet
  facet normal 0.425582 0 0.24593
    outer loop
      vertex -2.38676 -17.3362 3
      vertex -2.08353 -17.3362 2.47527
      vertex -2.08353 -16.5251 2.47527
    endloop
  endfacet
  facet normal 0.425582 0 0.24593
    outer loop
      vertex -2.38676 -16.5251 3
      vertex -2.38676 -17.3362 3
      vertex -2.08353 -16.5251 2.47527
    endloop
  endfacet
  facet normal 0.357232 0 0.336365
    outer loop
      vertex -2.08353 -17.3362 2.47527
      vertex -1.66881 -17.3362 2.03481
      vertex -1.66881 -16.5251 2.03481
    endloop
  endfacet
  facet normal 0.357232 0 0.336365
    outer loop
      vertex -2.08353 -16.5251 2.47527
      vertex -2.08353 -17.3362 2.47527
      vertex -1.66881 -16.5251 2.03481
    endloop
  endfacet
  facet normal -0.425582 0 0.24593
    outer loop
      vertex 2.38676 -17.3362 3
      vertex 2.38676 -16.5251 3
      vertex 2.08353 -17.3362 2.47527
    endloop
  endfacet
  facet normal -0.425582 0 0.24593
    outer loop
      vertex 2.08353 -17.3362 2.47527
      vertex 2.38676 -16.5251 3
      vertex 2.08353 -16.5251 2.47527
    endloop
  endfacet
  facet normal -0.357232 0 0.336365
    outer loop
      vertex 2.08353 -17.3362 2.47527
      vertex 2.08353 -16.5251 2.47527
      vertex 1.66881 -17.3362 2.03481
    endloop
  endfacet
  facet normal -0.357232 0 0.336365
    outer loop
      vertex 1.66881 -17.3362 2.03481
      vertex 2.08353 -16.5251 2.47527
      vertex 1.66881 -16.5251 2.03481
    endloop
  endfacet
  facet normal 3.96607e-16 2.20969 -3.7344e-16
    outer loop
      vertex 1.66881 -16.5251 2.03481
      vertex 2.08353 -16.5251 2.47527
      vertex 4.45734 -16.5251 -0.331714
    endloop
  endfacet
  facet normal -0.0569687 0 0.485329
    outer loop
      vertex -1.39698e-07 -17.3362 1.425
      vertex 0.598396 -17.3362 1.49524
      vertex 0.598396 -16.5251 1.49524
    endloop
  endfacet
  facet normal -0.0569687 0 0.485329
    outer loop
      vertex -1.39698e-07 -16.5251 1.425
      vertex -1.39698e-07 -17.3362 1.425
      vertex 0.598396 -16.5251 1.49524
    endloop
  endfacet
  facet normal 0.0569687 0 0.485329
    outer loop
      vertex -0.598396 -16.5251 1.49524
      vertex -1.39698e-07 -17.3362 1.425
      vertex -1.39698e-07 -16.5251 1.425
    endloop
  endfacet
  facet normal 0.0569687 -1.29972e-16 0.485329
    outer loop
      vertex -0.598396 -17.3362 1.49524
      vertex -1.39698e-07 -17.3362 1.425
      vertex -0.598396 -16.5251 1.49524
    endloop
  endfacet
  facet normal 0.167857 -3.82959e-16 0.459356
    outer loop
      vertex -1.16477 -16.5251 1.7022
      vertex -0.598396 -17.3362 1.49524
      vertex -0.598396 -16.5251 1.49524
    endloop
  endfacet
  facet normal 0.167857 0 0.459356
    outer loop
      vertex -1.16477 -17.3362 1.7022
      vertex -0.598396 -17.3362 1.49524
      vertex -1.16477 -16.5251 1.7022
    endloop
  endfacet
  facet normal 0.269763 0 0.408799
    outer loop
      vertex -1.66881 -17.3362 2.03481
      vertex -1.16477 -17.3362 1.7022
      vertex -1.16477 -16.5251 1.7022
    endloop
  endfacet
  facet normal 0.269763 0 0.408799
    outer loop
      vertex -1.66881 -16.5251 2.03481
      vertex -1.66881 -17.3362 2.03481
      vertex -1.16477 -16.5251 1.7022
    endloop
  endfacet
  facet normal -0.269763 0 0.408799
    outer loop
      vertex 1.16477 -17.3362 1.7022
      vertex 1.66881 -17.3362 2.03481
      vertex 1.66881 -16.5251 2.03481
    endloop
  endfacet
  facet normal -0.269763 0 0.408799
    outer loop
      vertex 1.16477 -16.5251 1.7022
      vertex 1.16477 -17.3362 1.7022
      vertex 1.66881 -16.5251 2.03481
    endloop
  endfacet
  facet normal -0.167857 0 0.459356
    outer loop
      vertex 0.598396 -17.3362 1.49524
      vertex 1.16477 -17.3362 1.7022
      vertex 1.16477 -16.5251 1.7022
    endloop
  endfacet
  facet normal -0.167857 0 0.459356
    outer loop
      vertex 0.598396 -16.5251 1.49524
      vertex 0.598396 -17.3362 1.49524
      vertex 1.16477 -16.5251 1.7022
    endloop
  endfacet
  facet normal -7.93214e-16 0.774826 -7.46881e-16
    outer loop
      vertex -2.08353 -17.3362 2.47527
      vertex 0.598396 -17.3362 1.49524
      vertex -1.66881 -17.3362 2.03481
    endloop
  endfacet
  facet normal 0 4.08385 7.50444e-15
    outer loop
      vertex -2.08353 -17.3362 2.47527
      vertex 2.08353 -17.3362 2.47527
      vertex 0.598396 -17.3362 1.49524
    endloop
  endfacet
  facet normal -3.72718e-16 0.247692 1.01997e-15
    outer loop
      vertex 0.598396 -17.3362 1.49524
      vertex 2.08353 -17.3362 2.47527
      vertex 1.16477 -17.3362 1.7022
    endloop
  endfacet
  facet normal 7.93214e-16 0.0840636 -7.46881e-16
    outer loop
      vertex 1.16477 -17.3362 1.7022
      vertex 2.08353 -17.3362 2.47527
      vertex 1.66881 -17.3362 2.03481
    endloop
  endfacet
  facet normal 3.72718e-16 0.482128 3.17527e-15
    outer loop
      vertex -1.66881 -17.3362 2.03481
      vertex 0.598396 -17.3362 1.49524
      vertex -1.16477 -17.3362 1.7022
    endloop
  endfacet
  facet normal 0 0.247692 0
    outer loop
      vertex 0.598396 -17.3362 1.49524
      vertex -1.39698e-07 -17.3362 1.425
      vertex -1.16477 -17.3362 1.7022
    endloop
  endfacet
  facet normal 0 0.0840636 0
    outer loop
      vertex -1.16477 -17.3362 1.7022
      vertex -1.39698e-07 -17.3362 1.425
      vertex -0.598396 -17.3362 1.49524
    endloop
  endfacet
endsolid polyhedron
