solid polyhedron
  facet normal -249 -0 0
    outer loop
      vertex -20.75 -20.75 3
      vertex -20.75 20.75 3
      vertex -20.75 -20.75 -3
    endloop
  endfacet
  facet normal -249 -0 0
    outer loop
      vertex -20.75 -20.75 -3
      vertex -20.75 20.75 3
      vertex -20.75 20.75 -3
    endloop
  endfacet
  facet normal -0 249 -0
    outer loop
      vertex -20.75 20.75 3
      vertex 20.75 20.75 3
      vertex -20.75 20.75 -3
    endloop
  endfacet
  facet normal 0 249 0
    outer loop
      vertex -20.75 20.75 -3
      vertex 20.75 20.75 3
      vertex 20.75 20.75 -3
    endloop
  endfacet
  facet normal -0 0 612.125
    outer loop
      vertex 6 0.9 3
      vertex 20.75 -20.75 3
      vertex 20.75 20.75 3
    endloop
  endfacet
  facet normal 0 0 524.975
    outer loop
      vertex -20.75 -20.75 3
      vertex 20.75 -20.75 3
      vertex -6 -8.1 3
    endloop
  endfacet
  facet normal -0 -0 612.125
    outer loop
      vertex -20.75 20.75 3
      vertex -20.75 -20.75 3
      vertex -6 0.9 3
    endloop
  endfacet
  facet normal -0 0 205.244
    outer loop
      vertex -20.75 20.75 3
      vertex -6 0.9 3
      vertex -5.17178 13.7003 3
    endloop
  endfacet
  facet normal -0 0 184.675
    outer loop
      vertex -20.75 20.75 3
      vertex -5.16598 16.3 3
      vertex 20.75 20.75 3
    endloop
  endfacet
  facet normal -0 0 40.5401
    outer loop
      vertex -20.75 20.75 3
      vertex -5.17178 13.7003 3
      vertex -5.16598 16.3 3
    endloop
  endfacet
  facet normal 0 0 0.814166
    outer loop
      vertex -5.16598 16.3 3
      vertex -4.98302 16.3 3
      vertex 20.75 20.75 3
    endloop
  endfacet
  facet normal 0 0 4.74335
    outer loop
      vertex -4.98302 16.3 3
      vertex -3.9171 16.3 3
      vertex 20.75 20.75 3
    endloop
  endfacet
  facet normal 0 0 3.38638
    outer loop
      vertex -3.9171 16.3 3
      vertex -3.15611 16.3 3
      vertex 20.75 20.75 3
    endloop
  endfacet
  facet normal 0 0 2.05708
    outer loop
      vertex -3.15611 16.3 3
      vertex -2.69385 16.3 3
      vertex 20.75 20.75 3
    endloop
  endfacet
  facet normal 0 0 3.06021
    outer loop
      vertex -2.69385 16.3 3
      vertex -2.00616 16.3 3
      vertex 20.75 20.75 3
    endloop
  endfacet
  facet normal 0 0 2.36596
    outer loop
      vertex -2.00616 16.3 3
      vertex -1.47449 16.3 3
      vertex 20.75 20.75 3
    endloop
  endfacet
  facet normal 0 0 2.52056
    outer loop
      vertex -1.47449 16.3 3
      vertex -0.908067 16.3 3
      vertex 20.75 20.75 3
    endloop
  endfacet
  facet normal 0 0 2.13002
    outer loop
      vertex -0.908067 16.3 3
      vertex -0.42941 16.3 3
      vertex 20.75 20.75 3
    endloop
  endfacet
  facet normal 0 0 5.95177
    outer loop
      vertex -0.42941 16.3 3
      vertex 0.908067 16.3 3
      vertex 20.75 20.75 3
    endloop
  endfacet
  facet normal 0 0 2.52056
    outer loop
      vertex 0.908067 16.3 3
      vertex 1.47448 16.3 3
      vertex 20.75 20.75 3
    endloop
  endfacet
  facet normal 0 0 2.36596
    outer loop
      vertex 1.47448 16.3 3
      vertex 2.00616 16.3 3
      vertex 20.75 20.75 3
    endloop
  endfacet
  facet normal 0 0 3.06021
    outer loop
      vertex 2.00616 16.3 3
      vertex 2.69385 16.3 3
      vertex 20.75 20.75 3
    endloop
  endfacet
  facet normal 0 0 2.05708
    outer loop
      vertex 2.69385 16.3 3
      vertex 3.15611 16.3 3
      vertex 20.75 20.75 3
    endloop
  endfacet
  facet normal 0 0 3.38638
    outer loop
      vertex 3.15611 16.3 3
      vertex 3.9171 16.3 3
      vertex 20.75 20.75 3
    endloop
  endfacet
  facet normal 0 0 0.814167
    outer loop
      vertex 4.98302 16.3 3
      vertex 5.16598 16.3 3
      vertex 20.75 20.75 3
    endloop
  endfacet
  facet normal 0 0 4.74335
    outer loop
      vertex 3.9171 16.3 3
      vertex 4.98302 16.3 3
      vertex 20.75 20.75 3
    endloop
  endfacet
  facet normal -0 0 40.5401
    outer loop
      vertex 5.16598 16.3 3
      vertex 5.17178 13.7003 3
      vertex 20.75 20.75 3
    endloop
  endfacet
  facet normal -0 -0 199.267
    outer loop
      vertex 5.17178 13.7003 3
      vertex 5.15217 0.9 3
      vertex 20.75 20.75 3
    endloop
  endfacet
  facet normal 0 0 16.8295
    outer loop
      vertex 5.15217 0.9 3
      vertex 6 0.9 3
      vertex 20.75 20.75 3
    endloop
  endfacet
  facet normal -0 0 151.8
    outer loop
      vertex -6 -8.1 3
      vertex 20.75 -20.75 3
      vertex 6 -8.1 3
    endloop
  endfacet
  facet normal -0 -0 132.75
    outer loop
      vertex 6 0.9 3
      vertex 6 -8.1 3
      vertex 20.75 -20.75 3
    endloop
  endfacet
  facet normal -0 -0 132.75
    outer loop
      vertex -6 -8.1 3
      vertex -6 0.9 3
      vertex -20.75 -20.75 3
    endloop
  endfacet
  facet normal -0 -0 10.8525
    outer loop
      vertex -5.15217 0.9 3
      vertex -5.17178 13.7003 3
      vertex -6 0.9 3
    endloop
  endfacet
  facet normal -0 0 -612.125
    outer loop
      vertex 6 -8.1 -3
      vertex 20.75 20.75 -3
      vertex 20.75 -20.75 -3
    endloop
  endfacet
  facet normal -0 -0 -199.267
    outer loop
      vertex 5.17178 13.7003 -3
      vertex 20.75 20.75 -3
      vertex 5.15217 0.9 -3
    endloop
  endfacet
  facet normal -0 0 -524.975
    outer loop
      vertex -20.75 -20.75 -3
      vertex -6 -8.1 -3
      vertex 20.75 -20.75 -3
    endloop
  endfacet
  facet normal -0 0 -132.75
    outer loop
      vertex 6 0.9 -3
      vertex 20.75 20.75 -3
      vertex 6 -8.1 -3
    endloop
  endfacet
  facet normal -0 0 -151.8
    outer loop
      vertex -6 -8.1 -3
      vertex 6 -8.1 -3
      vertex 20.75 -20.75 -3
    endloop
  endfacet
  facet normal -0 0 -16.8295
    outer loop
      vertex 5.15217 0.9 -3
      vertex 20.75 20.75 -3
      vertex 6 0.9 -3
    endloop
  endfacet
  facet normal -0 0 -40.5401
    outer loop
      vertex 5.16598 16.3 -3
      vertex 20.75 20.75 -3
      vertex 5.17178 13.7003 -3
    endloop
  endfacet
  facet normal -0 0 -184.675
    outer loop
      vertex -20.75 20.75 -3
      vertex 20.75 20.75 -3
      vertex 5.16598 16.3 -3
    endloop
  endfacet
  facet normal -0 0 -0.814167
    outer loop
      vertex -20.75 20.75 -3
      vertex 5.16598 16.3 -3
      vertex 4.98302 16.3 -3
    endloop
  endfacet
  facet normal -0 0 -4.74335
    outer loop
      vertex -20.75 20.75 -3
      vertex 4.98302 16.3 -3
      vertex 3.9171 16.3 -3
    endloop
  endfacet
  facet normal -0 0 -3.38638
    outer loop
      vertex -20.75 20.75 -3
      vertex 3.9171 16.3 -3
      vertex 3.15611 16.3 -3
    endloop
  endfacet
  facet normal -0 0 -2.05708
    outer loop
      vertex -20.75 20.75 -3
      vertex 3.15611 16.3 -3
      vertex 2.69385 16.3 -3
    endloop
  endfacet
  facet normal -0 0 -3.06021
    outer loop
      vertex -20.75 20.75 -3
      vertex 2.69385 16.3 -3
      vertex 2.00616 16.3 -3
    endloop
  endfacet
  facet normal -0 0 -2.36596
    outer loop
      vertex -20.75 20.75 -3
      vertex 2.00616 16.3 -3
      vertex 1.47448 16.3 -3
    endloop
  endfacet
  facet normal -0 0 -2.52056
    outer loop
      vertex -20.75 20.75 -3
      vertex 1.47448 16.3 -3
      vertex 0.908067 16.3 -3
    endloop
  endfacet
  facet normal -0 0 -8.08179
    outer loop
      vertex -20.75 20.75 -3
      vertex 0.908067 16.3 -3
      vertex -0.908067 16.3 -3
    endloop
  endfacet
  facet normal -0 0 -2.52056
    outer loop
      vertex -20.75 20.75 -3
      vertex -0.908067 16.3 -3
      vertex -1.47448 16.3 -3
    endloop
  endfacet
  facet normal -0 0 -2.36596
    outer loop
      vertex -20.75 20.75 -3
      vertex -1.47448 16.3 -3
      vertex -2.00616 16.3 -3
    endloop
  endfacet
  facet normal -0 0 -3.06021
    outer loop
      vertex -20.75 20.75 -3
      vertex -2.00616 16.3 -3
      vertex -2.69385 16.3 -3
    endloop
  endfacet
  facet normal -0 0 -2.05708
    outer loop
      vertex -20.75 20.75 -3
      vertex -2.69385 16.3 -3
      vertex -3.15611 16.3 -3
    endloop
  endfacet
  facet normal -0 0 -3.38638
    outer loop
      vertex -20.75 20.75 -3
      vertex -3.15611 16.3 -3
      vertex -3.9171 16.3 -3
    endloop
  endfacet
  facet normal -0 -0 -40.2991
    outer loop
      vertex -5.17178 13.7003 -3
      vertex -20.75 -20.75 -3
      vertex -5.16598 16.3 -3
    endloop
  endfacet
  facet normal -0 0 -0.814166
    outer loop
      vertex -20.75 20.75 -3
      vertex -4.98302 16.3 -3
      vertex -5.16598 16.3 -3
    endloop
  endfacet
  facet normal -0 0 -646.737
    outer loop
      vertex -20.75 20.75 -3
      vertex -5.16598 16.3 -3
      vertex -20.75 -20.75 -3
    endloop
  endfacet
  facet normal -0 -0 -10.8525
    outer loop
      vertex -5.17178 13.7003 -3
      vertex -5.15217 0.9 -3
      vertex -6 0.9 -3
    endloop
  endfacet
  facet normal -0 -0 -170.873
    outer loop
      vertex -5.17178 13.7003 -3
      vertex -6 0.9 -3
      vertex -20.75 -20.75 -3
    endloop
  endfacet
  facet normal -0 -0 -132.75
    outer loop
      vertex -6 -8.1 -3
      vertex -20.75 -20.75 -3
      vertex -6 0.9 -3
    endloop
  endfacet
  facet normal -0 -0 -4.74335
    outer loop
      vertex -4.98302 16.3 -3
      vertex -20.75 20.75 -3
      vertex -3.9171 16.3 -3
    endloop
  endfacet
  facet normal -0 -249 0
    outer loop
      vertex -20.75 -20.75 -3
      vertex 20.75 -20.75 -3
      vertex 20.75 -20.75 3
    endloop
  endfacet
  facet normal -0 -249 0
    outer loop
      vertex -20.75 -20.75 3
      vertex -20.75 -20.75 -3
      vertex 20.75 -20.75 3
    endloop
  endfacet
  facet normal 249 0 0
    outer loop
      vertex 20.75 -20.75 -3
      vertex 20.75 20.75 -3
      vertex 20.75 20.75 3
    endloop
  endfacet
  facet normal 249 -0 -0
    outer loop
      vertex 20.75 -20.75 3
      vertex 20.75 -20.75 -3
      vertex 20.75 20.75 3
    endloop
  endfacet
  facet normal -0 27.0179 0
    outer loop
      vertex 1.49702 -8.1 -1.32625
      vertex 6 -8.1 3
      vertex 6 -8.1 -3
    endloop
  endfacet
  facet normal 0 0.489178 -0
    outer loop
      vertex -0.241073 -8.1 1.98542
      vertex -6 -8.1 3
      vertex 0.241073 -8.1 1.98542
    endloop
  endfacet
  facet normal -0 24 -0
    outer loop
      vertex -6 -8.1 3
      vertex -2 -8.1 -6.21725e-15
      vertex -6 -8.1 -3
    endloop
  endfacet
  facet normal -0 2.08887 -0
    outer loop
      vertex -2 -8.1 -6.21725e-15
      vertex -1.94188 -8.1 -0.478631
      vertex -6 -8.1 -3
    endloop
  endfacet
  facet normal -0 0.489178 -0
    outer loop
      vertex 0.241073 -8.1 -1.98542
      vertex 6 -8.1 -3
      vertex -0.241073 -8.1 -1.98542
    endloop
  endfacet
  facet normal 0 2.2452 0
    outer loop
      vertex -6 -8.1 -3
      vertex -1.77091 -8.1 -0.929446
      vertex -1.49702 -8.1 -1.32625
    endloop
  endfacet
  facet normal 0 2.04375 0
    outer loop
      vertex -6 -8.1 -3
      vertex -1.49702 -8.1 -1.32625
      vertex -1.13613 -8.1 -1.64597
    endloop
  endfacet
  facet normal 0 1.66789 0
    outer loop
      vertex -6 -8.1 -3
      vertex -1.13613 -8.1 -1.64597
      vertex -0.70921 -8.1 -1.87003
    endloop
  endfacet
  facet normal 0 1.13946 0
    outer loop
      vertex -6 -8.1 -3
      vertex -0.70921 -8.1 -1.87003
      vertex -0.241073 -8.1 -1.98542
    endloop
  endfacet
  facet normal 0 12.175 0
    outer loop
      vertex -6 -8.1 -3
      vertex -0.241073 -8.1 -1.98542
      vertex 6 -8.1 -3
    endloop
  endfacet
  facet normal -0 1.13946 -0
    outer loop
      vertex 0.70921 -8.1 -1.87003
      vertex 6 -8.1 -3
      vertex 0.241073 -8.1 -1.98542
    endloop
  endfacet
  facet normal -0 1.66789 -0
    outer loop
      vertex 1.13613 -8.1 -1.64597
      vertex 6 -8.1 -3
      vertex 0.70921 -8.1 -1.87003
    endloop
  endfacet
  facet normal -0 2.26054 0
    outer loop
      vertex 1.77091 -8.1 0.929446
      vertex 6 -8.1 3
      vertex 1.94188 -8.1 0.478631
    endloop
  endfacet
  facet normal -0 0.60186 -0
    outer loop
      vertex 1.77091 -8.1 -0.929446
      vertex 6 -8.1 3
      vertex 1.49702 -8.1 -1.32625
    endloop
  endfacet
  facet normal -0 2.04375 0
    outer loop
      vertex 1.13613 -8.1 -1.64597
      vertex 1.49702 -8.1 -1.32625
      vertex 6 -8.1 -3
    endloop
  endfacet
  facet normal -0 1.23471 -0
    outer loop
      vertex 1.94188 -8.1 -0.478631
      vertex 6 -8.1 3
      vertex 1.77091 -8.1 -0.929446
    endloop
  endfacet
  facet normal -0 1.74018 -0
    outer loop
      vertex 2 -8.1 8.88178e-16
      vertex 6 -8.1 3
      vertex 1.94188 -8.1 -0.478631
    endloop
  endfacet
  facet normal -0 2.08887 0
    outer loop
      vertex 1.94188 -8.1 0.478631
      vertex 6 -8.1 3
      vertex 2 -8.1 8.88178e-16
    endloop
  endfacet
  facet normal -0 2.04375 0
    outer loop
      vertex 1.13613 -8.1 1.64597
      vertex 6 -8.1 3
      vertex 1.49702 -8.1 1.32625
    endloop
  endfacet
  facet normal -0 1.66789 0
    outer loop
      vertex 0.70921 -8.1 1.87003
      vertex 6 -8.1 3
      vertex 1.13613 -8.1 1.64597
    endloop
  endfacet
  facet normal -0 1.13946 0
    outer loop
      vertex 0.241073 -8.1 1.98542
      vertex 6 -8.1 3
      vertex 0.70921 -8.1 1.87003
    endloop
  endfacet
  facet normal -0 12.175 0
    outer loop
      vertex -6 -8.1 3
      vertex 6 -8.1 3
      vertex 0.241073 -8.1 1.98542
    endloop
  endfacet
  facet normal 0 1.13946 -0
    outer loop
      vertex -0.70921 -8.1 1.87003
      vertex -6 -8.1 3
      vertex -0.241073 -8.1 1.98542
    endloop
  endfacet
  facet normal 0 1.66789 -0
    outer loop
      vertex -1.13613 -8.1 1.64597
      vertex -6 -8.1 3
      vertex -0.70921 -8.1 1.87003
    endloop
  endfacet
  facet normal -0 2.04375 0
    outer loop
      vertex -6 -8.1 3
      vertex -1.13613 -8.1 1.64597
      vertex -1.49702 -8.1 1.32625
    endloop
  endfacet
  facet normal -0 2.2452 0
    outer loop
      vertex -6 -8.1 3
      vertex -1.49702 -8.1 1.32625
      vertex -1.77091 -8.1 0.929446
    endloop
  endfacet
  facet normal -0 2.26054 0
    outer loop
      vertex -6 -8.1 3
      vertex -1.77091 -8.1 0.929446
      vertex -1.94188 -8.1 0.478631
    endloop
  endfacet
  facet normal -0 2.08887 0
    outer loop
      vertex -6 -8.1 3
      vertex -1.94188 -8.1 0.478631
      vertex -2 -8.1 -6.21725e-15
    endloop
  endfacet
  facet normal -0 2.26054 -0
    outer loop
      vertex -1.77091 -8.1 -0.929446
      vertex -6 -8.1 -3
      vertex -1.94188 -8.1 -0.478631
    endloop
  endfacet
  facet normal -0 2.2452 0
    outer loop
      vertex 1.49702 -8.1 1.32625
      vertex 6 -8.1 3
      vertex 1.77091 -8.1 0.929446
    endloop
  endfacet
  facet normal 27 0 0
    outer loop
      vertex -6 -8.1 -3
      vertex -6 0.9 -3
      vertex -6 0.9 8.88178e-16
    endloop
  endfacet
  facet normal 54 -0 -0
    outer loop
      vertex -6 -8.1 3
      vertex -6 -8.1 -3
      vertex -6 0.9 3
    endloop
  endfacet
  facet normal 27 -0 -0
    outer loop
      vertex -6 0.9 3
      vertex -6 -8.1 -3
      vertex -6 0.9 8.88178e-16
    endloop
  endfacet
  facet normal -54 -0 0
    outer loop
      vertex 6 -8.1 3
      vertex 6 0.9 3
      vertex 6 -8.1 -3
    endloop
  endfacet
  facet normal -27 0 0
    outer loop
      vertex 6 -8.1 -3
      vertex 6 0.9 3
      vertex 6 0.9 8.88178e-16
    endloop
  endfacet
  facet normal -27 -0 0
    outer loop
      vertex 6 -8.1 -3
      vertex 6 0.9 8.88178e-16
      vertex 6 0.9 -3
    endloop
  endfacet
  facet normal -0 -0.777529 -0
    outer loop
      vertex 6 0.9 3
      vertex 5.52731 0.9 2.31802
      vertex 5.88062 0.9 1.18286
    endloop
  endfacet
  facet normal -0 -0.578208 0
    outer loop
      vertex 5.15217 0.9 3
      vertex 5.52731 0.9 2.31802
      vertex 6 0.9 3
    endloop
  endfacet
  facet normal 0 -0.358128 -0
    outer loop
      vertex 6 0.9 8.88178e-16
      vertex 6 0.9 3
      vertex 5.88062 0.9 1.18286
    endloop
  endfacet
  facet normal -8.72957 0.0133789 -4.80195
    outer loop
      vertex 5.15217 0.9 3
      vertex 5.17178 13.7003 3
      vertex 5.52731 0.9 2.31802
    endloop
  endfacet
  facet normal -16.2036 -0.0361911 -7.76787
    outer loop
      vertex 5.67038 16.3 1.94782
      vertex 5.52731 0.9 2.31802
      vertex 5.16598 16.3 3
    endloop
  endfacet
  facet normal -1.77297 -0.00395998 -0.849948
    outer loop
      vertex 5.16598 16.3 3
      vertex 5.52731 0.9 2.31802
      vertex 5.17178 13.7003 3
    endloop
  endfacet
  facet normal 7.43903e-16 -2.97216 -1.86042e-15
    outer loop
      vertex 3.3 16.3 1
      vertex 5.67038 16.3 1.94782
      vertex 5.16598 16.3 3
    endloop
  endfacet
  facet normal 9.15856e-17 -0.365918 -2.29045e-16
    outer loop
      vertex 4.98302 16.3 3
      vertex 3.3 16.3 1
      vertex 5.16598 16.3 3
    endloop
  endfacet
  facet normal -5.41654e-16 -2.13184 -4.29603e-16
    outer loop
      vertex 3.3 16.3 1
      vertex 4.98302 16.3 3
      vertex 3.9171 16.3 3
    endloop
  endfacet
  facet normal -3.68256e-16 -3.26338 -7.99834e-16
    outer loop
      vertex 1.87128 16.3 1.65781
      vertex 3.3 16.3 1
      vertex 3.9171 16.3 3
    endloop
  endfacet
  facet normal -1.15259e-16 -1.02139 -2.50336e-16
    outer loop
      vertex 3.15611 16.3 3
      vertex 1.87128 16.3 1.65781
      vertex 3.9171 16.3 3
    endloop
  endfacet
  facet normal 1.00269e-15 -1.11897 -1.35497e-15
    outer loop
      vertex 1.42016 16.3 2.05746
      vertex 1.87128 16.3 1.65781
      vertex 3.15611 16.3 3
    endloop
  endfacet
  facet normal 3.90426e-16 -0.435703 -5.27596e-16
    outer loop
      vertex 2.69385 16.3 3
      vertex 1.42016 16.3 2.05746
      vertex 3.15611 16.3 3
    endloop
  endfacet
  facet normal -2.6815e-16 -0.648173 3.6236e-16
    outer loop
      vertex 1.42016 16.3 2.05746
      vertex 2.69385 16.3 3
      vertex 2.00616 16.3 3
    endloop
  endfacet
  facet normal 7.96822e-17 -0.667113 1.51822e-16
    outer loop
      vertex 0.886512 16.3 2.33754
      vertex 1.42016 16.3 2.05746
      vertex 2.00616 16.3 3
    endloop
  endfacet
  facet normal 4.20695e-17 -0.352214 8.01568e-17
    outer loop
      vertex 1.47448 16.3 3
      vertex 0.886512 16.3 2.33754
      vertex 2.00616 16.3 3
    endloop
  endfacet
  facet normal 3.1874e-17 -0.472456 1.29318e-16
    outer loop
      vertex 0.301342 16.3 2.48177
      vertex 0.886512 16.3 2.33754
      vertex 1.47448 16.3 3
    endloop
  endfacet
  facet normal 1.98031e-17 -0.293534 8.03444e-17
    outer loop
      vertex 0.908067 16.3 3
      vertex 0.301342 16.3 2.48177
      vertex 1.47448 16.3 3
    endloop
  endfacet
  facet normal 0 -0.693118 2.44463e-16
    outer loop
      vertex -0.42941 16.3 3
      vertex 0.301342 16.3 2.48177
      vertex 0.908067 16.3 3
    endloop
  endfacet
  facet normal 3.24681e-31 -0.312327 1.10158e-16
    outer loop
      vertex -0.908067 16.3 3
      vertex -0.301342 16.3 2.48177
      vertex 0.301342 16.3 2.48177
    endloop
  endfacet
  facet normal 2.57864e-31 -0.248053 8.74883e-17
    outer loop
      vertex -0.42941 16.3 3
      vertex -0.908067 16.3 3
      vertex 0.301342 16.3 2.48177
    endloop
  endfacet
  facet normal -3.1874e-17 -0.472456 1.29318e-16
    outer loop
      vertex -1.47449 16.3 3
      vertex -0.886512 16.3 2.33754
      vertex -0.301342 16.3 2.48177
    endloop
  endfacet
  facet normal -1.98031e-17 -0.293534 8.03444e-17
    outer loop
      vertex -0.908067 16.3 3
      vertex -1.47449 16.3 3
      vertex -0.301342 16.3 2.48177
    endloop
  endfacet
  facet normal -7.96822e-17 -0.667113 1.51822e-16
    outer loop
      vertex -2.00616 16.3 3
      vertex -1.42016 16.3 2.05746
      vertex -0.886512 16.3 2.33754
    endloop
  endfacet
  facet normal -4.20695e-17 -0.352213 8.01568e-17
    outer loop
      vertex -1.47449 16.3 3
      vertex -2.00616 16.3 3
      vertex -0.886512 16.3 2.33754
    endloop
  endfacet
  facet normal 2.6815e-16 -0.648173 3.6236e-16
    outer loop
      vertex -2.69385 16.3 3
      vertex -1.42016 16.3 2.05746
      vertex -2.00616 16.3 3
    endloop
  endfacet
  facet normal -1.00269e-15 -1.11897 -1.35497e-15
    outer loop
      vertex -3.15611 16.3 3
      vertex -1.87128 16.3 1.65781
      vertex -1.42016 16.3 2.05746
    endloop
  endfacet
  facet normal -3.90426e-16 -0.435703 -5.27595e-16
    outer loop
      vertex -2.69385 16.3 3
      vertex -3.15611 16.3 3
      vertex -1.42016 16.3 2.05746
    endloop
  endfacet
  facet normal 3.68256e-16 -3.26338 -7.99834e-16
    outer loop
      vertex -3.9171 16.3 3
      vertex -3.3 16.3 1
      vertex -1.87128 16.3 1.65781
    endloop
  endfacet
  facet normal 1.15259e-16 -1.02139 -2.50336e-16
    outer loop
      vertex -3.15611 16.3 3
      vertex -3.9171 16.3 3
      vertex -1.87128 16.3 1.65781
    endloop
  endfacet
  facet normal 5.41654e-16 -2.13184 -4.29603e-16
    outer loop
      vertex -4.98302 16.3 3
      vertex -3.3 16.3 1
      vertex -3.9171 16.3 3
    endloop
  endfacet
  facet normal -7.87307e-16 -3.14557 -1.96896e-15
    outer loop
      vertex -5.67038 16.3 1.94782
      vertex -3.3 16.3 1
      vertex -4.98302 16.3 3
    endloop
  endfacet
  facet normal -4.81824e-17 -0.192506 -1.20499e-16
    outer loop
      vertex -5.16598 16.3 3
      vertex -5.67038 16.3 1.94782
      vertex -4.98302 16.3 3
    endloop
  endfacet
  facet normal 2.73539 -0.00610956 -1.31132
    outer loop
      vertex -5.67038 16.3 1.94782
      vertex -5.16598 16.3 3
      vertex -5.17178 13.7003 3
    endloop
  endfacet
  facet normal 15.2412 -0.0340416 -7.3065
    outer loop
      vertex -5.52731 0.9 2.31802
      vertex -5.67038 16.3 1.94782
      vertex -5.17178 13.7003 3
    endloop
  endfacet
  facet normal 8.72957 0.0133789 -4.80195
    outer loop
      vertex -5.52731 0.9 2.31802
      vertex -5.17178 13.7003 3
      vertex -5.15217 0.9 3
    endloop
  endfacet
  facet normal -0 -0.77753 0
    outer loop
      vertex -6 0.9 3
      vertex -5.88062 0.9 1.18286
      vertex -5.52731 0.9 2.31802
    endloop
  endfacet
  facet normal 0 -0.358128 -0
    outer loop
      vertex -6 0.9 8.88178e-16
      vertex -5.88062 0.9 1.18286
      vertex -6 0.9 3
    endloop
  endfacet
  facet normal -0 -0.578208 -0
    outer loop
      vertex -5.15217 0.9 3
      vertex -6 0.9 3
      vertex -5.52731 0.9 2.31802
    endloop
  endfacet
  facet normal -0 -0.578208 0
    outer loop
      vertex -6 0.9 -3
      vertex -5.15217 0.9 -3
      vertex -5.52731 0.9 -2.31802
    endloop
  endfacet
  facet normal -0 -0.77753 -0
    outer loop
      vertex -5.88062 0.9 -1.18286
      vertex -6 0.9 -3
      vertex -5.52731 0.9 -2.31802
    endloop
  endfacet
  facet normal -0 -0.358128 -0
    outer loop
      vertex -5.88062 0.9 -1.18286
      vertex -6 0.9 8.88178e-16
      vertex -6 0.9 -3
    endloop
  endfacet
  facet normal 8.72957 0.0133789 4.80195
    outer loop
      vertex -5.52731 0.9 -2.31802
      vertex -5.15217 0.9 -3
      vertex -5.17178 13.7003 -3
    endloop
  endfacet
  facet normal 15.2412 -0.0340416 7.3065
    outer loop
      vertex -5.67038 16.3 -1.94782
      vertex -5.52731 0.9 -2.31802
      vertex -5.17178 13.7003 -3
    endloop
  endfacet
  facet normal 2.73539 -0.00610956 1.31132
    outer loop
      vertex -5.16598 16.3 -3
      vertex -5.67038 16.3 -1.94782
      vertex -5.17178 13.7003 -3
    endloop
  endfacet
  facet normal 4.81824e-17 -0.192506 -1.20499e-16
    outer loop
      vertex -5.67038 16.3 -1.94782
      vertex -5.16598 16.3 -3
      vertex -4.98302 16.3 -3
    endloop
  endfacet
  facet normal 7.87307e-16 -3.14557 -1.96896e-15
    outer loop
      vertex -3.3 16.3 -1
      vertex -5.67038 16.3 -1.94782
      vertex -4.98302 16.3 -3
    endloop
  endfacet
  facet normal -5.41654e-16 -2.13184 -4.29603e-16
    outer loop
      vertex -4.98302 16.3 -3
      vertex -3.9171 16.3 -3
      vertex -3.3 16.3 -1
    endloop
  endfacet
  facet normal -1.15259e-16 -1.02139 -2.50336e-16
    outer loop
      vertex -3.9171 16.3 -3
      vertex -3.15611 16.3 -3
      vertex -1.87128 16.3 -1.65781
    endloop
  endfacet
  facet normal -3.68256e-16 -3.26338 -7.99834e-16
    outer loop
      vertex -3.3 16.3 -1
      vertex -3.9171 16.3 -3
      vertex -1.87128 16.3 -1.65781
    endloop
  endfacet
  facet normal 3.90426e-16 -0.435703 -5.27595e-16
    outer loop
      vertex -3.15611 16.3 -3
      vertex -2.69385 16.3 -3
      vertex -1.42016 16.3 -2.05746
    endloop
  endfacet
  facet normal 1.00269e-15 -1.11897 -1.35497e-15
    outer loop
      vertex -1.87128 16.3 -1.65781
      vertex -3.15611 16.3 -3
      vertex -1.42016 16.3 -2.05746
    endloop
  endfacet
  facet normal -2.6815e-16 -0.648173 3.6236e-16
    outer loop
      vertex -2.69385 16.3 -3
      vertex -2.00616 16.3 -3
      vertex -1.42016 16.3 -2.05746
    endloop
  endfacet
  facet normal 4.20695e-17 -0.352213 8.01568e-17
    outer loop
      vertex -2.00616 16.3 -3
      vertex -1.47448 16.3 -3
      vertex -0.886512 16.3 -2.33754
    endloop
  endfacet
  facet normal 7.96822e-17 -0.667113 1.51822e-16
    outer loop
      vertex -1.42016 16.3 -2.05746
      vertex -2.00616 16.3 -3
      vertex -0.886512 16.3 -2.33754
    endloop
  endfacet
  facet normal 1.98031e-17 -0.293533 8.03443e-17
    outer loop
      vertex -1.47448 16.3 -3
      vertex -0.908067 16.3 -3
      vertex -0.301342 16.3 -2.48177
    endloop
  endfacet
  facet normal 3.1874e-17 -0.472456 1.29318e-16
    outer loop
      vertex -0.886512 16.3 -2.33754
      vertex -1.47448 16.3 -3
      vertex -0.301342 16.3 -2.48177
    endloop
  endfacet
  facet normal 0 -0.941171 3.31951e-16
    outer loop
      vertex -0.908067 16.3 -3
      vertex 0.908067 16.3 -3
      vertex 0.301342 16.3 -2.48177
    endloop
  endfacet
  facet normal 0 -0.312327 1.10158e-16
    outer loop
      vertex -0.301342 16.3 -2.48177
      vertex -0.908067 16.3 -3
      vertex 0.301342 16.3 -2.48177
    endloop
  endfacet
  facet normal -1.98031e-17 -0.293534 8.03443e-17
    outer loop
      vertex 0.301342 16.3 -2.48177
      vertex 0.908067 16.3 -3
      vertex 1.47448 16.3 -3
    endloop
  endfacet
  facet normal -3.1874e-17 -0.472456 1.29318e-16
    outer loop
      vertex 0.886512 16.3 -2.33754
      vertex 0.301342 16.3 -2.48177
      vertex 1.47448 16.3 -3
    endloop
  endfacet
  facet normal -4.20695e-17 -0.352213 8.01568e-17
    outer loop
      vertex 0.886512 16.3 -2.33754
      vertex 1.47448 16.3 -3
      vertex 2.00616 16.3 -3
    endloop
  endfacet
  facet normal -7.96822e-17 -0.667113 1.51822e-16
    outer loop
      vertex 1.42016 16.3 -2.05746
      vertex 0.886512 16.3 -2.33754
      vertex 2.00616 16.3 -3
    endloop
  endfacet
  facet normal 2.6815e-16 -0.648173 3.6236e-16
    outer loop
      vertex 1.42016 16.3 -2.05746
      vertex 2.00616 16.3 -3
      vertex 2.69385 16.3 -3
    endloop
  endfacet
  facet normal -3.90426e-16 -0.435703 -5.27596e-16
    outer loop
      vertex 1.42016 16.3 -2.05746
      vertex 2.69385 16.3 -3
      vertex 3.15611 16.3 -3
    endloop
  endfacet
  facet normal -1.00269e-15 -1.11897 -1.35497e-15
    outer loop
      vertex 1.87128 16.3 -1.65781
      vertex 1.42016 16.3 -2.05746
      vertex 3.15611 16.3 -3
    endloop
  endfacet
  facet normal 1.15259e-16 -1.02139 -2.50336e-16
    outer loop
      vertex 1.87128 16.3 -1.65781
      vertex 3.15611 16.3 -3
      vertex 3.9171 16.3 -3
    endloop
  endfacet
  facet normal 3.68256e-16 -3.26338 -7.99834e-16
    outer loop
      vertex 3.3 16.3 -1
      vertex 1.87128 16.3 -1.65781
      vertex 3.9171 16.3 -3
    endloop
  endfacet
  facet normal 5.41654e-16 -2.13184 -4.29603e-16
    outer loop
      vertex 3.3 16.3 -1
      vertex 3.9171 16.3 -3
      vertex 4.98302 16.3 -3
    endloop
  endfacet
  facet normal -9.15856e-17 -0.365918 -2.29045e-16
    outer loop
      vertex 3.3 16.3 -1
      vertex 4.98302 16.3 -3
      vertex 5.16598 16.3 -3
    endloop
  endfacet
  facet normal -7.43903e-16 -2.97216 -1.86042e-15
    outer loop
      vertex 5.67038 16.3 -1.94782
      vertex 3.3 16.3 -1
      vertex 5.16598 16.3 -3
    endloop
  endfacet
  facet normal -1.77297 -0.00395998 0.849948
    outer loop
      vertex 5.17178 13.7003 -3
      vertex 5.52731 0.9 -2.31802
      vertex 5.16598 16.3 -3
    endloop
  endfacet
  facet normal -16.2036 -0.0361911 7.76787
    outer loop
      vertex 5.16598 16.3 -3
      vertex 5.52731 0.9 -2.31802
      vertex 5.67038 16.3 -1.94782
    endloop
  endfacet
  facet normal -8.72957 0.0133789 4.80195
    outer loop
      vertex 5.15217 0.9 -3
      vertex 5.52731 0.9 -2.31802
      vertex 5.17178 13.7003 -3
    endloop
  endfacet
  facet normal -0 -0.358128 0
    outer loop
      vertex 5.88062 0.9 -1.18286
      vertex 6 0.9 -3
      vertex 6 0.9 8.88178e-16
    endloop
  endfacet
  facet normal -0 -0.777529 0
    outer loop
      vertex 5.52731 0.9 -2.31802
      vertex 6 0.9 -3
      vertex 5.88062 0.9 -1.18286
    endloop
  endfacet
  facet normal -0 -0.578208 0
    outer loop
      vertex 5.15217 0.9 -3
      vertex 6 0.9 -3
      vertex 5.52731 0.9 -2.31802
    endloop
  endfacet
  facet normal 0.335042 -8.25883e-16 -0.0406815
    outer loop
      vertex -2 -8.8 7.99361e-15
      vertex -2 -8.1 -6.21725e-15
      vertex -1.94188 -8.1 0.478631
    endloop
  endfacet
  facet normal 0.335042 -1.08103e-15 0.0406815
    outer loop
      vertex -2 -8.1 -6.21725e-15
      vertex -1.94188 -8.8 -0.478631
      vertex -1.94188 -8.1 -0.478631
    endloop
  endfacet
  facet normal 0.335042 8.25883e-16 0.0406815
    outer loop
      vertex -2 -8.8 7.99361e-15
      vertex -1.94188 -8.8 -0.478631
      vertex -2 -8.1 -6.21725e-15
    endloop
  endfacet
  facet normal 0.315571 -2.20623e-16 -0.11968
    outer loop
      vertex -1.94188 -8.1 0.478631
      vertex -1.77091 -8.1 0.929446
      vertex -1.94188 -8.8 0.478631
    endloop
  endfacet
  facet normal 0.335042 1.08103e-15 -0.0406815
    outer loop
      vertex -2 -8.8 7.99361e-15
      vertex -1.94188 -8.1 0.478631
      vertex -1.94188 -8.8 0.478631
    endloop
  endfacet
  facet normal 0.277759 -8.04594e-16 -0.191723
    outer loop
      vertex -1.77091 -8.1 0.929446
      vertex -1.49702 -8.1 1.32625
      vertex -1.77091 -8.8 0.929446
    endloop
  endfacet
  facet normal 0.315571 5.80186e-16 -0.11968
    outer loop
      vertex -1.94188 -8.8 0.478631
      vertex -1.77091 -8.1 0.929446
      vertex -1.77091 -8.8 0.929446
    endloop
  endfacet
  facet normal 0.223806 -2.92528e-16 -0.252624
    outer loop
      vertex -1.49702 -8.1 1.32625
      vertex -1.13613 -8.1 1.64597
      vertex -1.49702 -8.8 1.32625
    endloop
  endfacet
  facet normal 0.277759 8.73317e-16 -0.191723
    outer loop
      vertex -1.77091 -8.8 0.929446
      vertex -1.49702 -8.1 1.32625
      vertex -1.49702 -8.8 1.32625
    endloop
  endfacet
  facet normal 0.156845 -8.44343e-16 -0.298844
    outer loop
      vertex -1.13613 -8.1 1.64597
      vertex -0.70921 -8.1 1.87003
      vertex -1.13613 -8.8 1.64597
    endloop
  endfacet
  facet normal 0.223806 5.59384e-16 -0.252624
    outer loop
      vertex -1.49702 -8.8 1.32625
      vertex -1.13613 -8.1 1.64597
      vertex -1.13613 -8.8 1.64597
    endloop
  endfacet
  facet normal 0.0807697 -1.26494e-15 -0.327695
    outer loop
      vertex -0.70921 -8.1 1.87003
      vertex -0.241073 -8.1 1.98542
      vertex -0.70921 -8.8 1.87003
    endloop
  endfacet
  facet normal 0.156845 1.13028e-16 -0.298844
    outer loop
      vertex -1.13613 -8.8 1.64597
      vertex -0.70921 -8.1 1.87003
      vertex -0.70921 -8.8 1.87003
    endloop
  endfacet
  facet normal 1.24345e-15 2.05104e-29 -0.337503
    outer loop
      vertex -0.241073 -8.1 1.98542
      vertex 0.241073 -8.1 1.98542
      vertex -0.241073 -8.8 1.98542
    endloop
  endfacet
  facet normal 0.0807697 1.33228e-15 -0.327695
    outer loop
      vertex -0.70921 -8.8 1.87003
      vertex -0.241073 -8.1 1.98542
      vertex -0.241073 -8.8 1.98542
    endloop
  endfacet
  facet normal -0.0807697 -5.00698e-16 -0.327695
    outer loop
      vertex 0.241073 -8.1 1.98542
      vertex 0.70921 -8.1 1.87003
      vertex 0.241073 -8.8 1.98542
    endloop
  endfacet
  facet normal 0 8.56465e-16 -0.337503
    outer loop
      vertex -0.241073 -8.8 1.98542
      vertex 0.241073 -8.1 1.98542
      vertex 0.241073 -8.8 1.98542
    endloop
  endfacet
  facet normal -0.156845 -6.72381e-16 -0.298844
    outer loop
      vertex 0.70921 -8.1 1.87003
      vertex 1.13613 -8.1 1.64597
      vertex 0.70921 -8.8 1.87003
    endloop
  endfacet
  facet normal -0.0807697 5.35845e-16 -0.327695
    outer loop
      vertex 0.241073 -8.8 1.98542
      vertex 0.70921 -8.1 1.87003
      vertex 0.70921 -8.8 1.87003
    endloop
  endfacet
  facet normal -0.223806 -9.89618e-16 -0.252624
    outer loop
      vertex 1.13613 -8.1 1.64597
      vertex 1.49702 -8.1 1.32625
      vertex 1.13613 -8.8 1.64597
    endloop
  endfacet
  facet normal -0.156845 -7.53523e-17 -0.298844
    outer loop
      vertex 0.70921 -8.8 1.87003
      vertex 1.13613 -8.1 1.64597
      vertex 1.13613 -8.8 1.64597
    endloop
  endfacet
  facet normal -0.277759 -4.36658e-16 -0.191723
    outer loop
      vertex 1.49702 -8.1 1.32625
      vertex 1.77091 -8.1 0.929446
      vertex 1.49702 -8.8 1.32625
    endloop
  endfacet
  facet normal -0.223806 1.46264e-16 -0.252624
    outer loop
      vertex 1.13613 -8.8 1.64597
      vertex 1.49702 -8.1 1.32625
      vertex 1.49702 -8.8 1.32625
    endloop
  endfacet
  facet normal -0.315571 -5.93799e-16 -0.11968
    outer loop
      vertex 1.77091 -8.1 0.929446
      vertex 1.94188 -8.1 0.478631
      vertex 1.77091 -8.8 0.929446
    endloop
  endfacet
  facet normal -0.277759 -8.42301e-17 -0.191723
    outer loop
      vertex 1.49702 -8.8 1.32625
      vertex 1.77091 -8.1 0.929446
      vertex 1.77091 -8.8 0.929446
    endloop
  endfacet
  facet normal -0.335042 2.06471e-16 -0.0406815
    outer loop
      vertex 1.94188 -8.8 0.478631
      vertex 1.94188 -8.1 0.478631
      vertex 2 -8.1 8.88178e-16
    endloop
  endfacet
  facet normal -0.315571 6.07413e-16 -0.11968
    outer loop
      vertex 1.77091 -8.8 0.929446
      vertex 1.94188 -8.1 0.478631
      vertex 1.94188 -8.8 0.478631
    endloop
  endfacet
  facet normal -0.335042 -2.06471e-16 0.0406815
    outer loop
      vertex 1.94188 -8.8 -0.478631
      vertex 2 -8.1 8.88178e-16
      vertex 1.94188 -8.1 -0.478631
    endloop
  endfacet
  facet normal -0.335042 0 -0.0406815
    outer loop
      vertex 1.94188 -8.8 0.478631
      vertex 2 -8.1 8.88178e-16
      vertex 2 -8.8 8.88178e-16
    endloop
  endfacet
  facet normal -0.335042 0 0.0406815
    outer loop
      vertex 1.94188 -8.8 -0.478631
      vertex 2 -8.8 8.88178e-16
      vertex 2 -8.1 8.88178e-16
    endloop
  endfacet
  facet normal -0.315571 -6.07413e-16 0.11968
    outer loop
      vertex 1.77091 -8.1 -0.929446
      vertex 1.94188 -8.8 -0.478631
      vertex 1.94188 -8.1 -0.478631
    endloop
  endfacet
  facet normal -0.315571 5.93799e-16 0.11968
    outer loop
      vertex 1.77091 -8.8 -0.929446
      vertex 1.94188 -8.8 -0.478631
      vertex 1.77091 -8.1 -0.929446
    endloop
  endfacet
  facet normal -0.277759 8.42301e-17 0.191723
    outer loop
      vertex 1.49702 -8.1 -1.32625
      vertex 1.77091 -8.8 -0.929446
      vertex 1.77091 -8.1 -0.929446
    endloop
  endfacet
  facet normal -0.277759 4.36658e-16 0.191723
    outer loop
      vertex 1.49702 -8.8 -1.32625
      vertex 1.77091 -8.8 -0.929446
      vertex 1.49702 -8.1 -1.32625
    endloop
  endfacet
  facet normal -0.223806 -1.46264e-16 0.252624
    outer loop
      vertex 1.13613 -8.1 -1.64597
      vertex 1.49702 -8.8 -1.32625
      vertex 1.49702 -8.1 -1.32625
    endloop
  endfacet
  facet normal -0.223806 9.89618e-16 0.252624
    outer loop
      vertex 1.13613 -8.8 -1.64597
      vertex 1.49702 -8.8 -1.32625
      vertex 1.13613 -8.1 -1.64597
    endloop
  endfacet
  facet normal -0.156845 7.53523e-17 0.298844
    outer loop
      vertex 0.70921 -8.1 -1.87003
      vertex 1.13613 -8.8 -1.64597
      vertex 1.13613 -8.1 -1.64597
    endloop
  endfacet
  facet normal -0.156845 6.72381e-16 0.298844
    outer loop
      vertex 0.70921 -8.8 -1.87003
      vertex 1.13613 -8.8 -1.64597
      vertex 0.70921 -8.1 -1.87003
    endloop
  endfacet
  facet normal -0.0807697 -5.35845e-16 0.327695
    outer loop
      vertex 0.241073 -8.1 -1.98542
      vertex 0.70921 -8.8 -1.87003
      vertex 0.70921 -8.1 -1.87003
    endloop
  endfacet
  facet normal -0.0807697 1.33228e-15 0.327695
    outer loop
      vertex 0.241073 -8.8 -1.98542
      vertex 0.70921 -8.8 -1.87003
      vertex 0.241073 -8.1 -1.98542
    endloop
  endfacet
  facet normal -0 0 0.337503
    outer loop
      vertex -0.241073 -8.1 -1.98542
      vertex 0.241073 -8.8 -1.98542
      vertex 0.241073 -8.1 -1.98542
    endloop
  endfacet
  facet normal 2.4869e-15 1.71293e-15 0.337503
    outer loop
      vertex -0.241073 -8.8 -1.98542
      vertex 0.241073 -8.8 -1.98542
      vertex -0.241073 -8.1 -1.98542
    endloop
  endfacet
  facet normal 0.0807697 3.3088e-16 0.327695
    outer loop
      vertex -0.70921 -8.1 -1.87003
      vertex -0.241073 -8.8 -1.98542
      vertex -0.241073 -8.1 -1.98542
    endloop
  endfacet
  facet normal 0.0807697 4.33362e-16 0.327695
    outer loop
      vertex -0.70921 -8.8 -1.87003
      vertex -0.241073 -8.8 -1.98542
      vertex -0.70921 -8.1 -1.87003
    endloop
  endfacet
  facet normal 0.156845 -8.7139e-16 0.298844
    outer loop
      vertex -1.13613 -8.1 -1.64597
      vertex -0.70921 -8.8 -1.87003
      vertex -0.70921 -8.1 -1.87003
    endloop
  endfacet
  facet normal 0.156845 8.44343e-16 0.298844
    outer loop
      vertex -1.13613 -8.8 -1.64597
      vertex -0.70921 -8.8 -1.87003
      vertex -1.13613 -8.1 -1.64597
    endloop
  endfacet
  facet normal 0.223806 -5.59384e-16 0.252624
    outer loop
      vertex -1.49702 -8.8 -1.32625
      vertex -1.13613 -8.8 -1.64597
      vertex -1.13613 -8.1 -1.64597
    endloop
  endfacet
  facet normal 0.223806 2.92528e-16 0.252624
    outer loop
      vertex -1.49702 -8.8 -1.32625
      vertex -1.13613 -8.1 -1.64597
      vertex -1.49702 -8.1 -1.32625
    endloop
  endfacet
  facet normal 0.277759 -8.73317e-16 0.191723
    outer loop
      vertex -1.77091 -8.1 -0.929446
      vertex -1.49702 -8.8 -1.32625
      vertex -1.49702 -8.1 -1.32625
    endloop
  endfacet
  facet normal 0.277759 8.04594e-16 0.191723
    outer loop
      vertex -1.77091 -8.8 -0.929446
      vertex -1.49702 -8.8 -1.32625
      vertex -1.77091 -8.1 -0.929446
    endloop
  endfacet
  facet normal 0.315571 -5.80186e-16 0.11968
    outer loop
      vertex -1.94188 -8.1 -0.478631
      vertex -1.77091 -8.8 -0.929446
      vertex -1.77091 -8.1 -0.929446
    endloop
  endfacet
  facet normal 0.315571 2.20623e-16 0.11968
    outer loop
      vertex -1.94188 -8.8 -0.478631
      vertex -1.77091 -8.8 -0.929446
      vertex -1.94188 -8.1 -0.478631
    endloop
  endfacet
  facet normal 18.2161 0.0351308 -1.83839
    outer loop
      vertex -6 0.9 8.88178e-16
      vertex -5.96307 16.3 0.660222
      vertex -5.88062 0.9 1.18286
    endloop
  endfacet
  facet normal 20.3348 -0.0487649 0
    outer loop
      vertex -6 0.9 8.88178e-16
      vertex -5.96307 16.3 -0.660222
      vertex -5.96307 16.3 0.660222
    endloop
  endfacet
  facet normal 18.2161 0.0351308 1.83839
    outer loop
      vertex -6 0.9 8.88178e-16
      vertex -5.88062 0.9 -1.18286
      vertex -5.96307 16.3 -0.660222
    endloop
  endfacet
  facet normal -18.2161 0.0351309 1.83839
    outer loop
      vertex 5.88062 0.9 -1.18286
      vertex 6 0.9 8.88178e-16
      vertex 5.96307 16.3 -0.660222
    endloop
  endfacet
  facet normal -20.3348 -0.0487645 0
    outer loop
      vertex 5.96307 16.3 -0.660222
      vertex 6 0.9 8.88178e-16
      vertex 5.96307 16.3 0.660222
    endloop
  endfacet
  facet normal -18.2161 0.0351309 -1.83839
    outer loop
      vertex 5.88062 0.9 1.18286
      vertex 5.96307 16.3 0.660222
      vertex 6 0.9 8.88178e-16
    endloop
  endfacet
  facet normal -19.829 -0.046812 -4.50734
    outer loop
      vertex 5.67038 16.3 1.94782
      vertex 5.96307 16.3 0.660222
      vertex 5.88062 0.9 1.18286
    endloop
  endfacet
  facet normal -17.4814 0.0316152 -5.44102
    outer loop
      vertex 5.52731 0.9 2.31802
      vertex 5.67038 16.3 1.94782
      vertex 5.88062 0.9 1.18286
    endloop
  endfacet
  facet normal 0 -3.32951 0
    outer loop
      vertex 3.3 16.3 -1
      vertex 5.67038 16.3 -1.94782
      vertex 5.96307 16.3 -0.660222
    endloop
  endfacet
  facet normal 0 -3.91488 0
    outer loop
      vertex 5.67038 16.3 1.94782
      vertex 3.3 16.3 -1
      vertex 5.96307 16.3 0.660222
    endloop
  endfacet
  facet normal 0 -3.51643 0
    outer loop
      vertex 5.96307 16.3 0.660222
      vertex 3.3 16.3 -1
      vertex 5.96307 16.3 -0.660222
    endloop
  endfacet
  facet normal 0 -4.74077 0
    outer loop
      vertex 3.3 16.3 1
      vertex 3.3 16.3 -1
      vertex 5.67038 16.3 1.94782
    endloop
  endfacet
  facet normal -3.6 -0 1.32769e-07
    outer loop
      vertex 3.3 16.3 1
      vertex 3.3 18.1 1
      vertex 3.3 16.3 -1
    endloop
  endfacet
  facet normal -3.6 0 1.32769e-07
    outer loop
      vertex 3.3 16.3 -1
      vertex 3.3 18.1 1
      vertex 3.3 18.1 -1
    endloop
  endfacet
  facet normal -0 0 -0.72
    outer loop
      vertex 2.9 18.1 1
      vertex 3.3 18.1 1
      vertex 2.9 16.3 1
    endloop
  endfacet
  facet normal -0 0 -0.72
    outer loop
      vertex 2.9 16.3 1
      vertex 3.3 18.1 1
      vertex 3.3 16.3 1
    endloop
  endfacet
  facet normal 0 -0.263123 0
    outer loop
      vertex 1.87128 16.3 -1.65781
      vertex 3.3 16.3 -1
      vertex 2.9 16.3 -1
    endloop
  endfacet
  facet normal 0 -0.285037 0
    outer loop
      vertex 2.21364 16.3 -1.16181
      vertex 1.87128 16.3 -1.65781
      vertex 2.9 16.3 -1
    endloop
  endfacet
  facet normal 0 -0.263123 0
    outer loop
      vertex 3.3 16.3 1
      vertex 1.87128 16.3 1.65781
      vertex 2.9 16.3 1
    endloop
  endfacet
  facet normal 0 -0.285037 0
    outer loop
      vertex 2.9 16.3 1
      vertex 1.87128 16.3 1.65781
      vertex 2.21364 16.3 1.16181
    endloop
  endfacet
  facet normal 0 -0.352196 0
    outer loop
      vertex 2.9 16.3 1
      vertex 2.21364 16.3 1.16181
      vertex 2.42735 16.3 0.598289
    endloop
  endfacet
  facet normal 0 -0.311961 0
    outer loop
      vertex 2.9 16.3 1
      vertex 2.42735 16.3 0.598289
      vertex 2.5 16.3 -1.11759e-07
    endloop
  endfacet
  facet normal 0 -0.945291 0
    outer loop
      vertex 2.9 16.3 1
      vertex 2.42735 16.3 -0.598289
      vertex 2.9 16.3 -1
    endloop
  endfacet
  facet normal 0 -0.352196 0
    outer loop
      vertex 2.42735 16.3 -0.598289
      vertex 2.21364 16.3 -1.16181
      vertex 2.9 16.3 -1
    endloop
  endfacet
  facet normal 0 -0.16667 0
    outer loop
      vertex 2.5 16.3 -1.11759e-07
      vertex 2.42735 16.3 -0.598289
      vertex 2.9 16.3 1
    endloop
  endfacet
  facet normal -0.396799 1.24672e-16 -0.273891
    outer loop
      vertex 1.87128 16.3 1.65781
      vertex 2.21364 17.1 1.16181
      vertex 2.21364 16.3 1.16181
    endloop
  endfacet
  facet normal -0.396799 -7.56398e-16 -0.273891
    outer loop
      vertex 1.87128 17.1 1.65781
      vertex 2.21364 17.1 1.16181
      vertex 1.87128 16.3 1.65781
    endloop
  endfacet
  facet normal -0.319722 1.25842e-15 -0.360892
    outer loop
      vertex 1.42016 16.3 2.05746
      vertex 1.87128 17.1 1.65781
      vertex 1.87128 16.3 1.65781
    endloop
  endfacet
  facet normal -0.319722 -1.76412e-15 -0.360892
    outer loop
      vertex 1.42016 17.1 2.05746
      vertex 1.87128 17.1 1.65781
      vertex 1.42016 16.3 2.05746
    endloop
  endfacet
  facet normal -0.224065 3.09143e-16 -0.42692
    outer loop
      vertex 0.886512 16.3 2.33754
      vertex 1.42016 17.1 2.05746
      vertex 1.42016 16.3 2.05746
    endloop
  endfacet
  facet normal -0.224065 -1.13633e-15 -0.42692
    outer loop
      vertex 0.886512 17.1 2.33754
      vertex 1.42016 17.1 2.05746
      vertex 0.886512 16.3 2.33754
    endloop
  endfacet
  facet normal -0.115385 1.06876e-15 -0.468136
    outer loop
      vertex 0.301342 16.3 2.48177
      vertex 0.886512 17.1 2.33754
      vertex 0.886512 16.3 2.33754
    endloop
  endfacet
  facet normal -0.115385 -1.01018e-15 -0.468136
    outer loop
      vertex 0.301342 17.1 2.48177
      vertex 0.886512 17.1 2.33754
      vertex 0.301342 16.3 2.48177
    endloop
  endfacet
  facet normal -1.42109e-15 1.07058e-15 -0.482147
    outer loop
      vertex -0.301342 16.3 2.48177
      vertex 0.301342 17.1 2.48177
      vertex 0.301342 16.3 2.48177
    endloop
  endfacet
  facet normal 1.42109e-15 -1.07058e-15 -0.482147
    outer loop
      vertex -0.301342 17.1 2.48177
      vertex 0.301342 17.1 2.48177
      vertex -0.301342 16.3 2.48177
    endloop
  endfacet
  facet normal 0.115385 1.01018e-15 -0.468136
    outer loop
      vertex -0.886512 16.3 2.33754
      vertex -0.301342 17.1 2.48177
      vertex -0.301342 16.3 2.48177
    endloop
  endfacet
  facet normal 0.115385 -1.45307e-15 -0.468136
    outer loop
      vertex -0.886512 17.1 2.33754
      vertex -0.301342 17.1 2.48177
      vertex -0.886512 16.3 2.33754
    endloop
  endfacet
  facet normal 0.224065 3.90047e-16 -0.42692
    outer loop
      vertex -1.42016 16.3 2.05746
      vertex -0.886512 17.1 2.33754
      vertex -0.886512 16.3 2.33754
    endloop
  endfacet
  facet normal 0.224065 -6.05e-16 -0.42692
    outer loop
      vertex -1.42016 17.1 2.05746
      vertex -0.886512 17.1 2.33754
      vertex -1.42016 16.3 2.05746
    endloop
  endfacet
  facet normal 0.319722 7.90645e-16 -0.360892
    outer loop
      vertex -1.87128 16.3 1.65781
      vertex -1.42016 17.1 2.05746
      vertex -1.42016 16.3 2.05746
    endloop
  endfacet
  facet normal 0 -0.483436 0
    outer loop
      vertex -3.3 16.3 -1
      vertex -1.87128 16.3 -1.65781
      vertex -2.21364 16.3 -1.16181
    endloop
  endfacet
  facet normal 0 -0.0647232 0
    outer loop
      vertex -2.9 16.3 -1
      vertex -3.3 16.3 -1
      vertex -2.21364 16.3 -1.16181
    endloop
  endfacet
  facet normal 0 -0.483436 0
    outer loop
      vertex -1.87128 16.3 1.65781
      vertex -3.3 16.3 1
      vertex -2.21364 16.3 1.16181
    endloop
  endfacet
  facet normal 0 -0.0647232 0
    outer loop
      vertex -2.21364 16.3 1.16181
      vertex -3.3 16.3 1
      vertex -2.9 16.3 1
    endloop
  endfacet
  facet normal 0 -0.352196 0
    outer loop
      vertex -2.42735 16.3 -0.598289
      vertex -2.9 16.3 -1
      vertex -2.21364 16.3 -1.16181
    endloop
  endfacet
  facet normal 0 -0.352196 0
    outer loop
      vertex -2.9 16.3 1
      vertex -2.42735 16.3 0.598289
      vertex -2.21364 16.3 1.16181
    endloop
  endfacet
  facet normal 0 -0.311961 0
    outer loop
      vertex -2.9 16.3 1
      vertex -2.5 16.3 -1.11759e-07
      vertex -2.42735 16.3 0.598289
    endloop
  endfacet
  facet normal 0 -0.16667 0
    outer loop
      vertex -2.9 16.3 1
      vertex -2.42735 16.3 -0.598289
      vertex -2.5 16.3 -1.11759e-07
    endloop
  endfacet
  facet normal 0 -0.945291 0
    outer loop
      vertex -2.9 16.3 1
      vertex -2.9 16.3 -1
      vertex -2.42735 16.3 -0.598289
    endloop
  endfacet
  facet normal 0.319722 -2.74245e-16 -0.360892
    outer loop
      vertex -1.87128 17.1 1.65781
      vertex -1.42016 17.1 2.05746
      vertex -1.87128 16.3 1.65781
    endloop
  endfacet
  facet normal 0.396799 8.18735e-16 -0.273891
    outer loop
      vertex -2.21364 16.3 1.16181
      vertex -1.87128 17.1 1.65781
      vertex -1.87128 16.3 1.65781
    endloop
  endfacet
  facet normal 3.6 0 -1.32769e-07
    outer loop
      vertex -3.3 16.3 -1
      vertex -3.3 18.1 -1
      vertex -3.3 18.1 1
    endloop
  endfacet
  facet normal 3.6 -0 -1.32769e-07
    outer loop
      vertex -3.3 16.3 1
      vertex -3.3 16.3 -1
      vertex -3.3 18.1 1
    endloop
  endfacet
  facet normal 0 -3.32951 0
    outer loop
      vertex -5.96307 16.3 -0.660222
      vertex -5.67038 16.3 -1.94782
      vertex -3.3 16.3 -1
    endloop
  endfacet
  facet normal 0 -6.45947 0
    outer loop
      vertex -5.67038 16.3 1.94782
      vertex -5.96307 16.3 -0.660222
      vertex -3.3 16.3 1
    endloop
  endfacet
  facet normal 0 -5.32614 0
    outer loop
      vertex -3.3 16.3 1
      vertex -5.96307 16.3 -0.660222
      vertex -3.3 16.3 -1
    endloop
  endfacet
  facet normal 0 -0.386473 0
    outer loop
      vertex -5.96307 16.3 0.660222
      vertex -5.96307 16.3 -0.660222
      vertex -5.67038 16.3 1.94782
    endloop
  endfacet
  facet normal -0 0 -0.72
    outer loop
      vertex -3.3 18.1 1
      vertex -2.9 18.1 1
      vertex -3.3 16.3 1
    endloop
  endfacet
  facet normal -0 0 -0.72
    outer loop
      vertex -3.3 16.3 1
      vertex -2.9 18.1 1
      vertex -2.9 16.3 1
    endloop
  endfacet
  facet normal 19.829 -0.046812 -4.50734
    outer loop
      vertex -5.96307 16.3 0.660222
      vertex -5.67038 16.3 1.94782
      vertex -5.88062 0.9 1.18286
    endloop
  endfacet
  facet normal 17.4814 0.0316152 -5.44102
    outer loop
      vertex -5.88062 0.9 1.18286
      vertex -5.67038 16.3 1.94782
      vertex -5.52731 0.9 2.31802
    endloop
  endfacet
  facet normal 19.829 -0.046812 4.50734
    outer loop
      vertex -5.96307 16.3 -0.660222
      vertex -5.88062 0.9 -1.18286
      vertex -5.67038 16.3 -1.94782
    endloop
  endfacet
  facet normal 17.4814 0.0316152 5.44102
    outer loop
      vertex -5.88062 0.9 -1.18286
      vertex -5.52731 0.9 -2.31802
      vertex -5.67038 16.3 -1.94782
    endloop
  endfacet
  facet normal 0 0 0.72
    outer loop
      vertex -3.3 16.3 -1
      vertex -2.9 16.3 -1
      vertex -2.9 18.1 -1
    endloop
  endfacet
  facet normal -0 -0 0.72
    outer loop
      vertex -3.3 18.1 -1
      vertex -3.3 16.3 -1
      vertex -2.9 18.1 -1
    endloop
  endfacet
  facet normal 0.396799 -1.05288e-16 0.273891
    outer loop
      vertex -2.21364 16.3 -1.16181
      vertex -1.87128 16.3 -1.65781
      vertex -2.21364 17.1 -1.16181
    endloop
  endfacet
  facet normal 0.396799 -2.10575e-16 0.273891
    outer loop
      vertex -2.21364 17.1 -1.16181
      vertex -1.87128 16.3 -1.65781
      vertex -1.87128 17.1 -1.65781
    endloop
  endfacet
  facet normal 0.319722 1.07559e-15 0.360892
    outer loop
      vertex -1.87128 16.3 -1.65781
      vertex -1.42016 16.3 -2.05746
      vertex -1.87128 17.1 -1.65781
    endloop
  endfacet
  facet normal 0.319722 1.06962e-17 0.360892
    outer loop
      vertex -1.87128 17.1 -1.65781
      vertex -1.42016 16.3 -2.05746
      vertex -1.42016 17.1 -2.05746
    endloop
  endfacet
  facet normal 0.224065 1.55295e-15 0.42692
    outer loop
      vertex -1.42016 16.3 -2.05746
      vertex -0.886512 16.3 -2.33754
      vertex -1.42016 17.1 -2.05746
    endloop
  endfacet
  facet normal 0.224065 5.57905e-16 0.42692
    outer loop
      vertex -1.42016 17.1 -2.05746
      vertex -0.886512 16.3 -2.33754
      vertex -0.886512 17.1 -2.33754
    endloop
  endfacet
  facet normal 0.115385 2.49254e-15 0.468136
    outer loop
      vertex -0.886512 16.3 -2.33754
      vertex -0.301342 16.3 -2.48177
      vertex -0.886512 17.1 -2.33754
    endloop
  endfacet
  facet normal 0.115385 2.92893e-17 0.468136
    outer loop
      vertex -0.886512 17.1 -2.33754
      vertex -0.301342 16.3 -2.48177
      vertex -0.301342 17.1 -2.48177
    endloop
  endfacet
  facet normal 0 2.14116e-15 0.482147
    outer loop
      vertex -0.301342 16.3 -2.48177
      vertex 0.301342 16.3 -2.48177
      vertex -0.301342 17.1 -2.48177
    endloop
  endfacet
  facet normal -2.84217e-15 5.04871e-29 0.482147
    outer loop
      vertex -0.301342 17.1 -2.48177
      vertex 0.301342 16.3 -2.48177
      vertex 0.301342 17.1 -2.48177
    endloop
  endfacet
  facet normal -0.115385 2.04965e-15 0.468136
    outer loop
      vertex 0.301342 16.3 -2.48177
      vertex 0.886512 16.3 -2.33754
      vertex 0.301342 17.1 -2.48177
    endloop
  endfacet
  facet normal -0.115385 -2.92893e-17 0.468136
    outer loop
      vertex 0.301342 17.1 -2.48177
      vertex 0.886512 16.3 -2.33754
      vertex 0.886512 17.1 -2.33754
    endloop
  endfacet
  facet normal -0.224065 2.08429e-15 0.42692
    outer loop
      vertex 0.886512 16.3 -2.33754
      vertex 1.42016 16.3 -2.05746
      vertex 0.886512 17.1 -2.33754
    endloop
  endfacet
  facet normal -0.224065 -3.09143e-16 0.42692
    outer loop
      vertex 0.886512 17.1 -2.33754
      vertex 1.42016 16.3 -2.05746
      vertex 1.42016 17.1 -2.05746
    endloop
  endfacet
  facet normal -0.319722 1.76412e-15 0.360892
    outer loop
      vertex 1.42016 16.3 -2.05746
      vertex 1.87128 16.3 -1.65781
      vertex 1.42016 17.1 -2.05746
    endloop
  endfacet
  facet normal -0.319722 -1.25842e-15 0.360892
    outer loop
      vertex 1.42016 17.1 -2.05746
      vertex 1.87128 16.3 -1.65781
      vertex 1.87128 17.1 -1.65781
    endloop
  endfacet
  facet normal -0.396799 7.56398e-16 0.273891
    outer loop
      vertex 1.87128 16.3 -1.65781
      vertex 2.21364 16.3 -1.16181
      vertex 1.87128 17.1 -1.65781
    endloop
  endfacet
  facet normal 0 0 0.72
    outer loop
      vertex 2.9 16.3 -1
      vertex 3.3 16.3 -1
      vertex 3.3 18.1 -1
    endloop
  endfacet
  facet normal -0 -0 0.72
    outer loop
      vertex 2.9 18.1 -1
      vertex 2.9 16.3 -1
      vertex 3.3 18.1 -1
    endloop
  endfacet
  facet normal -19.829 -0.046812 4.50734
    outer loop
      vertex 5.67038 16.3 -1.94782
      vertex 5.88062 0.9 -1.18286
      vertex 5.96307 16.3 -0.660222
    endloop
  endfacet
  facet normal -17.4814 0.0316152 5.44102
    outer loop
      vertex 5.52731 0.9 -2.31802
      vertex 5.88062 0.9 -1.18286
      vertex 5.67038 16.3 -1.94782
    endloop
  endfacet
  facet normal -0 0.0556326 -0
    outer loop
      vertex -1.94188 -8.8 0.478631
      vertex -1.77091 -8.8 0.929446
      vertex -2 -8.8 7.99361e-15
    endloop
  endfacet
  facet normal 0 0.163665 0
    outer loop
      vertex -2 -8.8 7.99361e-15
      vertex -1.77091 -8.8 0.929446
      vertex -1.49702 -8.8 1.32625
    endloop
  endfacet
  facet normal 0 0.317818 0
    outer loop
      vertex -2 -8.8 7.99361e-15
      vertex -1.49702 -8.8 1.32625
      vertex -1.13613 -8.8 1.64597
    endloop
  endfacet
  facet normal 0 0.509133 0
    outer loop
      vertex -2 -8.8 7.99361e-15
      vertex -1.13613 -8.8 1.64597
      vertex -0.70921 -8.8 1.87003
    endloop
  endfacet
  facet normal 0 0.362064 0
    outer loop
      vertex -1.12277 -8.8 0.994684
      vertex -0.70921 -8.8 1.87003
      vertex -0.241073 -8.8 1.98542
    endloop
  endfacet
  facet normal 0 0.28104 0
    outer loop
      vertex -0.531907 -8.8 1.40252
      vertex -0.241073 -8.8 1.98542
      vertex 0.241073 -8.8 1.98542
    endloop
  endfacet
  facet normal 0 0.28104 0
    outer loop
      vertex -0.180805 -8.8 1.48906
      vertex 0.241073 -8.8 1.98542
      vertex 0.70921 -8.8 1.87003
    endloop
  endfacet
  facet normal 0 0.239316 0
    outer loop
      vertex 0.531907 -8.8 1.40252
      vertex 0.70921 -8.8 1.87003
      vertex 1.13613 -8.8 1.64597
    endloop
  endfacet
  facet normal 0 0.239316 0
    outer loop
      vertex 0.852097 -8.8 1.23448
      vertex 1.13613 -8.8 1.64597
      vertex 1.49702 -8.8 1.32625
    endloop
  endfacet
  facet normal -0 0.239316 0
    outer loop
      vertex 1.12277 -8.8 0.994684
      vertex 1.49702 -8.8 1.32625
      vertex 1.77091 -8.8 0.929446
    endloop
  endfacet
  facet normal -0 0.239316 0
    outer loop
      vertex 1.32818 -8.8 0.697085
      vertex 1.77091 -8.8 0.929446
      vertex 1.94188 -8.8 0.478631
    endloop
  endfacet
  facet normal -0 0.239316 0
    outer loop
      vertex 1.45641 -8.8 0.358973
      vertex 1.94188 -8.8 0.478631
      vertex 2 -8.8 8.88178e-16
    endloop
  endfacet
  facet normal -0 0.239316 0
    outer loop
      vertex 1.45641 -8.8 -0.358973
      vertex 2 -8.8 8.88178e-16
      vertex 1.94188 -8.8 -0.478631
    endloop
  endfacet
  facet normal -0 0.239316 0
    outer loop
      vertex 1.32818 -8.8 -0.697085
      vertex 1.94188 -8.8 -0.478631
      vertex 1.77091 -8.8 -0.929446
    endloop
  endfacet
  facet normal -0 0.239316 0
    outer loop
      vertex 1.12277 -8.8 -0.994684
      vertex 1.77091 -8.8 -0.929446
      vertex 1.49702 -8.8 -1.32625
    endloop
  endfacet
  facet normal -0 0.239316 0
    outer loop
      vertex 0.852097 -8.8 -1.23448
      vertex 1.49702 -8.8 -1.32625
      vertex 1.13613 -8.8 -1.64597
    endloop
  endfacet
  facet normal -0 0.28104 0
    outer loop
      vertex 0.180805 -8.8 -1.48906
      vertex 1.13613 -8.8 -1.64597
      vertex 0.70921 -8.8 -1.87003
    endloop
  endfacet
  facet normal -0 0.28104 0
    outer loop
      vertex -0.180805 -8.8 -1.48906
      vertex 0.70921 -8.8 -1.87003
      vertex 0.241073 -8.8 -1.98542
    endloop
  endfacet
  facet normal -0 0.362064 0
    outer loop
      vertex -0.852097 -8.8 -1.23448
      vertex 0.241073 -8.8 -1.98542
      vertex -0.241073 -8.8 -1.98542
    endloop
  endfacet
  facet normal -0 0.362064 0
    outer loop
      vertex -1.12277 -8.8 -0.994684
      vertex -0.241073 -8.8 -1.98542
      vertex -0.70921 -8.8 -1.87003
    endloop
  endfacet
  facet normal -0 0.509133 0
    outer loop
      vertex -2 -8.8 7.99361e-15
      vertex -0.70921 -8.8 -1.87003
      vertex -1.13613 -8.8 -1.64597
    endloop
  endfacet
  facet normal -0 0.317818 0
    outer loop
      vertex -2 -8.8 7.99361e-15
      vertex -1.13613 -8.8 -1.64597
      vertex -1.49702 -8.8 -1.32625
    endloop
  endfacet
  facet normal -0 0.163665 0
    outer loop
      vertex -2 -8.8 7.99361e-15
      vertex -1.49702 -8.8 -1.32625
      vertex -1.77091 -8.8 -0.929446
    endloop
  endfacet
  facet normal -0 0.0556326 0
    outer loop
      vertex -2 -8.8 7.99361e-15
      vertex -1.77091 -8.8 -0.929446
      vertex -1.94188 -8.8 -0.478631
    endloop
  endfacet
  facet normal -0 0.179487 0
    outer loop
      vertex 1.45641 -8.8 0.358973
      vertex 2 -8.8 8.88178e-16
      vertex 1.5 -8.8 8.88178e-16
    endloop
  endfacet
  facet normal 0 0.137762 -0
    outer loop
      vertex -1.32818 -8.8 -0.697085
      vertex -2 -8.8 7.99361e-15
      vertex -1.45641 -8.8 -0.358973
    endloop
  endfacet
  facet normal 0 0.0567382 -0
    outer loop
      vertex -1.12277 -8.8 -0.994684
      vertex -2 -8.8 7.99361e-15
      vertex -1.32818 -8.8 -0.697085
    endloop
  endfacet
  facet normal -0 0.0567382 -0
    outer loop
      vertex -0.852097 -8.8 -1.23448
      vertex -0.241073 -8.8 -1.98542
      vertex -1.12277 -8.8 -0.994684
    endloop
  endfacet
  facet normal -0 0.356527 0
    outer loop
      vertex -2 -8.8 7.99361e-15
      vertex -1.12277 -8.8 -0.994684
      vertex -0.70921 -8.8 -1.87003
    endloop
  endfacet
  facet normal -0 0.0567382 -0
    outer loop
      vertex -0.531907 -8.8 -1.40252
      vertex 0.241073 -8.8 -1.98542
      vertex -0.852097 -8.8 -1.23448
    endloop
  endfacet
  facet normal -0 0.137762 -0
    outer loop
      vertex -0.180805 -8.8 -1.48906
      vertex 0.241073 -8.8 -1.98542
      vertex -0.531907 -8.8 -1.40252
    endloop
  endfacet
  facet normal -0 0.137762 -0
    outer loop
      vertex 0.531907 -8.8 -1.40252
      vertex 1.13613 -8.8 -1.64597
      vertex 0.180805 -8.8 -1.48906
    endloop
  endfacet
  facet normal -0 0.179487 -0
    outer loop
      vertex 0.852097 -8.8 -1.23448
      vertex 1.13613 -8.8 -1.64597
      vertex 0.531907 -8.8 -1.40252
    endloop
  endfacet
  facet normal -0 0.137762 -0
    outer loop
      vertex 0.180805 -8.8 -1.48906
      vertex 0.70921 -8.8 -1.87003
      vertex -0.180805 -8.8 -1.48906
    endloop
  endfacet
  facet normal -0 0.179487 -0
    outer loop
      vertex 1.5 -8.8 8.88178e-16
      vertex 2 -8.8 8.88178e-16
      vertex 1.45641 -8.8 -0.358973
    endloop
  endfacet
  facet normal 0 0.179487 -0
    outer loop
      vertex -1.45641 -8.8 -0.358973
      vertex -2 -8.8 7.99361e-15
      vertex -1.5 -8.8 -2.66454e-15
    endloop
  endfacet
  facet normal -0 0.179487 -0
    outer loop
      vertex 1.45641 -8.8 -0.358973
      vertex 1.94188 -8.8 -0.478631
      vertex 1.32818 -8.8 -0.697085
    endloop
  endfacet
  facet normal -0 0.179487 -0
    outer loop
      vertex 1.32818 -8.8 -0.697085
      vertex 1.77091 -8.8 -0.929446
      vertex 1.12277 -8.8 -0.994684
    endloop
  endfacet
  facet normal -0 0.179487 -0
    outer loop
      vertex 1.12277 -8.8 -0.994684
      vertex 1.49702 -8.8 -1.32625
      vertex 0.852097 -8.8 -1.23448
    endloop
  endfacet
  facet normal -0 0.179487 0
    outer loop
      vertex 0.180805 -8.8 1.48906
      vertex 0.70921 -8.8 1.87003
      vertex 0.531907 -8.8 1.40252
    endloop
  endfacet
  facet normal 0 0.137762 0
    outer loop
      vertex -0.531907 -8.8 1.40252
      vertex 0.241073 -8.8 1.98542
      vertex -0.180805 -8.8 1.48906
    endloop
  endfacet
  facet normal 0 0.137762 0
    outer loop
      vertex -0.852097 -8.8 1.23448
      vertex -0.241073 -8.8 1.98542
      vertex -0.531907 -8.8 1.40252
    endloop
  endfacet
  facet normal 0 0.0567382 0
    outer loop
      vertex -1.12277 -8.8 0.994684
      vertex -0.241073 -8.8 1.98542
      vertex -0.852097 -8.8 1.23448
    endloop
  endfacet
  facet normal 0 0.356527 0
    outer loop
      vertex -2 -8.8 7.99361e-15
      vertex -0.70921 -8.8 1.87003
      vertex -1.12277 -8.8 0.994684
    endloop
  endfacet
  facet normal -0 0.0567382 -0
    outer loop
      vertex -1.32818 -8.8 0.697085
      vertex -2 -8.8 7.99361e-15
      vertex -1.12277 -8.8 0.994684
    endloop
  endfacet
  facet normal -0 0.137762 -0
    outer loop
      vertex -1.45641 -8.8 0.358973
      vertex -2 -8.8 7.99361e-15
      vertex -1.32818 -8.8 0.697085
    endloop
  endfacet
  facet normal 0 0.179487 -0
    outer loop
      vertex -1.5 -8.8 -2.66454e-15
      vertex -2 -8.8 7.99361e-15
      vertex -1.45641 -8.8 0.358973
    endloop
  endfacet
  facet normal 0 0.137762 0
    outer loop
      vertex -0.180805 -8.8 1.48906
      vertex 0.70921 -8.8 1.87003
      vertex 0.180805 -8.8 1.48906
    endloop
  endfacet
  facet normal -0 0.179487 0
    outer loop
      vertex 0.531907 -8.8 1.40252
      vertex 1.13613 -8.8 1.64597
      vertex 0.852097 -8.8 1.23448
    endloop
  endfacet
  facet normal -0 0.179487 0
    outer loop
      vertex 0.852097 -8.8 1.23448
      vertex 1.49702 -8.8 1.32625
      vertex 1.12277 -8.8 0.994684
    endloop
  endfacet
  facet normal -0 0.179487 0
    outer loop
      vertex 1.12277 -8.8 0.994684
      vertex 1.77091 -8.8 0.929446
      vertex 1.32818 -8.8 0.697085
    endloop
  endfacet
  facet normal -0 0.179487 0
    outer loop
      vertex 1.32818 -8.8 0.697085
      vertex 1.94188 -8.8 0.478631
      vertex 1.45641 -8.8 0.358973
    endloop
  endfacet
  facet normal -0 -0.8 0
    outer loop
      vertex 2.9 18.1 -1
      vertex 3.3 18.1 -1
      vertex 3.3 18.1 1
    endloop
  endfacet
  facet normal -0 -0.8 0
    outer loop
      vertex 2.9 18.1 1
      vertex 2.9 18.1 -1
      vertex 3.3 18.1 1
    endloop
  endfacet
  facet normal 3.6 0 0
    outer loop
      vertex 2.9 16.3 -1
      vertex 2.9 18.1 -1
      vertex 2.9 18.1 1
    endloop
  endfacet
  facet normal 3.6 -0 -0
    outer loop
      vertex 2.9 16.3 1
      vertex 2.9 16.3 -1
      vertex 2.9 18.1 1
    endloop
  endfacet
  facet normal -0.396799 -1.24672e-16 0.273891
    outer loop
      vertex 1.87128 17.1 -1.65781
      vertex 2.21364 16.3 -1.16181
      vertex 2.21364 17.1 -1.16181
    endloop
  endfacet
  facet normal -0.450815 1.72624e-15 0.170972
    outer loop
      vertex 2.21364 16.3 -1.16181
      vertex 2.42735 16.3 -0.598289
      vertex 2.21364 17.1 -1.16181
    endloop
  endfacet
  facet normal -0.478631 1.0932e-15 0.0581164
    outer loop
      vertex 2.42735 16.3 -0.598289
      vertex 2.5 16.3 -1.11759e-07
      vertex 2.42735 17.1 -0.598289
    endloop
  endfacet
  facet normal -0.450815 -1.03504e-15 0.170972
    outer loop
      vertex 2.21364 17.1 -1.16181
      vertex 2.42735 16.3 -0.598289
      vertex 2.42735 17.1 -0.598289
    endloop
  endfacet
  facet normal -0.478631 -1.03235e-15 0.0581164
    outer loop
      vertex 2.42735 17.1 -0.598289
      vertex 2.5 16.3 -1.11759e-07
      vertex 2.5 17.1 -1.11759e-07
    endloop
  endfacet
  facet normal -0.478631 1.03235e-15 -0.0581164
    outer loop
      vertex 2.42735 16.3 0.598289
      vertex 2.5 17.1 -1.11759e-07
      vertex 2.5 16.3 -1.11759e-07
    endloop
  endfacet
  facet normal -0.478631 -1.0932e-15 -0.0581164
    outer loop
      vertex 2.42735 17.1 0.598289
      vertex 2.5 17.1 -1.11759e-07
      vertex 2.42735 16.3 0.598289
    endloop
  endfacet
  facet normal -0.450815 1.03504e-15 -0.170972
    outer loop
      vertex 2.21364 16.3 1.16181
      vertex 2.42735 17.1 0.598289
      vertex 2.42735 16.3 0.598289
    endloop
  endfacet
  facet normal -0.450815 -1.72624e-15 -0.170972
    outer loop
      vertex 2.21364 17.1 1.16181
      vertex 2.42735 17.1 0.598289
      vertex 2.21364 16.3 1.16181
    endloop
  endfacet
  facet normal -0 -1.13514 0
    outer loop
      vertex 1.87128 17.1 1.65781
      vertex 1.87128 17.1 -1.65781
      vertex 2.21364 17.1 -1.16181
    endloop
  endfacet
  facet normal -0 -0.49659 -0
    outer loop
      vertex 2.5 17.1 -1.11759e-07
      vertex 1.87128 17.1 1.65781
      vertex 2.42735 17.1 -0.598289
    endloop
  endfacet
  facet normal -0 -0.795521 -0
    outer loop
      vertex 2.42735 17.1 -0.598289
      vertex 1.87128 17.1 1.65781
      vertex 2.21364 17.1 -1.16181
    endloop
  endfacet
  facet normal -0 -0.255726 -0
    outer loop
      vertex 2.42735 17.1 0.598289
      vertex 1.87128 17.1 1.65781
      vertex 2.5 17.1 -1.11759e-07
    endloop
  endfacet
  facet normal -0 -0.086926 -0
    outer loop
      vertex 2.21364 17.1 1.16181
      vertex 1.87128 17.1 1.65781
      vertex 2.42735 17.1 0.598289
    endloop
  endfacet
  facet normal 2.94486e-15 -3.2651 7.88861e-30
    outer loop
      vertex 0.886512 17.1 2.33754
      vertex 1.87128 17.1 -1.65781
      vertex 1.87128 17.1 1.65781
    endloop
  endfacet
  facet normal -2.48762e-16 -0.086926 -4.73976e-16
    outer loop
      vertex 0.886512 17.1 2.33754
      vertex 1.87128 17.1 1.65781
      vertex 1.42016 17.1 2.05746
    endloop
  endfacet
  facet normal -2.81675e-15 -7.08385 -2.26903e-15
    outer loop
      vertex 0.301342 17.1 -2.48177
      vertex 1.87128 17.1 -1.65781
      vertex 0.886512 17.1 2.33754
    endloop
  endfacet
  facet normal 6.31089e-30 -2.90452 -1.07058e-15
    outer loop
      vertex -0.301342 17.1 -2.48177
      vertex 0.301342 17.1 -2.48177
      vertex 0.886512 17.1 2.33754
    endloop
  endfacet
  facet normal -2.56207e-16 -2.99145 -1.03947e-15
    outer loop
      vertex -0.301342 17.1 -2.48177
      vertex 0.886512 17.1 2.33754
      vertex 0.301342 17.1 2.48177
    endloop
  endfacet
  facet normal 3.15544e-30 -2.99145 -1.07058e-15
    outer loop
      vertex -0.301342 17.1 2.48177
      vertex -0.301342 17.1 -2.48177
      vertex 0.301342 17.1 2.48177
    endloop
  endfacet
  facet normal 7.5373e-16 -5.55331 -1.98742e-15
    outer loop
      vertex -1.42016 17.1 2.05746
      vertex -0.301342 17.1 -2.48177
      vertex -0.301342 17.1 2.48177
    endloop
  endfacet
  facet normal 0 -0.086926 0
    outer loop
      vertex -1.42016 17.1 2.05746
      vertex -0.301342 17.1 2.48177
      vertex -0.886512 17.1 2.33754
    endloop
  endfacet
  facet normal -7.5373e-16 -4.60385 -1.98742e-15
    outer loop
      vertex -1.42016 17.1 2.05746
      vertex -1.42016 17.1 -2.05746
      vertex -0.301342 17.1 -2.48177
    endloop
  endfacet
  facet normal 2.06379e-15 -3.2651 -1.4095e-15
    outer loop
      vertex -2.21364 17.1 -1.16181
      vertex -1.42016 17.1 -2.05746
      vertex -1.42016 17.1 2.05746
    endloop
  endfacet
  facet normal -2.50432e-15 -1.13514 3.0408e-16
    outer loop
      vertex -2.21364 17.1 -1.16181
      vertex -1.42016 17.1 2.05746
      vertex -1.87128 17.1 1.65781
    endloop
  endfacet
  facet normal -3.6 -0 0
    outer loop
      vertex -2.9 16.3 1
      vertex -2.9 18.1 1
      vertex -2.9 16.3 -1
    endloop
  endfacet
  facet normal -3.6 -0 0
    outer loop
      vertex -2.9 16.3 -1
      vertex -2.9 18.1 1
      vertex -2.9 18.1 -1
    endloop
  endfacet
  facet normal 0.396799 1.05288e-16 -0.273891
    outer loop
      vertex -2.21364 17.1 1.16181
      vertex -1.87128 17.1 1.65781
      vertex -2.21364 16.3 1.16181
    endloop
  endfacet
  facet normal 0.450815 7.42249e-16 -0.170972
    outer loop
      vertex -2.42735 16.3 0.598289
      vertex -2.21364 17.1 1.16181
      vertex -2.21364 16.3 1.16181
    endloop
  endfacet
  facet normal 0.450815 5.00505e-16 -0.170972
    outer loop
      vertex -2.42735 17.1 0.598289
      vertex -2.21364 17.1 1.16181
      vertex -2.42735 16.3 0.598289
    endloop
  endfacet
  facet normal 0.478631 5.31388e-16 -0.0581164
    outer loop
      vertex -2.5 16.3 -1.11759e-07
      vertex -2.42735 17.1 0.598289
      vertex -2.42735 16.3 0.598289
    endloop
  endfacet
  facet normal 0.478631 0 -0.0581164
    outer loop
      vertex -2.5 16.3 -1.11759e-07
      vertex -2.5 17.1 -1.11759e-07
      vertex -2.42735 17.1 0.598289
    endloop
  endfacet
  facet normal 0.478631 -0 0.0581164
    outer loop
      vertex -2.5 16.3 -1.11759e-07
      vertex -2.42735 17.1 -0.598289
      vertex -2.5 17.1 -1.11759e-07
    endloop
  endfacet
  facet normal 0.478631 -5.31388e-16 0.0581164
    outer loop
      vertex -2.5 16.3 -1.11759e-07
      vertex -2.42735 16.3 -0.598289
      vertex -2.42735 17.1 -0.598289
    endloop
  endfacet
  facet normal 0.450815 -5.00505e-16 0.170972
    outer loop
      vertex -2.42735 16.3 -0.598289
      vertex -2.21364 16.3 -1.16181
      vertex -2.42735 17.1 -0.598289
    endloop
  endfacet
  facet normal 0.450815 -7.42249e-16 0.170972
    outer loop
      vertex -2.42735 17.1 -0.598289
      vertex -2.21364 16.3 -1.16181
      vertex -2.21364 17.1 -1.16181
    endloop
  endfacet
  facet normal -0 -0.086926 0
    outer loop
      vertex -2.5 17.1 -1.11759e-07
      vertex -2.42735 17.1 -0.598289
      vertex -2.21364 17.1 -1.16181
    endloop
  endfacet
  facet normal -0 -0.255726 -0
    outer loop
      vertex -2.21364 17.1 1.16181
      vertex -2.5 17.1 -1.11759e-07
      vertex -1.87128 17.1 1.65781
    endloop
  endfacet
  facet normal -0 -1.20518 -0
    outer loop
      vertex -1.87128 17.1 1.65781
      vertex -2.5 17.1 -1.11759e-07
      vertex -2.21364 17.1 -1.16181
    endloop
  endfacet
  facet normal -0 -0.086926 -0
    outer loop
      vertex -2.42735 17.1 0.598289
      vertex -2.5 17.1 -1.11759e-07
      vertex -2.21364 17.1 1.16181
    endloop
  endfacet
  facet normal -0 -0.8 0
    outer loop
      vertex -3.3 18.1 -1
      vertex -2.9 18.1 -1
      vertex -2.9 18.1 1
    endloop
  endfacet
  facet normal -0 -0.8 -0
    outer loop
      vertex -3.3 18.1 1
      vertex -3.3 18.1 -1
      vertex -2.9 18.1 1
    endloop
  endfacet
  facet normal 4.40535e-16 -0.086926 3.0408e-16
    outer loop
      vertex -2.21364 17.1 -1.16181
      vertex -1.87128 17.1 -1.65781
      vertex -1.42016 17.1 -2.05746
    endloop
  endfacet
  facet normal 0 -0.086926 0
    outer loop
      vertex -1.42016 17.1 -2.05746
      vertex -0.886512 17.1 -2.33754
      vertex -0.301342 17.1 -2.48177
    endloop
  endfacet
  facet normal 1.28103e-16 -0.255726 -5.19736e-16
    outer loop
      vertex 0.301342 17.1 -2.48177
      vertex 0.886512 17.1 -2.33754
      vertex 1.87128 17.1 -1.65781
    endloop
  endfacet
  facet normal 2.48762e-16 -0.086926 -4.73976e-16
    outer loop
      vertex 0.886512 17.1 -2.33754
      vertex 1.42016 17.1 -2.05746
      vertex 1.87128 17.1 -1.65781
    endloop
  endfacet
  facet normal 3.33845 -3.09706e-16 -0.405362
    outer loop
      vertex -1.5 -18.1 4.44089e-15
      vertex -1.5 -8.8 -2.66454e-15
      vertex -1.45641 -8.8 0.358973
    endloop
  endfacet
  facet normal 3.33845 -3.27959e-16 0.405362
    outer loop
      vertex -1.5 -8.8 -2.66454e-15
      vertex -1.45641 -18.1 -0.358973
      vertex -1.45641 -8.8 -0.358973
    endloop
  endfacet
  facet normal 3.33845 3.09706e-16 0.405362
    outer loop
      vertex -1.5 -18.1 4.44089e-15
      vertex -1.45641 -18.1 -0.358973
      vertex -1.5 -8.8 -2.66454e-15
    endloop
  endfacet
  facet normal 3.33845 3.27959e-16 -0.405362
    outer loop
      vertex -1.5 -18.1 4.44089e-15
      vertex -1.45641 -8.8 0.358973
      vertex -1.45641 -18.1 0.358973
    endloop
  endfacet
  facet normal 3.14443 -3.10513e-16 -1.19253
    outer loop
      vertex -1.45641 -8.8 0.358973
      vertex -1.32818 -8.8 0.697085
      vertex -1.45641 -18.1 0.358973
    endloop
  endfacet
  facet normal 3.14443 2.90093e-16 -1.19253
    outer loop
      vertex -1.45641 -18.1 0.358973
      vertex -1.32818 -8.8 0.697085
      vertex -1.32818 -18.1 0.697085
    endloop
  endfacet
  facet normal 2.76767 -4.02297e-16 -1.91039
    outer loop
      vertex -1.32818 -8.8 0.697085
      vertex -1.12277 -8.8 0.994684
      vertex -1.32818 -18.1 0.697085
    endloop
  endfacet
  facet normal 2.76767 1.26345e-16 -1.91039
    outer loop
      vertex -1.32818 -18.1 0.697085
      vertex -1.12277 -8.8 0.994684
      vertex -1.12277 -18.1 0.994684
    endloop
  endfacet
  facet normal 2.23006 -6.45351e-16 -2.51722
    outer loop
      vertex -1.12277 -8.8 0.994684
      vertex -0.852097 -8.8 1.23448
      vertex -1.12277 -18.1 0.994684
    endloop
  endfacet
  facet normal 1.56285 5.65142e-17 -2.97777
    outer loop
      vertex -0.852097 -8.8 1.23448
      vertex -0.531907 -8.8 1.40252
      vertex -0.852097 -18.1 1.23448
    endloop
  endfacet
  facet normal 2.23006 7.42214e-16 -2.51722
    outer loop
      vertex -1.12277 -18.1 0.994684
      vertex -0.852097 -8.8 1.23448
      vertex -0.852097 -18.1 1.23448
    endloop
  endfacet
  facet normal 1.56285 7.74543e-16 -2.97777
    outer loop
      vertex -0.852097 -18.1 1.23448
      vertex -0.531907 -8.8 1.40252
      vertex -0.531907 -18.1 1.40252
    endloop
  endfacet
  facet normal 0.804812 6.80752e-17 -3.26525
    outer loop
      vertex -0.531907 -8.8 1.40252
      vertex -0.180805 -8.8 1.48906
      vertex -0.531907 -18.1 1.40252
    endloop
  endfacet
  facet normal 0.804812 7.6862e-16 -3.26525
    outer loop
      vertex -0.531907 -18.1 1.40252
      vertex -0.180805 -8.8 1.48906
      vertex -0.180805 -18.1 1.48906
    endloop
  endfacet
  facet normal -0 -0 -3.36297
    outer loop
      vertex 0.180805 -8.8 1.48906
      vertex 0.180805 -18.1 1.48906
      vertex -0.180805 -8.8 1.48906
    endloop
  endfacet
  facet normal -0 0 -3.36297
    outer loop
      vertex -0.180805 -8.8 1.48906
      vertex 0.180805 -18.1 1.48906
      vertex -0.180805 -18.1 1.48906
    endloop
  endfacet
  facet normal -0.804812 -6.91758e-16 -3.26525
    outer loop
      vertex 0.180805 -8.8 1.48906
      vertex 0.531907 -8.8 1.40252
      vertex 0.180805 -18.1 1.48906
    endloop
  endfacet
  facet normal -0.804812 6.3247e-16 -3.26525
    outer loop
      vertex 0.180805 -18.1 1.48906
      vertex 0.531907 -8.8 1.40252
      vertex 0.531907 -18.1 1.40252
    endloop
  endfacet
  facet normal -1.56285 -5.65142e-17 -2.97777
    outer loop
      vertex 0.531907 -8.8 1.40252
      vertex 0.852097 -8.8 1.23448
      vertex 0.531907 -18.1 1.40252
    endloop
  endfacet
  facet normal -1.56285 2.42e-16 -2.97777
    outer loop
      vertex 0.531907 -18.1 1.40252
      vertex 0.852097 -8.8 1.23448
      vertex 0.852097 -18.1 1.23448
    endloop
  endfacet
  facet normal -2.23006 -3.16258e-16 -2.51722
    outer loop
      vertex 0.852097 -8.8 1.23448
      vertex 1.12277 -8.8 0.994684
      vertex 0.852097 -18.1 1.23448
    endloop
  endfacet
  facet normal -2.76767 -6.31726e-17 -1.91039
    outer loop
      vertex 1.12277 -8.8 0.994684
      vertex 1.32818 -8.8 0.697085
      vertex 1.12277 -18.1 0.994684
    endloop
  endfacet
  facet normal -2.23006 3.22676e-16 -2.51722
    outer loop
      vertex 0.852097 -18.1 1.23448
      vertex 1.12277 -8.8 0.994684
      vertex 1.12277 -18.1 0.994684
    endloop
  endfacet
  facet normal -3.14443 4.5556e-16 -1.19253
    outer loop
      vertex 1.32818 -8.8 0.697085
      vertex 1.45641 -8.8 0.358973
      vertex 1.45641 -18.1 0.358973
    endloop
  endfacet
  facet normal -2.76767 2.01149e-16 -1.91039
    outer loop
      vertex 1.12277 -18.1 0.994684
      vertex 1.32818 -8.8 0.697085
      vertex 1.32818 -18.1 0.697085
    endloop
  endfacet
  facet normal -3.14443 -1.45046e-16 -1.19253
    outer loop
      vertex 1.32818 -8.8 0.697085
      vertex 1.45641 -18.1 0.358973
      vertex 1.32818 -18.1 0.697085
    endloop
  endfacet
  facet normal -3.33845 0 -0.405362
    outer loop
      vertex 1.45641 -8.8 0.358973
      vertex 1.5 -8.8 8.88178e-16
      vertex 1.5 -18.1 8.88178e-16
    endloop
  endfacet
  facet normal -3.33845 1.54853e-16 -0.405362
    outer loop
      vertex 1.45641 -18.1 0.358973
      vertex 1.45641 -8.8 0.358973
      vertex 1.5 -18.1 8.88178e-16
    endloop
  endfacet
  facet normal -3.33845 -1.54853e-16 0.405362
    outer loop
      vertex 1.45641 -18.1 -0.358973
      vertex 1.5 -8.8 8.88178e-16
      vertex 1.45641 -8.8 -0.358973
    endloop
  endfacet
  facet normal -3.33845 0 0.405362
    outer loop
      vertex 1.45641 -18.1 -0.358973
      vertex 1.5 -18.1 8.88178e-16
      vertex 1.5 -8.8 8.88178e-16
    endloop
  endfacet
  facet normal -3.14443 1.45046e-16 1.19253
    outer loop
      vertex 1.32818 -18.1 -0.697085
      vertex 1.45641 -8.8 -0.358973
      vertex 1.32818 -8.8 -0.697085
    endloop
  endfacet
  facet normal -3.14443 -4.5556e-16 1.19253
    outer loop
      vertex 1.32818 -18.1 -0.697085
      vertex 1.45641 -18.1 -0.358973
      vertex 1.45641 -8.8 -0.358973
    endloop
  endfacet
  facet normal -2.76767 -2.01149e-16 1.91039
    outer loop
      vertex 1.12277 -8.8 -0.994684
      vertex 1.32818 -18.1 -0.697085
      vertex 1.32818 -8.8 -0.697085
    endloop
  endfacet
  facet normal -2.23006 -3.22676e-16 2.51722
    outer loop
      vertex 0.852097 -8.8 -1.23448
      vertex 1.12277 -18.1 -0.994684
      vertex 1.12277 -8.8 -0.994684
    endloop
  endfacet
  facet normal -2.76767 6.31726e-17 1.91039
    outer loop
      vertex 1.12277 -18.1 -0.994684
      vertex 1.32818 -18.1 -0.697085
      vertex 1.12277 -8.8 -0.994684
    endloop
  endfacet
  facet normal -1.56285 -2.42e-16 2.97777
    outer loop
      vertex 0.531907 -8.8 -1.40252
      vertex 0.852097 -18.1 -1.23448
      vertex 0.852097 -8.8 -1.23448
    endloop
  endfacet
  facet normal -2.23006 3.16258e-16 2.51722
    outer loop
      vertex 0.852097 -18.1 -1.23448
      vertex 1.12277 -18.1 -0.994684
      vertex 0.852097 -8.8 -1.23448
    endloop
  endfacet
  facet normal -0.804812 -6.3247e-16 3.26525
    outer loop
      vertex 0.180805 -8.8 -1.48906
      vertex 0.531907 -18.1 -1.40252
      vertex 0.531907 -8.8 -1.40252
    endloop
  endfacet
  facet normal -1.56285 5.65142e-17 2.97777
    outer loop
      vertex 0.531907 -18.1 -1.40252
      vertex 0.852097 -18.1 -1.23448
      vertex 0.531907 -8.8 -1.40252
    endloop
  endfacet
  facet normal 0 0 3.36297
    outer loop
      vertex -0.180805 -18.1 -1.48906
      vertex 0.180805 -18.1 -1.48906
      vertex 0.180805 -8.8 -1.48906
    endloop
  endfacet
  facet normal -0 -0 3.36297
    outer loop
      vertex -0.180805 -8.8 -1.48906
      vertex -0.180805 -18.1 -1.48906
      vertex 0.180805 -8.8 -1.48906
    endloop
  endfacet
  facet normal -0.804812 6.91758e-16 3.26525
    outer loop
      vertex 0.180805 -18.1 -1.48906
      vertex 0.531907 -18.1 -1.40252
      vertex 0.180805 -8.8 -1.48906
    endloop
  endfacet
  facet normal 0.804812 5.55608e-16 3.26525
    outer loop
      vertex -0.531907 -18.1 -1.40252
      vertex -0.180805 -8.8 -1.48906
      vertex -0.531907 -8.8 -1.40252
    endloop
  endfacet
  facet normal 0.804812 -7.6862e-16 3.26525
    outer loop
      vertex -0.531907 -18.1 -1.40252
      vertex -0.180805 -18.1 -1.48906
      vertex -0.180805 -8.8 -1.48906
    endloop
  endfacet
  facet normal 1.56285 -2.05771e-16 2.97777
    outer loop
      vertex -0.852097 -8.8 -1.23448
      vertex -0.531907 -18.1 -1.40252
      vertex -0.531907 -8.8 -1.40252
    endloop
  endfacet
  facet normal 2.23006 -7.42214e-16 2.51722
    outer loop
      vertex -1.12277 -8.8 -0.994684
      vertex -0.852097 -18.1 -1.23448
      vertex -0.852097 -8.8 -1.23448
    endloop
  endfacet
  facet normal 1.56285 -5.65142e-17 2.97777
    outer loop
      vertex -0.852097 -18.1 -1.23448
      vertex -0.531907 -18.1 -1.40252
      vertex -0.852097 -8.8 -1.23448
    endloop
  endfacet
  facet normal 2.76767 -1.26345e-16 1.91039
    outer loop
      vertex -1.32818 -8.8 -0.697085
      vertex -1.12277 -18.1 -0.994684
      vertex -1.12277 -8.8 -0.994684
    endloop
  endfacet
  facet normal 2.23006 6.45351e-16 2.51722
    outer loop
      vertex -1.12277 -18.1 -0.994684
      vertex -0.852097 -18.1 -1.23448
      vertex -1.12277 -8.8 -0.994684
    endloop
  endfacet
  facet normal 2.76767 4.02297e-16 1.91039
    outer loop
      vertex -1.32818 -18.1 -0.697085
      vertex -1.12277 -18.1 -0.994684
      vertex -1.32818 -8.8 -0.697085
    endloop
  endfacet
  facet normal 3.14443 -2.90093e-16 1.19253
    outer loop
      vertex -1.45641 -8.8 -0.358973
      vertex -1.32818 -18.1 -0.697085
      vertex -1.32818 -8.8 -0.697085
    endloop
  endfacet
  facet normal 3.14443 3.10513e-16 1.19253
    outer loop
      vertex -1.45641 -18.1 -0.358973
      vertex -1.32818 -18.1 -0.697085
      vertex -1.45641 -8.8 -0.358973
    endloop
  endfacet
  facet normal -0 0.0312934 -0
    outer loop
      vertex -1.45641 -18.1 0.358973
      vertex -1.32818 -18.1 0.697085
      vertex -1.5 -18.1 4.44089e-15
    endloop
  endfacet
  facet normal 0 0.0920614 0
    outer loop
      vertex -1.5 -18.1 4.44089e-15
      vertex -1.32818 -18.1 0.697085
      vertex -1.12277 -18.1 0.994684
    endloop
  endfacet
  facet normal 0 0.178773 0
    outer loop
      vertex -1.5 -18.1 4.44089e-15
      vertex -1.12277 -18.1 0.994684
      vertex -0.852097 -18.1 1.23448
    endloop
  endfacet
  facet normal 0 0.286387 0
    outer loop
      vertex -1.5 -18.1 4.44089e-15
      vertex -0.852097 -18.1 1.23448
      vertex -0.531907 -18.1 1.40252
    endloop
  endfacet
  facet normal 0 0.408652 0
    outer loop
      vertex -1.5 -18.1 4.44089e-15
      vertex -0.531907 -18.1 1.40252
      vertex -0.180805 -18.1 1.48906
    endloop
  endfacet
  facet normal 0 0.53846 0
    outer loop
      vertex -1.5 -18.1 4.44089e-15
      vertex -0.180805 -18.1 1.48906
      vertex 0.180805 -18.1 1.48906
    endloop
  endfacet
  facet normal 0 0.668269 0
    outer loop
      vertex -1.5 -18.1 4.44089e-15
      vertex 0.180805 -18.1 1.48906
      vertex 0.531907 -18.1 1.40252
    endloop
  endfacet
  facet normal 0 0.790533 0
    outer loop
      vertex -1.5 -18.1 4.44089e-15
      vertex 0.531907 -18.1 1.40252
      vertex 0.852097 -18.1 1.23448
    endloop
  endfacet
  facet normal 0 0.898148 0
    outer loop
      vertex -1.5 -18.1 4.44089e-15
      vertex 0.852097 -18.1 1.23448
      vertex 1.12277 -18.1 0.994684
    endloop
  endfacet
  facet normal 0 0.984859 0
    outer loop
      vertex -1.5 -18.1 4.44089e-15
      vertex 1.12277 -18.1 0.994684
      vertex 1.32818 -18.1 0.697085
    endloop
  endfacet
  facet normal 0 1.04563 0
    outer loop
      vertex -1.5 -18.1 4.44089e-15
      vertex 1.32818 -18.1 0.697085
      vertex 1.45641 -18.1 0.358973
    endloop
  endfacet
  facet normal -0 1.07692 0
    outer loop
      vertex -1.5 -18.1 4.44089e-15
      vertex 1.45641 -18.1 0.358973
      vertex 1.5 -18.1 8.88178e-16
    endloop
  endfacet
  facet normal -0 1.07692 0
    outer loop
      vertex -1.5 -18.1 4.44089e-15
      vertex 1.5 -18.1 8.88178e-16
      vertex 1.45641 -18.1 -0.358973
    endloop
  endfacet
  facet normal -0 1.04563 0
    outer loop
      vertex -1.5 -18.1 4.44089e-15
      vertex 1.45641 -18.1 -0.358973
      vertex 1.32818 -18.1 -0.697085
    endloop
  endfacet
  facet normal -0 0.984859 0
    outer loop
      vertex -1.5 -18.1 4.44089e-15
      vertex 1.32818 -18.1 -0.697085
      vertex 1.12277 -18.1 -0.994684
    endloop
  endfacet
  facet normal -0 0.898148 0
    outer loop
      vertex -1.5 -18.1 4.44089e-15
      vertex 1.12277 -18.1 -0.994684
      vertex 0.852097 -18.1 -1.23448
    endloop
  endfacet
  facet normal -0 0.790533 0
    outer loop
      vertex -1.5 -18.1 4.44089e-15
      vertex 0.852097 -18.1 -1.23448
      vertex 0.531907 -18.1 -1.40252
    endloop
  endfacet
  facet normal -0 0.668269 0
    outer loop
      vertex -1.5 -18.1 4.44089e-15
      vertex 0.531907 -18.1 -1.40252
      vertex 0.180805 -18.1 -1.48906
    endloop
  endfacet
  facet normal -0 0.53846 0
    outer loop
      vertex -1.5 -18.1 4.44089e-15
      vertex 0.180805 -18.1 -1.48906
      vertex -0.180805 -18.1 -1.48906
    endloop
  endfacet
  facet normal -0 0.408652 0
    outer loop
      vertex -1.5 -18.1 4.44089e-15
      vertex -0.180805 -18.1 -1.48906
      vertex -0.531907 -18.1 -1.40252
    endloop
  endfacet
  facet normal -0 0.286387 0
    outer loop
      vertex -1.5 -18.1 4.44089e-15
      vertex -0.531907 -18.1 -1.40252
      vertex -0.852097 -18.1 -1.23448
    endloop
  endfacet
  facet normal -0 0.178773 0
    outer loop
      vertex -1.5 -18.1 4.44089e-15
      vertex -0.852097 -18.1 -1.23448
      vertex -1.12277 -18.1 -0.994684
    endloop
  endfacet
  facet normal -0 0.0920614 0
    outer loop
      vertex -1.5 -18.1 4.44089e-15
      vertex -1.12277 -18.1 -0.994684
      vertex -1.32818 -18.1 -0.697085
    endloop
  endfacet
  facet normal -0 0.0312934 0
    outer loop
      vertex -1.5 -18.1 4.44089e-15
      vertex -1.32818 -18.1 -0.697085
      vertex -1.45641 -18.1 -0.358973
    endloop
  endfacet
endsolid polyhedron
