solid polyhedron
  facet normal -249 -0 0
    outer loop
      vertex -20.75 -20.75 3
      vertex -20.75 20.75 3
      vertex -20.75 -20.75 -3
    endloop
  endfacet
  facet normal -249 -0 0
    outer loop
      vertex -20.75 -20.75 -3
      vertex -20.75 20.75 3
      vertex -20.75 20.75 -3
    endloop
  endfacet
  facet normal -0 249 -0
    outer loop
      vertex -20.75 20.75 3
      vertex 20.75 20.75 3
      vertex -20.75 20.75 -3
    endloop
  endfacet
  facet normal 0 249 0
    outer loop
      vertex -20.75 20.75 -3
      vertex 20.75 20.75 3
      vertex 20.75 20.75 -3
    endloop
  endfacet
  facet normal -0 0 599.675
    outer loop
      vertex 6.3 0.945 3
      vertex 20.75 -20.75 3
      vertex 20.75 20.75 3
    endloop
  endfacet
  facet normal -0 -0 0.000440905
    outer loop
      vertex -6.17217 0.945 3
      vertex -6.17246 1.10598 3
      vertex -6.17491 0.945 3
    endloop
  endfacet
  facet normal -0 -0 599.675
    outer loop
      vertex -20.75 20.75 3
      vertex -20.75 -20.75 3
      vertex -6.3 0.945 3
    endloop
  endfacet
  facet normal -0 -0 136.552
    outer loop
      vertex 6.3 0.945 3
      vertex 6.3 -8.505 3
      vertex 20.75 -20.75 3
    endloop
  endfacet
  facet normal 0 0 1.38775
    outer loop
      vertex -0.197802 17.955 3
      vertex 0.29871 17.955 3
      vertex 20.75 20.75 3
    endloop
  endfacet
  facet normal -0 -0 0.0201377
    outer loop
      vertex -6.17491 0.945 3
      vertex -6.17246 1.10598 3
      vertex -6.3 0.945 3
    endloop
  endfacet
  facet normal 0 -0 0.977982
    outer loop
      vertex -0.946851 -17.2132 3
      vertex -1.41096 -9.24 3
      vertex -1.53362 -9.24 3
    endloop
  endfacet
  facet normal -0 0 4.85214
    outer loop
      vertex -20.75 20.75 3
      vertex -6.3 0.945 3
      vertex -6.17246 1.10598 3
    endloop
  endfacet
  facet normal -0 0 234.115
    outer loop
      vertex 6.13466 17.115 3
      vertex 6.17246 1.10598 3
      vertex 20.75 20.75 3
    endloop
  endfacet
  facet normal -0 0 234.115
    outer loop
      vertex -20.75 20.75 3
      vertex -6.17246 1.10598 3
      vertex -6.13466 17.115 3
    endloop
  endfacet
  facet normal -0 -0 14.5994
    outer loop
      vertex 2.30354 17.955 3
      vertex 2.30354 17.1636 3
      vertex 20.75 20.75 3
    endloop
  endfacet
  facet normal -0 0 25.4934
    outer loop
      vertex -20.75 20.75 3
      vertex -6.13466 17.115 3
      vertex -2.30354 17.9064 3
    endloop
  endfacet
  facet normal -0 0 115.993
    outer loop
      vertex -20.75 20.75 3
      vertex -2.30354 17.955 3
      vertex 20.75 20.75 3
    endloop
  endfacet
  facet normal -0 0 0.895594
    outer loop
      vertex -20.75 20.75 3
      vertex -2.30354 17.9064 3
      vertex -2.30354 17.955 3
    endloop
  endfacet
  facet normal 0 0 0.0368941
    outer loop
      vertex -2.30354 17.955 3
      vertex -2.29034 17.955 3
      vertex 20.75 20.75 3
    endloop
  endfacet
  facet normal 0 0 0.0269214
    outer loop
      vertex -2.29034 17.955 3
      vertex -2.28071 17.955 3
      vertex 20.75 20.75 3
    endloop
  endfacet
  facet normal 0 0 0.0384147
    outer loop
      vertex -2.28071 17.955 3
      vertex -2.26697 17.955 3
      vertex 20.75 20.75 3
    endloop
  endfacet
  facet normal 0 0 2.87444
    outer loop
      vertex -1.6479 17.955 3
      vertex -0.619475 17.955 3
      vertex 20.75 20.75 3
    endloop
  endfacet
  facet normal 0 0 1.73031
    outer loop
      vertex -2.26697 17.955 3
      vertex -1.6479 17.955 3
      vertex 20.75 20.75 3
    endloop
  endfacet
  facet normal 0 0 1.17858
    outer loop
      vertex -0.619475 17.955 3
      vertex -0.197802 17.955 3
      vertex 20.75 20.75 3
    endloop
  endfacet
  facet normal -0 -0 0.348346
    outer loop
      vertex 1.67027 -8.505 3
      vertex 1.67027 -9.24 3
      vertex 2.14421 -8.505 3
    endloop
  endfacet
  facet normal 0 -0 3.70043
    outer loop
      vertex -0.946851 -17.2132 3
      vertex -0.946851 -9.24 3
      vertex -1.41096 -9.24 3
    endloop
  endfacet
  facet normal 0 0 0.490108
    outer loop
      vertex 0.29871 17.955 3
      vertex 0.474062 17.955 3
      vertex 20.75 20.75 3
    endloop
  endfacet
  facet normal 0 0 0.446957
    outer loop
      vertex 0.474062 17.955 3
      vertex 0.633975 17.955 3
      vertex 20.75 20.75 3
    endloop
  endfacet
  facet normal 0 -0 0.229156
    outer loop
      vertex -1.67027 -8.98851 3
      vertex -1.67027 -8.505 3
      vertex -2.14421 -8.505 3
    endloop
  endfacet
  facet normal 0 0 2.99995
    outer loop
      vertex 0.633975 17.955 3
      vertex 1.7073 17.955 3
      vertex 20.75 20.75 3
    endloop
  endfacet
  facet normal 0 0 0.338044
    outer loop
      vertex 1.84389 17.955 3
      vertex 1.96484 17.955 3
      vertex 20.75 20.75 3
    endloop
  endfacet
  facet normal 0 0 0.381774
    outer loop
      vertex 2.08579 17.955 3
      vertex 2.22238 17.955 3
      vertex 20.75 20.75 3
    endloop
  endfacet
  facet normal 0 0 0.226859
    outer loop
      vertex 2.22238 17.955 3
      vertex 2.30354 17.955 3
      vertex 20.75 20.75 3
    endloop
  endfacet
  facet normal -0 -0 0.895594
    outer loop
      vertex 2.30354 17.1636 3
      vertex 2.30354 17.115 3
      vertex 20.75 20.75 3
    endloop
  endfacet
  facet normal 0 0 2.64288
    outer loop
      vertex 2.30354 17.115 3
      vertex 3.03061 17.115 3
      vertex 20.75 20.75 3
    endloop
  endfacet
  facet normal 0 0 1.80332
    outer loop
      vertex 3.03061 17.115 3
      vertex 3.52671 17.115 3
      vertex 20.75 20.75 3
    endloop
  endfacet
  facet normal 0 0 0.387462
    outer loop
      vertex 3.52671 17.115 3
      vertex 3.6333 17.115 3
      vertex 20.75 20.75 3
    endloop
  endfacet
  facet normal 0 0 1.20637
    outer loop
      vertex 3.6333 17.115 3
      vertex 3.96518 17.115 3
      vertex 20.75 20.75 3
    endloop
  endfacet
  facet normal 0 0 7.88609
    outer loop
      vertex 3.96518 17.115 3
      vertex 6.13466 17.115 3
      vertex 20.75 20.75 3
    endloop
  endfacet
  facet normal 0 0 0.000440905
    outer loop
      vertex 6.17217 0.945 3
      vertex 6.17491 0.945 3
      vertex 6.17246 1.10598 3
    endloop
  endfacet
  facet normal -0 0 4.85213
    outer loop
      vertex 6.17246 1.10598 3
      vertex 6.3 0.945 3
      vertex 20.75 20.75 3
    endloop
  endfacet
  facet normal -0 0 39.184
    outer loop
      vertex 3.1 -8.505 3
      vertex 20.75 -20.75 3
      vertex 6.3 -8.505 3
    endloop
  endfacet
  facet normal -0 0 4.77759
    outer loop
      vertex 2.70983 -8.505 3
      vertex 20.75 -20.75 3
      vertex 3.1 -8.505 3
    endloop
  endfacet
  facet normal -0 0 6.92602
    outer loop
      vertex 2.14421 -8.505 3
      vertex 20.75 -20.75 3
      vertex 2.70983 -8.505 3
    endloop
  endfacet
  facet normal -0 0 19.4787
    outer loop
      vertex 1.67027 -9.24 3
      vertex 20.75 -20.75 3
      vertex 2.14421 -8.505 3
    endloop
  endfacet
  facet normal 0 -0 2.00937
    outer loop
      vertex -1.67027 -8.98851 3
      vertex -2.14421 -8.505 3
      vertex -6.3 -8.505 3
    endloop
  endfacet
  facet normal -0 0 2.98471
    outer loop
      vertex 1.41096 -9.24 3
      vertex 20.75 -20.75 3
      vertex 1.67027 -9.24 3
    endloop
  endfacet
  facet normal -0 0 5.34188
    outer loop
      vertex 0.946851 -9.24 3
      vertex 20.75 -20.75 3
      vertex 1.41096 -9.24 3
    endloop
  endfacet
  facet normal -0 0 35.4831
    outer loop
      vertex 0.946851 -11.0318 3
      vertex 20.75 -20.75 3
      vertex 0.946851 -9.24 3
    endloop
  endfacet
  facet normal 0 0 72.4175
    outer loop
      vertex -20.75 -20.75 3
      vertex 20.75 -20.75 3
      vertex 0.946851 -19.005 3
    endloop
  endfacet
  facet normal 0 0 217.274
    outer loop
      vertex -20.75 -20.75 3
      vertex -0.946851 -19.005 3
      vertex -6.3 -8.505 3
    endloop
  endfacet
  facet normal 0 0 3.30451
    outer loop
      vertex -20.75 -20.75 3
      vertex 0.946851 -19.005 3
      vertex -0.946851 -19.005 3
    endloop
  endfacet
  facet normal 0 -0 9.59171
    outer loop
      vertex -0.946851 -19.005 3
      vertex -0.946851 -17.2132 3
      vertex -6.3 -8.505 3
    endloop
  endfacet
  facet normal 0 -0 1.16432
    outer loop
      vertex -1.67027 -9.24 3
      vertex -1.67027 -8.98851 3
      vertex -6.3 -8.505 3
    endloop
  endfacet
  facet normal -0 -0 157.895
    outer loop
      vertex 0.946851 -11.0318 3
      vertex 0.946851 -19.005 3
      vertex 20.75 -20.75 3
    endloop
  endfacet
  facet normal 0 -0 36.3821
    outer loop
      vertex -0.946851 -17.2132 3
      vertex -1.67027 -9.24 3
      vertex -6.3 -8.505 3
    endloop
  endfacet
  facet normal -0 0 2.75738e-16
    outer loop
      vertex -6.3 -8.505 3
      vertex -2.14421 -8.505 3
      vertex -2.70983 -8.505 3
    endloop
  endfacet
  facet normal 0 -0 1.08959
    outer loop
      vertex -0.946851 -17.2132 3
      vertex -1.53362 -9.24 3
      vertex -1.67027 -9.24 3
    endloop
  endfacet
  facet normal -0 0 4.0833e-16
    outer loop
      vertex -6.3 -8.505 3
      vertex -2.70983 -8.505 3
      vertex -3.1 -8.505 3
    endloop
  endfacet
  facet normal -0 -0 0.0201377
    outer loop
      vertex 6.17491 0.945 3
      vertex 6.3 0.945 3
      vertex 6.17246 1.10598 3
    endloop
  endfacet
  facet normal -0 -0 136.552
    outer loop
      vertex -6.3 -8.505 3
      vertex -6.3 0.945 3
      vertex -20.75 -20.75 3
    endloop
  endfacet
  facet normal 0 0 0.381774
    outer loop
      vertex 1.7073 17.955 3
      vertex 1.84389 17.955 3
      vertex 20.75 20.75 3
    endloop
  endfacet
  facet normal 0 0 0.338044
    outer loop
      vertex 1.96484 17.955 3
      vertex 2.08579 17.955 3
      vertex 20.75 20.75 3
    endloop
  endfacet
  facet normal -0 -0 8.14058e-17
    outer loop
      vertex -2.30354 17.115 3
      vertex -3.52671 17.115 3
      vertex -3.03061 17.115 3
    endloop
  endfacet
  facet normal -0 -0 5.43186e-17
    outer loop
      vertex -2.30354 17.115 3
      vertex -3.6333 17.115 3
      vertex -3.52671 17.115 3
    endloop
  endfacet
  facet normal -0 -0 5.42461e-16
    outer loop
      vertex -3.6333 17.115 3
      vertex -6.13466 17.115 3
      vertex -3.96518 17.115 3
    endloop
  endfacet
  facet normal -0 -0 9.29495e-17
    outer loop
      vertex -2.30354 17.115 3
      vertex -6.13466 17.115 3
      vertex -3.6333 17.115 3
    endloop
  endfacet
  facet normal -0 -0 3.03214
    outer loop
      vertex -2.30354 17.115 3
      vertex -2.30354 17.9064 3
      vertex -6.13466 17.115 3
    endloop
  endfacet
  facet normal -0 0 -1722.25
    outer loop
      vertex -20.75 20.75 -3
      vertex 20.75 20.75 -3
      vertex -20.75 -20.75 -3
    endloop
  endfacet
  facet normal -0 0 -1722.25
    outer loop
      vertex -20.75 -20.75 -3
      vertex 20.75 20.75 -3
      vertex 20.75 -20.75 -3
    endloop
  endfacet
  facet normal -0 -249 0
    outer loop
      vertex -20.75 -20.75 -3
      vertex 20.75 -20.75 -3
      vertex 20.75 -20.75 3
    endloop
  endfacet
  facet normal -0 -249 0
    outer loop
      vertex -20.75 -20.75 3
      vertex -20.75 -20.75 -3
      vertex 20.75 -20.75 3
    endloop
  endfacet
  facet normal 249 0 0
    outer loop
      vertex 20.75 -20.75 -3
      vertex 20.75 20.75 -3
      vertex 20.75 20.75 3
    endloop
  endfacet
  facet normal 249 -0 -0
    outer loop
      vertex 20.75 -20.75 3
      vertex 20.75 -20.75 -3
      vertex 20.75 20.75 3
    endloop
  endfacet
  facet normal 5.68434e-15 12.8 4.54747e-15
    outer loop
      vertex -6.3 -8.505 3
      vertex -3.1 -8.505 3
      vertex -6.3 -8.505 -1
    endloop
  endfacet
  facet normal 37.8 0 0
    outer loop
      vertex -6.3 -8.505 3
      vertex -6.3 -8.505 -1
      vertex -6.3 0.945 -1
    endloop
  endfacet
  facet normal 37.8 0 0
    outer loop
      vertex -6.3 0.945 3
      vertex -6.3 -8.505 3
      vertex -6.3 0.945 -1
    endloop
  endfacet
  facet normal 1.20349e-15 1.56067 1.4613e-16
    outer loop
      vertex -6.3 -8.505 -1
      vertex -3.1 -8.505 3
      vertex -2.70983 -8.505 3
    endloop
  endfacet
  facet normal 1.39237e-15 2.26248 5.28057e-16
    outer loop
      vertex -6.3 -8.505 -1
      vertex -2.70983 -8.505 3
      vertex -2.14421 -8.505 3
    endloop
  endfacet
  facet normal -8.85902e-15 1.89576 1.08586e-14
    outer loop
      vertex -2.14421 -8.505 3
      vertex -1.67027 -8.505 3
      vertex -6.3 -8.505 -1
    endloop
  endfacet
  facet normal -4.92356e-15 1.0536 6.03489e-15
    outer loop
      vertex -6.3 -8.505 -1
      vertex -1.67027 -8.505 3
      vertex -1.57187 -8.505 2.85744
    endloop
  endfacet
  facet normal 0.10478 -3.29443e-16 0.0723243
    outer loop
      vertex -1.67027 -8.98851 3
      vertex -1.57187 -9.24 2.85744
      vertex -1.57187 -8.505 2.85744
    endloop
  endfacet
  facet normal 0.0689283 -2.16721e-16 0.0475777
    outer loop
      vertex -1.67027 -8.505 3
      vertex -1.67027 -8.98851 3
      vertex -1.57187 -8.505 2.85744
    endloop
  endfacet
  facet normal 0.0358516 1.03852e-16 0.0247466
    outer loop
      vertex -1.67027 -8.98851 3
      vertex -1.67027 -9.24 3
      vertex -1.57187 -9.24 2.85744
    endloop
  endfacet
  facet normal -6.72006e-17 0.0194814 1.2804e-16
    outer loop
      vertex -1.67027 -9.24 3
      vertex -1.53362 -9.24 3
      vertex -1.57187 -9.24 2.85744
    endloop
  endfacet
  facet normal 1.03002e-16 0.0174859 7.10974e-17
    outer loop
      vertex -1.57187 -9.24 2.85744
      vertex -1.53362 -9.24 3
      vertex -1.41096 -9.24 3
    endloop
  endfacet
  facet normal -1.20181e-16 0.0661621 8.4459e-16
    outer loop
      vertex -1.41096 -9.24 3
      vertex -0.946851 -9.24 3
      vertex -1.57187 -9.24 2.85744
    endloop
  endfacet
  facet normal -6.59556e-17 0.0363099 4.63513e-16
    outer loop
      vertex -1.57187 -9.24 2.85744
      vertex -0.946851 -9.24 3
      vertex -0.894702 -9.24 2.9538
    endloop
  endfacet
  facet normal 0.368359 3.62395e-17 0.415791
    outer loop
      vertex -0.946851 -9.24 3
      vertex -0.946851 -17.2132 3
      vertex -0.894702 -19.005 2.9538
    endloop
  endfacet
  facet normal 0.451139 4.43834e-17 0.509231
    outer loop
      vertex -0.894702 -9.24 2.9538
      vertex -0.946851 -9.24 3
      vertex -0.894702 -19.005 2.9538
    endloop
  endfacet
  facet normal 0.0827799 2.39554e-17 0.0934392
    outer loop
      vertex -0.946851 -17.2132 3
      vertex -0.946851 -19.005 3
      vertex -0.894702 -19.005 2.9538
    endloop
  endfacet
  facet normal 0 0.0874882 0
    outer loop
      vertex 0.946851 -19.005 3
      vertex 0.894702 -19.005 2.9538
      vertex -0.946851 -19.005 3
    endloop
  endfacet
  facet normal 0 0.340476 0
    outer loop
      vertex -0.946851 -19.005 3
      vertex 0.894702 -19.005 2.9538
      vertex 0.558503 -19.005 2.77735
    endloop
  endfacet
  facet normal 0 0.218867 0
    outer loop
      vertex -0.946851 -19.005 3
      vertex 0.558503 -19.005 2.77735
      vertex 0.189845 -19.005 2.68648
    endloop
  endfacet
  facet normal 0 0.119039 0
    outer loop
      vertex -0.946851 -19.005 3
      vertex 0.189845 -19.005 2.68648
      vertex -0.189845 -19.005 2.68648
    endloop
  endfacet
  facet normal 0 0.0467942 0
    outer loop
      vertex -0.946851 -19.005 3
      vertex -0.189845 -19.005 2.68648
      vertex -0.558503 -19.005 2.77735
    endloop
  endfacet
  facet normal 0 0.0063306 0
    outer loop
      vertex -0.946851 -19.005 3
      vertex -0.558503 -19.005 2.77735
      vertex -0.894702 -19.005 2.9538
    endloop
  endfacet
  facet normal -0.368359 2.11077e-16 0.415791
    outer loop
      vertex 0.894702 -19.005 2.9538
      vertex 0.946851 -19.005 3
      vertex 0.946851 -11.0318 3
    endloop
  endfacet
  facet normal -0.451139 2.58511e-16 0.509231
    outer loop
      vertex 0.894702 -9.24 2.9538
      vertex 0.894702 -19.005 2.9538
      vertex 0.946851 -11.0318 3
    endloop
  endfacet
  facet normal -0.0827799 -4.07198e-18 0.0934392
    outer loop
      vertex 0.894702 -9.24 2.9538
      vertex 0.946851 -11.0318 3
      vertex 0.946851 -9.24 3
    endloop
  endfacet
  facet normal 3.89478e-17 0.0214416 2.73712e-16
    outer loop
      vertex 0.946851 -9.24 3
      vertex 1.41096 -9.24 3
      vertex 0.894702 -9.24 2.9538
    endloop
  endfacet
  facet normal 1.47189e-16 0.0810304 1.03439e-15
    outer loop
      vertex 0.894702 -9.24 2.9538
      vertex 1.41096 -9.24 3
      vertex 1.57187 -9.24 2.85744
    endloop
  endfacet
  facet normal -3.58018e-17 0.0369673 3.55696e-16
    outer loop
      vertex 1.41096 -9.24 3
      vertex 1.67027 -9.24 3
      vertex 1.57187 -9.24 2.85744
    endloop
  endfacet
  facet normal -0.10478 1.64722e-16 0.0723243
    outer loop
      vertex 1.67027 -9.24 3
      vertex 1.67027 -8.505 3
      vertex 1.57187 -9.24 2.85744
    endloop
  endfacet
  facet normal -0.10478 1.64722e-16 0.0723243
    outer loop
      vertex 1.57187 -9.24 2.85744
      vertex 1.67027 -8.505 3
      vertex 1.57187 -8.505 2.85744
    endloop
  endfacet
  facet normal 3.1573e-16 0.0675638 3.86995e-16
    outer loop
      vertex 1.67027 -8.505 3
      vertex 2.14421 -8.505 3
      vertex 1.57187 -8.505 2.85744
    endloop
  endfacet
  facet normal 1.34669e-14 2.8818 1.65065e-14
    outer loop
      vertex 1.57187 -8.505 2.85744
      vertex 2.14421 -8.505 3
      vertex 6.3 -8.505 -1
    endloop
  endfacet
  facet normal -1.39237e-15 2.26248 5.28057e-16
    outer loop
      vertex 2.14421 -8.505 3
      vertex 2.70983 -8.505 3
      vertex 6.3 -8.505 -1
    endloop
  endfacet
  facet normal -1.20349e-15 1.56067 1.4613e-16
    outer loop
      vertex 2.70983 -8.505 3
      vertex 3.1 -8.505 3
      vertex 6.3 -8.505 -1
    endloop
  endfacet
  facet normal -5.68434e-15 12.8 4.54747e-15
    outer loop
      vertex 3.1 -8.505 3
      vertex 6.3 -8.505 3
      vertex 6.3 -8.505 -1
    endloop
  endfacet
  facet normal -37.8 0 0
    outer loop
      vertex 6.3 0.945 3
      vertex 6.3 0.945 -1
      vertex 6.3 -8.505 3
    endloop
  endfacet
  facet normal -37.8 0 0
    outer loop
      vertex 6.3 -8.505 3
      vertex 6.3 0.945 -1
      vertex 6.3 -8.505 -1
    endloop
  endfacet
  facet normal -1.48916e-14 -0.500378 0
    outer loop
      vertex 6.17491 0.945 3
      vertex 6.3 0.945 -1
      vertex 6.3 0.945 3
    endloop
  endfacet
  facet normal -4.43739e-15 -1.63302 1.38112e-15
    outer loop
      vertex 5.80368 0.945 1.81608
      vertex 6.3 0.945 -1
      vertex 6.17491 0.945 3
    endloop
  endfacet
  facet normal -8.81113e-18 -0.00324261 2.74243e-18
    outer loop
      vertex 6.17217 0.945 3
      vertex 5.80368 0.945 1.81608
      vertex 6.17491 0.945 3
    endloop
  endfacet
  facet normal -0.190587 0.000344677 0.0593194
    outer loop
      vertex 6.17217 0.945 3
      vertex 6.17246 1.10598 3
      vertex 5.80368 0.945 1.81608
    endloop
  endfacet
  facet normal -19.0814 0.0345088 5.93901
    outer loop
      vertex 5.80368 0.945 1.81608
      vertex 6.17246 1.10598 3
      vertex 5.9539 17.115 2.20479
    endloop
  endfacet
  facet normal -12.7305 -0.030054 2.89378
    outer loop
      vertex 5.9539 17.115 2.20479
      vertex 6.17246 1.10598 3
      vertex 6.13466 17.115 3
    endloop
  endfacet
  facet normal 4.36198e-16 -1.7252 1.09088e-15
    outer loop
      vertex 3.96518 17.115 3
      vertex 5.9539 17.115 2.20479
      vertex 6.13466 17.115 3
    endloop
  endfacet
  facet normal -1.6909e-15 -3.37789 -4.22876e-15
    outer loop
      vertex 3.6333 17.115 3
      vertex 5.35456 17.115 0.954564
      vertex 5.9539 17.115 2.20479
    endloop
  endfacet
  facet normal -1.32108e-16 -0.26391 -3.30388e-16
    outer loop
      vertex 3.96518 17.115 3
      vertex 3.6333 17.115 3
      vertex 5.9539 17.115 2.20479
    endloop
  endfacet
  facet normal 1.90447e-15 -3.74782 -1.5105e-15
    outer loop
      vertex 3.52671 17.115 3
      vertex 4.493 17.115 -0.131714
      vertex 5.35456 17.115 0.954564
    endloop
  endfacet
  facet normal 1.10792e-16 -0.218027 -8.78724e-17
    outer loop
      vertex 3.6333 17.115 3
      vertex 3.52671 17.115 3
      vertex 5.35456 17.115 0.954564
    endloop
  endfacet
  facet normal 1.21094e-15 -5.36548 -2.63009e-15
    outer loop
      vertex 1.96484 17.115 2.5093
      vertex 4.493 17.115 -0.131714
      vertex 3.52671 17.115 3
    endloop
  endfacet
  facet normal 5.49408e-17 -0.243435 -1.19329e-16
    outer loop
      vertex 3.03061 17.115 3
      vertex 1.96484 17.115 2.5093
      vertex 3.52671 17.115 3
    endloop
  endfacet
  facet normal 0 -0.356769 0
    outer loop
      vertex 1.96484 17.115 2.5093
      vertex 3.03061 17.115 3
      vertex 2.30354 17.115 3
    endloop
  endfacet
  facet normal -0.0238238 2.52859e-17 0.0164444
    outer loop
      vertex 2.30354 17.115 3
      vertex 2.30354 17.1636 3
      vertex 1.96484 17.115 2.5093
    endloop
  endfacet
  facet normal -0.412186 4.37482e-16 0.284511
    outer loop
      vertex 1.96484 17.115 2.5093
      vertex 2.30354 17.1636 3
      vertex 1.96484 17.955 2.5093
    endloop
  endfacet
  facet normal -0.388362 1.06843e-15 0.268067
    outer loop
      vertex 1.96484 17.955 2.5093
      vertex 2.30354 17.1636 3
      vertex 2.30354 17.955 3
    endloop
  endfacet
  facet normal -2.01845e-16 -0.0398279 1.39324e-16
    outer loop
      vertex 1.96484 17.955 2.5093
      vertex 2.30354 17.955 3
      vertex 2.22238 17.955 3
    endloop
  endfacet
  facet normal 1.07054e-16 -0.0670252 3.1785e-31
    outer loop
      vertex 1.96484 17.955 2.5093
      vertex 2.22238 17.955 3
      vertex 2.08579 17.955 3
    endloop
  endfacet
  facet normal 3.0291e-17 -0.0593478 1.5898e-17
    outer loop
      vertex 1.96484 17.955 3
      vertex 1.96484 17.955 2.5093
      vertex 2.08579 17.955 3
    endloop
  endfacet
  facet normal 1.18028e-16 -0.0593478 1.5898e-17
    outer loop
      vertex 1.84389 17.955 3
      vertex 1.96484 17.955 2.5093
      vertex 1.96484 17.955 3
    endloop
  endfacet
  facet normal -1.86499e-18 -0.0670252 -1.53596e-17
    outer loop
      vertex 1.7073 17.955 3
      vertex 1.96484 17.955 2.5093
      vertex 1.84389 17.955 3
    endloop
  endfacet
  facet normal -8.06377e-16 -1.45725 -7.35883e-16
    outer loop
      vertex 0.633975 17.955 3
      vertex 0.930838 17.955 1.79558
      vertex 1.96484 17.955 2.5093
    endloop
  endfacet
  facet normal -2.91441e-16 -0.526679 -2.65963e-16
    outer loop
      vertex 1.7073 17.955 3
      vertex 0.633975 17.955 3
      vertex 1.96484 17.955 2.5093
    endloop
  endfacet
  facet normal 1.64957e-17 -0.192602 -6.69257e-17
    outer loop
      vertex 0.474062 17.955 3
      vertex 0.930838 17.955 1.79558
      vertex 0.633975 17.955 3
    endloop
  endfacet
  facet normal 3.51253e-17 -0.211197 -6.69257e-17
    outer loop
      vertex 0.29871 17.955 3
      vertex 0.930838 17.955 1.79558
      vertex 0.474062 17.955 3
    endloop
  endfacet
  facet normal 8.0355e-17 -0.910954 -3.26013e-16
    outer loop
      vertex -0.197802 17.955 3
      vertex 0.316409 17.955 1.64414
      vertex 0.930838 17.955 1.79558
    endloop
  endfacet
  facet normal 5.27501e-17 -0.598008 -2.14016e-16
    outer loop
      vertex 0.29871 17.955 3
      vertex -0.197802 17.955 3
      vertex 0.930838 17.955 1.79558
    endloop
  endfacet
  facet normal -7.19413e-16 -0.57173 -4.96575e-16
    outer loop
      vertex -0.619475 17.955 3
      vertex 0.316409 17.955 1.64414
      vertex -0.197802 17.955 3
    endloop
  endfacet
  facet normal 0 -1.3944 0
    outer loop
      vertex -1.6479 17.955 3
      vertex 0.316409 17.955 1.64414
      vertex -0.619475 17.955 3
    endloop
  endfacet
  facet normal 1.237e-15 -0.839378 1.7921e-15
    outer loop
      vertex -2.26697 17.955 3
      vertex 0.316409 17.955 1.64414
      vertex -1.6479 17.955 3
    endloop
  endfacet
  facet normal 6.80664e-30 -0.858013 -5.7734e-16
    outer loop
      vertex -2.28071 17.955 3
      vertex -0.316409 17.955 1.64414
      vertex 0.316409 17.955 1.64414
    endloop
  endfacet
  facet normal 1.47833e-31 -0.0186351 -1.25392e-17
    outer loop
      vertex -2.26697 17.955 3
      vertex -2.28071 17.955 3
      vertex 0.316409 17.955 1.64414
    endloop
  endfacet
  facet normal -1.3779e-16 -0.534141 -5.59037e-16
    outer loop
      vertex -2.29034 17.955 3
      vertex -0.930838 17.955 1.79558
      vertex -0.316409 17.955 1.64414
    endloop
  endfacet
  facet normal -3.36894e-18 -0.0130597 -1.36683e-17
    outer loop
      vertex -2.28071 17.955 3
      vertex -2.29034 17.955 3
      vertex -0.316409 17.955 1.64414
    endloop
  endfacet
  facet normal 4.57618e-16 -0.265642 3.15871e-16
    outer loop
      vertex -2.30354 17.955 3
      vertex -1.96484 17.955 2.5093
      vertex -0.930838 17.955 1.79558
    endloop
  endfacet
  facet normal 2.73878e-17 -0.0158983 1.89045e-17
    outer loop
      vertex -2.29034 17.955 3
      vertex -2.30354 17.955 3
      vertex -0.930838 17.955 1.79558
    endloop
  endfacet
  facet normal 0.412186 -2.18741e-16 0.284511
    outer loop
      vertex -2.30354 17.9064 3
      vertex -1.96484 17.115 2.5093
      vertex -1.96484 17.955 2.5093
    endloop
  endfacet
  facet normal 0.0238238 -1.2643e-17 0.0164444
    outer loop
      vertex -2.30354 17.955 3
      vertex -2.30354 17.9064 3
      vertex -1.96484 17.955 2.5093
    endloop
  endfacet
  facet normal 0.388362 -8.62336e-16 0.268067
    outer loop
      vertex -2.30354 17.115 3
      vertex -1.96484 17.115 2.5093
      vertex -2.30354 17.9064 3
    endloop
  endfacet
  facet normal 0 -0.356769 0
    outer loop
      vertex -3.03061 17.115 3
      vertex -1.96484 17.115 2.5093
      vertex -2.30354 17.115 3
    endloop
  endfacet
  facet normal -9.15236e-16 -4.05527 -1.98785e-15
    outer loop
      vertex -4.49299 17.115 -0.131714
      vertex -1.96484 17.115 2.5093
      vertex -3.03061 17.115 3
    endloop
  endfacet
  facet normal -3.50642e-16 -1.55364 -7.61576e-16
    outer loop
      vertex -3.52671 17.115 3
      vertex -4.49299 17.115 -0.131714
      vertex -3.03061 17.115 3
    endloop
  endfacet
  facet normal -1.90447e-15 -3.74781 -1.5105e-15
    outer loop
      vertex -5.35456 17.115 0.954564
      vertex -4.49299 17.115 -0.131714
      vertex -3.52671 17.115 3
    endloop
  endfacet
  facet normal -1.10792e-16 -0.218027 -8.78724e-17
    outer loop
      vertex -3.6333 17.115 3
      vertex -5.35456 17.115 0.954564
      vertex -3.52671 17.115 3
    endloop
  endfacet
  facet normal 1.6909e-15 -3.37789 -4.22876e-15
    outer loop
      vertex -5.9539 17.115 2.20479
      vertex -5.35456 17.115 0.954564
      vertex -3.6333 17.115 3
    endloop
  endfacet
  facet normal 1.32108e-16 -0.26391 -3.30388e-16
    outer loop
      vertex -3.96518 17.115 3
      vertex -5.9539 17.115 2.20479
      vertex -3.6333 17.115 3
    endloop
  endfacet
  facet normal -4.36198e-16 -1.7252 1.09088e-15
    outer loop
      vertex -6.13466 17.115 3
      vertex -5.9539 17.115 2.20479
      vertex -3.96518 17.115 3
    endloop
  endfacet
  facet normal 12.7305 -0.030054 2.89378
    outer loop
      vertex -6.17246 1.10598 3
      vertex -5.9539 17.115 2.20479
      vertex -6.13466 17.115 3
    endloop
  endfacet
  facet normal 0.190587 0.000344677 0.0593194
    outer loop
      vertex -6.17246 1.10598 3
      vertex -6.17217 0.945 3
      vertex -5.80368 0.945 1.81608
    endloop
  endfacet
  facet normal 19.0814 0.0345088 5.93901
    outer loop
      vertex -5.9539 17.115 2.20479
      vertex -6.17246 1.10598 3
      vertex -5.80368 0.945 1.81608
    endloop
  endfacet
  facet normal 4.41643e-15 -1.6253 1.3746e-15
    outer loop
      vertex -6.3 0.945 -1
      vertex -5.80368 0.945 1.81608
      vertex -6.17217 0.945 3
    endloop
  endfacet
  facet normal 2.97694e-17 -0.0109555 9.26562e-18
    outer loop
      vertex -6.17491 0.945 3
      vertex -6.3 0.945 -1
      vertex -6.17217 0.945 3
    endloop
  endfacet
  facet normal 1.48916e-14 -0.500379 0
    outer loop
      vertex -6.3 0.945 -1
      vertex -6.17491 0.945 3
      vertex -6.3 0.945 3
    endloop
  endfacet
  facet normal 0 3.049 0
    outer loop
      vertex -1.57187 -8.505 2.85744
      vertex -1.19294 -8.505 2.52173
      vertex -6.3 -8.505 -1
    endloop
  endfacet
  facet normal 0 2.7802 0
    outer loop
      vertex -6.3 -8.505 -1
      vertex -1.19294 -8.505 2.52173
      vertex -0.74467 -8.505 2.28647
    endloop
  endfacet
  facet normal 0 2.28849 0
    outer loop
      vertex -0.74467 -8.505 2.28647
      vertex -0.253127 -8.505 2.16531
      vertex -6.3 -8.505 -1
    endloop
  endfacet
  facet normal 0 1.60245 0
    outer loop
      vertex -0.253127 -8.505 2.16531
      vertex 0.253127 -8.505 2.16531
      vertex -6.3 -8.505 -1
    endloop
  endfacet
  facet normal 0 0.761946 0
    outer loop
      vertex 0.253127 -8.505 2.16531
      vertex 0.74467 -8.505 2.28647
      vertex -6.3 -8.505 -1
    endloop
  endfacet
  facet normal 0 41.4095 0
    outer loop
      vertex 0.74467 -8.505 2.28647
      vertex 6.3 -8.505 -1
      vertex -6.3 -8.505 -1
    endloop
  endfacet
  facet normal 0 3.049 0
    outer loop
      vertex 1.19294 -8.505 2.52173
      vertex 1.57187 -8.505 2.85744
      vertex 6.3 -8.505 -1
    endloop
  endfacet
  facet normal 0 2.7802 0
    outer loop
      vertex 1.19294 -8.505 2.52173
      vertex 6.3 -8.505 -1
      vertex 0.74467 -8.505 2.28647
    endloop
  endfacet
  facet normal 0 -4.70024e-14 119.07
    outer loop
      vertex -6.3 -8.505 -1
      vertex 6.3 -8.505 -1
      vertex 6.3 0.945 -1
    endloop
  endfacet
  facet normal 0 -2.54565e-14 64.4884
    outer loop
      vertex -3.41209 0.945 -1
      vertex -6.3 -8.505 -1
      vertex 3.41209 0.945 -1
    endloop
  endfacet
  facet normal 0 -1.07729e-14 27.2908
    outer loop
      vertex 3.41209 0.945 -1
      vertex -6.3 -8.505 -1
      vertex 6.3 0.945 -1
    endloop
  endfacet
  facet normal 0 -1.07729e-14 27.2908
    outer loop
      vertex -6.3 0.945 -1
      vertex -6.3 -8.505 -1
      vertex -3.41209 0.945 -1
    endloop
  endfacet
  facet normal -6.42488e-15 -2.23716 4.09583e-15
    outer loop
      vertex -6.3 0.945 -1
      vertex -5.20202 0.945 0.722327
      vertex -5.80368 0.945 1.81608
    endloop
  endfacet
  facet normal 6.42488e-15 -2.43645 -4.09583e-15
    outer loop
      vertex -6.3 0.945 -1
      vertex -4.39396 0.945 -0.229158
      vertex -5.20202 0.945 0.722327
    endloop
  endfacet
  facet normal 0 -2.22613 1.07729e-14
    outer loop
      vertex -6.3 0.945 -1
      vertex -3.41209 0.945 -1
      vertex -4.39396 0.945 -0.229158
    endloop
  endfacet
  facet normal 0.246746 -2.03029e-15 0.278518
    outer loop
      vertex -1.57187 -8.505 2.85744
      vertex -1.19294 -9.24 2.52173
      vertex -1.19294 -8.505 2.52173
    endloop
  endfacet
  facet normal 0.246746 3.22512e-16 0.278518
    outer loop
      vertex -1.57187 -9.24 2.85744
      vertex -1.19294 -9.24 2.52173
      vertex -1.57187 -8.505 2.85744
    endloop
  endfacet
  facet normal 0 0.151883 0
    outer loop
      vertex -0.894702 -9.24 2.9538
      vertex -0.558503 -9.24 2.77735
      vertex -1.57187 -9.24 2.85744
    endloop
  endfacet
  facet normal 0 0.0625539 0
    outer loop
      vertex -1.57187 -9.24 2.85744
      vertex -0.558503 -9.24 2.77735
      vertex -0.189845 -9.24 2.68648
    endloop
  endfacet
  facet normal 0 0.151883 0
    outer loop
      vertex 0.558503 -9.24 2.77735
      vertex 0.894702 -9.24 2.9538
      vertex 1.57187 -9.24 2.85744
    endloop
  endfacet
  facet normal 0 0.0625539 0
    outer loop
      vertex 0.558503 -9.24 2.77735
      vertex 1.57187 -9.24 2.85744
      vertex 0.189845 -9.24 2.68648
    endloop
  endfacet
  facet normal 0 0.399176 0
    outer loop
      vertex 0.189845 -9.24 2.68648
      vertex 1.57187 -9.24 2.85744
      vertex 1.19294 -9.24 2.52173
    endloop
  endfacet
  facet normal 0 0.0625539 0
    outer loop
      vertex 0.189845 -9.24 2.68648
      vertex 1.19294 -9.24 2.52173
      vertex -0.189845 -9.24 2.68648
    endloop
  endfacet
  facet normal 0 0.399176 0
    outer loop
      vertex -0.189845 -9.24 2.68648
      vertex 1.19294 -9.24 2.52173
      vertex 0.74467 -9.24 2.28647
    endloop
  endfacet
  facet normal 0 0.393072 0
    outer loop
      vertex -0.189845 -9.24 2.68648
      vertex 0.74467 -9.24 2.28647
      vertex -1.57187 -9.24 2.85744
    endloop
  endfacet
  facet normal 0 0.561319 0
    outer loop
      vertex -1.57187 -9.24 2.85744
      vertex 0.74467 -9.24 2.28647
      vertex 0.253127 -9.24 2.16531
    endloop
  endfacet
  facet normal 0 0.350394 0
    outer loop
      vertex -1.57187 -9.24 2.85744
      vertex 0.253127 -9.24 2.16531
      vertex -0.253127 -9.24 2.16531
    endloop
  endfacet
  facet normal 0 0.18044 0
    outer loop
      vertex -1.57187 -9.24 2.85744
      vertex -0.253127 -9.24 2.16531
      vertex -0.74467 -9.24 2.28647
    endloop
  endfacet
  facet normal 0 0.061335 0
    outer loop
      vertex -1.57187 -9.24 2.85744
      vertex -0.74467 -9.24 2.28647
      vertex -1.19294 -9.24 2.52173
    endloop
  endfacet
  facet normal 1.72304 1.19183e-15 3.28299
    outer loop
      vertex -0.894702 -19.005 2.9538
      vertex -0.558503 -19.005 2.77735
      vertex -0.558503 -9.24 2.77735
    endloop
  endfacet
  facet normal 1.72304 1.19183e-15 3.28299
    outer loop
      vertex -0.894702 -9.24 2.9538
      vertex -0.894702 -19.005 2.9538
      vertex -0.558503 -9.24 2.77735
    endloop
  endfacet
  facet normal 0.887305 2.07252e-15 3.59994
    outer loop
      vertex -0.558503 -19.005 2.77735
      vertex -0.189845 -9.24 2.68648
      vertex -0.558503 -9.24 2.77735
    endloop
  endfacet
  facet normal 0.887305 -8.47404e-16 3.59994
    outer loop
      vertex -0.558503 -19.005 2.77735
      vertex -0.189845 -19.005 2.68648
      vertex -0.189845 -9.24 2.68648
    endloop
  endfacet
  facet normal 0 0 3.70768
    outer loop
      vertex -0.189845 -19.005 2.68648
      vertex 0.189845 -19.005 2.68648
      vertex 0.189845 -9.24 2.68648
    endloop
  endfacet
  facet normal 0 0 3.70768
    outer loop
      vertex -0.189845 -9.24 2.68648
      vertex -0.189845 -19.005 2.68648
      vertex 0.189845 -9.24 2.68648
    endloop
  endfacet
  facet normal -0.887305 8.47404e-16 3.59994
    outer loop
      vertex 0.189845 -19.005 2.68648
      vertex 0.558503 -19.005 2.77735
      vertex 0.189845 -9.24 2.68648
    endloop
  endfacet
  facet normal -1.72304 6.23069e-17 3.28299
    outer loop
      vertex 0.558503 -19.005 2.77735
      vertex 0.894702 -19.005 2.9538
      vertex 0.558503 -9.24 2.77735
    endloop
  endfacet
  facet normal -0.887305 -6.97298e-16 3.59994
    outer loop
      vertex 0.189845 -9.24 2.68648
      vertex 0.558503 -19.005 2.77735
      vertex 0.558503 -9.24 2.77735
    endloop
  endfacet
  facet normal -1.72304 9.87336e-16 3.28299
    outer loop
      vertex 0.558503 -9.24 2.77735
      vertex 0.894702 -19.005 2.9538
      vertex 0.894702 -9.24 2.9538
    endloop
  endfacet
  facet normal -0.246746 -3.22512e-16 0.278518
    outer loop
      vertex 1.19294 -9.24 2.52173
      vertex 1.57187 -9.24 2.85744
      vertex 1.19294 -8.505 2.52173
    endloop
  endfacet
  facet normal -0.246746 -1.61256e-16 0.278518
    outer loop
      vertex 1.19294 -8.505 2.52173
      vertex 1.57187 -9.24 2.85744
      vertex 1.57187 -8.505 2.85744
    endloop
  endfacet
  facet normal 0 -2.22613 1.07729e-14
    outer loop
      vertex 3.41209 0.945 -1
      vertex 6.3 0.945 -1
      vertex 4.39397 0.945 -0.229158
    endloop
  endfacet
  facet normal -6.42488e-15 -2.43645 -4.09583e-15
    outer loop
      vertex 4.39397 0.945 -0.229158
      vertex 6.3 0.945 -1
      vertex 5.20203 0.945 0.722327
    endloop
  endfacet
  facet normal 6.42488e-15 -2.23716 4.09583e-15
    outer loop
      vertex 5.20203 0.945 0.722327
      vertex 6.3 0.945 -1
      vertex 5.80368 0.945 1.81608
    endloop
  endfacet
  facet normal -17.686 0.0271055 9.7287
    outer loop
      vertex 5.20203 0.945 0.722327
      vertex 5.80368 0.945 1.81608
      vertex 5.35456 17.115 0.954564
    endloop
  endfacet
  facet normal -20.2162 -0.0451533 9.69147
    outer loop
      vertex 5.35456 17.115 0.954564
      vertex 5.80368 0.945 1.81608
      vertex 5.9539 17.115 2.20479
    endloop
  endfacet
  facet normal -17.5651 -0.0343954 13.9314
    outer loop
      vertex 4.493 17.115 -0.131714
      vertex 5.20203 0.945 0.722327
      vertex 5.35456 17.115 0.954564
    endloop
  endfacet
  facet normal 4.14326e-15 -5.00755 5.59893e-15
    outer loop
      vertex 1.49117 17.115 2.08967
      vertex 3.41209 17.115 -1
      vertex 4.493 17.115 -0.131714
    endloop
  endfacet
  facet normal -4.14326e-15 -2.31188 -5.59893e-15
    outer loop
      vertex 1.49117 17.115 2.08967
      vertex 4.493 17.115 -0.131714
      vertex 1.96484 17.115 2.5093
    endloop
  endfacet
  facet normal -15.3855 0.015485 13.0663
    outer loop
      vertex 4.39397 0.945 -0.229158
      vertex 5.20203 0.945 0.722327
      vertex 4.493 17.115 -0.131714
    endloop
  endfacet
  facet normal -14.0402 -0.0193417 17.4783
    outer loop
      vertex 3.41209 17.115 -1
      vertex 4.39397 0.945 -0.229158
      vertex 4.493 17.115 -0.131714
    endloop
  endfacet
  facet normal -0.352494 1.94494e-15 0.397883
    outer loop
      vertex 1.49117 17.115 2.08967
      vertex 1.96484 17.115 2.5093
      vertex 1.49117 17.955 2.08967
    endloop
  endfacet
  facet normal -0.352494 -2.37167e-15 0.397883
    outer loop
      vertex 1.49117 17.955 2.08967
      vertex 1.96484 17.115 2.5093
      vertex 1.96484 17.955 2.5093
    endloop
  endfacet
  facet normal 2.7426e-16 -0.0958359 -5.22559e-16
    outer loop
      vertex 0.930838 17.955 1.79558
      vertex 1.49117 17.955 2.08967
      vertex 1.96484 17.955 2.5093
    endloop
  endfacet
  facet normal -0.247031 -3.4083e-16 0.470679
    outer loop
      vertex 0.930838 17.955 1.79558
      vertex 1.49117 17.115 2.08967
      vertex 1.49117 17.955 2.08967
    endloop
  endfacet
  facet normal -0.247031 4.38816e-15 0.470679
    outer loop
      vertex 0.930838 17.115 1.79558
      vertex 1.49117 17.115 2.08967
      vertex 0.930838 17.955 1.79558
    endloop
  endfacet
  facet normal -0.127212 2.25974e-15 0.51612
    outer loop
      vertex 0.316409 17.115 1.64414
      vertex 0.930838 17.115 1.79558
      vertex 0.930838 17.955 1.79558
    endloop
  endfacet
  facet normal -0.127212 2.25974e-15 0.51612
    outer loop
      vertex 0.316409 17.955 1.64414
      vertex 0.316409 17.115 1.64414
      vertex 0.930838 17.955 1.79558
    endloop
  endfacet
  facet normal -6.26699e-15 1.11324e-28 0.531567
    outer loop
      vertex -0.316409 17.955 1.64414
      vertex 0.316409 17.115 1.64414
      vertex 0.316409 17.955 1.64414
    endloop
  endfacet
  facet normal 0 4.72126e-15 0.531567
    outer loop
      vertex -0.316409 17.115 1.64414
      vertex 0.316409 17.115 1.64414
      vertex -0.316409 17.955 1.64414
    endloop
  endfacet
  facet normal 0.127212 2.32433e-15 0.51612
    outer loop
      vertex -0.930838 17.955 1.79558
      vertex -0.316409 17.115 1.64414
      vertex -0.316409 17.955 1.64414
    endloop
  endfacet
  facet normal 0.127212 2.60679e-15 0.51612
    outer loop
      vertex -0.930838 17.115 1.79558
      vertex -0.316409 17.115 1.64414
      vertex -0.930838 17.955 1.79558
    endloop
  endfacet
  facet normal 0.247031 3.4083e-16 0.470679
    outer loop
      vertex -1.49117 17.955 2.08967
      vertex -0.930838 17.115 1.79558
      vertex -0.930838 17.955 1.79558
    endloop
  endfacet
  facet normal -2.7426e-16 -0.0958359 -5.22559e-16
    outer loop
      vertex -1.96484 17.955 2.5093
      vertex -1.49117 17.955 2.08967
      vertex -0.930838 17.955 1.79558
    endloop
  endfacet
  facet normal 0.352494 1.17926e-17 0.397883
    outer loop
      vertex -1.96484 17.955 2.5093
      vertex -1.49117 17.115 2.08967
      vertex -1.49117 17.955 2.08967
    endloop
  endfacet
  facet normal 0.352494 1.18583e-15 0.397883
    outer loop
      vertex -1.96484 17.115 2.5093
      vertex -1.49117 17.115 2.08967
      vertex -1.96484 17.955 2.5093
    endloop
  endfacet
  facet normal 4.14326e-15 -2.31188 -5.59893e-15
    outer loop
      vertex -4.49299 17.115 -0.131714
      vertex -1.49117 17.115 2.08967
      vertex -1.96484 17.115 2.5093
    endloop
  endfacet
  facet normal -4.14326e-15 -5.00755 5.59893e-15
    outer loop
      vertex -4.49299 17.115 -0.131714
      vertex -3.41209 17.115 -1
      vertex -1.49117 17.115 2.08967
    endloop
  endfacet
  facet normal 14.0402 -0.0193417 17.4783
    outer loop
      vertex -4.49299 17.115 -0.131714
      vertex -4.39396 0.945 -0.229158
      vertex -3.41209 17.115 -1
    endloop
  endfacet
  facet normal 15.3855 0.015485 13.0663
    outer loop
      vertex -5.20202 0.945 0.722327
      vertex -4.39396 0.945 -0.229158
      vertex -4.49299 17.115 -0.131714
    endloop
  endfacet
  facet normal 17.5651 -0.0343954 13.9314
    outer loop
      vertex -5.35456 17.115 0.954564
      vertex -5.20202 0.945 0.722327
      vertex -4.49299 17.115 -0.131714
    endloop
  endfacet
  facet normal 17.686 0.0271055 9.7287
    outer loop
      vertex -5.80368 0.945 1.81608
      vertex -5.20202 0.945 0.722327
      vertex -5.35456 17.115 0.954564
    endloop
  endfacet
  facet normal 20.2162 -0.0451533 9.69147
    outer loop
      vertex -5.9539 17.115 2.20479
      vertex -5.80368 0.945 1.81608
      vertex -5.35456 17.115 0.954564
    endloop
  endfacet
  facet normal -0.172922 -1.58911e-15 0.329475
    outer loop
      vertex 0.74467 -8.505 2.28647
      vertex 1.19294 -9.24 2.52173
      vertex 1.19294 -8.505 2.52173
    endloop
  endfacet
  facet normal -0.172922 9.60708e-16 0.329475
    outer loop
      vertex 0.74467 -9.24 2.28647
      vertex 1.19294 -9.24 2.52173
      vertex 0.74467 -8.505 2.28647
    endloop
  endfacet
  facet normal -0.0890486 -4.77782e-16 0.361284
    outer loop
      vertex 0.253127 -8.505 2.16531
      vertex 0.74467 -9.24 2.28647
      vertex 0.74467 -8.505 2.28647
    endloop
  endfacet
  facet normal -0.0890486 1.58182e-15 0.361284
    outer loop
      vertex 0.253127 -9.24 2.16531
      vertex 0.74467 -9.24 2.28647
      vertex 0.253127 -8.505 2.16531
    endloop
  endfacet
  facet normal 0 0 0.372097
    outer loop
      vertex -0.253127 -9.24 2.16531
      vertex 0.253127 -9.24 2.16531
      vertex 0.253127 -8.505 2.16531
    endloop
  endfacet
  facet normal 0 0 0.372097
    outer loop
      vertex -0.253127 -8.505 2.16531
      vertex -0.253127 -9.24 2.16531
      vertex 0.253127 -8.505 2.16531
    endloop
  endfacet
  facet normal 0.0890486 -1.35585e-15 0.361284
    outer loop
      vertex -0.74467 -9.24 2.28647
      vertex -0.253127 -9.24 2.16531
      vertex -0.253127 -8.505 2.16531
    endloop
  endfacet
  facet normal 0.0890486 -1.35585e-15 0.361284
    outer loop
      vertex -0.74467 -8.505 2.28647
      vertex -0.74467 -9.24 2.28647
      vertex -0.253127 -8.505 2.16531
    endloop
  endfacet
  facet normal 0.172922 -2.6329e-15 0.329475
    outer loop
      vertex -1.19294 -8.505 2.52173
      vertex -0.74467 -9.24 2.28647
      vertex -0.74467 -8.505 2.28647
    endloop
  endfacet
  facet normal 0.172922 -7.413e-16 0.329475
    outer loop
      vertex -1.19294 -9.24 2.52173
      vertex -0.74467 -9.24 2.28647
      vertex -1.19294 -8.505 2.52173
    endloop
  endfacet
  facet normal 0 0 110.347
    outer loop
      vertex -3.41209 0.945 -1
      vertex 3.41209 0.945 -1
      vertex 3.41209 17.115 -1
    endloop
  endfacet
  facet normal 0 0 110.347
    outer loop
      vertex -3.41209 17.115 -1
      vertex -3.41209 0.945 -1
      vertex 3.41209 17.115 -1
    endloop
  endfacet
  facet normal 12.4645 0 15.877
    outer loop
      vertex -4.39396 0.945 -0.229158
      vertex -3.41209 0.945 -1
      vertex -3.41209 17.115 -1
    endloop
  endfacet
  facet normal -12.4645 0 15.877
    outer loop
      vertex 3.41209 0.945 -1
      vertex 4.39397 0.945 -0.229158
      vertex 3.41209 17.115 -1
    endloop
  endfacet
  facet normal -5.4852e-16 -2.29615 1.04512e-15
    outer loop
      vertex 0.930838 17.115 1.79558
      vertex 3.41209 17.115 -1
      vertex 1.49117 17.115 2.08967
    endloop
  endfacet
  facet normal 0 -18.0441 1.27283e-14
    outer loop
      vertex -3.41209 17.115 -1
      vertex 3.41209 17.115 -1
      vertex 0.316409 17.115 1.64414
    endloop
  endfacet
  facet normal 0 -1.67326 1.18032e-15
    outer loop
      vertex -0.316409 17.115 1.64414
      vertex -3.41209 17.115 -1
      vertex 0.316409 17.115 1.64414
    endloop
  endfacet
  facet normal -2.82468e-16 -2.09345 1.14602e-15
    outer loop
      vertex 0.316409 17.115 1.64414
      vertex 3.41209 17.115 -1
      vertex 0.930838 17.115 1.79558
    endloop
  endfacet
  facet normal 2.82468e-16 -2.09345 1.14602e-15
    outer loop
      vertex -3.41209 17.115 -1
      vertex -0.316409 17.115 1.64414
      vertex -0.930838 17.115 1.79558
    endloop
  endfacet
  facet normal 5.4852e-16 -2.29615 1.04512e-15
    outer loop
      vertex -3.41209 17.115 -1
      vertex -0.930838 17.115 1.79558
      vertex -1.49117 17.115 2.08967
    endloop
  endfacet
  facet normal 0.247031 1.71213e-15 0.470679
    outer loop
      vertex -1.49117 17.115 2.08967
      vertex -0.930838 17.115 1.79558
      vertex -1.49117 17.955 2.08967
    endloop
  endfacet
endsolid polyhedron
