solid polyhedron
  facet normal -0 328 -0
    outer loop
      vertex -20.5 20.5 4
      vertex 20.5 20.5 4
      vertex -20.5 20.5 -4
    endloop
  endfacet
  facet normal 0 328 0
    outer loop
      vertex -20.5 20.5 -4
      vertex 20.5 20.5 4
      vertex 20.5 20.5 -4
    endloop
  endfacet
  facet normal 328 0 0
    outer loop
      vertex 20.5 -20.5 -4
      vertex 20.5 20.5 -4
      vertex 20.5 20.5 4
    endloop
  endfacet
  facet normal 328 -0 -0
    outer loop
      vertex 20.5 -20.5 4
      vertex 20.5 -20.5 -4
      vertex 20.5 20.5 4
    endloop
  endfacet
  facet normal -0 0 625.25
    outer loop
      vertex 5.25 -10.25 4
      vertex 20.5 -20.5 4
      vertex 20.5 20.5 4
    endloop
  endfacet
  facet normal -0 -0 312.625
    outer loop
      vertex 5.25 10.25 4
      vertex 5.25 -10.25 4
      vertex 20.5 20.5 4
    endloop
  endfacet
  facet normal 0 0 420.25
    outer loop
      vertex -20.5 -20.5 4
      vertex 20.5 -20.5 4
      vertex -5.25 -10.25 4
    endloop
  endfacet
  facet normal -0 0 420.25
    outer loop
      vertex -20.5 20.5 4
      vertex -5.25 10.25 4
      vertex 20.5 20.5 4
    endloop
  endfacet
  facet normal -0 -0 625.25
    outer loop
      vertex -20.5 20.5 4
      vertex -20.5 -20.5 4
      vertex -5.25 10.25 4
    endloop
  endfacet
  facet normal 0 0 107.625
    outer loop
      vertex -5.25 10.25 4
      vertex 5.25 10.25 4
      vertex 20.5 20.5 4
    endloop
  endfacet
  facet normal -0 0 107.625
    outer loop
      vertex -5.25 -10.25 4
      vertex 20.5 -20.5 4
      vertex 5.25 -10.25 4
    endloop
  endfacet
  facet normal -0 -0 312.625
    outer loop
      vertex -5.25 -10.25 4
      vertex -5.25 10.25 4
      vertex -20.5 -20.5 4
    endloop
  endfacet
  facet normal -0 0 -1681
    outer loop
      vertex -20.5 20.5 -4
      vertex 20.5 20.5 -4
      vertex -20.5 -20.5 -4
    endloop
  endfacet
  facet normal -0 0 -1681
    outer loop
      vertex -20.5 -20.5 -4
      vertex 20.5 20.5 -4
      vertex 20.5 -20.5 -4
    endloop
  endfacet
  facet normal -328 -0 0
    outer loop
      vertex -20.5 -20.5 4
      vertex -20.5 20.5 4
      vertex -20.5 -20.5 -4
    endloop
  endfacet
  facet normal -328 -0 0
    outer loop
      vertex -20.5 -20.5 -4
      vertex -20.5 20.5 4
      vertex -20.5 20.5 -4
    endloop
  endfacet
  facet normal -0 -328 0
    outer loop
      vertex -20.5 -20.5 -4
      vertex 20.5 -20.5 -4
      vertex 20.5 -20.5 4
    endloop
  endfacet
  facet normal -0 -328 0
    outer loop
      vertex -20.5 -20.5 4
      vertex -20.5 -20.5 -4
      vertex 20.5 -20.5 4
    endloop
  endfacet
  facet normal 112.75 0 0
    outer loop
      vertex -5.25 -10.25 -1.5
      vertex -5.25 10.25 -1.5
      vertex -5.25 10.25 4
    endloop
  endfacet
  facet normal 112.75 0 0
    outer loop
      vertex -5.25 -10.25 4
      vertex -5.25 -10.25 -1.5
      vertex -5.25 10.25 4
    endloop
  endfacet
  facet normal 0 57.75 0
    outer loop
      vertex -5.25 -10.25 4
      vertex 5.25 -10.25 4
      vertex -5.25 -10.25 -1.5
    endloop
  endfacet
  facet normal 0 57.75 0
    outer loop
      vertex -5.25 -10.25 -1.5
      vertex 5.25 -10.25 4
      vertex 5.25 -10.25 -1.5
    endloop
  endfacet
  facet normal -112.75 0 0
    outer loop
      vertex 5.25 -10.25 4
      vertex 5.25 10.25 4
      vertex 5.25 -10.25 -1.5
    endloop
  endfacet
  facet normal -112.75 0 0
    outer loop
      vertex 5.25 -10.25 -1.5
      vertex 5.25 10.25 4
      vertex 5.25 10.25 -1.5
    endloop
  endfacet
  facet normal 0 -57.75 0
    outer loop
      vertex -5.25 10.25 -1.5
      vertex 5.25 10.25 -1.5
      vertex 5.25 10.25 4
    endloop
  endfacet
  facet normal 0 -57.75 0
    outer loop
      vertex -5.25 10.25 4
      vertex -5.25 10.25 -1.5
      vertex 5.25 10.25 4
    endloop
  endfacet
  facet normal 0 0 215.25
    outer loop
      vertex -5.25 -10.25 -1.5
      vertex 5.25 -10.25 -1.5
      vertex 5.25 10.25 -1.5
    endloop
  endfacet
  facet normal 0 0 215.25
    outer loop
      vertex -5.25 10.25 -1.5
      vertex -5.25 -10.25 -1.5
      vertex 5.25 10.25 -1.5
    endloop
  endfacet
endsolid polyhedron
