solid polyhedron
  facet normal -207.5 0 0
    outer loop
      vertex 0 0 0
      vertex 0 0 5
      vertex 0 41.5 0
    endloop
  endfacet
  facet normal -75 0 0
    outer loop
      vertex 0 41.5 0
      vertex 0 0 5
      vertex 0 15 5
    endloop
  endfacet
  facet normal -132.5 0 0
    outer loop
      vertex 0 41.5 0
      vertex 0 15 5
      vertex 0 15 10
    endloop
  endfacet
  facet normal -30 0 0
    outer loop
      vertex 0 15 10
      vertex 0 0 10
      vertex 0 0 12
    endloop
  endfacet
  facet normal -83 0 0
    outer loop
      vertex 0 15 10
      vertex 0 0 12
      vertex 0 41.5 12
    endloop
  endfacet
  facet normal -318 0 0
    outer loop
      vertex 0 15 10
      vertex 0 41.5 12
      vertex 0 41.5 0
    endloop
  endfacet
  facet normal 0 -207.5 0
    outer loop
      vertex 0 0 5
      vertex 0 0 0
      vertex 41.5 0 0
    endloop
  endfacet
  facet normal -0 -75 -0
    outer loop
      vertex 15 0 5
      vertex 0 0 5
      vertex 41.5 0 0
    endloop
  endfacet
  facet normal 0 -83 0
    outer loop
      vertex 0 0 12
      vertex 0 0 10
      vertex 41.5 0 12
    endloop
  endfacet
  facet normal 0 -30 0
    outer loop
      vertex 0 0 10
      vertex 15 0 10
      vertex 41.5 0 12
    endloop
  endfacet
  facet normal 0 -318 -0
    outer loop
      vertex 41.5 0 12
      vertex 15 0 5
      vertex 41.5 0 0
    endloop
  endfacet
  facet normal 0 -132.5 0
    outer loop
      vertex 15 0 10
      vertex 15 0 5
      vertex 41.5 0 12
    endloop
  endfacet
  facet normal 0 0 -1722.25
    outer loop
      vertex 0 0 0
      vertex 0 41.5 0
      vertex 41.5 0 0
    endloop
  endfacet
  facet normal 0 0 -1722.25
    outer loop
      vertex 41.5 0 0
      vertex 0 41.5 0
      vertex 41.5 41.5 0
    endloop
  endfacet
  facet normal 0 498 0
    outer loop
      vertex 0 41.5 0
      vertex 0 41.5 12
      vertex 41.5 41.5 0
    endloop
  endfacet
  facet normal 0 498 -0
    outer loop
      vertex 41.5 41.5 0
      vertex 0 41.5 12
      vertex 41.5 41.5 12
    endloop
  endfacet
  facet normal 0 0 1722.25
    outer loop
      vertex 0 41.5 12
      vertex 0 0 12
      vertex 41.5 0 12
    endloop
  endfacet
  facet normal 0 0 1722.25
    outer loop
      vertex 41.5 41.5 12
      vertex 0 41.5 12
      vertex 41.5 0 12
    endloop
  endfacet
  facet normal -0 -0 -225
    outer loop
      vertex 15 15 10
      vertex 15 0 10
      vertex 0 15 10
    endloop
  endfacet
  facet normal 0 0 -225
    outer loop
      vertex 0 15 10
      vertex 15 0 10
      vertex 0 0 10
    endloop
  endfacet
  facet normal 0 -75 0
    outer loop
      vertex 15 15 5
      vertex 15 15 10
      vertex 0 15 10
    endloop
  endfacet
  facet normal 0 -75 0
    outer loop
      vertex 0 15 5
      vertex 15 15 5
      vertex 0 15 10
    endloop
  endfacet
  facet normal 0 -0 225
    outer loop
      vertex 15 0 5
      vertex 15 15 5
      vertex 0 15 5
    endloop
  endfacet
  facet normal 0 0 225
    outer loop
      vertex 0 0 5
      vertex 15 0 5
      vertex 0 15 5
    endloop
  endfacet
  facet normal -75 -0 -0
    outer loop
      vertex 15 15 10
      vertex 15 15 5
      vertex 15 0 10
    endloop
  endfacet
  facet normal -75 0 0
    outer loop
      vertex 15 0 10
      vertex 15 15 5
      vertex 15 0 5
    endloop
  endfacet
  facet normal 498 0 0
    outer loop
      vertex 41.5 0 12
      vertex 41.5 0 0
      vertex 41.5 41.5 0
    endloop
  endfacet
  facet normal 498 0 0
    outer loop
      vertex 41.5 41.5 12
      vertex 41.5 0 12
      vertex 41.5 41.5 0
    endloop
  endfacet
endsolid polyhedron
