solid polyhedron
  facet normal -320 -0 0
    outer loop
      vertex -20 -20 4
      vertex -20 20 4
      vertex -20 -20 -4
    endloop
  endfacet
  facet normal -320 -0 0
    outer loop
      vertex -20 -20 -4
      vertex -20 20 4
      vertex -20 20 -4
    endloop
  endfacet
  facet normal -0 0 420
    outer loop
      vertex 9.5 -15.7 4
      vertex 20 -20 4
      vertex 20 20 4
    endloop
  endfacet
  facet normal -0 -0 329.7
    outer loop
      vertex 9.5 15.7 4
      vertex 9.5 -15.7 4
      vertex 20 20 4
    endloop
  endfacet
  facet normal 0 0 172
    outer loop
      vertex -20 -20 4
      vertex 20 -20 4
      vertex -9.5 -15.7 4
    endloop
  endfacet
  facet normal -0 0 172
    outer loop
      vertex -20 20 4
      vertex -9.5 15.7 4
      vertex 20 20 4
    endloop
  endfacet
  facet normal -0 -0 420
    outer loop
      vertex -20 20 4
      vertex -20 -20 4
      vertex -9.5 15.7 4
    endloop
  endfacet
  facet normal 0 0 81.7
    outer loop
      vertex -9.5 15.7 4
      vertex 9.5 15.7 4
      vertex 20 20 4
    endloop
  endfacet
  facet normal -0 0 81.7
    outer loop
      vertex -9.5 -15.7 4
      vertex 20 -20 4
      vertex 9.5 -15.7 4
    endloop
  endfacet
  facet normal -0 -0 329.7
    outer loop
      vertex -9.5 -15.7 4
      vertex -9.5 15.7 4
      vertex -20 -20 4
    endloop
  endfacet
  facet normal -0 -320 0
    outer loop
      vertex -20 -20 -4
      vertex 20 -20 -4
      vertex 20 -20 4
    endloop
  endfacet
  facet normal -0 -320 0
    outer loop
      vertex -20 -20 4
      vertex -20 -20 -4
      vertex 20 -20 4
    endloop
  endfacet
  facet normal -0 0 -1600
    outer loop
      vertex -20 20 -4
      vertex 20 20 -4
      vertex -20 -20 -4
    endloop
  endfacet
  facet normal -0 0 -1600
    outer loop
      vertex -20 -20 -4
      vertex 20 20 -4
      vertex 20 -20 -4
    endloop
  endfacet
  facet normal -0 320 -0
    outer loop
      vertex -20 20 4
      vertex 20 20 4
      vertex -20 20 -4
    endloop
  endfacet
  facet normal 0 320 0
    outer loop
      vertex -20 20 -4
      vertex 20 20 4
      vertex 20 20 -4
    endloop
  endfacet
  facet normal 320 0 0
    outer loop
      vertex 20 -20 -4
      vertex 20 20 -4
      vertex 20 20 4
    endloop
  endfacet
  facet normal 320 -0 -0
    outer loop
      vertex 20 -20 4
      vertex 20 -20 -4
      vertex 20 20 4
    endloop
  endfacet
  facet normal 62.8 0 0
    outer loop
      vertex -9.5 -15.7 2
      vertex -9.5 15.7 2
      vertex -9.5 15.7 4
    endloop
  endfacet
  facet normal 62.8 0 0
    outer loop
      vertex -9.5 -15.7 4
      vertex -9.5 -15.7 2
      vertex -9.5 15.7 4
    endloop
  endfacet
  facet normal 0 38 0
    outer loop
      vertex -9.5 -15.7 4
      vertex 9.5 -15.7 4
      vertex -9.5 -15.7 2
    endloop
  endfacet
  facet normal 0 38 0
    outer loop
      vertex -9.5 -15.7 2
      vertex 9.5 -15.7 4
      vertex 9.5 -15.7 2
    endloop
  endfacet
  facet normal -62.8 0 0
    outer loop
      vertex 9.5 -15.7 4
      vertex 9.5 15.7 4
      vertex 9.5 -15.7 2
    endloop
  endfacet
  facet normal -62.8 0 0
    outer loop
      vertex 9.5 -15.7 2
      vertex 9.5 15.7 4
      vertex 9.5 15.7 2
    endloop
  endfacet
  facet normal 0 -38 0
    outer loop
      vertex -9.5 15.7 2
      vertex 9.5 15.7 2
      vertex 9.5 15.7 4
    endloop
  endfacet
  facet normal 0 -38 0
    outer loop
      vertex -9.5 15.7 4
      vertex -9.5 15.7 2
      vertex 9.5 15.7 4
    endloop
  endfacet
  facet normal 0 0 596.6
    outer loop
      vertex -9.5 -15.7 2
      vertex 9.5 -15.7 2
      vertex 9.5 15.7 2
    endloop
  endfacet
  facet normal 0 0 596.6
    outer loop
      vertex -9.5 15.7 2
      vertex -9.5 -15.7 2
      vertex 9.5 15.7 2
    endloop
  endfacet
endsolid polyhedron
