solid polyhedron
  facet normal -0 328 -0
    outer loop
      vertex -20.5 20.5 4
      vertex 20.5 20.5 4
      vertex -20.5 20.5 -4
    endloop
  endfacet
  facet normal 0 328 0
    outer loop
      vertex -20.5 20.5 -4
      vertex 20.5 20.5 4
      vertex 20.5 20.5 -4
    endloop
  endfacet
  facet normal 328 0 0
    outer loop
      vertex 20.5 -20.5 -4
      vertex 20.5 20.5 -4
      vertex 20.5 20.5 4
    endloop
  endfacet
  facet normal 328 -0 -0
    outer loop
      vertex 20.5 -20.5 4
      vertex 20.5 -20.5 -4
      vertex 20.5 20.5 4
    endloop
  endfacet
  facet normal -0 0 574.226
    outer loop
      vertex 6.49449 3.10394 4
      vertex 20.5 -20.5 4
      vertex 20.5 20.5 4
    endloop
  endfacet
  facet normal -0 -0 0.0216584
    outer loop
      vertex -6.49006 0.924862 4
      vertex -6.49449 3.10394 4
      vertex -6.5 0.924862 4
    endloop
  endfacet
  facet normal -0 -0 0.61315
    outer loop
      vertex -5.73073 16.7503 4
      vertex -4.33333 17.5911 4
      vertex -6.45999 16.7503 4
    endloop
  endfacet
  facet normal 0 -0 34.8765
    outer loop
      vertex -1.61304 -18.6 4
      vertex -1.61304 -11.4634 4
      vertex -6.5 -8.32376 4
    endloop
  endfacet
  facet normal -0 -0 574
    outer loop
      vertex -20.5 20.5 4
      vertex -20.5 -20.5 4
      vertex -6.5 0.924862 4
    endloop
  endfacet
  facet normal -0 -0 134.79
    outer loop
      vertex 1.61304 -11.4634 4
      vertex 1.61304 -18.6 4
      vertex 20.5 -20.5 4
    endloop
  endfacet
  facet normal 0 -0 2.53204
    outer loop
      vertex -2.15471 -9.04309 4
      vertex -2.15471 -8.46038 4
      vertex -6.5 -8.32376 4
    endloop
  endfacet
  facet normal -0 0 30.6149
    outer loop
      vertex -20.5 20.5 4
      vertex -6.5 0.924862 4
      vertex -6.49449 3.10394 4
    endloop
  endfacet
  facet normal 0 0 7.48485
    outer loop
      vertex 0.393939 18.6 4
      vertex 4.33333 18.6 4
      vertex 20.5 20.5 4
    endloop
  endfacet
  facet normal -0 0 191.724
    outer loop
      vertex -20.5 20.5 4
      vertex -6.49449 3.10394 4
      vertex -6.45999 16.7503 4
    endloop
  endfacet
  facet normal -0 0 191.724
    outer loop
      vertex 6.45999 16.7503 4
      vertex 6.49449 3.10394 4
      vertex 20.5 20.5 4
    endloop
  endfacet
  facet normal -0 -0 13.5927
    outer loop
      vertex 4.33333 18.6 4
      vertex 4.33333 17.7592 4
      vertex 20.5 20.5 4
    endloop
  endfacet
  facet normal -0 0 19.779
    outer loop
      vertex -20.5 20.5 4
      vertex -6.45999 16.7503 4
      vertex -4.33333 17.5911 4
    endloop
  endfacet
  facet normal -0 0 77.9
    outer loop
      vertex -20.5 20.5 4
      vertex -4.33333 18.6 4
      vertex 20.5 20.5 4
    endloop
  endfacet
  facet normal -0 0 16.3112
    outer loop
      vertex -20.5 20.5 4
      vertex -4.33333 17.5911 4
      vertex -4.33333 18.6 4
    endloop
  endfacet
  facet normal 0 0 8.98182
    outer loop
      vertex -4.33333 18.6 4
      vertex 0.393939 18.6 4
      vertex 20.5 20.5 4
    endloop
  endfacet
  facet normal -0 -0 16.3112
    outer loop
      vertex 4.33333 17.7592 4
      vertex 4.33333 16.7503 4
      vertex 20.5 20.5 4
    endloop
  endfacet
  facet normal 0 0 5.23986
    outer loop
      vertex 4.33333 16.7503 4
      vertex 5.73073 16.7503 4
      vertex 20.5 20.5 4
    endloop
  endfacet
  facet normal 0 0 2.73452
    outer loop
      vertex 5.73073 16.7503 4
      vertex 6.45999 16.7503 4
      vertex 20.5 20.5 4
    endloop
  endfacet
  facet normal -0 -0 30.3891
    outer loop
      vertex 6.5 0.924862 4
      vertex 20.5 -20.5 4
      vertex 6.49449 3.10394 4
    endloop
  endfacet
  facet normal -0 0 0.0216583
    outer loop
      vertex 6.49006 0.924862 4
      vertex 6.5 0.924862 4
      vertex 6.49449 3.10394 4
    endloop
  endfacet
  facet normal -0 0 51.8044
    outer loop
      vertex 2.24545 -8.32376 4
      vertex 20.5 -20.5 4
      vertex 6.5 -8.32376 4
    endloop
  endfacet
  facet normal -0 0 1.10495
    outer loop
      vertex 2.15471 -8.32376 4
      vertex 20.5 -20.5 4
      vertex 2.24545 -8.32376 4
    endloop
  endfacet
  facet normal -0 0 2.50647
    outer loop
      vertex 2.15471 -8.46038 4
      vertex 20.5 -20.5 4
      vertex 2.15471 -8.32376 4
    endloop
  endfacet
  facet normal -0 0 10.69
    outer loop
      vertex 2.15471 -9.04309 4
      vertex 20.5 -20.5 4
      vertex 2.15471 -8.46038 4
    endloop
  endfacet
  facet normal -0 0 6.20582
    outer loop
      vertex 1.61304 -9.04309 4
      vertex 20.5 -20.5 4
      vertex 2.15471 -9.04309 4
    endloop
  endfacet
  facet normal 0 -0 0.593687
    outer loop
      vertex -2.15471 -8.46038 4
      vertex -2.15471 -8.32376 4
      vertex -6.5 -8.32376 4
    endloop
  endfacet
  facet normal -0 0 45.7114
    outer loop
      vertex 1.61304 -11.4634 4
      vertex 20.5 -20.5 4
      vertex 1.61304 -9.04309 4
    endloop
  endfacet
  facet normal 0 -0 1.31097
    outer loop
      vertex -1.61304 -11.4634 4
      vertex -1.61304 -9.04309 4
      vertex -2.15471 -9.04309 4
    endloop
  endfacet
  facet normal 0 -0 10.1271
    outer loop
      vertex -1.61304 -11.4634 4
      vertex -2.15471 -9.04309 4
      vertex -6.5 -8.32376 4
    endloop
  endfacet
  facet normal 0 0 77.9
    outer loop
      vertex -20.5 -20.5 4
      vertex 20.5 -20.5 4
      vertex 1.61304 -18.6 4
    endloop
  endfacet
  facet normal 0 0 203.372
    outer loop
      vertex -20.5 -20.5 4
      vertex -1.61304 -18.6 4
      vertex -6.5 -8.32376 4
    endloop
  endfacet
  facet normal 0 0 6.12956
    outer loop
      vertex -20.5 -20.5 4
      vertex 1.61304 -18.6 4
      vertex -1.61304 -18.6 4
    endloop
  endfacet
  facet normal -0 0 1.19775e-16
    outer loop
      vertex -6.5 -8.32376 4
      vertex -2.15471 -8.32376 4
      vertex -2.24545 -8.32376 4
    endloop
  endfacet
  facet normal -0 -0 129.481
    outer loop
      vertex 6.5 0.924862 4
      vertex 6.5 -8.32376 4
      vertex 20.5 -20.5 4
    endloop
  endfacet
  facet normal -0 -0 129.481
    outer loop
      vertex -6.5 -8.32376 4
      vertex -6.5 0.924862 4
      vertex -20.5 -20.5 4
    endloop
  endfacet
  facet normal -0 -0 1.17491
    outer loop
      vertex -4.33333 16.7503 4
      vertex -4.33333 17.5911 4
      vertex -5.73073 16.7503 4
    endloop
  endfacet
  facet normal -0 0 -1681
    outer loop
      vertex -20.5 20.5 -4
      vertex 20.5 20.5 -4
      vertex -20.5 -20.5 -4
    endloop
  endfacet
  facet normal -0 0 -1681
    outer loop
      vertex -20.5 -20.5 -4
      vertex 20.5 20.5 -4
      vertex 20.5 -20.5 -4
    endloop
  endfacet
  facet normal -328 -0 0
    outer loop
      vertex -20.5 -20.5 4
      vertex -20.5 20.5 4
      vertex -20.5 -20.5 -4
    endloop
  endfacet
  facet normal -328 -0 0
    outer loop
      vertex -20.5 -20.5 -4
      vertex -20.5 20.5 4
      vertex -20.5 20.5 -4
    endloop
  endfacet
  facet normal -0 -328 0
    outer loop
      vertex -20.5 -20.5 -4
      vertex 20.5 -20.5 -4
      vertex 20.5 -20.5 4
    endloop
  endfacet
  facet normal -0 -328 0
    outer loop
      vertex -20.5 -20.5 4
      vertex -20.5 -20.5 -4
      vertex 20.5 -20.5 4
    endloop
  endfacet
  facet normal 9.67808e-15 22.9745 7.62516e-15
    outer loop
      vertex -6.5 -8.32376 4
      vertex -2.24545 -8.32376 4
      vertex -6.5 -8.32376 -1.4
    endloop
  endfacet
  facet normal 49.9425 0 0
    outer loop
      vertex -6.5 -8.32376 4
      vertex -6.5 -8.32376 -1.4
      vertex -6.5 0.924862 -1.4
    endloop
  endfacet
  facet normal 49.9425 0 0
    outer loop
      vertex -6.5 0.924862 4
      vertex -6.5 -8.32376 4
      vertex -6.5 0.924862 -1.4
    endloop
  endfacet
  facet normal 3.58448e-16 0.490029 4.2864e-17
    outer loop
      vertex -2.24545 -8.32376 4
      vertex -2.15471 -8.32376 4
      vertex -6.5 -8.32376 -1.4
    endloop
  endfacet
  facet normal 1.55707e-15 2.12865 1.86198e-16
    outer loop
      vertex -6.5 -8.32376 -1.4
      vertex -2.15471 -8.32376 4
      vertex -2.10371 -8.32376 3.57351
    endloop
  endfacet
  facet normal 0.306793 -1.04355e-15 0.036687
    outer loop
      vertex -2.15471 -8.46038 4
      vertex -2.10371 -9.04309 3.57351
      vertex -2.10371 -8.32376 3.57351
    endloop
  endfacet
  facet normal 0.0582709 -1.98206e-16 0.00696817
    outer loop
      vertex -2.15471 -8.32376 4
      vertex -2.15471 -8.46038 4
      vertex -2.10371 -8.32376 3.57351
    endloop
  endfacet
  facet normal 0.248522 6.45822e-16 0.0297189
    outer loop
      vertex -2.15471 -8.46038 4
      vertex -2.15471 -9.04309 4
      vertex -2.10371 -9.04309 3.57351
    endloop
  endfacet
  facet normal 0 0.159722 0
    outer loop
      vertex -1.61304 -9.04309 4
      vertex -1.57778 -9.04309 3.70513
      vertex -2.15471 -9.04309 4
    endloop
  endfacet
  facet normal 0 0.173611 0
    outer loop
      vertex -2.15471 -9.04309 4
      vertex -1.57778 -9.04309 3.70513
      vertex -1.43887 -9.04309 3.33321
    endloop
  endfacet
  facet normal 0 0.502776 0
    outer loop
      vertex -2.15471 -9.04309 4
      vertex -1.43887 -9.04309 3.33321
      vertex -1.91849 -9.04309 3.07761
    endloop
  endfacet
  facet normal 0 0.0537037 0
    outer loop
      vertex -2.15471 -9.04309 4
      vertex -1.91849 -9.04309 3.07761
      vertex -2.10371 -9.04309 3.57351
    endloop
  endfacet
  facet normal 2.81805 -2.91844e-16 0.336989
    outer loop
      vertex -1.61304 -11.4634 4
      vertex -1.57778 -18.6 3.70513
      vertex -1.57778 -9.04309 3.70513
    endloop
  endfacet
  facet normal 0.713664 -7.39087e-17 0.0853416
    outer loop
      vertex -1.61304 -9.04309 4
      vertex -1.61304 -11.4634 4
      vertex -1.57778 -9.04309 3.70513
    endloop
  endfacet
  facet normal 2.10439 2.05806e-16 0.251648
    outer loop
      vertex -1.61304 -11.4634 4
      vertex -1.61304 -18.6 4
      vertex -1.57778 -18.6 3.70513
    endloop
  endfacet
  facet normal 0 0.951278 0
    outer loop
      vertex 1.61304 -18.6 4
      vertex 1.57778 -18.6 3.70513
      vertex -1.61304 -18.6 4
    endloop
  endfacet
  facet normal 0 1.2277 0
    outer loop
      vertex -1.61304 -18.6 4
      vertex 1.57778 -18.6 3.70513
      vertex 1.43887 -18.6 3.33321
    endloop
  endfacet
  facet normal 0 1.14746 0
    outer loop
      vertex -1.61304 -18.6 4
      vertex 1.43887 -18.6 3.33321
      vertex 1.21633 -18.6 3.00585
    endloop
  endfacet
  facet normal 0 1.03782 0
    outer loop
      vertex -1.61304 -18.6 4
      vertex 1.21633 -18.6 3.00585
      vertex 0.923105 -18.6 2.74208
    endloop
  endfacet
  facet normal 0 0.905154 0
    outer loop
      vertex -1.61304 -18.6 4
      vertex 0.923105 -18.6 2.74208
      vertex 0.576233 -18.6 2.55722
    endloop
  endfacet
  facet normal 0 0.757179 0
    outer loop
      vertex -1.61304 -18.6 4
      vertex 0.576233 -18.6 2.55722
      vertex 0.195872 -18.6 2.46203
    endloop
  endfacet
  facet normal 0 0.602491 0
    outer loop
      vertex -1.61304 -18.6 4
      vertex 0.195872 -18.6 2.46203
      vertex -0.195872 -18.6 2.46203
    endloop
  endfacet
  facet normal 0 0.450079 0
    outer loop
      vertex -1.61304 -18.6 4
      vertex -0.195872 -18.6 2.46203
      vertex -0.576233 -18.6 2.55722
    endloop
  endfacet
  facet normal 0 0.308802 0
    outer loop
      vertex -1.61304 -18.6 4
      vertex -0.576233 -18.6 2.55722
      vertex -0.923105 -18.6 2.74208
    endloop
  endfacet
  facet normal 0 0.186869 0
    outer loop
      vertex -1.61304 -18.6 4
      vertex -0.923105 -18.6 2.74208
      vertex -1.21633 -18.6 3.00585
    endloop
  endfacet
  facet normal 0 0.0913675 0
    outer loop
      vertex -1.61304 -18.6 4
      vertex -1.21633 -18.6 3.00585
      vertex -1.43887 -18.6 3.33321
    endloop
  endfacet
  facet normal 0 0.0278473 0
    outer loop
      vertex -1.61304 -18.6 4
      vertex -1.43887 -18.6 3.33321
      vertex -1.57778 -18.6 3.70513
    endloop
  endfacet
  facet normal -2.10439 0 0.251648
    outer loop
      vertex 1.57778 -18.6 3.70513
      vertex 1.61304 -18.6 4
      vertex 1.61304 -11.4634 4
    endloop
  endfacet
  facet normal -0.713664 -3.48977e-17 0.0853416
    outer loop
      vertex 1.61304 -11.4634 4
      vertex 1.61304 -9.04309 4
      vertex 1.57778 -18.6 3.70513
    endloop
  endfacet
  facet normal -2.81805 -1.37801e-16 0.336989
    outer loop
      vertex 1.57778 -18.6 3.70513
      vertex 1.61304 -9.04309 4
      vertex 1.57778 -9.04309 3.70513
    endloop
  endfacet
  facet normal 0 0.159722 0
    outer loop
      vertex 2.15471 -9.04309 4
      vertex 1.57778 -9.04309 3.70513
      vertex 1.61304 -9.04309 4
    endloop
  endfacet
  facet normal 0 0.173611 0
    outer loop
      vertex 1.43887 -9.04309 3.33321
      vertex 1.57778 -9.04309 3.70513
      vertex 2.15471 -9.04309 4
    endloop
  endfacet
  facet normal 0 0.085952 0
    outer loop
      vertex 1.43887 -9.04309 3.33321
      vertex 2.15471 -9.04309 4
      vertex 1.21633 -9.04309 3.00585
    endloop
  endfacet
  facet normal 0 0.34951 0
    outer loop
      vertex 2.15471 -9.04309 4
      vertex 2.10371 -9.04309 3.57351
      vertex 1.21633 -9.04309 3.00585
    endloop
  endfacet
  facet normal 0 0.334906 0
    outer loop
      vertex 2.10371 -9.04309 3.57351
      vertex 1.91849 -9.04309 3.07761
      vertex 1.21633 -9.04309 3.00585
    endloop
  endfacet
  facet normal -0.248522 0 0.0297189
    outer loop
      vertex 2.10371 -9.04309 3.57351
      vertex 2.15471 -9.04309 4
      vertex 2.15471 -8.46038 4
    endloop
  endfacet
  facet normal -0.0582709 -3.78564e-17 0.00696817
    outer loop
      vertex 2.15471 -8.46038 4
      vertex 2.15471 -8.32376 4
      vertex 2.10371 -9.04309 3.57351
    endloop
  endfacet
  facet normal -0.306793 -1.99312e-16 0.036687
    outer loop
      vertex 2.10371 -9.04309 3.57351
      vertex 2.15471 -8.32376 4
      vertex 2.10371 -8.32376 3.57351
    endloop
  endfacet
  facet normal -2.83104e-17 0.0387027 3.38542e-18
    outer loop
      vertex 2.15471 -8.32376 4
      vertex 2.24545 -8.32376 4
      vertex 2.10371 -8.32376 3.57351
    endloop
  endfacet
  facet normal -1.88721e-15 2.57998 2.25676e-16
    outer loop
      vertex 2.10371 -8.32376 3.57351
      vertex 2.24545 -8.32376 4
      vertex 6.5 -8.32376 -1.4
    endloop
  endfacet
  facet normal -9.67808e-15 22.9745 7.62516e-15
    outer loop
      vertex 2.24545 -8.32376 4
      vertex 6.5 -8.32376 4
      vertex 6.5 -8.32376 -1.4
    endloop
  endfacet
  facet normal -49.9425 0 0
    outer loop
      vertex 6.5 0.924862 4
      vertex 6.5 0.924862 -1.4
      vertex 6.5 -8.32376 4
    endloop
  endfacet
  facet normal -49.9425 0 0
    outer loop
      vertex 6.5 -8.32376 4
      vertex 6.5 0.924862 -1.4
      vertex 6.5 -8.32376 -1.4
    endloop
  endfacet
  facet normal -1.97146e-14 -0.698349 0
    outer loop
      vertex 6.37068 0.924862 2.79885
      vertex 6.5 0.924862 -1.4
      vertex 6.5 0.924862 4
    endloop
  endfacet
  facet normal -3.37027e-16 -0.0119385 0
    outer loop
      vertex 6.49006 0.924862 4
      vertex 6.37068 0.924862 2.79885
      vertex 6.5 0.924862 4
    endloop
  endfacet
  facet normal -2.61739 0.00532148 0.260148
    outer loop
      vertex 6.49006 0.924862 4
      vertex 6.49449 3.10394 4
      vertex 6.37068 0.924862 2.79885
    endloop
  endfacet
  facet normal -17.7559 0.0360999 1.7648
    outer loop
      vertex 6.37068 0.924862 2.79885
      vertex 6.49449 3.10394 4
      vertex 6.45999 16.7503 3.37376
    endloop
  endfacet
  facet normal -8.54593 -0.0216048 -1.3576e-17
    outer loop
      vertex 6.45999 16.7503 4
      vertex 6.45999 16.7503 3.37376
      vertex 6.49449 3.10394 4
    endloop
  endfacet
  facet normal -5.04358e-17 -0.456695 -2.86978e-16
    outer loop
      vertex 5.73073 16.7503 4
      vertex 6.45999 16.7503 3.37376
      vertex 6.45999 16.7503 4
    endloop
  endfacet
  facet normal 6.8856e-16 -1.60437 -2.50096e-23
    outer loop
      vertex 4.33333 16.7503 3
      vertex 6.45999 16.7503 3.37376
      vertex 5.73073 16.7503 4
    endloop
  endfacet
  facet normal 5.99732e-16 -1.3974 -2.17832e-23
    outer loop
      vertex 4.33333 16.7503 4
      vertex 4.33333 16.7503 3
      vertex 5.73073 16.7503 4
    endloop
  endfacet
  facet normal -1.00894 0 3.66463e-08
    outer loop
      vertex 4.33333 16.7503 4
      vertex 4.33333 17.7592 4
      vertex 4.33333 16.7503 3
    endloop
  endfacet
  facet normal -1.84972 0 6.71849e-08
    outer loop
      vertex 4.33333 16.7503 3
      vertex 4.33333 17.7592 4
      vertex 4.33333 18.6 3
    endloop
  endfacet
  facet normal -0.840784 -6.45201e-23 3.05386e-08
    outer loop
      vertex 4.33333 18.6 3
      vertex 4.33333 17.7592 4
      vertex 4.33333 18.6 4
    endloop
  endfacet
  facet normal 0 -3.93939 1.63434e-15
    outer loop
      vertex 0.393939 18.6 4
      vertex 4.33333 18.6 3
      vertex 4.33333 18.6 4
    endloop
  endfacet
  facet normal -1.02004e-23 -8.66667 3.59554e-15
    outer loop
      vertex -4.33333 18.6 3
      vertex 4.33333 18.6 3
      vertex 0.393939 18.6 4
    endloop
  endfacet
  facet normal -5.56383e-24 -4.72727 1.9612e-15
    outer loop
      vertex -4.33333 18.6 4
      vertex -4.33333 18.6 3
      vertex 0.393939 18.6 4
    endloop
  endfacet
  facet normal 1.84972 0 -6.71849e-08
    outer loop
      vertex -4.33333 16.7503 3
      vertex -4.33333 18.6 3
      vertex -4.33333 18.6 4
    endloop
  endfacet
  facet normal 1.00894 0 -3.66463e-08
    outer loop
      vertex -4.33333 17.5911 4
      vertex -4.33333 16.7503 3
      vertex -4.33333 18.6 4
    endloop
  endfacet
  facet normal 0.840784 6.45201e-23 -3.05386e-08
    outer loop
      vertex -4.33333 16.7503 3
      vertex -4.33333 17.5911 4
      vertex -4.33333 16.7503 4
    endloop
  endfacet
  facet normal -9.12714e-16 -2.12666 3.31512e-23
    outer loop
      vertex -6.45999 16.7503 3.37376
      vertex -4.33333 16.7503 3
      vertex -4.33333 16.7503 4
    endloop
  endfacet
  facet normal -3.75578e-16 -0.875112 1.36416e-23
    outer loop
      vertex -5.73073 16.7503 4
      vertex -6.45999 16.7503 3.37376
      vertex -4.33333 16.7503 4
    endloop
  endfacet
  facet normal 5.04358e-17 -0.456694 -2.86978e-16
    outer loop
      vertex -6.45999 16.7503 4
      vertex -6.45999 16.7503 3.37376
      vertex -5.73073 16.7503 4
    endloop
  endfacet
  facet normal 8.54593 -0.021605 -1.35761e-17
    outer loop
      vertex -6.49449 3.10394 4
      vertex -6.45999 16.7503 3.37376
      vertex -6.45999 16.7503 4
    endloop
  endfacet
  facet normal 2.61739 0.00532145 0.260149
    outer loop
      vertex -6.49449 3.10394 4
      vertex -6.49006 0.924862 4
      vertex -6.37068 0.924862 2.79885
    endloop
  endfacet
  facet normal 17.7559 0.0360997 1.7648
    outer loop
      vertex -6.45999 16.7503 3.37376
      vertex -6.49449 3.10394 4
      vertex -6.37068 0.924862 2.79885
    endloop
  endfacet
  facet normal 1.85365e-14 -0.656617 0
    outer loop
      vertex -6.5 0.924862 -1.4
      vertex -6.37068 0.924862 2.79885
      vertex -6.49006 0.924862 4
    endloop
  endfacet
  facet normal 1.51517e-15 -0.0536719 0
    outer loop
      vertex -6.5 0.924862 4
      vertex -6.5 0.924862 -1.4
      vertex -6.49006 0.924862 4
    endloop
  endfacet
  facet normal 0 -5.08038e-14 120.232
    outer loop
      vertex -6.5 -8.32376 -1.4
      vertex 6.5 -8.32376 -1.4
      vertex 6.5 0.924862 -1.4
    endloop
  endfacet
  facet normal 0 -2.75154e-14 65.1178
    outer loop
      vertex -3.52041 0.924862 -1.4
      vertex -6.5 -8.32376 -1.4
      vertex 3.52041 0.924862 -1.4
    endloop
  endfacet
  facet normal 0 -1.16442e-14 27.5571
    outer loop
      vertex 3.52041 0.924862 -1.4
      vertex -6.5 -8.32376 -1.4
      vertex 6.5 0.924862 -1.4
    endloop
  endfacet
  facet normal 0 -1.16442e-14 27.5571
    outer loop
      vertex -6.5 0.924862 -1.4
      vertex -6.5 -8.32376 -1.4
      vertex -3.52041 0.924862 -1.4
    endloop
  endfacet
  facet normal 0 3.29559 0
    outer loop
      vertex -1.62177 -8.32376 2.64113
      vertex -1.23081 -8.32376 2.28944
      vertex -6.5 -8.32376 -1.4
    endloop
  endfacet
  facet normal 0 3.00505 0
    outer loop
      vertex -6.5 -8.32376 -1.4
      vertex -1.23081 -8.32376 2.28944
      vertex -0.768311 -8.32376 2.04296
    endloop
  endfacet
  facet normal 0 2.47358 0
    outer loop
      vertex -0.768311 -8.32376 2.04296
      vertex -0.261163 -8.32376 1.91604
      vertex -6.5 -8.32376 -1.4
    endloop
  endfacet
  facet normal 0 1.73205 0
    outer loop
      vertex -0.261163 -8.32376 1.91604
      vertex 0.261163 -8.32376 1.91604
      vertex -6.5 -8.32376 -1.4
    endloop
  endfacet
  facet normal 0 0.82357 0
    outer loop
      vertex 0.261163 -8.32376 1.91604
      vertex 0.768311 -8.32376 2.04296
      vertex -6.5 -8.32376 -1.4
    endloop
  endfacet
  facet normal 0 44.7585 0
    outer loop
      vertex 0.768311 -8.32376 2.04296
      vertex 6.5 -8.32376 -1.4
      vertex -6.5 -8.32376 -1.4
    endloop
  endfacet
  facet normal 0 3.29559 0
    outer loop
      vertex 1.23081 -8.32376 2.28944
      vertex 1.62177 -8.32376 2.64113
      vertex 6.5 -8.32376 -1.4
    endloop
  endfacet
  facet normal 0 3.00505 0
    outer loop
      vertex 1.23081 -8.32376 2.28944
      vertex 6.5 -8.32376 -1.4
      vertex 0.768311 -8.32376 2.04296
    endloop
  endfacet
  facet normal -1.47536e-14 3.32831 1.78097e-14
    outer loop
      vertex -6.5 -8.32376 -1.4
      vertex -1.91849 -8.32376 3.07761
      vertex -1.62177 -8.32376 2.64113
    endloop
  endfacet
  facet normal 1.81045e-15 3.1013 6.76208e-16
    outer loop
      vertex -6.5 -8.32376 -1.4
      vertex -2.10371 -8.32376 3.57351
      vertex -1.91849 -8.32376 3.07761
    endloop
  endfacet
  facet normal 4.55872e-15 -1.76862 1.39739e-15
    outer loop
      vertex -6.5 0.924862 -1.4
      vertex -5.98792 0.924862 1.55018
      vertex -6.37068 0.924862 2.79885
    endloop
  endfacet
  facet normal -6.58739e-15 -2.41809 4.1358e-15
    outer loop
      vertex -6.5 0.924862 -1.4
      vertex -5.36717 0.924862 0.404343
      vertex -5.98792 0.924862 1.55018
    endloop
  endfacet
  facet normal 6.58739e-15 -2.6335 -4.1358e-15
    outer loop
      vertex -6.5 0.924862 -1.4
      vertex -4.53346 0.924862 -0.592451
      vertex -5.36717 0.924862 0.404343
    endloop
  endfacet
  facet normal 0 -2.40617 1.08781e-14
    outer loop
      vertex -6.5 0.924862 -1.4
      vertex -3.52041 0.924862 -1.4
      vertex -4.53346 0.924862 -0.592451
    endloop
  endfacet
  facet normal 0.356717 -6.91388e-16 0.133235
    outer loop
      vertex -2.10371 -8.32376 3.57351
      vertex -1.91849 -9.04309 3.07761
      vertex -1.91849 -8.32376 3.07761
    endloop
  endfacet
  facet normal 0.356717 2.62909e-16 0.133235
    outer loop
      vertex -2.10371 -9.04309 3.57351
      vertex -1.91849 -9.04309 3.07761
      vertex -2.10371 -8.32376 3.57351
    endloop
  endfacet
  facet normal -9.3315e-16 0.285184 1.75103e-15
    outer loop
      vertex -1.91849 -9.04309 3.07761
      vertex -1.43887 -9.04309 3.33321
      vertex -1.62177 -9.04309 2.64113
    endloop
  endfacet
  facet normal 0.313975 9.58808e-16 0.213438
    outer loop
      vertex -1.91849 -9.04309 3.07761
      vertex -1.62177 -9.04309 2.64113
      vertex -1.91849 -8.32376 3.07761
    endloop
  endfacet
  facet normal 1.19514e-15 0.213888 8.12447e-16
    outer loop
      vertex -1.62177 -9.04309 2.64113
      vertex -1.43887 -9.04309 3.33321
      vertex -1.21633 -9.04309 3.00585
    endloop
  endfacet
  facet normal 3.12854 -1.50561e-16 2.12676
    outer loop
      vertex -1.43887 -9.04309 3.33321
      vertex -1.21633 -18.6 3.00585
      vertex -1.21633 -9.04309 3.00585
    endloop
  endfacet
  facet normal 3.12854 4.79404e-16 2.12676
    outer loop
      vertex -1.43887 -18.6 3.33321
      vertex -1.21633 -18.6 3.00585
      vertex -1.43887 -9.04309 3.33321
    endloop
  endfacet
  facet normal 3.55443 -3.45694e-16 1.32759
    outer loop
      vertex -1.57778 -9.04309 3.70513
      vertex -1.43887 -18.6 3.33321
      vertex -1.43887 -9.04309 3.33321
    endloop
  endfacet
  facet normal 3.55443 3.70028e-16 1.32759
    outer loop
      vertex -1.57778 -18.6 3.70513
      vertex -1.43887 -18.6 3.33321
      vertex -1.57778 -9.04309 3.70513
    endloop
  endfacet
  facet normal 2.52083 7.69044e-16 2.80232
    outer loop
      vertex -1.21633 -18.6 3.00585
      vertex -0.923105 -18.6 2.74208
      vertex -1.21633 -9.04309 3.00585
    endloop
  endfacet
  facet normal 2.52083 2.61446e-16 2.80232
    outer loop
      vertex -1.21633 -9.04309 3.00585
      vertex -0.923105 -18.6 2.74208
      vertex -0.923105 -9.04309 2.74208
    endloop
  endfacet
  facet normal 1.76663 1.28823e-15 3.31503
    outer loop
      vertex -0.923105 -18.6 2.74208
      vertex -0.576233 -18.6 2.55722
      vertex -0.576233 -9.04309 2.55722
    endloop
  endfacet
  facet normal 1.76663 1.28823e-15 3.31503
    outer loop
      vertex -0.923105 -9.04309 2.74208
      vertex -0.923105 -18.6 2.74208
      vertex -0.576233 -9.04309 2.55722
    endloop
  endfacet
  facet normal 0.909749 -9.15939e-16 3.63507
    outer loop
      vertex -0.576233 -18.6 2.55722
      vertex -0.195872 -18.6 2.46203
      vertex -0.195872 -9.04309 2.46203
    endloop
  endfacet
  facet normal 0.909749 2.24014e-15 3.63507
    outer loop
      vertex -0.576233 -18.6 2.55722
      vertex -0.195872 -9.04309 2.46203
      vertex -0.576233 -9.04309 2.55722
    endloop
  endfacet
  facet normal 0 0 3.74386
    outer loop
      vertex -0.195872 -18.6 2.46203
      vertex 0.195872 -18.6 2.46203
      vertex 0.195872 -9.04309 2.46203
    endloop
  endfacet
  facet normal 0 0 3.74386
    outer loop
      vertex -0.195872 -9.04309 2.46203
      vertex -0.195872 -18.6 2.46203
      vertex 0.195872 -9.04309 2.46203
    endloop
  endfacet
  facet normal -0.909749 9.15939e-16 3.63507
    outer loop
      vertex 0.195872 -18.6 2.46203
      vertex 0.576233 -18.6 2.55722
      vertex 0.195872 -9.04309 2.46203
    endloop
  endfacet
  facet normal -1.76663 6.73461e-17 3.31503
    outer loop
      vertex 0.576233 -18.6 2.55722
      vertex 0.923105 -18.6 2.74208
      vertex 0.576233 -9.04309 2.55722
    endloop
  endfacet
  facet normal -0.909749 -7.53693e-16 3.63507
    outer loop
      vertex 0.195872 -9.04309 2.46203
      vertex 0.576233 -18.6 2.55722
      vertex 0.576233 -9.04309 2.55722
    endloop
  endfacet
  facet normal -1.76663 1.06719e-15 3.31503
    outer loop
      vertex 0.576233 -9.04309 2.55722
      vertex 0.923105 -18.6 2.74208
      vertex 0.923105 -9.04309 2.74208
    endloop
  endfacet
  facet normal -2.52083 1.52279e-15 2.80232
    outer loop
      vertex 0.923105 -18.6 2.74208
      vertex 1.21633 -18.6 3.00585
      vertex 0.923105 -9.04309 2.74208
    endloop
  endfacet
  facet normal -3.12854 3.90263e-16 2.12676
    outer loop
      vertex 1.21633 -18.6 3.00585
      vertex 1.43887 -18.6 3.33321
      vertex 1.21633 -9.04309 3.00585
    endloop
  endfacet
  facet normal -2.52083 -1.30723e-16 2.80232
    outer loop
      vertex 0.923105 -9.04309 2.74208
      vertex 1.21633 -18.6 3.00585
      vertex 1.21633 -9.04309 3.00585
    endloop
  endfacet
  facet normal -3.55443 -5.42875e-16 1.32759
    outer loop
      vertex 1.43887 -18.6 3.33321
      vertex 1.57778 -18.6 3.70513
      vertex 1.57778 -9.04309 3.70513
    endloop
  endfacet
  facet normal -3.12854 -2.39702e-16 2.12676
    outer loop
      vertex 1.21633 -9.04309 3.00585
      vertex 1.43887 -18.6 3.33321
      vertex 1.43887 -9.04309 3.33321
    endloop
  endfacet
  facet normal -3.55443 1.72847e-16 1.32759
    outer loop
      vertex 1.43887 -18.6 3.33321
      vertex 1.57778 -9.04309 3.70513
      vertex 1.43887 -9.04309 3.33321
    endloop
  endfacet
  facet normal 3.68541e-16 0.213888 2.55074e-15
    outer loop
      vertex 0.923105 -9.04309 2.74208
      vertex 1.21633 -9.04309 3.00585
      vertex 1.62177 -9.04309 2.64113
    endloop
  endfacet
  facet normal -2.6199e-16 0.285184 2.56348e-15
    outer loop
      vertex 1.21633 -9.04309 3.00585
      vertex 1.91849 -9.04309 3.07761
      vertex 1.62177 -9.04309 2.64113
    endloop
  endfacet
  facet normal -0.313975 5.20351e-16 0.213438
    outer loop
      vertex 1.91849 -9.04309 3.07761
      vertex 1.91849 -8.32376 3.07761
      vertex 1.62177 -9.04309 2.64113
    endloop
  endfacet
  facet normal -0.313975 5.20351e-16 0.213438
    outer loop
      vertex 1.62177 -9.04309 2.64113
      vertex 1.91849 -8.32376 3.07761
      vertex 1.62177 -8.32376 2.64113
    endloop
  endfacet
  facet normal -0.356717 1.18476e-15 0.133235
    outer loop
      vertex 1.91849 -9.04309 3.07761
      vertex 2.10371 -9.04309 3.57351
      vertex 1.91849 -8.32376 3.07761
    endloop
  endfacet
  facet normal -0.356717 -7.23834e-16 0.133235
    outer loop
      vertex 1.91849 -8.32376 3.07761
      vertex 2.10371 -9.04309 3.57351
      vertex 2.10371 -8.32376 3.57351
    endloop
  endfacet
  facet normal -1.81045e-15 3.1013 6.76208e-16
    outer loop
      vertex 1.91849 -8.32376 3.07761
      vertex 2.10371 -8.32376 3.57351
      vertex 6.5 -8.32376 -1.4
    endloop
  endfacet
  facet normal 1.47536e-14 3.32831 1.78097e-14
    outer loop
      vertex 1.62177 -8.32376 2.64113
      vertex 1.91849 -8.32376 3.07761
      vertex 6.5 -8.32376 -1.4
    endloop
  endfacet
  facet normal 0 -2.40617 1.08781e-14
    outer loop
      vertex 3.52041 0.924862 -1.4
      vertex 6.5 0.924862 -1.4
      vertex 4.53346 0.924862 -0.592451
    endloop
  endfacet
  facet normal -6.58739e-15 -2.6335 -4.1358e-15
    outer loop
      vertex 4.53346 0.924862 -0.592451
      vertex 6.5 0.924862 -1.4
      vertex 5.36717 0.924862 0.404343
    endloop
  endfacet
  facet normal 6.58739e-15 -2.41809 4.1358e-15
    outer loop
      vertex 5.36717 0.924862 0.404343
      vertex 6.5 0.924862 -1.4
      vertex 5.98792 0.924862 1.55018
    endloop
  endfacet
  facet normal -4.55872e-15 -1.76862 1.39739e-15
    outer loop
      vertex 5.98792 0.924862 1.55018
      vertex 6.5 0.924862 -1.4
      vertex 6.37068 0.924862 2.79885
    endloop
  endfacet
  facet normal -19.7608 0.0376748 6.05727
    outer loop
      vertex 5.98792 0.924862 1.55018
      vertex 6.37068 0.924862 2.79885
      vertex 6.14292 16.7503 1.9574
    endloop
  endfacet
  facet normal -22.4144 -0.0557843 5.01784
    outer loop
      vertex 6.14292 16.7503 1.9574
      vertex 6.37068 0.924862 2.79885
      vertex 6.45999 16.7503 3.37376
    endloop
  endfacet
  facet normal 9.51595e-16 -2.8936 1.65163e-15
    outer loop
      vertex 4.33333 16.7503 3
      vertex 6.14292 16.7503 1.9574
      vertex 6.45999 16.7503 3.37376
    endloop
  endfacet
  facet normal 0 0 3.42403
    outer loop
      vertex 2.48223 16.7503 3
      vertex 4.33333 16.7503 3
      vertex 4.33333 18.6 3
    endloop
  endfacet
  facet normal 0 0 1.52179
    outer loop
      vertex 2.48223 17.5724 3
      vertex 2.48223 16.7503 3
      vertex 4.33333 18.6 3
    endloop
  endfacet
  facet normal -1.90319e-15 -3.01484 -3.30326e-15
    outer loop
      vertex 4.33333 16.7503 3
      vertex 5.52454 16.7503 0.647638
      vertex 6.14292 16.7503 1.9574
    endloop
  endfacet
  facet normal 2.07735e-15 -3.44664 -1.62264e-15
    outer loop
      vertex 4.33333 16.7503 3
      vertex 4.63563 16.7503 -0.490367
      vertex 5.52454 16.7503 0.647638
    endloop
  endfacet
  facet normal 1.00347e-15 -7.72791 -3.95471e-15
    outer loop
      vertex 2.16688 16.7503 2.45028
      vertex 4.63563 16.7503 -0.490367
      vertex 4.33333 16.7503 3
    endloop
  endfacet
  facet normal 0 -1.01758 0
    outer loop
      vertex 2.16688 16.7503 2.45028
      vertex 4.33333 16.7503 3
      vertex 2.48223 16.7503 3
    endloop
  endfacet
  facet normal -2.52661e-08 4.55129e-08 8.90608
    outer loop
      vertex -4.33333 18.6 3
      vertex 2.48223 17.5724 3
      vertex 4.33333 18.6 3
    endloop
  endfacet
  facet normal 0 1.2206e-07 5.1016
    outer loop
      vertex -4.33333 18.6 3
      vertex -2.48223 17.5724 3
      vertex 2.48223 17.5724 3
    endloop
  endfacet
  facet normal -2.02129e-08 0 1.52179
    outer loop
      vertex -4.33333 16.7503 3
      vertex -2.48223 16.7503 3
      vertex -2.48223 17.5724 3
    endloop
  endfacet
  facet normal -4.54789e-08 0 3.42403
    outer loop
      vertex -4.33333 18.6 3
      vertex -4.33333 16.7503 3
      vertex -2.48223 17.5724 3
    endloop
  endfacet
  facet normal 0 -1.01758 0
    outer loop
      vertex -4.33333 16.7503 3
      vertex -2.16688 16.7503 2.45028
      vertex -2.48223 16.7503 3
    endloop
  endfacet
  facet normal -1.00347e-15 -7.72791 -3.95471e-15
    outer loop
      vertex -4.63563 16.7503 -0.490367
      vertex -2.16688 16.7503 2.45028
      vertex -4.33333 16.7503 3
    endloop
  endfacet
  facet normal -2.07735e-15 -3.44664 -1.62264e-15
    outer loop
      vertex -5.52454 16.7503 0.647638
      vertex -4.63563 16.7503 -0.490367
      vertex -4.33333 16.7503 3
    endloop
  endfacet
  facet normal 1.90319e-15 -3.01484 -3.30326e-15
    outer loop
      vertex -6.14292 16.7503 1.9574
      vertex -5.52454 16.7503 0.647638
      vertex -4.33333 16.7503 3
    endloop
  endfacet
  facet normal -9.51595e-16 -2.8936 1.65163e-15
    outer loop
      vertex -6.45999 16.7503 3.37376
      vertex -6.14292 16.7503 1.9574
      vertex -4.33333 16.7503 3
    endloop
  endfacet
  facet normal 22.4144 -0.0557843 5.01784
    outer loop
      vertex -6.45999 16.7503 3.37376
      vertex -6.37068 0.924862 2.79885
      vertex -6.14292 16.7503 1.9574
    endloop
  endfacet
  facet normal 19.7608 0.0376748 6.05727
    outer loop
      vertex -6.37068 0.924862 2.79885
      vertex -5.98792 0.924862 1.55018
      vertex -6.14292 16.7503 1.9574
    endloop
  endfacet
  facet normal 0 0 111.424
    outer loop
      vertex -3.52041 0.924862 -1.4
      vertex 3.52041 0.924862 -1.4
      vertex 3.52041 16.7503 -1.4
    endloop
  endfacet
  facet normal 0 0 111.424
    outer loop
      vertex -3.52041 16.7503 -1.4
      vertex -3.52041 0.924862 -1.4
      vertex 3.52041 16.7503 -1.4
    endloop
  endfacet
  facet normal 12.7798 0 16.0319
    outer loop
      vertex -4.53346 0.924862 -0.592451
      vertex -3.52041 0.924862 -1.4
      vertex -3.52041 16.7503 -1.4
    endloop
  endfacet
  facet normal -12.7798 0 16.0319
    outer loop
      vertex 3.52041 0.924862 -1.4
      vertex 4.53346 0.924862 -0.592451
      vertex 3.52041 16.7503 -1.4
    endloop
  endfacet
  facet normal -0.252987 -1.74298e-16 0.281237
    outer loop
      vertex 1.23081 -8.32376 2.28944
      vertex 1.62177 -9.04309 2.64113
      vertex 1.62177 -8.32376 2.64113
    endloop
  endfacet
  facet normal -0.177296 -1.71763e-15 0.332691
    outer loop
      vertex 0.768311 -8.32376 2.04296
      vertex 1.23081 -9.04309 2.28944
      vertex 1.23081 -8.32376 2.28944
    endloop
  endfacet
  facet normal -0.252987 -3.48595e-16 0.281237
    outer loop
      vertex 1.23081 -9.04309 2.28944
      vertex 1.62177 -9.04309 2.64113
      vertex 1.23081 -8.32376 2.28944
    endloop
  endfacet
  facet normal -0.091301 -5.16423e-16 0.36481
    outer loop
      vertex 0.261163 -8.32376 1.91604
      vertex 0.768311 -9.04309 2.04296
      vertex 0.768311 -8.32376 2.04296
    endloop
  endfacet
  facet normal -0.177296 1.03841e-15 0.332691
    outer loop
      vertex 0.768311 -9.04309 2.04296
      vertex 1.23081 -9.04309 2.28944
      vertex 0.768311 -8.32376 2.04296
    endloop
  endfacet
  facet normal -0.091301 1.70975e-15 0.36481
    outer loop
      vertex 0.261163 -9.04309 1.91604
      vertex 0.768311 -9.04309 2.04296
      vertex 0.261163 -8.32376 1.91604
    endloop
  endfacet
  facet normal 0 0 0.375728
    outer loop
      vertex -0.261163 -9.04309 1.91604
      vertex 0.261163 -9.04309 1.91604
      vertex 0.261163 -8.32376 1.91604
    endloop
  endfacet
  facet normal 0 0 0.375728
    outer loop
      vertex -0.261163 -8.32376 1.91604
      vertex -0.261163 -9.04309 1.91604
      vertex 0.261163 -8.32376 1.91604
    endloop
  endfacet
  facet normal 0.091301 -1.4655e-15 0.36481
    outer loop
      vertex -0.768311 -9.04309 2.04296
      vertex -0.261163 -9.04309 1.91604
      vertex -0.261163 -8.32376 1.91604
    endloop
  endfacet
  facet normal 0.091301 -1.4655e-15 0.36481
    outer loop
      vertex -0.768311 -8.32376 2.04296
      vertex -0.768311 -9.04309 2.04296
      vertex -0.261163 -8.32376 1.91604
    endloop
  endfacet
  facet normal 0.177296 -2.84584e-15 0.332691
    outer loop
      vertex -1.23081 -8.32376 2.28944
      vertex -0.768311 -9.04309 2.04296
      vertex -0.768311 -8.32376 2.04296
    endloop
  endfacet
  facet normal 0.177296 -8.01254e-16 0.332691
    outer loop
      vertex -1.23081 -9.04309 2.28944
      vertex -0.768311 -9.04309 2.04296
      vertex -1.23081 -8.32376 2.28944
    endloop
  endfacet
  facet normal 0.252987 -2.19449e-15 0.281237
    outer loop
      vertex -1.62177 -8.32376 2.64113
      vertex -1.23081 -9.04309 2.28944
      vertex -1.23081 -8.32376 2.28944
    endloop
  endfacet
  facet normal 0.252987 3.48595e-16 0.281237
    outer loop
      vertex -1.62177 -9.04309 2.64113
      vertex -1.23081 -9.04309 2.28944
      vertex -1.62177 -8.32376 2.64113
    endloop
  endfacet
  facet normal 0.313975 -1.0407e-15 0.213438
    outer loop
      vertex -1.91849 -8.32376 3.07761
      vertex -1.62177 -9.04309 2.64113
      vertex -1.62177 -8.32376 2.64113
    endloop
  endfacet
  facet normal 20.7275 -0.0488052 9.78605
    outer loop
      vertex -6.14292 16.7503 1.9574
      vertex -5.98792 0.924862 1.55018
      vertex -5.52454 16.7503 0.647638
    endloop
  endfacet
  facet normal 18.1334 0.0292977 9.82365
    outer loop
      vertex -5.98792 0.924862 1.55018
      vertex -5.36717 0.924862 0.404343
      vertex -5.52454 16.7503 0.647638
    endloop
  endfacet
  facet normal 18.0094 -0.0371771 14.0674
    outer loop
      vertex -5.52454 16.7503 0.647638
      vertex -5.36717 0.924862 0.404343
      vertex -4.63563 16.7503 -0.490367
    endloop
  endfacet
  facet normal 15.7747 0.0167374 13.1938
    outer loop
      vertex -5.36717 0.924862 0.404343
      vertex -4.53346 0.924862 -0.592451
      vertex -4.63563 16.7503 -0.490367
    endloop
  endfacet
  facet normal 14.3953 -0.020906 17.6489
    outer loop
      vertex -4.63563 16.7503 -0.490367
      vertex -4.53346 0.924862 -0.592451
      vertex -3.52041 16.7503 -1.4
    endloop
  endfacet
  facet normal 0 0.164167 0
    outer loop
      vertex -0.923105 -9.04309 2.74208
      vertex -0.576233 -9.04309 2.55722
      vertex -1.62177 -9.04309 2.64113
    endloop
  endfacet
  facet normal 0 0.067613 0
    outer loop
      vertex -1.62177 -9.04309 2.64113
      vertex -0.576233 -9.04309 2.55722
      vertex -0.195872 -9.04309 2.46203
    endloop
  endfacet
  facet normal 0 0.164167 0
    outer loop
      vertex 0.576233 -9.04309 2.55722
      vertex 0.923105 -9.04309 2.74208
      vertex 1.62177 -9.04309 2.64113
    endloop
  endfacet
  facet normal 0 0.067613 0
    outer loop
      vertex 0.576233 -9.04309 2.55722
      vertex 1.62177 -9.04309 2.64113
      vertex 0.195872 -9.04309 2.46203
    endloop
  endfacet
  facet normal 0 0.43146 0
    outer loop
      vertex 0.195872 -9.04309 2.46203
      vertex 1.62177 -9.04309 2.64113
      vertex 1.23081 -9.04309 2.28944
    endloop
  endfacet
  facet normal 0 0.067613 0
    outer loop
      vertex 0.195872 -9.04309 2.46203
      vertex 1.23081 -9.04309 2.28944
      vertex -0.195872 -9.04309 2.46203
    endloop
  endfacet
  facet normal 0 0.43146 0
    outer loop
      vertex -0.195872 -9.04309 2.46203
      vertex 1.23081 -9.04309 2.28944
      vertex 0.768311 -9.04309 2.04296
    endloop
  endfacet
  facet normal 0 0.424862 0
    outer loop
      vertex -0.195872 -9.04309 2.46203
      vertex 0.768311 -9.04309 2.04296
      vertex -1.62177 -9.04309 2.64113
    endloop
  endfacet
  facet normal 0 0.606717 0
    outer loop
      vertex -1.62177 -9.04309 2.64113
      vertex 0.768311 -9.04309 2.04296
      vertex 0.261163 -9.04309 1.91604
    endloop
  endfacet
  facet normal 0 0.378733 0
    outer loop
      vertex -1.62177 -9.04309 2.64113
      vertex 0.261163 -9.04309 1.91604
      vertex -0.261163 -9.04309 1.91604
    endloop
  endfacet
  facet normal 0 0.195034 0
    outer loop
      vertex -1.62177 -9.04309 2.64113
      vertex -0.261163 -9.04309 1.91604
      vertex -0.768311 -9.04309 2.04296
    endloop
  endfacet
  facet normal 0 0.0662955 0
    outer loop
      vertex -1.62177 -9.04309 2.64113
      vertex -0.768311 -9.04309 2.04296
      vertex -1.23081 -9.04309 2.28944
    endloop
  endfacet
  facet normal -3.68541e-16 0.213888 2.55074e-15
    outer loop
      vertex -1.62177 -9.04309 2.64113
      vertex -1.21633 -9.04309 3.00585
      vertex -0.923105 -9.04309 2.74208
    endloop
  endfacet
  facet normal -14.3953 -0.020906 17.6489
    outer loop
      vertex 3.52041 16.7503 -1.4
      vertex 4.53346 0.924862 -0.592451
      vertex 4.63563 16.7503 -0.490367
    endloop
  endfacet
  facet normal -15.7747 0.0167374 13.1938
    outer loop
      vertex 4.53346 0.924862 -0.592451
      vertex 5.36717 0.924862 0.404343
      vertex 4.63563 16.7503 -0.490367
    endloop
  endfacet
  facet normal -18.0094 -0.0371771 14.0674
    outer loop
      vertex 4.63563 16.7503 -0.490367
      vertex 5.36717 0.924862 0.404343
      vertex 5.52454 16.7503 0.647638
    endloop
  endfacet
  facet normal -18.1334 0.0292977 9.82365
    outer loop
      vertex 5.36717 0.924862 0.404343
      vertex 5.98792 0.924862 1.55018
      vertex 5.52454 16.7503 0.647638
    endloop
  endfacet
  facet normal -20.7275 -0.0488052 9.78605
    outer loop
      vertex 5.52454 16.7503 0.647638
      vertex 5.98792 0.924862 1.55018
      vertex 6.14292 16.7503 1.9574
    endloop
  endfacet
  facet normal -0.451923 0 0.259252
    outer loop
      vertex 2.16688 16.7503 2.45028
      vertex 2.48223 16.7503 3
      vertex 2.48223 17.5724 3
    endloop
  endfacet
  facet normal 0 -0.0915893 0
    outer loop
      vertex -2.48223 17.5724 3
      vertex -2.16688 17.5724 2.45028
      vertex -1.73556 17.5724 1.98885
    endloop
  endfacet
  facet normal 0 -2.38234 0
    outer loop
      vertex 2.16688 17.5724 2.45028
      vertex -2.48223 17.5724 3
      vertex 1.73556 17.5724 1.98885
    endloop
  endfacet
  facet normal 0 -3.50981 0
    outer loop
      vertex 1.73556 17.5724 1.98885
      vertex -2.48223 17.5724 3
      vertex -1.73556 17.5724 1.98885
    endloop
  endfacet
  facet normal 0 -2.72905 0
    outer loop
      vertex 2.48223 17.5724 3
      vertex -2.48223 17.5724 3
      vertex 2.16688 17.5724 2.45028
    endloop
  endfacet
  facet normal -0.451923 3.49053e-16 0.259252
    outer loop
      vertex 2.16688 17.5724 2.45028
      vertex 2.16688 16.7503 2.45028
      vertex 2.48223 17.5724 3
    endloop
  endfacet
  facet normal 6.1861e-15 -5.40289 3.25811e-15
    outer loop
      vertex 1.73556 16.7503 1.98885
      vertex 3.52041 16.7503 -1.4
      vertex 4.63563 16.7503 -0.490367
    endloop
  endfacet
  facet normal 8.42307e-16 -2.40751 -7.87339e-16
    outer loop
      vertex 1.73556 16.7503 1.98885
      vertex 4.63563 16.7503 -0.490367
      vertex 2.16688 16.7503 2.45028
    endloop
  endfacet
  facet normal -0.379341 1.59522e-15 0.354586
    outer loop
      vertex 1.73556 16.7503 1.98885
      vertex 2.16688 16.7503 2.45028
      vertex 1.73556 17.5724 1.98885
    endloop
  endfacet
  facet normal -0.379341 1.59522e-15 0.354586
    outer loop
      vertex 1.73556 17.5724 1.98885
      vertex 2.16688 16.7503 2.45028
      vertex 2.16688 17.5724 2.45028
    endloop
  endfacet
  facet normal 0.451923 0 0.259252
    outer loop
      vertex -2.48223 16.7503 3
      vertex -2.16688 16.7503 2.45028
      vertex -2.16688 17.5724 2.45028
    endloop
  endfacet
  facet normal 0.451923 0 0.259252
    outer loop
      vertex -2.48223 17.5724 3
      vertex -2.48223 16.7503 3
      vertex -2.16688 17.5724 2.45028
    endloop
  endfacet
  facet normal -8.42307e-16 -2.40751 -7.87339e-16
    outer loop
      vertex -4.63563 16.7503 -0.490367
      vertex -1.73556 16.7503 1.98885
      vertex -2.16688 16.7503 2.45028
    endloop
  endfacet
  facet normal 0.379341 0 0.354586
    outer loop
      vertex -2.16688 16.7503 2.45028
      vertex -1.73556 16.7503 1.98885
      vertex -2.16688 17.5724 2.45028
    endloop
  endfacet
  facet normal -6.1861e-15 -5.40289 3.25811e-15
    outer loop
      vertex -4.63563 16.7503 -0.490367
      vertex -3.52041 16.7503 -1.4
      vertex -1.73556 16.7503 1.98885
    endloop
  endfacet
  facet normal 0 -19.3622 1.28525e-14
    outer loop
      vertex -3.52041 16.7503 -1.4
      vertex 3.52041 16.7503 -1.4
      vertex -1.45286e-07 16.7503 1.35
    endloop
  endfacet
  facet normal 6.1861e-15 -2.39836 -3.25811e-15
    outer loop
      vertex -3.52041 16.7503 -1.4
      vertex -1.21136 16.7503 1.6404
      vertex -1.73556 16.7503 1.98885
    endloop
  endfacet
  facet normal 3.95787e-16 -2.29152 1.07523e-15
    outer loop
      vertex -3.52041 16.7503 -1.4
      vertex -0.622332 16.7503 1.42359
      vertex -1.21136 16.7503 1.6404
    endloop
  endfacet
  facet normal 1.34325e-16 -1.97046 1.13602e-15
    outer loop
      vertex -3.52041 16.7503 -1.4
      vertex -1.45286e-07 16.7503 1.35
      vertex -0.622332 16.7503 1.42359
    endloop
  endfacet
  facet normal -1.34325e-16 -1.97046 1.13602e-15
    outer loop
      vertex -1.45286e-07 16.7503 1.35
      vertex 3.52041 16.7503 -1.4
      vertex 0.622332 16.7503 1.42359
    endloop
  endfacet
  facet normal -3.95787e-16 -2.29152 1.07523e-15
    outer loop
      vertex 0.622332 16.7503 1.42359
      vertex 3.52041 16.7503 -1.4
      vertex 1.21136 16.7503 1.6404
    endloop
  endfacet
  facet normal -6.1861e-15 -2.39836 -3.25811e-15
    outer loop
      vertex 1.21136 16.7503 1.6404
      vertex 3.52041 16.7503 -1.4
      vertex 1.73556 16.7503 1.98885
    endloop
  endfacet
  facet normal -0.286459 2.75602e-15 0.430944
    outer loop
      vertex 1.21136 16.7503 1.6404
      vertex 1.73556 16.7503 1.98885
      vertex 1.73556 17.5724 1.98885
    endloop
  endfacet
  facet normal -0.286459 2.75602e-15 0.430944
    outer loop
      vertex 1.21136 17.5724 1.6404
      vertex 1.21136 16.7503 1.6404
      vertex 1.73556 17.5724 1.98885
    endloop
  endfacet
  facet normal 1.97893e-16 -0.0915893 -5.37613e-16
    outer loop
      vertex 0.622332 17.5724 1.42359
      vertex 1.21136 17.5724 1.6404
      vertex 1.73556 17.5724 1.98885
    endloop
  endfacet
  facet normal 6.71625e-17 -0.269866 -5.68011e-16
    outer loop
      vertex -1.45286e-07 17.5724 1.35
      vertex 0.622332 17.5724 1.42359
      vertex 1.73556 17.5724 1.98885
    endloop
  endfacet
  facet normal -6.71625e-17 -0.52529 -5.68011e-16
    outer loop
      vertex -0.622332 17.5724 1.42359
      vertex -1.45286e-07 17.5724 1.35
      vertex 1.73556 17.5724 1.98885
    endloop
  endfacet
  facet normal -1.97893e-16 -0.844192 -5.37613e-16
    outer loop
      vertex -1.21136 17.5724 1.6404
      vertex -0.622332 17.5724 1.42359
      vertex 1.73556 17.5724 1.98885
    endloop
  endfacet
  facet normal 0 -1.2095 -3.16813e-15
    outer loop
      vertex -1.73556 17.5724 1.98885
      vertex -1.21136 17.5724 1.6404
      vertex 1.73556 17.5724 1.98885
    endloop
  endfacet
  facet normal 0.286459 0 0.430944
    outer loop
      vertex -1.73556 17.5724 1.98885
      vertex -1.21136 16.7503 1.6404
      vertex -1.21136 17.5724 1.6404
    endloop
  endfacet
  facet normal 0.286459 -3.35275e-16 0.430944
    outer loop
      vertex -1.73556 16.7503 1.98885
      vertex -1.21136 16.7503 1.6404
      vertex -1.73556 17.5724 1.98885
    endloop
  endfacet
  facet normal 0.379341 -4.43985e-16 0.354586
    outer loop
      vertex -2.16688 17.5724 2.45028
      vertex -1.73556 16.7503 1.98885
      vertex -1.73556 17.5724 1.98885
    endloop
  endfacet
  facet normal 0.0604946 1.41607e-16 0.511619
    outer loop
      vertex -0.622332 17.5724 1.42359
      vertex -0.622332 16.7503 1.42359
      vertex -1.45286e-07 16.7503 1.35
    endloop
  endfacet
  facet normal 0.0604946 2.83214e-16 0.511619
    outer loop
      vertex -0.622332 17.5724 1.42359
      vertex -1.45286e-07 16.7503 1.35
      vertex -1.45286e-07 17.5724 1.35
    endloop
  endfacet
  facet normal -0.0604946 -2.83214e-16 0.511619
    outer loop
      vertex -1.45286e-07 17.5724 1.35
      vertex -1.45286e-07 16.7503 1.35
      vertex 0.622332 16.7503 1.42359
    endloop
  endfacet
  facet normal -0.0604946 -2.83214e-16 0.511619
    outer loop
      vertex 0.622332 17.5724 1.42359
      vertex -1.45286e-07 17.5724 1.35
      vertex 0.622332 16.7503 1.42359
    endloop
  endfacet
  facet normal 0.178246 0 0.484239
    outer loop
      vertex -1.21136 16.7503 1.6404
      vertex -0.622332 17.5724 1.42359
      vertex -1.21136 17.5724 1.6404
    endloop
  endfacet
  facet normal 0.178246 4.17243e-16 0.484239
    outer loop
      vertex -1.21136 16.7503 1.6404
      vertex -0.622332 16.7503 1.42359
      vertex -0.622332 17.5724 1.42359
    endloop
  endfacet
  facet normal -0.178246 -8.34486e-16 0.484239
    outer loop
      vertex 0.622332 17.5724 1.42359
      vertex 0.622332 16.7503 1.42359
      vertex 1.21136 17.5724 1.6404
    endloop
  endfacet
  facet normal -0.178246 3.76933e-15 0.484239
    outer loop
      vertex 0.622332 16.7503 1.42359
      vertex 1.21136 16.7503 1.6404
      vertex 1.21136 17.5724 1.6404
    endloop
  endfacet
endsolid polyhedron
