solid polyhedron
  facet normal -320 -0 0
    outer loop
      vertex -20 -20 4
      vertex -20 20 4
      vertex -20 -20 -4
    endloop
  endfacet
  facet normal -320 -0 0
    outer loop
      vertex -20 -20 -4
      vertex -20 20 4
      vertex -20 20 -4
    endloop
  endfacet
  facet normal -0 0 540
    outer loop
      vertex 6.5 -0.924862 4
      vertex 20 -20 4
      vertex 20 20 4
    endloop
  endfacet
  facet normal -0 -0 540
    outer loop
      vertex -20 20 4
      vertex -20 -20 4
      vertex -6.5 -0.924862 4
    endloop
  endfacet
  facet normal -0 -0 44.5012
    outer loop
      vertex 1.61304 18.6 4
      vertex 1.61304 16.1797 4
      vertex 20 20 4
    endloop
  endfacet
  facet normal -0 0 124.856
    outer loop
      vertex -20 20 4
      vertex -6.5 -0.924862 4
      vertex -6.5 8.32376 4
    endloop
  endfacet
  facet normal 0 0 50.7367
    outer loop
      vertex 2.15471 8.32376 4
      vertex 6.5 8.32376 4
      vertex 20 20 4
    endloop
  endfacet
  facet normal 0 0 2.53204
    outer loop
      vertex -6.5 8.32376 4
      vertex -2.15471 8.32376 4
      vertex -2.15471 8.90647 4
    endloop
  endfacet
  facet normal -0 -0 131.221
    outer loop
      vertex 1.61304 16.1797 4
      vertex 1.61304 9.04309 4
      vertex 20 20 4
    endloop
  endfacet
  facet normal 0 0 0.593687
    outer loop
      vertex -6.5 8.32376 4
      vertex -2.15471 8.90647 4
      vertex -2.15471 9.04309 4
    endloop
  endfacet
  facet normal -0 -0 124.856
    outer loop
      vertex 6.5 8.32376 4
      vertex 6.5 -0.924862 4
      vertex 20 20 4
    endloop
  endfacet
  facet normal -0 0 163.117
    outer loop
      vertex -20 20 4
      vertex -6.5 8.32376 4
      vertex -1.61304 16.1797 4
    endloop
  endfacet
  facet normal -0 0 56
    outer loop
      vertex -20 20 4
      vertex -1.61304 18.6 4
      vertex 20 20 4
    endloop
  endfacet
  facet normal -0 0 44.5012
    outer loop
      vertex -20 20 4
      vertex -1.61304 16.1797 4
      vertex -1.61304 18.6 4
    endloop
  endfacet
  facet normal 0 0 4.51652
    outer loop
      vertex -1.61304 18.6 4
      vertex 1.61304 18.6 4
      vertex 20 20 4
    endloop
  endfacet
  facet normal 0 0 5.93499
    outer loop
      vertex 1.61304 9.04309 4
      vertex 2.15471 9.04309 4
      vertex 20 20 4
    endloop
  endfacet
  facet normal -0 -0 10.3986
    outer loop
      vertex 2.15471 9.04309 4
      vertex 2.15471 8.46038 4
      vertex 20 20 4
    endloop
  endfacet
  facet normal -0 -0 2.43816
    outer loop
      vertex 2.15471 8.46038 4
      vertex 2.15471 8.32376 4
      vertex 20 20 4
    endloop
  endfacet
  facet normal -0 0 29.5226
    outer loop
      vertex 6.49449 -3.10394 4
      vertex 20 -20 4
      vertex 6.5 -0.924862 4
    endloop
  endfacet
  facet normal -0 0 0.0216583
    outer loop
      vertex 6.49006 -0.924862 4
      vertex 6.49449 -3.10394 4
      vertex 6.5 -0.924862 4
    endloop
  endfacet
  facet normal -0 0 184.884
    outer loop
      vertex 6.45999 -16.7503 4
      vertex 20 -20 4
      vertex 6.49449 -3.10394 4
    endloop
  endfacet
  facet normal -0 0 20.7596
    outer loop
      vertex 3.575 -17.5911 4
      vertex 20 -20 4
      vertex 6.45999 -16.7503 4
    endloop
  endfacet
  facet normal -0 0 5.14104e-16
    outer loop
      vertex -1.59732 -17.5724 4
      vertex 1.56028 -17.5724 4
      vertex 0.311949 -17.5724 4
    endloop
  endfacet
  facet normal -0 0 16.5718
    outer loop
      vertex 3.575 -18.6 4
      vertex 20 -20 4
      vertex 3.575 -17.5911 4
    endloop
  endfacet
  facet normal 0 0 56
    outer loop
      vertex -20 -20 4
      vertex 20 -20 4
      vertex 3.575 -18.6 4
    endloop
  endfacet
  facet normal -0 0 2.38779e-16
    outer loop
      vertex 0.311949 -17.5724 4
      vertex 1.56028 -17.5724 4
      vertex 1.03294 -17.5724 4
    endloop
  endfacet
  facet normal 0 0 0.606667
    outer loop
      vertex -20 -20 4
      vertex 3.575 -18.6 4
      vertex 3.14167 -18.6 4
    endloop
  endfacet
  facet normal -0 0 0.00641476
    outer loop
      vertex -2.74773 -16.7503 4
      vertex -2.69638 -16.8752 4
      vertex -2.69638 -16.7503 4
    endloop
  endfacet
  facet normal -0 0 0.31045
    outer loop
      vertex -3.14167 -16.7503 4
      vertex -2.69638 -17.5724 4
      vertex -2.69638 -16.8752 4
    endloop
  endfacet
  facet normal -0 0 3.71588e-16
    outer loop
      vertex -1.59732 -17.5724 4
      vertex -0.420373 -17.5724 4
      vertex -0.730543 -17.5724 4
    endloop
  endfacet
  facet normal -0 -0 184.884
    outer loop
      vertex -6.45999 -16.7503 4
      vertex -6.49449 -3.10394 4
      vertex -20 -20 4
    endloop
  endfacet
  facet normal -0 -0 16.5718
    outer loop
      vertex -3.575 -17.7592 4
      vertex -3.575 -16.7503 4
      vertex -20 -20 4
    endloop
  endfacet
  facet normal 0 -0 0.0556244
    outer loop
      vertex 3.14167 -18.6 4
      vertex 2.69637 -17.4475 4
      vertex 2.69637 -17.5724 4
    endloop
  endfacet
  facet normal -0 -0 0.274648
    outer loop
      vertex 2.74773 -16.7503 4
      vertex 2.69637 -17.4475 4
      vertex 3.14167 -16.7503 4
    endloop
  endfacet
  facet normal 0 -0 0.823666
    outer loop
      vertex 3.14167 -18.6 4
      vertex 3.14167 -16.7503 4
      vertex 2.69637 -17.4475 4
    endloop
  endfacet
  facet normal -0 -0 13.8099
    outer loop
      vertex -3.575 -18.6 4
      vertex -3.575 -17.7592 4
      vertex -20 -20 4
    endloop
  endfacet
  facet normal -0 0 4.12847e-16
    outer loop
      vertex -1.59732 -17.5724 4
      vertex 0.311949 -17.5724 4
      vertex -0.0373506 -17.5724 4
    endloop
  endfacet
  facet normal 0 0 8.79667
    outer loop
      vertex -20 -20 4
      vertex 3.14167 -18.6 4
      vertex -3.14167 -18.6 4
    endloop
  endfacet
  facet normal -0 0 4.75566e-16
    outer loop
      vertex -1.59732 -17.5724 4
      vertex -0.0373506 -17.5724 4
      vertex -0.420373 -17.5724 4
    endloop
  endfacet
  facet normal 0 0 0.606667
    outer loop
      vertex -20 -20 4
      vertex -3.14167 -18.6 4
      vertex -3.575 -18.6 4
    endloop
  endfacet
  facet normal 0 0 5.13372
    outer loop
      vertex -20 -20 4
      vertex -3.575 -16.7503 4
      vertex -5.15474 -16.7503 4
    endloop
  endfacet
  facet normal 0 0 4.2417
    outer loop
      vertex -20 -20 4
      vertex -5.15474 -16.7503 4
      vertex -6.45999 -16.7503 4
    endloop
  endfacet
  facet normal -0 -0 29.5226
    outer loop
      vertex -6.5 -0.924862 4
      vertex -20 -20 4
      vertex -6.49449 -3.10394 4
    endloop
  endfacet
  facet normal -0 0 0.0216584
    outer loop
      vertex -6.5 -0.924862 4
      vertex -6.49449 -3.10394 4
      vertex -6.49006 -0.924862 4
    endloop
  endfacet
  facet normal -0 -0 30.6212
    outer loop
      vertex -2.15471 9.04309 4
      vertex -1.61304 16.1797 4
      vertex -6.5 8.32376 4
    endloop
  endfacet
  facet normal -0 -0 3.86568
    outer loop
      vertex -1.61304 9.04309 4
      vertex -1.61304 16.1797 4
      vertex -2.15471 9.04309 4
    endloop
  endfacet
  facet normal -0 0 0.0358019
    outer loop
      vertex 2.69637 -16.7503 4
      vertex 2.69637 -17.4475 4
      vertex 2.74773 -16.7503 4
    endloop
  endfacet
  facet normal -0 0 0.0492097
    outer loop
      vertex -3.14167 -16.7503 4
      vertex -2.69638 -16.8752 4
      vertex -2.74773 -16.7503 4
    endloop
  endfacet
  facet normal -0 -0 1.09743
    outer loop
      vertex 5.15474 -16.7503 4
      vertex 3.575 -17.5911 4
      vertex 6.45999 -16.7503 4
    endloop
  endfacet
  facet normal -0 -0 1.32822
    outer loop
      vertex 3.575 -16.7503 4
      vertex 3.575 -17.5911 4
      vertex 5.15474 -16.7503 4
    endloop
  endfacet
  facet normal -0 0 3.76713e-15
    outer loop
      vertex -1.59732 -17.5724 4
      vertex 2.02722 -17.5724 4
      vertex 1.56028 -17.5724 4
    endloop
  endfacet
  facet normal -0 0 3.26356e-16
    outer loop
      vertex -2.68406 -17.5724 4
      vertex 2.02722 -17.5724 4
      vertex -1.59732 -17.5724 4
    endloop
  endfacet
  facet normal -0 0 2.53295e-15
    outer loop
      vertex -2.68406 -17.5724 4
      vertex 2.49415 -17.5724 4
      vertex 2.02722 -17.5724 4
    endloop
  endfacet
  facet normal -0 0 2.18141e-15
    outer loop
      vertex -2.68406 -17.5724 4
      vertex 2.62963 -17.5724 4
      vertex 2.49415 -17.5724 4
    endloop
  endfacet
  facet normal -0 0 0.0685847
    outer loop
      vertex 2.62963 -17.5724 4
      vertex 3.14167 -18.6 4
      vertex 2.69637 -17.5724 4
    endloop
  endfacet
  facet normal -0 0 5.46048
    outer loop
      vertex -2.68406 -17.5724 4
      vertex 3.14167 -18.6 4
      vertex 2.62963 -17.5724 4
    endloop
  endfacet
  facet normal -0 0 0.0126563
    outer loop
      vertex -2.69638 -17.5724 4
      vertex 3.14167 -18.6 4
      vertex -2.68406 -17.5724 4
    endloop
  endfacet
  facet normal -0 -0 6.45691
    outer loop
      vertex -2.69638 -17.5724 4
      vertex -3.14167 -18.6 4
      vertex 3.14167 -18.6 4
    endloop
  endfacet
  facet normal -0 -0 0.823666
    outer loop
      vertex -3.14167 -16.7503 4
      vertex -3.14167 -18.6 4
      vertex -2.69638 -17.5724 4
    endloop
  endfacet
  facet normal -0 -320 0
    outer loop
      vertex -20 -20 -4
      vertex 20 -20 -4
      vertex 20 -20 4
    endloop
  endfacet
  facet normal -0 -320 0
    outer loop
      vertex -20 -20 4
      vertex -20 -20 -4
      vertex 20 -20 4
    endloop
  endfacet
  facet normal -0 0 -1600
    outer loop
      vertex -20 20 -4
      vertex 20 20 -4
      vertex -20 -20 -4
    endloop
  endfacet
  facet normal -0 0 -1600
    outer loop
      vertex -20 -20 -4
      vertex 20 20 -4
      vertex 20 -20 -4
    endloop
  endfacet
  facet normal -0 320 -0
    outer loop
      vertex -20 20 4
      vertex 20 20 4
      vertex -20 20 -4
    endloop
  endfacet
  facet normal 0 320 0
    outer loop
      vertex -20 20 -4
      vertex 20 20 4
      vertex 20 20 -4
    endloop
  endfacet
  facet normal 320 0 0
    outer loop
      vertex 20 -20 -4
      vertex 20 20 -4
      vertex 20 20 4
    endloop
  endfacet
  facet normal 320 -0 -0
    outer loop
      vertex 20 -20 4
      vertex 20 -20 -4
      vertex 20 20 4
    endloop
  endfacet
  facet normal 0 0.0536719 0
    outer loop
      vertex -6.5 -0.924862 4
      vertex -6.49006 -0.924862 4
      vertex -6.5 -0.924862 -1.4
    endloop
  endfacet
  facet normal 0 0.656617 0
    outer loop
      vertex -6.5 -0.924862 -1.4
      vertex -6.49006 -0.924862 4
      vertex -6.37068 -0.924862 2.79885
    endloop
  endfacet
  facet normal 0 1.76862 0
    outer loop
      vertex -6.5 -0.924862 -1.4
      vertex -6.37068 -0.924862 2.79885
      vertex -5.98792 -0.924862 1.55018
    endloop
  endfacet
  facet normal 0 2.41809 0
    outer loop
      vertex -5.98792 -0.924862 1.55018
      vertex -5.36717 -0.924862 0.404343
      vertex -6.5 -0.924862 -1.4
    endloop
  endfacet
  facet normal 0 2.6335 0
    outer loop
      vertex -5.36717 -0.924862 0.404343
      vertex -4.53346 -0.924862 -0.592451
      vertex -6.5 -0.924862 -1.4
    endloop
  endfacet
  facet normal 0 2.40617 0
    outer loop
      vertex -4.53346 -0.924862 -0.592451
      vertex -3.52041 -0.924862 -1.4
      vertex -6.5 -0.924862 -1.4
    endloop
  endfacet
  facet normal 49.9425 0 0
    outer loop
      vertex -6.5 -0.924862 -1.4
      vertex -6.5 8.32376 -1.4
      vertex -6.5 8.32376 4
    endloop
  endfacet
  facet normal 49.9425 0 0
    outer loop
      vertex -6.5 -0.924862 4
      vertex -6.5 -0.924862 -1.4
      vertex -6.5 8.32376 4
    endloop
  endfacet
  facet normal 17.7559 -0.0360997 1.7648
    outer loop
      vertex -6.49449 -3.10394 4
      vertex -6.45999 -16.7503 3.37376
      vertex -6.37068 -0.924862 2.79885
    endloop
  endfacet
  facet normal 2.61739 -0.00532145 0.260149
    outer loop
      vertex -6.49006 -0.924862 4
      vertex -6.49449 -3.10394 4
      vertex -6.37068 -0.924862 2.79885
    endloop
  endfacet
  facet normal 8.54593 0.021605 1.35761e-17
    outer loop
      vertex -6.49449 -3.10394 4
      vertex -6.45999 -16.7503 4
      vertex -6.45999 -16.7503 3.37376
    endloop
  endfacet
  facet normal 1.06258e-16 1.30525 8.20193e-16
    outer loop
      vertex -5.15474 -16.7503 4
      vertex -3.575 -16.7503 3
      vertex -6.45999 -16.7503 4
    endloop
  endfacet
  facet normal 1.4708e-16 1.80671 1.1353e-15
    outer loop
      vertex -6.45999 -16.7503 4
      vertex -3.575 -16.7503 3
      vertex -6.45999 -16.7503 3.37376
    endloop
  endfacet
  facet normal -9.14646e-16 1.57974 -6.55387e-16
    outer loop
      vertex -5.15474 -16.7503 4
      vertex -3.575 -16.7503 4
      vertex -3.575 -16.7503 3
    endloop
  endfacet
  facet normal 1.84972 -1.41944e-22 6.71849e-08
    outer loop
      vertex -3.575 -17.7592 4
      vertex -3.575 -18.6 3
      vertex -3.575 -16.7503 3
    endloop
  endfacet
  facet normal 1.00894 -7.74241e-23 3.66463e-08
    outer loop
      vertex -3.575 -16.7503 4
      vertex -3.575 -17.7592 4
      vertex -3.575 -16.7503 3
    endloop
  endfacet
  facet normal 0.840783 0 3.05386e-08
    outer loop
      vertex -3.575 -18.6 4
      vertex -3.575 -18.6 3
      vertex -3.575 -17.7592 4
    endloop
  endfacet
  facet normal 0 0.433333 -3.59554e-16
    outer loop
      vertex -3.14167 -18.6 4
      vertex -3.14167 -18.6 3
      vertex -3.575 -18.6 4
    endloop
  endfacet
  facet normal 0 0.433333 -3.59554e-16
    outer loop
      vertex -3.575 -18.6 4
      vertex -3.14167 -18.6 3
      vertex -3.575 -18.6 3
    endloop
  endfacet
  facet normal -1.84972 0 0
    outer loop
      vertex -3.14167 -18.6 4
      vertex -3.14167 -16.7503 4
      vertex -3.14167 -18.6 3
    endloop
  endfacet
  facet normal -1.84972 0 0
    outer loop
      vertex -3.14167 -18.6 3
      vertex -3.14167 -16.7503 4
      vertex -3.14167 -16.7503 3
    endloop
  endfacet
  facet normal 1.24461e-15 0.393939 -1.63434e-16
    outer loop
      vertex -3.14167 -16.7503 3
      vertex -3.14167 -16.7503 4
      vertex -2.74773 -16.7503 4
    endloop
  endfacet
  facet normal -5.57115e-17 0.0513522 6.45559e-17
    outer loop
      vertex -2.74773 -16.7503 4
      vertex -2.69638 -16.7503 4
      vertex -3.14167 -16.7503 3
    endloop
  endfacet
  facet normal -3.42029e-16 0.315266 3.96328e-16
    outer loop
      vertex -3.14167 -16.7503 3
      vertex -2.69638 -16.7503 4
      vertex -2.62963 -16.7503 3.44188
    endloop
  endfacet
  facet normal 0.458828 -1.07403e-15 0.0548677
    outer loop
      vertex -2.69638 -16.8752 4
      vertex -2.62963 -17.5724 3.44188
      vertex -2.62963 -16.7503 3.44188
    endloop
  endfacet
  facet normal 0.0697183 -1.63198e-16 0.00833708
    outer loop
      vertex -2.69638 -16.7503 4
      vertex -2.69638 -16.8752 4
      vertex -2.62963 -16.7503 3.44188
    endloop
  endfacet
  facet normal 0.38911 0 0.0465307
    outer loop
      vertex -2.69638 -17.5724 4
      vertex -2.62963 -17.5724 3.44188
      vertex -2.69638 -16.8752 4
    endloop
  endfacet
  facet normal 0 0.0145083 0
    outer loop
      vertex -2.68406 -17.5724 4
      vertex -2.39811 -17.5724 2.82201
      vertex -2.69638 -17.5724 4
    endloop
  endfacet
  facet normal 0 0.0878469 0
    outer loop
      vertex -2.69638 -17.5724 4
      vertex -2.39811 -17.5724 2.82201
      vertex -2.62963 -17.5724 3.44188
    endloop
  endfacet
  facet normal -3.16006e-16 1.28016 -7.67084e-17
    outer loop
      vertex -2.68406 -17.5724 4
      vertex -1.59732 -17.5724 4
      vertex -2.39811 -17.5724 2.82201
    endloop
  endfacet
  facet normal -1.36853e-15 1.02106 6.97792e-16
    outer loop
      vertex -1.59732 -17.5724 4
      vertex -0.730543 -17.5724 4
      vertex -2.39811 -17.5724 2.82201
    endloop
  endfacet
  facet normal -3.5592e-15 2.65552 1.81478e-15
    outer loop
      vertex -2.39811 -17.5724 2.82201
      vertex -0.730543 -17.5724 4
      vertex -1.53851 -17.5724 1.83679
    endloop
  endfacet
  facet normal 2.80709e-17 0.670962 1.12163e-16
    outer loop
      vertex -1.53851 -17.5724 1.83679
      vertex -0.730543 -17.5724 4
      vertex -0.420373 -17.5724 4
    endloop
  endfacet
  facet normal 6.53577e-17 0.828556 1.22642e-16
    outer loop
      vertex -0.420373 -17.5724 4
      vertex -0.0373506 -17.5724 4
      vertex -1.53851 -17.5724 1.83679
    endloop
  endfacet
  facet normal 1.35131e-16 1.71308 2.53569e-16
    outer loop
      vertex -1.53851 -17.5724 1.83679
      vertex -0.0373506 -17.5724 4
      vertex -0.960388 -17.5724 1.52871
    endloop
  endfacet
  facet normal 3.5065e-17 0.863222 1.40109e-16
    outer loop
      vertex -0.0373506 -17.5724 4
      vertex 0.311949 -17.5724 4
      vertex -0.960388 -17.5724 1.52871
    endloop
  endfacet
  facet normal 7.18385e-17 1.7685 2.87044e-16
    outer loop
      vertex -0.960388 -17.5724 1.52871
      vertex 0.311949 -17.5724 4
      vertex -0.326454 -17.5724 1.37005
    endloop
  endfacet
  facet normal -1.19083e-15 1.89616 6.15529e-16
    outer loop
      vertex -0.326454 -17.5724 1.37005
      vertex 0.311949 -17.5724 4
      vertex 1.03294 -17.5724 4
    endloop
  endfacet
  facet normal 0 1.38688 0
    outer loop
      vertex 1.03294 -17.5724 4
      vertex 1.56028 -17.5724 4
      vertex -0.326454 -17.5724 1.37005
    endloop
  endfacet
  facet normal 0 3.08499 0
    outer loop
      vertex -0.326454 -17.5724 1.37005
      vertex 1.56028 -17.5724 4
      vertex 0.960388 -17.5724 1.52871
    endloop
  endfacet
  facet normal 0 0.103587 0
    outer loop
      vertex -0.326454 -17.5724 1.37005
      vertex 0.960388 -17.5724 1.52871
      vertex 0.326453 -17.5724 1.37005
    endloop
  endfacet
  facet normal 2.37927e-15 1.15394 -5.77553e-16
    outer loop
      vertex 1.56028 -17.5724 4
      vertex 2.02722 -17.5724 4
      vertex 0.960388 -17.5724 1.52871
    endloop
  endfacet
  facet normal 3.7913e-15 1.83877 -9.20314e-16
    outer loop
      vertex 0.960388 -17.5724 1.52871
      vertex 2.02722 -17.5724 4
      vertex 2.02722 -17.5724 2.27641
    endloop
  endfacet
  facet normal 7.79298e-16 0.804808 -4.0281e-16
    outer loop
      vertex 2.02722 -17.5724 4
      vertex 2.49415 -17.5724 4
      vertex 2.02722 -17.5724 2.27641
    endloop
  endfacet
  facet normal 4.78455e-16 0.494117 -2.47308e-16
    outer loop
      vertex 2.02722 -17.5724 2.27641
      vertex 2.49415 -17.5724 4
      vertex 2.62963 -17.5724 3.44188
    endloop
  endfacet
  facet normal 2.29122e-16 0.0756135 -6.69969e-31
    outer loop
      vertex 2.49415 -17.5724 4
      vertex 2.62963 -17.5724 4
      vertex 2.62963 -17.5724 3.44188
    endloop
  endfacet
  facet normal 0 0.0372494 0
    outer loop
      vertex 2.62963 -17.5724 3.44188
      vertex 2.62963 -17.5724 4
      vertex 2.69637 -17.5724 4
    endloop
  endfacet
  facet normal -0.0697183 1.67869e-16 0.00833708
    outer loop
      vertex 2.69637 -17.5724 4
      vertex 2.69637 -17.4475 4
      vertex 2.62963 -17.5724 3.44188
    endloop
  endfacet
  facet normal -0.458828 1.10478e-15 0.0548677
    outer loop
      vertex 2.62963 -17.5724 3.44188
      vertex 2.69637 -17.4475 4
      vertex 2.62963 -16.7503 3.44188
    endloop
  endfacet
  facet normal -0.38911 -8.84765e-16 0.0465307
    outer loop
      vertex 2.62963 -16.7503 3.44188
      vertex 2.69637 -17.4475 4
      vertex 2.69637 -16.7503 4
    endloop
  endfacet
  facet normal 3.10936e-17 0.0286606 3.60298e-17
    outer loop
      vertex 2.69637 -16.7503 4
      vertex 2.74773 -16.7503 4
      vertex 2.62963 -16.7503 3.44188
    endloop
  endfacet
  facet normal 3.66647e-16 0.337958 4.24854e-16
    outer loop
      vertex 2.62963 -16.7503 3.44188
      vertex 2.74773 -16.7503 4
      vertex 3.14167 -16.7503 3
    endloop
  endfacet
  facet normal -1.24461e-15 0.393939 -1.63434e-16
    outer loop
      vertex 2.74773 -16.7503 4
      vertex 3.14167 -16.7503 4
      vertex 3.14167 -16.7503 3
    endloop
  endfacet
  facet normal 1.84972 0 0
    outer loop
      vertex 3.14167 -18.6 3
      vertex 3.14167 -16.7503 3
      vertex 3.14167 -16.7503 4
    endloop
  endfacet
  facet normal 1.84972 0 0
    outer loop
      vertex 3.14167 -18.6 4
      vertex 3.14167 -18.6 3
      vertex 3.14167 -16.7503 4
    endloop
  endfacet
  facet normal 0 0.433333 -3.59554e-16
    outer loop
      vertex 3.14167 -18.6 4
      vertex 3.575 -18.6 4
      vertex 3.14167 -18.6 3
    endloop
  endfacet
  facet normal 0 0.433333 -3.59554e-16
    outer loop
      vertex 3.14167 -18.6 3
      vertex 3.575 -18.6 4
      vertex 3.575 -18.6 3
    endloop
  endfacet
  facet normal -1.00894 7.74241e-23 -3.66463e-08
    outer loop
      vertex 3.575 -17.5911 4
      vertex 3.575 -16.7503 3
      vertex 3.575 -18.6 4
    endloop
  endfacet
  facet normal -1.84972 1.41944e-22 -6.71849e-08
    outer loop
      vertex 3.575 -18.6 4
      vertex 3.575 -16.7503 3
      vertex 3.575 -18.6 3
    endloop
  endfacet
  facet normal -0.840783 0 -3.05386e-08
    outer loop
      vertex 3.575 -17.5911 4
      vertex 3.575 -16.7503 4
      vertex 3.575 -16.7503 3
    endloop
  endfacet
  facet normal 9.14646e-16 1.57974 -6.55387e-16
    outer loop
      vertex 3.575 -16.7503 4
      vertex 5.15474 -16.7503 4
      vertex 3.575 -16.7503 3
    endloop
  endfacet
  facet normal -1.06258e-16 1.30525 8.20193e-16
    outer loop
      vertex 5.15474 -16.7503 4
      vertex 6.45999 -16.7503 4
      vertex 3.575 -16.7503 3
    endloop
  endfacet
  facet normal -1.4708e-16 1.80671 1.1353e-15
    outer loop
      vertex 3.575 -16.7503 3
      vertex 6.45999 -16.7503 4
      vertex 6.45999 -16.7503 3.37376
    endloop
  endfacet
  facet normal -8.54593 0.0216048 1.3576e-17
    outer loop
      vertex 6.45999 -16.7503 4
      vertex 6.49449 -3.10394 4
      vertex 6.45999 -16.7503 3.37376
    endloop
  endfacet
  facet normal -17.7559 -0.0360999 1.7648
    outer loop
      vertex 6.45999 -16.7503 3.37376
      vertex 6.49449 -3.10394 4
      vertex 6.37068 -0.924862 2.79885
    endloop
  endfacet
  facet normal -2.61739 -0.00532148 0.260148
    outer loop
      vertex 6.37068 -0.924862 2.79885
      vertex 6.49449 -3.10394 4
      vertex 6.49006 -0.924862 4
    endloop
  endfacet
  facet normal 0 2.40617 0
    outer loop
      vertex 4.53346 -0.924862 -0.592451
      vertex 6.5 -0.924862 -1.4
      vertex 3.52041 -0.924862 -1.4
    endloop
  endfacet
  facet normal 0 2.6335 0
    outer loop
      vertex 4.53346 -0.924862 -0.592451
      vertex 5.36717 -0.924862 0.404343
      vertex 6.5 -0.924862 -1.4
    endloop
  endfacet
  facet normal 0 2.41809 0
    outer loop
      vertex 5.36717 -0.924862 0.404343
      vertex 5.98792 -0.924862 1.55018
      vertex 6.5 -0.924862 -1.4
    endloop
  endfacet
  facet normal 0 0.0119385 0
    outer loop
      vertex 6.5 -0.924862 4
      vertex 6.37068 -0.924862 2.79885
      vertex 6.49006 -0.924862 4
    endloop
  endfacet
  facet normal 0 0.698349 0
    outer loop
      vertex 6.5 -0.924862 -1.4
      vertex 6.37068 -0.924862 2.79885
      vertex 6.5 -0.924862 4
    endloop
  endfacet
  facet normal 0 1.76862 0
    outer loop
      vertex 5.98792 -0.924862 1.55018
      vertex 6.37068 -0.924862 2.79885
      vertex 6.5 -0.924862 -1.4
    endloop
  endfacet
  facet normal -49.9425 0 0
    outer loop
      vertex 6.5 -0.924862 4
      vertex 6.5 8.32376 4
      vertex 6.5 -0.924862 -1.4
    endloop
  endfacet
  facet normal -49.9425 0 0
    outer loop
      vertex 6.5 -0.924862 -1.4
      vertex 6.5 8.32376 4
      vertex 6.5 8.32376 -1.4
    endloop
  endfacet
  facet normal 0 -70.2 0
    outer loop
      vertex -6.5 8.32376 -1.4
      vertex 6.5 8.32376 -1.4
      vertex 6.5 8.32376 4
    endloop
  endfacet
  facet normal 0 -5.50966 0
    outer loop
      vertex 0.768311 8.32376 2.04296
      vertex -6.5 8.32376 -1.4
      vertex 6.5 8.32376 4
    endloop
  endfacet
  facet normal 0 -1.85324 0
    outer loop
      vertex 2.15471 8.32376 4
      vertex 2.10371 8.32376 3.57351
      vertex 6.5 8.32376 4
    endloop
  endfacet
  facet normal 0 -2.10111 0
    outer loop
      vertex 2.10371 8.32376 3.57351
      vertex 1.91849 8.32376 3.07761
      vertex 6.5 8.32376 4
    endloop
  endfacet
  facet normal 0 -3.00505 0
    outer loop
      vertex -0.768311 8.32376 2.04296
      vertex -1.23081 8.32376 2.28944
      vertex -6.5 8.32376 -1.4
    endloop
  endfacet
  facet normal 0 -1.72605 0
    outer loop
      vertex 1.91849 8.32376 3.07761
      vertex 1.62177 8.32376 2.64113
      vertex 6.5 8.32376 4
    endloop
  endfacet
  facet normal 0 -1.18437 0
    outer loop
      vertex 1.62177 8.32376 2.64113
      vertex 1.23081 8.32376 2.28944
      vertex 6.5 8.32376 4
    endloop
  endfacet
  facet normal 0 -0.507575 0
    outer loop
      vertex 1.23081 8.32376 2.28944
      vertex 0.768311 8.32376 2.04296
      vertex 6.5 8.32376 4
    endloop
  endfacet
  facet normal 0 -1.73205 0
    outer loop
      vertex 0.261163 8.32376 1.91604
      vertex -0.261163 8.32376 1.91604
      vertex -6.5 8.32376 -1.4
    endloop
  endfacet
  facet normal 0 -3.29559 0
    outer loop
      vertex -1.62177 8.32376 2.64113
      vertex -6.5 8.32376 -1.4
      vertex -1.23081 8.32376 2.28944
    endloop
  endfacet
  facet normal 0 -3.32831 0
    outer loop
      vertex -1.91849 8.32376 3.07761
      vertex -6.5 8.32376 -1.4
      vertex -1.62177 8.32376 2.64113
    endloop
  endfacet
  facet normal 0 -3.1013 0
    outer loop
      vertex -2.10371 8.32376 3.57351
      vertex -6.5 8.32376 -1.4
      vertex -1.91849 8.32376 3.07761
    endloop
  endfacet
  facet normal 0 -2.12865 0
    outer loop
      vertex -2.15471 8.32376 4
      vertex -6.5 8.32376 -1.4
      vertex -2.10371 8.32376 3.57351
    endloop
  endfacet
  facet normal 0 -23.4646 0
    outer loop
      vertex -6.5 8.32376 4
      vertex -6.5 8.32376 -1.4
      vertex -2.15471 8.32376 4
    endloop
  endfacet
  facet normal 0 -0.82357 0
    outer loop
      vertex 0.768311 8.32376 2.04296
      vertex 0.261163 8.32376 1.91604
      vertex -6.5 8.32376 -1.4
    endloop
  endfacet
  facet normal 0 -2.47358 0
    outer loop
      vertex -0.261163 8.32376 1.91604
      vertex -0.768311 8.32376 2.04296
      vertex -6.5 8.32376 -1.4
    endloop
  endfacet
  facet normal -0.0582709 -3.78564e-17 0.00696817
    outer loop
      vertex 2.15471 8.32376 4
      vertex 2.15471 8.46038 4
      vertex 2.10371 8.32376 3.57351
    endloop
  endfacet
  facet normal -0.306793 -1.99312e-16 0.036687
    outer loop
      vertex 2.10371 8.32376 3.57351
      vertex 2.15471 8.46038 4
      vertex 2.10371 9.04309 3.57351
    endloop
  endfacet
  facet normal -0.248522 0 0.0297189
    outer loop
      vertex 2.10371 9.04309 3.57351
      vertex 2.15471 8.46038 4
      vertex 2.15471 9.04309 4
    endloop
  endfacet
  facet normal 0 -0.0537037 0
    outer loop
      vertex -2.15471 9.04309 4
      vertex -2.10371 9.04309 3.57351
      vertex -1.91849 9.04309 3.07761
    endloop
  endfacet
  facet normal 0 -0.343842 0
    outer loop
      vertex -1.23081 9.04309 2.28944
      vertex -2.15471 9.04309 4
      vertex -1.62177 9.04309 2.64113
    endloop
  endfacet
  facet normal 0 -0.170582 0
    outer loop
      vertex -1.62177 9.04309 2.64113
      vertex -2.15471 9.04309 4
      vertex -1.91849 9.04309 3.07761
    endloop
  endfacet
  facet normal 0 -0.563415 0
    outer loop
      vertex -0.768311 9.04309 2.04296
      vertex -2.15471 9.04309 4
      vertex -1.23081 9.04309 2.28944
    endloop
  endfacet
  facet normal 0 -0.816539 0
    outer loop
      vertex -0.261163 9.04309 1.91604
      vertex -2.15471 9.04309 4
      vertex -0.768311 9.04309 2.04296
    endloop
  endfacet
  facet normal 0 -0.0730698 0
    outer loop
      vertex -1.21633 9.04309 3.00585
      vertex -2.15471 9.04309 4
      vertex -0.261163 9.04309 1.91604
    endloop
  endfacet
  facet normal 0 -0.085952 0
    outer loop
      vertex -1.21633 9.04309 3.00585
      vertex -1.43887 9.04309 3.33321
      vertex -2.15471 9.04309 4
    endloop
  endfacet
  facet normal 0 -0.164167 0
    outer loop
      vertex -0.195872 9.04309 2.46203
      vertex -0.576233 9.04309 2.55722
      vertex 0.261163 9.04309 1.91604
    endloop
  endfacet
  facet normal 0 -0.213888 0
    outer loop
      vertex 1.21633 9.04309 3.00585
      vertex 0.923105 9.04309 2.74208
      vertex 1.62177 9.04309 2.64113
    endloop
  endfacet
  facet normal 0 -0.213888 0
    outer loop
      vertex 1.43887 9.04309 3.33321
      vertex 1.21633 9.04309 3.00585
      vertex 1.91849 9.04309 3.07761
    endloop
  endfacet
  facet normal 0 -0.231018 0
    outer loop
      vertex 2.15471 9.04309 4
      vertex 1.61304 9.04309 4
      vertex 2.10371 9.04309 3.57351
    endloop
  endfacet
  facet normal 0 -0.159722 0
    outer loop
      vertex 1.61304 9.04309 4
      vertex 1.57778 9.04309 3.70513
      vertex 2.10371 9.04309 3.57351
    endloop
  endfacet
  facet normal 0 -0.285184 0
    outer loop
      vertex 2.10371 9.04309 3.57351
      vertex 1.43887 9.04309 3.33321
      vertex 1.91849 9.04309 3.07761
    endloop
  endfacet
  facet normal 0 -0.285184 0
    outer loop
      vertex 1.91849 9.04309 3.07761
      vertex 1.21633 9.04309 3.00585
      vertex 1.62177 9.04309 2.64113
    endloop
  endfacet
  facet normal 0 -0.285184 0
    outer loop
      vertex 1.62177 9.04309 2.64113
      vertex 0.923105 9.04309 2.74208
      vertex 1.23081 9.04309 2.28944
    endloop
  endfacet
  facet normal 0 -0.285184 0
    outer loop
      vertex 1.23081 9.04309 2.28944
      vertex 0.576233 9.04309 2.55722
      vertex 0.768311 9.04309 2.04296
    endloop
  endfacet
  facet normal 0 -0.213888 0
    outer loop
      vertex 0.576233 9.04309 2.55722
      vertex 0.195872 9.04309 2.46203
      vertex 0.768311 9.04309 2.04296
    endloop
  endfacet
  facet normal 0 -0.334906 0
    outer loop
      vertex 0.768311 9.04309 2.04296
      vertex -0.195872 9.04309 2.46203
      vertex 0.261163 9.04309 1.91604
    endloop
  endfacet
  facet normal 0 -0.334906 0
    outer loop
      vertex 0.261163 9.04309 1.91604
      vertex -0.576233 9.04309 2.55722
      vertex -0.261163 9.04309 1.91604
    endloop
  endfacet
  facet normal 0 -0.164167 0
    outer loop
      vertex -0.576233 9.04309 2.55722
      vertex -0.923105 9.04309 2.74208
      vertex -0.261163 9.04309 1.91604
    endloop
  endfacet
  facet normal 0 -0.067613 0
    outer loop
      vertex -0.923105 9.04309 2.74208
      vertex -1.21633 9.04309 3.00585
      vertex -0.261163 9.04309 1.91604
    endloop
  endfacet
  facet normal 0 -0.159722 0
    outer loop
      vertex -1.57778 9.04309 3.70513
      vertex -1.61304 9.04309 4
      vertex -2.15471 9.04309 4
    endloop
  endfacet
  facet normal 0 -0.164167 0
    outer loop
      vertex 0.195872 9.04309 2.46203
      vertex -0.195872 9.04309 2.46203
      vertex 0.768311 9.04309 2.04296
    endloop
  endfacet
  facet normal 0 -0.213888 0
    outer loop
      vertex 1.57778 9.04309 3.70513
      vertex 1.43887 9.04309 3.33321
      vertex 2.10371 9.04309 3.57351
    endloop
  endfacet
  facet normal 0 -0.213888 0
    outer loop
      vertex 0.923105 9.04309 2.74208
      vertex 0.576233 9.04309 2.55722
      vertex 1.23081 9.04309 2.28944
    endloop
  endfacet
  facet normal 0 -0.173611 0
    outer loop
      vertex -1.43887 9.04309 3.33321
      vertex -1.57778 9.04309 3.70513
      vertex -2.15471 9.04309 4
    endloop
  endfacet
  facet normal -2.10439 1.02903e-16 0.251648
    outer loop
      vertex 1.57778 9.04309 3.70513
      vertex 1.61304 9.04309 4
      vertex 1.61304 16.1797 4
    endloop
  endfacet
  facet normal -0.713664 0 0.0853416
    outer loop
      vertex 1.61304 16.1797 4
      vertex 1.61304 18.6 4
      vertex 1.57778 9.04309 3.70513
    endloop
  endfacet
  facet normal -2.81805 0 0.336989
    outer loop
      vertex 1.57778 9.04309 3.70513
      vertex 1.61304 18.6 4
      vertex 1.57778 18.6 3.70513
    endloop
  endfacet
  facet normal 0 -0.0278473 0
    outer loop
      vertex -1.61304 18.6 4
      vertex -1.57778 18.6 3.70513
      vertex -1.43887 18.6 3.33321
    endloop
  endfacet
  facet normal 0 -0.186869 0
    outer loop
      vertex -0.923105 18.6 2.74208
      vertex -1.61304 18.6 4
      vertex -1.21633 18.6 3.00585
    endloop
  endfacet
  facet normal 0 -0.0913675 0
    outer loop
      vertex -1.21633 18.6 3.00585
      vertex -1.61304 18.6 4
      vertex -1.43887 18.6 3.33321
    endloop
  endfacet
  facet normal 0 -0.308802 0
    outer loop
      vertex -0.576233 18.6 2.55722
      vertex -1.61304 18.6 4
      vertex -0.923105 18.6 2.74208
    endloop
  endfacet
  facet normal 0 -0.450079 0
    outer loop
      vertex -0.195872 18.6 2.46203
      vertex -1.61304 18.6 4
      vertex -0.576233 18.6 2.55722
    endloop
  endfacet
  facet normal 0 -0.602491 0
    outer loop
      vertex 0.195872 18.6 2.46203
      vertex -1.61304 18.6 4
      vertex -0.195872 18.6 2.46203
    endloop
  endfacet
  facet normal 0 -0.757179 0
    outer loop
      vertex 0.576233 18.6 2.55722
      vertex -1.61304 18.6 4
      vertex 0.195872 18.6 2.46203
    endloop
  endfacet
  facet normal 0 -0.905154 0
    outer loop
      vertex 0.923105 18.6 2.74208
      vertex -1.61304 18.6 4
      vertex 0.576233 18.6 2.55722
    endloop
  endfacet
  facet normal 0 -1.03782 0
    outer loop
      vertex 1.21633 18.6 3.00585
      vertex -1.61304 18.6 4
      vertex 0.923105 18.6 2.74208
    endloop
  endfacet
  facet normal 0 -1.14746 0
    outer loop
      vertex 1.43887 18.6 3.33321
      vertex -1.61304 18.6 4
      vertex 1.21633 18.6 3.00585
    endloop
  endfacet
  facet normal 0 -1.2277 0
    outer loop
      vertex 1.57778 18.6 3.70513
      vertex -1.61304 18.6 4
      vertex 1.43887 18.6 3.33321
    endloop
  endfacet
  facet normal 0 -0.951278 0
    outer loop
      vertex 1.61304 18.6 4
      vertex -1.61304 18.6 4
      vertex 1.57778 18.6 3.70513
    endloop
  endfacet
  facet normal 2.81805 -1.54043e-16 0.336989
    outer loop
      vertex -1.61304 16.1797 4
      vertex -1.57778 9.04309 3.70513
      vertex -1.57778 18.6 3.70513
    endloop
  endfacet
  facet normal 0.713664 -3.90111e-17 0.0853416
    outer loop
      vertex -1.61304 18.6 4
      vertex -1.61304 16.1797 4
      vertex -1.57778 18.6 3.70513
    endloop
  endfacet
  facet normal 2.10439 3.08709e-16 0.251648
    outer loop
      vertex -1.61304 16.1797 4
      vertex -1.61304 9.04309 4
      vertex -1.57778 9.04309 3.70513
    endloop
  endfacet
  facet normal 0.306793 -1.04355e-15 0.036687
    outer loop
      vertex -2.15471 8.90647 4
      vertex -2.10371 8.32376 3.57351
      vertex -2.10371 9.04309 3.57351
    endloop
  endfacet
  facet normal 0.0582709 -1.98206e-16 0.00696817
    outer loop
      vertex -2.15471 9.04309 4
      vertex -2.15471 8.90647 4
      vertex -2.10371 9.04309 3.57351
    endloop
  endfacet
  facet normal 0.248522 6.45822e-16 0.0297189
    outer loop
      vertex -2.15471 8.90647 4
      vertex -2.15471 8.32376 4
      vertex -2.10371 8.32376 3.57351
    endloop
  endfacet
  facet normal 0 0 65.1178
    outer loop
      vertex -3.52041 -0.924862 -1.4
      vertex 3.52041 -0.924862 -1.4
      vertex 6.5 8.32376 -1.4
    endloop
  endfacet
  facet normal 0 0 27.5571
    outer loop
      vertex -6.5 -0.924862 -1.4
      vertex -3.52041 -0.924862 -1.4
      vertex 6.5 8.32376 -1.4
    endloop
  endfacet
  facet normal 0 0 27.5571
    outer loop
      vertex 3.52041 -0.924862 -1.4
      vertex 6.5 -0.924862 -1.4
      vertex 6.5 8.32376 -1.4
    endloop
  endfacet
  facet normal 0 0 120.232
    outer loop
      vertex -6.5 8.32376 -1.4
      vertex -6.5 -0.924862 -1.4
      vertex 6.5 8.32376 -1.4
    endloop
  endfacet
  facet normal 0 2.75154e-14 111.424
    outer loop
      vertex -3.52041 -16.7503 -1.4
      vertex 3.52041 -16.7503 -1.4
      vertex 3.52041 -0.924862 -1.4
    endloop
  endfacet
  facet normal 0 2.75154e-14 111.424
    outer loop
      vertex -3.52041 -0.924862 -1.4
      vertex -3.52041 -16.7503 -1.4
      vertex 3.52041 -0.924862 -1.4
    endloop
  endfacet
  facet normal 12.7798 3.95898e-15 16.0319
    outer loop
      vertex -4.53346 -0.924862 -0.592451
      vertex -3.52041 -16.7503 -1.4
      vertex -3.52041 -0.924862 -1.4
    endloop
  endfacet
  facet normal 14.3953 0.020906 17.6489
    outer loop
      vertex -4.63563 -16.7503 -0.490367
      vertex -3.52041 -16.7503 -1.4
      vertex -4.53346 -0.924862 -0.592451
    endloop
  endfacet
  facet normal 15.7747 -0.0167374 13.1938
    outer loop
      vertex -5.36717 -0.924862 0.404343
      vertex -4.63563 -16.7503 -0.490367
      vertex -4.53346 -0.924862 -0.592451
    endloop
  endfacet
  facet normal 18.0094 0.0371771 14.0674
    outer loop
      vertex -5.52454 -16.7503 0.647638
      vertex -4.63563 -16.7503 -0.490367
      vertex -5.36717 -0.924862 0.404343
    endloop
  endfacet
  facet normal 18.1334 -0.0292977 9.82365
    outer loop
      vertex -5.98792 -0.924862 1.55018
      vertex -5.52454 -16.7503 0.647638
      vertex -5.36717 -0.924862 0.404343
    endloop
  endfacet
  facet normal 20.7275 0.0488052 9.78605
    outer loop
      vertex -6.14292 -16.7503 1.9574
      vertex -5.52454 -16.7503 0.647638
      vertex -5.98792 -0.924862 1.55018
    endloop
  endfacet
  facet normal 19.7608 -0.0376748 6.05727
    outer loop
      vertex -6.37068 -0.924862 2.79885
      vertex -6.14292 -16.7503 1.9574
      vertex -5.98792 -0.924862 1.55018
    endloop
  endfacet
  facet normal 22.4144 0.0557843 5.01784
    outer loop
      vertex -6.45999 -16.7503 3.37376
      vertex -6.14292 -16.7503 1.9574
      vertex -6.37068 -0.924862 2.79885
    endloop
  endfacet
  facet normal 0 3.96767 0
    outer loop
      vertex -6.45999 -16.7503 3.37376
      vertex -3.575 -16.7503 3
      vertex -6.14292 -16.7503 1.9574
    endloop
  endfacet
  facet normal -9.51596e-16 4.00808 2.34377e-15
    outer loop
      vertex -6.14292 -16.7503 1.9574
      vertex -3.575 -16.7503 3
      vertex -5.52454 -16.7503 0.647638
    endloop
  endfacet
  facet normal 5.33274e-15 4.30963 -2.74742e-15
    outer loop
      vertex -5.52454 -16.7503 0.647638
      vertex -3.575 -16.7503 3
      vertex -4.63563 -16.7503 -0.490367
    endloop
  endfacet
  facet normal -6.60428e-16 6.16979 -1.41268e-15
    outer loop
      vertex -4.63563 -16.7503 -0.490367
      vertex -3.575 -16.7503 3
      vertex -2.02722 -16.7503 2.27641
    endloop
  endfacet
  facet normal 0 0.4197 0
    outer loop
      vertex -3.14167 -16.7503 3
      vertex -2.62963 -16.7503 3.44188
      vertex -2.39811 -16.7503 2.82201
    endloop
  endfacet
  facet normal 0 0.0771284 0
    outer loop
      vertex -3.14167 -16.7503 3
      vertex -2.39811 -16.7503 2.82201
      vertex -3.575 -16.7503 3
    endloop
  endfacet
  facet normal 0 0.576095 0
    outer loop
      vertex -2.39811 -16.7503 2.82201
      vertex -2.02722 -16.7503 2.27641
      vertex -3.575 -16.7503 3
    endloop
  endfacet
  facet normal 0 -1.69346e-15 0.801547
    outer loop
      vertex -3.575 -18.6 3
      vertex -3.14167 -18.6 3
      vertex -3.14167 -16.7503 3
    endloop
  endfacet
  facet normal 0 -1.69346e-15 0.801547
    outer loop
      vertex -3.575 -16.7503 3
      vertex -3.575 -18.6 3
      vertex -3.14167 -16.7503 3
    endloop
  endfacet
  facet normal 0.509595 -2.88078e-16 0.190336
    outer loop
      vertex -2.62963 -16.7503 3.44188
      vertex -2.39811 -17.5724 2.82201
      vertex -2.39811 -16.7503 2.82201
    endloop
  endfacet
  facet normal 0.509595 -1.19287e-15 0.190336
    outer loop
      vertex -2.62963 -17.5724 3.44188
      vertex -2.39811 -17.5724 2.82201
      vertex -2.62963 -16.7503 3.44188
    endloop
  endfacet
  facet normal 0.448536 3.99503e-16 0.304911
    outer loop
      vertex -2.39811 -17.5724 2.82201
      vertex -2.02722 -17.5724 2.27641
      vertex -2.39811 -16.7503 2.82201
    endloop
  endfacet
  facet normal -9.95951e-16 0.103587 -6.77039e-16
    outer loop
      vertex -2.39811 -17.5724 2.82201
      vertex -1.53851 -17.5724 1.83679
      vertex -2.02722 -17.5724 2.27641
    endloop
  endfacet
  facet normal 0.36141 -6.28124e-16 0.401767
    outer loop
      vertex -2.02722 -17.5724 2.27641
      vertex -1.53851 -17.5724 1.83679
      vertex -2.02722 -16.7503 2.27641
    endloop
  endfacet
  facet normal 0.36141 -1.89712e-15 0.401767
    outer loop
      vertex -2.02722 -16.7503 2.27641
      vertex -1.53851 -17.5724 1.83679
      vertex -1.53851 -16.7503 1.83679
    endloop
  endfacet
  facet normal 0.25328 -4.08685e-16 0.475273
    outer loop
      vertex -1.53851 -17.5724 1.83679
      vertex -0.960388 -17.5724 1.52871
      vertex -1.53851 -16.7503 1.83679
    endloop
  endfacet
  facet normal 0.25328 -1.89089e-15 0.475273
    outer loop
      vertex -1.53851 -16.7503 1.83679
      vertex -0.960388 -17.5724 1.52871
      vertex -0.960388 -16.7503 1.52871
    endloop
  endfacet
  facet normal 0.13043 3.40216e-16 0.521157
    outer loop
      vertex -0.960388 -17.5724 1.52871
      vertex -0.326454 -17.5724 1.37005
      vertex -0.960388 -16.7503 1.52871
    endloop
  endfacet
  facet normal 0.13043 -2.4425e-15 0.521157
    outer loop
      vertex -0.960388 -16.7503 1.52871
      vertex -0.326454 -17.5724 1.37005
      vertex -0.326454 -16.7503 1.37005
    endloop
  endfacet
  facet normal 0 0 0.536754
    outer loop
      vertex -0.326454 -17.5724 1.37005
      vertex 0.326453 -17.5724 1.37005
      vertex 0.326453 -16.7503 1.37005
    endloop
  endfacet
  facet normal 0 0 0.536754
    outer loop
      vertex -0.326454 -16.7503 1.37005
      vertex -0.326454 -17.5724 1.37005
      vertex 0.326453 -16.7503 1.37005
    endloop
  endfacet
  facet normal -0.13043 2.4425e-15 0.521157
    outer loop
      vertex 0.326453 -17.5724 1.37005
      vertex 0.960388 -17.5724 1.52871
      vertex 0.326453 -16.7503 1.37005
    endloop
  endfacet
  facet normal -0.13043 -2.51231e-15 0.521157
    outer loop
      vertex 0.326453 -16.7503 1.37005
      vertex 0.960388 -17.5724 1.52871
      vertex 0.960388 -16.7503 1.52871
    endloop
  endfacet
  facet normal -0.25328 2.24487e-16 0.475273
    outer loop
      vertex 0.960388 -17.5724 1.52871
      vertex 1.53851 -17.5724 1.83679
      vertex 0.960388 -16.7503 1.52871
    endloop
  endfacet
  facet normal -5.62394e-16 0.103587 1.05532e-15
    outer loop
      vertex 0.960388 -17.5724 1.52871
      vertex 2.02722 -17.5724 2.27641
      vertex 1.53851 -17.5724 1.83679
    endloop
  endfacet
  facet normal -0.36141 2.10224e-15 0.401767
    outer loop
      vertex 1.53851 -17.5724 1.83679
      vertex 2.02722 -17.5724 2.27641
      vertex 1.53851 -16.7503 1.83679
    endloop
  endfacet
  facet normal -0.36141 -6.53616e-16 0.401767
    outer loop
      vertex 1.53851 -16.7503 1.83679
      vertex 2.02722 -17.5724 2.27641
      vertex 2.02722 -16.7503 2.27641
    endloop
  endfacet
  facet normal -0.448536 1.95132e-15 0.304911
    outer loop
      vertex 2.02722 -17.5724 2.27641
      vertex 2.39811 -17.5724 2.82201
      vertex 2.02722 -16.7503 2.27641
    endloop
  endfacet
  facet normal 0 0.103587 0
    outer loop
      vertex 2.02722 -17.5724 2.27641
      vertex 2.62963 -17.5724 3.44188
      vertex 2.39811 -17.5724 2.82201
    endloop
  endfacet
  facet normal -0.509595 2.05711e-15 0.190336
    outer loop
      vertex 2.39811 -17.5724 2.82201
      vertex 2.62963 -17.5724 3.44188
      vertex 2.39811 -16.7503 2.82201
    endloop
  endfacet
  facet normal -0.509595 -1.23343e-15 0.190336
    outer loop
      vertex 2.39811 -16.7503 2.82201
      vertex 2.62963 -17.5724 3.44188
      vertex 2.62963 -16.7503 3.44188
    endloop
  endfacet
  facet normal 0 0.4197 0
    outer loop
      vertex 2.39811 -16.7503 2.82201
      vertex 2.62963 -16.7503 3.44188
      vertex 3.14167 -16.7503 3
    endloop
  endfacet
  facet normal 0 0.339669 0
    outer loop
      vertex 2.39811 -16.7503 2.82201
      vertex 3.14167 -16.7503 3
      vertex 2.02722 -16.7503 2.27641
    endloop
  endfacet
  facet normal 0 0.313555 0
    outer loop
      vertex 3.14167 -16.7503 3
      vertex 3.575 -16.7503 3
      vertex 2.02722 -16.7503 2.27641
    endloop
  endfacet
  facet normal 0 -1.69346e-15 0.801547
    outer loop
      vertex 3.14167 -18.6 3
      vertex 3.575 -18.6 3
      vertex 3.575 -16.7503 3
    endloop
  endfacet
  facet normal 0 -1.69346e-15 0.801547
    outer loop
      vertex 3.14167 -16.7503 3
      vertex 3.14167 -18.6 3
      vertex 3.575 -16.7503 3
    endloop
  endfacet
  facet normal 6.60428e-16 6.16979 -1.41268e-15
    outer loop
      vertex 2.02722 -16.7503 2.27641
      vertex 3.575 -16.7503 3
      vertex 4.63563 -16.7503 -0.490367
    endloop
  endfacet
  facet normal -5.33274e-15 4.30963 -2.74743e-15
    outer loop
      vertex 3.575 -16.7503 3
      vertex 5.52454 -16.7503 0.647638
      vertex 4.63563 -16.7503 -0.490367
    endloop
  endfacet
  facet normal 9.51596e-16 4.00808 2.34377e-15
    outer loop
      vertex 3.575 -16.7503 3
      vertex 6.14292 -16.7503 1.9574
      vertex 5.52454 -16.7503 0.647638
    endloop
  endfacet
  facet normal 0 3.96767 0
    outer loop
      vertex 3.575 -16.7503 3
      vertex 6.45999 -16.7503 3.37376
      vertex 6.14292 -16.7503 1.9574
    endloop
  endfacet
  facet normal -22.4144 0.0557843 5.01784
    outer loop
      vertex 6.14292 -16.7503 1.9574
      vertex 6.45999 -16.7503 3.37376
      vertex 6.37068 -0.924862 2.79885
    endloop
  endfacet
  facet normal -19.7608 -0.0376748 6.05727
    outer loop
      vertex 5.98792 -0.924862 1.55018
      vertex 6.14292 -16.7503 1.9574
      vertex 6.37068 -0.924862 2.79885
    endloop
  endfacet
  facet normal -12.7798 3.95898e-15 16.0319
    outer loop
      vertex 3.52041 -16.7503 -1.4
      vertex 4.53346 -0.924862 -0.592451
      vertex 3.52041 -0.924862 -1.4
    endloop
  endfacet
  facet normal -20.7275 0.0488052 9.78605
    outer loop
      vertex 5.52454 -16.7503 0.647638
      vertex 6.14292 -16.7503 1.9574
      vertex 5.98792 -0.924862 1.55018
    endloop
  endfacet
  facet normal -18.1334 -0.0292977 9.82365
    outer loop
      vertex 5.36717 -0.924862 0.404343
      vertex 5.52454 -16.7503 0.647638
      vertex 5.98792 -0.924862 1.55018
    endloop
  endfacet
  facet normal -18.0094 0.0371771 14.0674
    outer loop
      vertex 4.63563 -16.7503 -0.490367
      vertex 5.52454 -16.7503 0.647638
      vertex 5.36717 -0.924862 0.404343
    endloop
  endfacet
  facet normal -15.7747 -0.0167374 13.1938
    outer loop
      vertex 4.53346 -0.924862 -0.592451
      vertex 4.63563 -16.7503 -0.490367
      vertex 5.36717 -0.924862 0.404343
    endloop
  endfacet
  facet normal -14.3953 0.020906 17.6489
    outer loop
      vertex 3.52041 -16.7503 -1.4
      vertex 4.63563 -16.7503 -0.490367
      vertex 4.53346 -0.924862 -0.592451
    endloop
  endfacet
  facet normal 0.356717 2.62909e-16 0.133235
    outer loop
      vertex -2.10371 8.32376 3.57351
      vertex -1.91849 8.32376 3.07761
      vertex -2.10371 9.04309 3.57351
    endloop
  endfacet
  facet normal 0.356717 -6.91388e-16 0.133235
    outer loop
      vertex -2.10371 9.04309 3.57351
      vertex -1.91849 8.32376 3.07761
      vertex -1.91849 9.04309 3.07761
    endloop
  endfacet
  facet normal 0.313975 9.58808e-16 0.213438
    outer loop
      vertex -1.91849 8.32376 3.07761
      vertex -1.62177 8.32376 2.64113
      vertex -1.91849 9.04309 3.07761
    endloop
  endfacet
  facet normal 0.313975 -4.60924e-16 0.213438
    outer loop
      vertex -1.91849 9.04309 3.07761
      vertex -1.62177 8.32376 2.64113
      vertex -1.62177 9.04309 2.64113
    endloop
  endfacet
  facet normal 0.252987 1.11254e-15 0.281237
    outer loop
      vertex -1.62177 8.32376 2.64113
      vertex -1.23081 8.32376 2.28944
      vertex -1.62177 9.04309 2.64113
    endloop
  endfacet
  facet normal 0.252987 9.73459e-17 0.281237
    outer loop
      vertex -1.62177 9.04309 2.64113
      vertex -1.23081 8.32376 2.28944
      vertex -1.23081 9.04309 2.28944
    endloop
  endfacet
  facet normal 0.177296 1.90989e-15 0.332691
    outer loop
      vertex -1.23081 8.32376 2.28944
      vertex -0.768311 8.32376 2.04296
      vertex -1.23081 9.04309 2.28944
    endloop
  endfacet
  facet normal 0.177296 1.67274e-15 0.332691
    outer loop
      vertex -1.23081 9.04309 2.28944
      vertex -0.768311 8.32376 2.04296
      vertex -0.768311 9.04309 2.04296
    endloop
  endfacet
  facet normal 0.091301 3.48931e-15 0.36481
    outer loop
      vertex -0.768311 8.32376 2.04296
      vertex -0.261163 8.32376 1.91604
      vertex -0.768311 9.04309 2.04296
    endloop
  endfacet
  facet normal 2.81116e-15 3.06186e-15 0.375728
    outer loop
      vertex -0.261163 8.32376 1.91604
      vertex 0.261163 8.32376 1.91604
      vertex -0.261163 9.04309 1.91604
    endloop
  endfacet
  facet normal 0.091301 1.50739e-15 0.36481
    outer loop
      vertex -0.768311 9.04309 2.04296
      vertex -0.261163 8.32376 1.91604
      vertex -0.261163 9.04309 1.91604
    endloop
  endfacet
  facet normal 0 1.02062e-15 0.375728
    outer loop
      vertex -0.261163 9.04309 1.91604
      vertex 0.261163 8.32376 1.91604
      vertex 0.261163 9.04309 1.91604
    endloop
  endfacet
  facet normal -0.091301 2.70072e-15 0.36481
    outer loop
      vertex 0.261163 8.32376 1.91604
      vertex 0.768311 8.32376 2.04296
      vertex 0.261163 9.04309 1.91604
    endloop
  endfacet
  facet normal -0.177296 1.94212e-15 0.332691
    outer loop
      vertex 0.768311 8.32376 2.04296
      vertex 1.23081 8.32376 2.28944
      vertex 0.768311 9.04309 2.04296
    endloop
  endfacet
  facet normal -0.091301 4.7454e-16 0.36481
    outer loop
      vertex 0.261163 9.04309 1.91604
      vertex 0.768311 8.32376 2.04296
      vertex 0.768311 9.04309 2.04296
    endloop
  endfacet
  facet normal -0.252987 1.94324e-15 0.281237
    outer loop
      vertex 1.23081 8.32376 2.28944
      vertex 1.62177 8.32376 2.64113
      vertex 1.23081 9.04309 2.28944
    endloop
  endfacet
  facet normal -0.177296 9.93509e-16 0.332691
    outer loop
      vertex 0.768311 9.04309 2.04296
      vertex 1.23081 8.32376 2.28944
      vertex 1.23081 9.04309 2.28944
    endloop
  endfacet
  facet normal -0.313975 1.10013e-15 0.213438
    outer loop
      vertex 1.62177 8.32376 2.64113
      vertex 1.91849 8.32376 3.07761
      vertex 1.62177 9.04309 2.64113
    endloop
  endfacet
  facet normal -0.252987 5.89648e-16 0.281237
    outer loop
      vertex 1.23081 9.04309 2.28944
      vertex 1.62177 8.32376 2.64113
      vertex 1.62177 9.04309 2.64113
    endloop
  endfacet
  facet normal -0.313975 5.20351e-16 0.213438
    outer loop
      vertex 1.62177 9.04309 2.64113
      vertex 1.91849 8.32376 3.07761
      vertex 1.91849 9.04309 3.07761
    endloop
  endfacet
  facet normal -0.356717 1.18476e-15 0.133235
    outer loop
      vertex 1.91849 8.32376 3.07761
      vertex 2.10371 8.32376 3.57351
      vertex 1.91849 9.04309 3.07761
    endloop
  endfacet
  facet normal -0.356717 -7.23834e-16 0.133235
    outer loop
      vertex 1.91849 9.04309 3.07761
      vertex 2.10371 8.32376 3.57351
      vertex 2.10371 9.04309 3.57351
    endloop
  endfacet
  facet normal 3.55443 9.12904e-16 1.32759
    outer loop
      vertex -1.57778 9.04309 3.70513
      vertex -1.43887 9.04309 3.33321
      vertex -1.57778 18.6 3.70513
    endloop
  endfacet
  facet normal 3.55443 1.97181e-16 1.32759
    outer loop
      vertex -1.57778 18.6 3.70513
      vertex -1.43887 9.04309 3.33321
      vertex -1.43887 18.6 3.33321
    endloop
  endfacet
  facet normal 3.12854 1.34907e-15 2.12676
    outer loop
      vertex -1.43887 9.04309 3.33321
      vertex -1.21633 9.04309 3.00585
      vertex -1.43887 18.6 3.33321
    endloop
  endfacet
  facet normal 3.12854 7.19106e-16 2.12676
    outer loop
      vertex -1.43887 18.6 3.33321
      vertex -1.21633 9.04309 3.00585
      vertex -1.21633 18.6 3.00585
    endloop
  endfacet
  facet normal 2.52083 1.91496e-15 2.80232
    outer loop
      vertex -1.21633 9.04309 3.00585
      vertex -0.923105 9.04309 2.74208
      vertex -1.21633 18.6 3.00585
    endloop
  endfacet
  facet normal 1.76663 1.28823e-15 3.31503
    outer loop
      vertex -0.923105 9.04309 2.74208
      vertex -0.576233 9.04309 2.55722
      vertex -0.923105 18.6 2.74208
    endloop
  endfacet
  facet normal 2.52083 2.61446e-16 2.80232
    outer loop
      vertex -1.21633 18.6 3.00585
      vertex -0.923105 9.04309 2.74208
      vertex -0.923105 18.6 2.74208
    endloop
  endfacet
  facet normal 1.76663 6.1044e-16 3.31503
    outer loop
      vertex -0.923105 18.6 2.74208
      vertex -0.576233 9.04309 2.55722
      vertex -0.576233 18.6 2.55722
    endloop
  endfacet
  facet normal 0.909749 1.49692e-15 3.63507
    outer loop
      vertex -0.576233 9.04309 2.55722
      vertex -0.195872 9.04309 2.46203
      vertex -0.576233 18.6 2.55722
    endloop
  endfacet
  facet normal 0.909749 -1.72717e-16 3.63507
    outer loop
      vertex -0.576233 18.6 2.55722
      vertex -0.195872 9.04309 2.46203
      vertex -0.195872 18.6 2.46203
    endloop
  endfacet
  facet normal 0 7.65465e-16 3.74386
    outer loop
      vertex -0.195872 9.04309 2.46203
      vertex 0.195872 9.04309 2.46203
      vertex 0.195872 18.6 2.46203
    endloop
  endfacet
  facet normal 0 7.65465e-16 3.74386
    outer loop
      vertex -0.195872 18.6 2.46203
      vertex -0.195872 9.04309 2.46203
      vertex 0.195872 18.6 2.46203
    endloop
  endfacet
  facet normal -0.909749 1.65916e-15 3.63507
    outer loop
      vertex 0.195872 9.04309 2.46203
      vertex 0.576233 9.04309 2.55722
      vertex 0.195872 18.6 2.46203
    endloop
  endfacet
  facet normal -0.909749 -1.04709e-17 3.63507
    outer loop
      vertex 0.195872 18.6 2.46203
      vertex 0.576233 9.04309 2.55722
      vertex 0.576233 18.6 2.55722
    endloop
  endfacet
  facet normal -1.76663 7.45132e-16 3.31503
    outer loop
      vertex 0.576233 9.04309 2.55722
      vertex 0.923105 9.04309 2.74208
      vertex 0.576233 18.6 2.55722
    endloop
  endfacet
  facet normal -1.76663 1.06719e-15 3.31503
    outer loop
      vertex 0.576233 18.6 2.55722
      vertex 0.923105 9.04309 2.74208
      vertex 0.923105 18.6 2.74208
    endloop
  endfacet
  facet normal -2.52083 1.52279e-15 2.80232
    outer loop
      vertex 0.923105 9.04309 2.74208
      vertex 1.21633 9.04309 3.00585
      vertex 0.923105 18.6 2.74208
    endloop
  endfacet
  facet normal -3.12854 1.25993e-15 2.12676
    outer loop
      vertex 1.21633 9.04309 3.00585
      vertex 1.43887 9.04309 3.33321
      vertex 1.21633 18.6 3.00585
    endloop
  endfacet
  facet normal -2.52083 1.01519e-15 2.80232
    outer loop
      vertex 0.923105 18.6 2.74208
      vertex 1.21633 9.04309 3.00585
      vertex 1.21633 18.6 3.00585
    endloop
  endfacet
  facet normal -3.55443 0 1.32759
    outer loop
      vertex 1.43887 9.04309 3.33321
      vertex 1.57778 9.04309 3.70513
      vertex 1.57778 18.6 3.70513
    endloop
  endfacet
  facet normal -3.12854 6.29966e-16 2.12676
    outer loop
      vertex 1.21633 18.6 3.00585
      vertex 1.43887 9.04309 3.33321
      vertex 1.43887 18.6 3.33321
    endloop
  endfacet
  facet normal -3.55443 7.15722e-16 1.32759
    outer loop
      vertex 1.43887 9.04309 3.33321
      vertex 1.57778 18.6 3.70513
      vertex 1.43887 18.6 3.33321
    endloop
  endfacet
  facet normal 0 1.80859 -1.19183e-15
    outer loop
      vertex -0.326454 -16.7503 1.37005
      vertex 0.326453 -16.7503 1.37005
      vertex -3.52041 -16.7503 -1.4
    endloop
  endfacet
  facet normal 0 19.5034 -1.28525e-14
    outer loop
      vertex -3.52041 -16.7503 -1.4
      vertex 0.326453 -16.7503 1.37005
      vertex 3.52041 -16.7503 -1.4
    endloop
  endfacet
  facet normal -2.89613e-16 2.26277 -1.1572e-15
    outer loop
      vertex -3.52041 -16.7503 -1.4
      vertex -0.960388 -16.7503 1.52871
      vertex -0.326454 -16.7503 1.37005
    endloop
  endfacet
  facet normal -5.62394e-16 2.48186 -1.05532e-15
    outer loop
      vertex -3.52041 -16.7503 -1.4
      vertex -1.53851 -16.7503 1.83679
      vertex -0.960388 -16.7503 1.52871
    endloop
  endfacet
  facet normal -1.66047e-15 5.41255 -2.03576e-15
    outer loop
      vertex -4.63563 -16.7503 -0.490367
      vertex -1.53851 -16.7503 1.83679
      vertex -3.52041 -16.7503 -1.4
    endloop
  endfacet
  facet normal 1.66047e-15 5.41255 -2.03576e-15
    outer loop
      vertex 1.53851 -16.7503 1.83679
      vertex 4.63563 -16.7503 -0.490367
      vertex 3.52041 -16.7503 -1.4
    endloop
  endfacet
  facet normal 5.62394e-16 2.48186 -1.05532e-15
    outer loop
      vertex 0.960388 -16.7503 1.52871
      vertex 1.53851 -16.7503 1.83679
      vertex 3.52041 -16.7503 -1.4
    endloop
  endfacet
  facet normal 2.89613e-16 2.26277 -1.1572e-15
    outer loop
      vertex 0.326453 -16.7503 1.37005
      vertex 0.960388 -16.7503 1.52871
      vertex 3.52041 -16.7503 -1.4
    endloop
  endfacet
  facet normal -2.92652e-15 2.49885 1.93468e-15
    outer loop
      vertex -4.63563 -16.7503 -0.490367
      vertex -2.02722 -16.7503 2.27641
      vertex -1.53851 -16.7503 1.83679
    endloop
  endfacet
  facet normal 0.448536 -1.70038e-15 0.304911
    outer loop
      vertex -2.39811 -16.7503 2.82201
      vertex -2.02722 -17.5724 2.27641
      vertex -2.02722 -16.7503 2.27641
    endloop
  endfacet
  facet normal -0.25328 -3.68395e-16 0.475273
    outer loop
      vertex 0.960388 -16.7503 1.52871
      vertex 1.53851 -17.5724 1.83679
      vertex 1.53851 -16.7503 1.83679
    endloop
  endfacet
  facet normal 2.92652e-15 2.49885 1.93468e-15
    outer loop
      vertex 1.53851 -16.7503 1.83679
      vertex 2.02722 -16.7503 2.27641
      vertex 4.63563 -16.7503 -0.490367
    endloop
  endfacet
  facet normal -0.448536 -1.48568e-16 0.304911
    outer loop
      vertex 2.02722 -16.7503 2.27641
      vertex 2.39811 -17.5724 2.82201
      vertex 2.39811 -16.7503 2.82201
    endloop
  endfacet
endsolid polyhedron
