solid polyhedron
  facet normal -498 -0 0
    outer loop
      vertex -20.75 -20.75 6
      vertex -20.75 20.75 6
      vertex -20.75 -20.75 -6
    endloop
  endfacet
  facet normal -498 -0 0
    outer loop
      vertex -20.75 -20.75 -6
      vertex -20.75 20.75 6
      vertex -20.75 20.75 -6
    endloop
  endfacet
  facet normal -0 498 -0
    outer loop
      vertex -20.75 20.75 6
      vertex 20.75 20.75 6
      vertex -20.75 20.75 -6
    endloop
  endfacet
  facet normal 0 498 0
    outer loop
      vertex -20.75 20.75 -6
      vertex 20.75 20.75 6
      vertex 20.75 20.75 -6
    endloop
  endfacet
  facet normal -0 0 599.791
    outer loop
      vertex 6.2972 2.11128 6
      vertex 20.75 -20.75 6
      vertex 20.75 20.75 6
    endloop
  endfacet
  facet normal -0 -0 0.00588511
    outer loop
      vertex -6.29495 0.945 6
      vertex -6.2972 2.11128 6
      vertex -6.3 0.945 6
    endloop
  endfacet
  facet normal -0 -0 2.26223e-16
    outer loop
      vertex -1.49117 17.955 6
      vertex -2.18227 17.955 6
      vertex -2.03597 17.955 6
    endloop
  endfacet
  facet normal -0 -0 599.675
    outer loop
      vertex -20.75 20.75 6
      vertex -20.75 -20.75 6
      vertex -6.3 0.945 6
    endloop
  endfacet
  facet normal -0 -0 162.457
    outer loop
      vertex 1.56893 -10.5354 6
      vertex 1.56893 -19.005 6
      vertex 20.75 -20.75 6
    endloop
  endfacet
  facet normal 0 -0 2.78389
    outer loop
      vertex -2.09393 -9.24 6
      vertex -2.09393 -8.57813 6
      vertex -6.3 -8.505 6
    endloop
  endfacet
  facet normal -0 0 16.9081
    outer loop
      vertex -20.75 20.75 6
      vertex -6.3 0.945 6
      vertex -6.2972 2.11128 6
    endloop
  endfacet
  facet normal -0 0 217.516
    outer loop
      vertex -20.75 20.75 6
      vertex -6.2972 2.11128 6
      vertex -6.26122 17.115 6
    endloop
  endfacet
  facet normal -0 -0 0.0284859
    outer loop
      vertex -2.61893 17.115 6
      vertex -2.61893 17.1819 6
      vertex -3.045 17.115 6
    endloop
  endfacet
  facet normal -0 0 72.4175
    outer loop
      vertex -20.75 20.75 6
      vertex -3.465 19.005 6
      vertex 20.75 20.75 6
    endloop
  endfacet
  facet normal -0 0 37.5481
    outer loop
      vertex -20.75 20.75 6
      vertex -6.26122 17.115 6
      vertex -3.465 19.005 6
    endloop
  endfacet
  facet normal 0 0 0.7329
    outer loop
      vertex -3.465 19.005 6
      vertex -3.045 19.005 6
      vertex 20.75 20.75 6
    endloop
  endfacet
  facet normal -0 -0 32.6687
    outer loop
      vertex 3.465 19.005 6
      vertex 3.465 17.115 6
      vertex 20.75 20.75 6
    endloop
  endfacet
  facet normal -0 0 217.516
    outer loop
      vertex 6.26122 17.115 6
      vertex 6.2972 2.11128 6
      vertex 20.75 20.75 6
    endloop
  endfacet
  facet normal -0 0 0.329414
    outer loop
      vertex -3.045 19.005 6
      vertex -2.61893 17.1819 6
      vertex -2.61893 17.955 6
    endloop
  endfacet
  facet normal -0 -0 4.82339e-17
    outer loop
      vertex 1.96484 17.955 6
      vertex -0.00607123 17.955 6
      vertex 0.313554 17.955 6
    endloop
  endfacet
  facet normal -0 -0 2.96931e-18
    outer loop
      vertex 1.96484 17.955 6
      vertex 0.313554 17.955 6
      vertex 0.626746 17.955 6
    endloop
  endfacet
  facet normal -0 -0 4.98968e-16
    outer loop
      vertex 1.96484 17.955 6
      vertex 0.626746 17.955 6
      vertex 1.54812 17.955 6
    endloop
  endfacet
  facet normal 0 -0 0.329414
    outer loop
      vertex 3.045 17.115 6
      vertex 2.61893 17.955 6
      vertex 2.61893 17.1819 6
    endloop
  endfacet
  facet normal -0 -0 0.0284859
    outer loop
      vertex 3.045 17.115 6
      vertex 2.61893 17.1819 6
      vertex 2.61893 17.115 6
    endloop
  endfacet
  facet normal 0 0 10.6271
    outer loop
      vertex -3.045 19.005 6
      vertex 3.045 19.005 6
      vertex 20.75 20.75 6
    endloop
  endfacet
  facet normal -0 0 6.3945
    outer loop
      vertex -3.045 19.005 6
      vertex -2.61893 17.955 6
      vertex 3.045 19.005 6
    endloop
  endfacet
  facet normal 0 0 0.7329
    outer loop
      vertex 3.045 19.005 6
      vertex 3.465 19.005 6
      vertex 20.75 20.75 6
    endloop
  endfacet
  facet normal 0 0 10.1643
    outer loop
      vertex 3.465 17.115 6
      vertex 6.26122 17.115 6
      vertex 20.75 20.75 6
    endloop
  endfacet
  facet normal -0 -0 16.792
    outer loop
      vertex 6.3 0.945 6
      vertex 20.75 -20.75 6
      vertex 6.2972 2.11128 6
    endloop
  endfacet
  facet normal 0 0 0.0058851
    outer loop
      vertex 6.29495 0.945 6
      vertex 6.3 0.945 6
      vertex 6.2972 2.11128 6
    endloop
  endfacet
  facet normal -0 0 51.5033
    outer loop
      vertex 2.09393 -8.505 6
      vertex 20.75 -20.75 6
      vertex 6.3 -8.505 6
    endloop
  endfacet
  facet normal -0 0 1.36423
    outer loop
      vertex 2.09393 -8.57813 6
      vertex 20.75 -20.75 6
      vertex 2.09393 -8.505 6
    endloop
  endfacet
  facet normal -0 0 12.348
    outer loop
      vertex 2.09393 -9.24 6
      vertex 20.75 -20.75 6
      vertex 2.09393 -8.57813 6
    endloop
  endfacet
  facet normal -0 0 6.04275
    outer loop
      vertex 1.56893 -9.24 6
      vertex 20.75 -20.75 6
      vertex 2.09393 -9.24 6
    endloop
  endfacet
  facet normal 0 -0 0.30757
    outer loop
      vertex -2.09393 -8.57813 6
      vertex -2.09393 -8.505 6
      vertex -6.3 -8.505 6
    endloop
  endfacet
  facet normal -0 0 24.8464
    outer loop
      vertex 1.56893 -10.5354 6
      vertex 20.75 -20.75 6
      vertex 1.56893 -9.24 6
    endloop
  endfacet
  facet normal 0 -0 0.680064
    outer loop
      vertex -1.56893 -10.5354 6
      vertex -1.56893 -9.24 6
      vertex -2.09393 -9.24 6
    endloop
  endfacet
  facet normal 0 -0 5.0625
    outer loop
      vertex -1.56893 -10.5354 6
      vertex -2.09393 -9.24 6
      vertex -6.3 -8.505 6
    endloop
  endfacet
  facet normal 0 0 72.4175
    outer loop
      vertex -20.75 -20.75 6
      vertex 20.75 -20.75 6
      vertex 1.56893 -19.005 6
    endloop
  endfacet
  facet normal 0 0 209.657
    outer loop
      vertex -20.75 -20.75 6
      vertex -1.56893 -19.005 6
      vertex -6.3 -8.505 6
    endloop
  endfacet
  facet normal 0 0 5.47556
    outer loop
      vertex -20.75 -20.75 6
      vertex 1.56893 -19.005 6
      vertex -1.56893 -19.005 6
    endloop
  endfacet
  facet normal 0 -0 40.0705
    outer loop
      vertex -1.56893 -19.005 6
      vertex -1.56893 -10.5354 6
      vertex -6.3 -8.505 6
    endloop
  endfacet
  facet normal -0 -0 136.553
    outer loop
      vertex 6.3 0.945 6
      vertex 6.3 -8.505 6
      vertex 20.75 -20.75 6
    endloop
  endfacet
  facet normal -0 -0 136.553
    outer loop
      vertex -6.3 -8.505 6
      vertex -6.3 0.945 6
      vertex -20.75 -20.75 6
    endloop
  endfacet
  facet normal -0 -0 1.17043e-17
    outer loop
      vertex 2.61893 17.955 6
      vertex -0.00607123 17.955 6
      vertex 1.96484 17.955 6
    endloop
  endfacet
  facet normal -0 -0 1.0277e-16
    outer loop
      vertex -0.316409 17.955 6
      vertex -1.49117 17.955 6
      vertex -0.946372 17.955 6
    endloop
  endfacet
  facet normal -0 -0 1.14524e-18
    outer loop
      vertex -0.00607123 17.955 6
      vertex -1.49117 17.955 6
      vertex -0.316409 17.955 6
    endloop
  endfacet
  facet normal -0 -0 5.28486
    outer loop
      vertex -3.465 17.115 6
      vertex -3.465 19.005 6
      vertex -6.26122 17.115 6
    endloop
  endfacet
  facet normal -0 -0 0.805274
    outer loop
      vertex -3.045 19.005 6
      vertex -3.045 17.115 6
      vertex -2.61893 17.1819 6
    endloop
  endfacet
  facet normal -0 -0 9.42496e-18
    outer loop
      vertex -1.49117 17.955 6
      vertex -2.61893 17.955 6
      vertex -2.18227 17.955 6
    endloop
  endfacet
  facet normal -0 -0 1.18415
    outer loop
      vertex -1.49117 17.955 6
      vertex 3.045 19.005 6
      vertex -2.61893 17.955 6
    endloop
  endfacet
  facet normal -0 -0 1.55935
    outer loop
      vertex -0.00607123 17.955 6
      vertex 3.045 19.005 6
      vertex -1.49117 17.955 6
    endloop
  endfacet
  facet normal -0 -0 2.75625
    outer loop
      vertex 2.61893 17.955 6
      vertex 3.045 19.005 6
      vertex -0.00607123 17.955 6
    endloop
  endfacet
  facet normal 0 -0 0.805274
    outer loop
      vertex 3.045 17.115 6
      vertex 3.045 19.005 6
      vertex 2.61893 17.955 6
    endloop
  endfacet
  facet normal -0 0 -1722.25
    outer loop
      vertex -20.75 20.75 -6
      vertex 20.75 20.75 -6
      vertex -20.75 -20.75 -6
    endloop
  endfacet
  facet normal -0 0 -1722.25
    outer loop
      vertex -20.75 -20.75 -6
      vertex 20.75 20.75 -6
      vertex 20.75 -20.75 -6
    endloop
  endfacet
  facet normal -0 -498 0
    outer loop
      vertex -20.75 -20.75 -6
      vertex 20.75 -20.75 -6
      vertex 20.75 -20.75 6
    endloop
  endfacet
  facet normal -0 -498 0
    outer loop
      vertex -20.75 -20.75 6
      vertex -20.75 -20.75 -6
      vertex 20.75 -20.75 6
    endloop
  endfacet
  facet normal 498 0 0
    outer loop
      vertex 20.75 -20.75 -6
      vertex 20.75 20.75 -6
      vertex 20.75 20.75 6
    endloop
  endfacet
  facet normal 498 -0 -0
    outer loop
      vertex 20.75 -20.75 6
      vertex 20.75 -20.75 -6
      vertex 20.75 20.75 6
    endloop
  endfacet
  facet normal 49.14 0 0
    outer loop
      vertex -6.3 -8.505 0.8
      vertex -6.3 0.945 0.8
      vertex -6.3 0.945 6
    endloop
  endfacet
  facet normal 49.14 0 0
    outer loop
      vertex -6.3 -8.505 6
      vertex -6.3 -8.505 0.8
      vertex -6.3 0.945 6
    endloop
  endfacet
  facet normal 0 21.8716 0
    outer loop
      vertex -6.3 -8.505 6
      vertex -2.09393 -8.505 6
      vertex -6.3 -8.505 0.8
    endloop
  endfacet
  facet normal 0 2.18926 0
    outer loop
      vertex -6.3 -8.505 0.8
      vertex -2.09393 -8.505 6
      vertex -2.03898 -8.505 5.54744
    endloop
  endfacet
  facet normal 0 2.86924 0
    outer loop
      vertex -6.3 -8.505 0.8
      vertex -2.03898 -8.505 5.54744
      vertex -1.85946 -8.505 5.07408
    endloop
  endfacet
  facet normal 0 3.07926 0
    outer loop
      vertex -1.85946 -8.505 5.07408
      vertex -1.57187 -8.505 4.65744
      vertex -6.3 -8.505 0.8
    endloop
  endfacet
  facet normal 0 3.049 0
    outer loop
      vertex -1.57187 -8.505 4.65744
      vertex -1.19294 -8.505 4.32173
      vertex -6.3 -8.505 0.8
    endloop
  endfacet
  facet normal 0 2.7802 0
    outer loop
      vertex -1.19294 -8.505 4.32173
      vertex -0.74467 -8.505 4.08647
      vertex -6.3 -8.505 0.8
    endloop
  endfacet
  facet normal 0 2.28849 0
    outer loop
      vertex -0.74467 -8.505 4.08647
      vertex -0.253127 -8.505 3.96531
      vertex -6.3 -8.505 0.8
    endloop
  endfacet
  facet normal 0 1.60245 0
    outer loop
      vertex -0.253127 -8.505 3.96531
      vertex 0.253127 -8.505 3.96531
      vertex -6.3 -8.505 0.8
    endloop
  endfacet
  facet normal 0 0.761946 0
    outer loop
      vertex 0.253127 -8.505 3.96531
      vertex 0.74467 -8.505 4.08647
      vertex -6.3 -8.505 0.8
    endloop
  endfacet
  facet normal 0 4.77718 0
    outer loop
      vertex 0.74467 -8.505 4.08647
      vertex 6.3 -8.505 6
      vertex -6.3 -8.505 0.8
    endloop
  endfacet
  facet normal 0 0.44922 0
    outer loop
      vertex 1.19294 -8.505 4.32173
      vertex 6.3 -8.505 6
      vertex 0.74467 -8.505 4.08647
    endloop
  endfacet
  facet normal 0 1.07853 0
    outer loop
      vertex 1.57187 -8.505 4.65744
      vertex 6.3 -8.505 6
      vertex 1.19294 -8.505 4.32173
    endloop
  endfacet
  facet normal 0 1.58382 0
    outer loop
      vertex 1.85946 -8.505 5.07408
      vertex 6.3 -8.505 6
      vertex 1.57187 -8.505 4.65744
    endloop
  endfacet
  facet normal 0 1.90351 0
    outer loop
      vertex 2.03898 -8.505 5.54744
      vertex 2.09393 -8.505 6
      vertex 6.3 -8.505 6
    endloop
  endfacet
  facet normal 0 1.93574 0
    outer loop
      vertex 2.03898 -8.505 5.54744
      vertex 6.3 -8.505 6
      vertex 1.85946 -8.505 5.07408
    endloop
  endfacet
  facet normal 0 65.52 0
    outer loop
      vertex -6.3 -8.505 0.8
      vertex 6.3 -8.505 6
      vertex 6.3 -8.505 0.8
    endloop
  endfacet
  facet normal 0.332634 -1.07326e-15 0.040389
    outer loop
      vertex -2.09393 -8.57813 6
      vertex -2.03898 -9.24 5.54744
      vertex -2.03898 -8.505 5.54744
    endloop
  endfacet
  facet normal 0.0330937 -1.06778e-16 0.00401831
    outer loop
      vertex -2.09393 -8.505 6
      vertex -2.09393 -8.57813 6
      vertex -2.03898 -8.505 5.54744
    endloop
  endfacet
  facet normal 0.29954 7.3837e-16 0.0363707
    outer loop
      vertex -2.09393 -8.57813 6
      vertex -2.09393 -9.24 6
      vertex -2.03898 -9.24 5.54744
    endloop
  endfacet
  facet normal 0 0.171634 0
    outer loop
      vertex -1.56893 -9.24 6
      vertex -1.52923 -9.24 5.67308
      vertex -2.09393 -9.24 6
    endloop
  endfacet
  facet normal 0 0.15646 0
    outer loop
      vertex -2.09393 -9.24 6
      vertex -1.52923 -9.24 5.67308
      vertex -1.39459 -9.24 5.31806
    endloop
  endfacet
  facet normal 0 0.0714412 0
    outer loop
      vertex -1.39459 -9.24 5.31806
      vertex -1.1789 -9.24 5.00558
      vertex -2.09393 -9.24 6
    endloop
  endfacet
  facet normal 0 0.031263 0
    outer loop
      vertex -1.1789 -9.24 5.00558
      vertex -0.253127 -9.24 3.96531
      vertex -2.09393 -9.24 6
    endloop
  endfacet
  facet normal 0 0.0714412 0
    outer loop
      vertex 1.39459 -9.24 5.31806
      vertex 2.09393 -9.24 6
      vertex 1.1789 -9.24 5.00558
    endloop
  endfacet
  facet normal 0 0.171634 0
    outer loop
      vertex 1.52923 -9.24 5.67308
      vertex 1.56893 -9.24 6
      vertex 2.09393 -9.24 6
    endloop
  endfacet
  facet normal 0 0.15646 0
    outer loop
      vertex 1.52923 -9.24 5.67308
      vertex 2.09393 -9.24 6
      vertex 1.39459 -9.24 5.31806
    endloop
  endfacet
  facet normal 0 0.359462 0
    outer loop
      vertex 1.1789 -9.24 5.00558
      vertex 2.09393 -9.24 6
      vertex 2.03898 -9.24 5.54744
    endloop
  endfacet
  facet normal 0 0.0625539 0
    outer loop
      vertex 1.1789 -9.24 5.00558
      vertex 2.03898 -9.24 5.54744
      vertex 0.894702 -9.24 4.7538
    endloop
  endfacet
  facet normal 0 0.399176 0
    outer loop
      vertex 0.894702 -9.24 4.7538
      vertex 2.03898 -9.24 5.54744
      vertex 1.85946 -9.24 5.07408
    endloop
  endfacet
  facet normal 0 0.0625539 0
    outer loop
      vertex 0.894702 -9.24 4.7538
      vertex 1.85946 -9.24 5.07408
      vertex 0.558503 -9.24 4.57735
    endloop
  endfacet
  facet normal 0 0.399176 0
    outer loop
      vertex 0.558503 -9.24 4.57735
      vertex 1.85946 -9.24 5.07408
      vertex 1.57187 -9.24 4.65744
    endloop
  endfacet
  facet normal 0 0.0625539 0
    outer loop
      vertex 0.558503 -9.24 4.57735
      vertex 1.57187 -9.24 4.65744
      vertex 0.189845 -9.24 4.48648
    endloop
  endfacet
  facet normal 0 0.399176 0
    outer loop
      vertex 0.189845 -9.24 4.48648
      vertex 1.57187 -9.24 4.65744
      vertex 1.19294 -9.24 4.32173
    endloop
  endfacet
  facet normal 0 0.0625539 0
    outer loop
      vertex 0.189845 -9.24 4.48648
      vertex 1.19294 -9.24 4.32173
      vertex -0.189845 -9.24 4.48648
    endloop
  endfacet
  facet normal 0 0.399176 0
    outer loop
      vertex -0.189845 -9.24 4.48648
      vertex 1.19294 -9.24 4.32173
      vertex 0.74467 -9.24 4.08647
    endloop
  endfacet
  facet normal 0 0.0625539 0
    outer loop
      vertex -0.189845 -9.24 4.48648
      vertex 0.74467 -9.24 4.08647
      vertex -0.558503 -9.24 4.57735
    endloop
  endfacet
  facet normal 0 0.399176 0
    outer loop
      vertex -0.558503 -9.24 4.57735
      vertex 0.74467 -9.24 4.08647
      vertex 0.253127 -9.24 3.96531
    endloop
  endfacet
  facet normal 0 0.0625539 0
    outer loop
      vertex -0.558503 -9.24 4.57735
      vertex 0.253127 -9.24 3.96531
      vertex -0.894702 -9.24 4.7538
    endloop
  endfacet
  facet normal 0 0.399176 0
    outer loop
      vertex -0.894702 -9.24 4.7538
      vertex 0.253127 -9.24 3.96531
      vertex -0.253127 -9.24 3.96531
    endloop
  endfacet
  facet normal 0 0.0625539 0
    outer loop
      vertex -0.894702 -9.24 4.7538
      vertex -0.253127 -9.24 3.96531
      vertex -1.1789 -9.24 5.00558
    endloop
  endfacet
  facet normal 0 0.777116 0
    outer loop
      vertex -2.09393 -9.24 6
      vertex -0.253127 -9.24 3.96531
      vertex -0.74467 -9.24 4.08647
    endloop
  endfacet
  facet normal 0 0.540334 0
    outer loop
      vertex -2.09393 -9.24 6
      vertex -0.74467 -9.24 4.08647
      vertex -1.19294 -9.24 4.32173
    endloop
  endfacet
  facet normal 0 0.333485 0
    outer loop
      vertex -2.09393 -9.24 6
      vertex -1.19294 -9.24 4.32173
      vertex -1.57187 -9.24 4.65744
    endloop
  endfacet
  facet normal 0 0.168591 0
    outer loop
      vertex -2.09393 -9.24 6
      vertex -1.57187 -9.24 4.65744
      vertex -1.85946 -9.24 5.07408
    endloop
  endfacet
  facet normal 0 0.0552328 0
    outer loop
      vertex -2.09393 -9.24 6
      vertex -1.85946 -9.24 5.07408
      vertex -2.03898 -9.24 5.54744
    endloop
  endfacet
  facet normal 3.1924 -3.13611e-16 0.387627
    outer loop
      vertex -1.56893 -10.5354 6
      vertex -1.52923 -19.005 5.67308
      vertex -1.52923 -9.24 5.67308
    endloop
  endfacet
  facet normal 0.423482 -4.16015e-17 0.05142
    outer loop
      vertex -1.56893 -9.24 6
      vertex -1.56893 -10.5354 6
      vertex -1.52923 -9.24 5.67308
    endloop
  endfacet
  facet normal 2.76891 2.5687e-16 0.336207
    outer loop
      vertex -1.56893 -10.5354 6
      vertex -1.56893 -19.005 6
      vertex -1.52923 -19.005 5.67308
    endloop
  endfacet
  facet normal 0 1.02584 0
    outer loop
      vertex 1.56893 -19.005 6
      vertex 1.52923 -19.005 5.67308
      vertex -1.56893 -19.005 6
    endloop
  endfacet
  facet normal 0 1.14392 0
    outer loop
      vertex -1.56893 -19.005 6
      vertex 1.52923 -19.005 5.67308
      vertex 1.39459 -19.005 5.31806
    endloop
  endfacet
  facet normal 0 1.07313 0
    outer loop
      vertex -1.56893 -19.005 6
      vertex 1.39459 -19.005 5.31806
      vertex 1.1789 -19.005 5.00558
    endloop
  endfacet
  facet normal 0 0.974469 0
    outer loop
      vertex -1.56893 -19.005 6
      vertex 1.1789 -19.005 5.00558
      vertex 0.894702 -19.005 4.7538
    endloop
  endfacet
  facet normal 0 0.853682 0
    outer loop
      vertex -1.56893 -19.005 6
      vertex 0.894702 -19.005 4.7538
      vertex 0.558503 -19.005 4.57735
    endloop
  endfacet
  facet normal 0 0.717782 0
    outer loop
      vertex -1.56893 -19.005 6
      vertex 0.558503 -19.005 4.57735
      vertex 0.189845 -19.005 4.48648
    endloop
  endfacet
  facet normal 0 0.574668 0
    outer loop
      vertex -1.56893 -19.005 6
      vertex 0.189845 -19.005 4.48648
      vertex -0.189845 -19.005 4.48648
    endloop
  endfacet
  facet normal 0 0.432657 0
    outer loop
      vertex -1.56893 -19.005 6
      vertex -0.189845 -19.005 4.48648
      vertex -0.558503 -19.005 4.57735
    endloop
  endfacet
  facet normal 0 0.300003 0
    outer loop
      vertex -1.56893 -19.005 6
      vertex -0.558503 -19.005 4.57735
      vertex -0.894702 -19.005 4.7538
    endloop
  endfacet
  facet normal 0 0.184415 0
    outer loop
      vertex -1.56893 -19.005 6
      vertex -0.894702 -19.005 4.7538
      vertex -1.1789 -19.005 5.00558
    endloop
  endfacet
  facet normal 0 0.0926103 0
    outer loop
      vertex -1.56893 -19.005 6
      vertex -1.1789 -19.005 5.00558
      vertex -1.39459 -19.005 5.31806
    endloop
  endfacet
  facet normal 0 0.0299243 0
    outer loop
      vertex -1.56893 -19.005 6
      vertex -1.39459 -19.005 5.31806
      vertex -1.52923 -19.005 5.67308
    endloop
  endfacet
  facet normal -2.76891 0 0.336207
    outer loop
      vertex 1.52923 -19.005 5.67308
      vertex 1.56893 -19.005 6
      vertex 1.56893 -10.5354 6
    endloop
  endfacet
  facet normal -0.423482 -1.96431e-17 0.05142
    outer loop
      vertex 1.56893 -10.5354 6
      vertex 1.56893 -9.24 6
      vertex 1.52923 -19.005 5.67308
    endloop
  endfacet
  facet normal -3.1924 -1.48078e-16 0.387627
    outer loop
      vertex 1.52923 -19.005 5.67308
      vertex 1.56893 -9.24 6
      vertex 1.52923 -9.24 5.67308
    endloop
  endfacet
  facet normal -0.29954 0 0.0363707
    outer loop
      vertex 2.03898 -9.24 5.54744
      vertex 2.09393 -9.24 6
      vertex 2.09393 -8.57813 6
    endloop
  endfacet
  facet normal -0.0330937 -2.03941e-17 0.00401831
    outer loop
      vertex 2.09393 -8.57813 6
      vertex 2.09393 -8.505 6
      vertex 2.03898 -9.24 5.54744
    endloop
  endfacet
  facet normal -0.332634 -2.04987e-16 0.040389
    outer loop
      vertex 2.03898 -9.24 5.54744
      vertex 2.09393 -8.505 6
      vertex 2.03898 -8.505 5.54744
    endloop
  endfacet
  facet normal -49.14 0 0
    outer loop
      vertex 6.3 -8.505 6
      vertex 6.3 0.945 6
      vertex 6.3 -8.505 0.8
    endloop
  endfacet
  facet normal -49.14 0 0
    outer loop
      vertex 6.3 -8.505 0.8
      vertex 6.3 0.945 6
      vertex 6.3 0.945 0.8
    endloop
  endfacet
  facet normal 0 -0.651792 0
    outer loop
      vertex 6.17466 0.945 4.808
      vertex 6.3 0.945 0.8
      vertex 6.3 0.945 6
    endloop
  endfacet
  facet normal 0 -1.63628 0
    outer loop
      vertex 5.80368 0.945 3.61608
      vertex 6.3 0.945 0.8
      vertex 6.17466 0.945 4.808
    endloop
  endfacet
  facet normal 0 -2.23716 0
    outer loop
      vertex 5.20203 0.945 2.52233
      vertex 6.3 0.945 0.8
      vertex 5.80368 0.945 3.61608
    endloop
  endfacet
  facet normal 0 -0.00601493 0
    outer loop
      vertex 6.29495 0.945 6
      vertex 6.17466 0.945 4.808
      vertex 6.3 0.945 6
    endloop
  endfacet
  facet normal -1.3902 0.00268111 0.140301
    outer loop
      vertex 6.29495 0.945 6
      vertex 6.2972 2.11128 6
      vertex 6.17466 0.945 4.808
    endloop
  endfacet
  facet normal -18.6347 0.0359383 1.88064
    outer loop
      vertex 6.17466 0.945 4.808
      vertex 6.2972 2.11128 6
      vertex 6.26122 17.115 5.35677
    endloop
  endfacet
  facet normal -9.65088 -0.0231436 0
    outer loop
      vertex 6.26122 17.115 5.35677
      vertex 6.2972 2.11128 6
      vertex 6.26122 17.115 6
    endloop
  endfacet
  facet normal 0 -3.67079 0
    outer loop
      vertex 3.465 17.115 5
      vertex 5.9539 17.115 4.00479
      vertex 6.26122 17.115 5.35677
    endloop
  endfacet
  facet normal 0 -2.79622 0
    outer loop
      vertex 3.465 17.115 6
      vertex 3.465 17.115 5
      vertex 6.26122 17.115 6
    endloop
  endfacet
  facet normal 0 -1.79862 0
    outer loop
      vertex 6.26122 17.115 6
      vertex 3.465 17.115 5
      vertex 6.26122 17.115 5.35677
    endloop
  endfacet
  facet normal -1.89 0 6.97039e-08
    outer loop
      vertex 3.465 17.115 6
      vertex 3.465 19.005 6
      vertex 3.465 17.115 5
    endloop
  endfacet
  facet normal -1.89 0 6.97039e-08
    outer loop
      vertex 3.465 17.115 5
      vertex 3.465 19.005 6
      vertex 3.465 19.005 5
    endloop
  endfacet
  facet normal 0 -0.42 0
    outer loop
      vertex 3.045 19.005 5
      vertex 3.465 19.005 5
      vertex 3.465 19.005 6
    endloop
  endfacet
  facet normal 0 -0.42 0
    outer loop
      vertex 3.045 19.005 6
      vertex 3.045 19.005 5
      vertex 3.465 19.005 6
    endloop
  endfacet
  facet normal 1.89 0 0
    outer loop
      vertex 3.045 17.115 5
      vertex 3.045 19.005 5
      vertex 3.045 19.005 6
    endloop
  endfacet
  facet normal 1.89 0 0
    outer loop
      vertex 3.045 17.115 6
      vertex 3.045 17.115 5
      vertex 3.045 19.005 6
    endloop
  endfacet
  facet normal 0 -0.290093 0
    outer loop
      vertex 1.96484 17.115 4.3093
      vertex 3.465 17.115 5
      vertex 3.045 17.115 5
    endloop
  endfacet
  facet normal 0 -0.314253 0
    outer loop
      vertex 2.32432 17.115 4.8301
      vertex 1.96484 17.115 4.3093
      vertex 3.045 17.115 5
    endloop
  endfacet
  facet normal 0 -0.246356 0
    outer loop
      vertex 3.045 17.115 6
      vertex 2.61893 17.115 6
      vertex 2.54872 17.115 5.4218
    endloop
  endfacet
  facet normal 0 -0.720678 0
    outer loop
      vertex 3.045 17.115 6
      vertex 2.32432 17.115 4.8301
      vertex 3.045 17.115 5
    endloop
  endfacet
  facet normal 0 -0.163896 0
    outer loop
      vertex 2.54872 17.115 5.4218
      vertex 2.32432 17.115 4.8301
      vertex 3.045 17.115 6
    endloop
  endfacet
  facet normal -0.0386571 8.82929e-17 0.00469382
    outer loop
      vertex 2.61893 17.115 6
      vertex 2.61893 17.1819 6
      vertex 2.54872 17.115 5.4218
    endloop
  endfacet
  facet normal -0.485691 1.10932e-15 0.0589736
    outer loop
      vertex 2.54872 17.115 5.4218
      vertex 2.61893 17.1819 6
      vertex 2.54872 17.955 5.4218
    endloop
  endfacet
  facet normal -0.447034 -9.64202e-16 0.0542798
    outer loop
      vertex 2.54872 17.955 5.4218
      vertex 2.61893 17.1819 6
      vertex 2.61893 17.955 6
    endloop
  endfacet
  facet normal 0 -0.607774 0
    outer loop
      vertex 1.96484 17.955 6
      vertex 1.96484 17.955 4.3093
      vertex 2.32432 17.955 4.8301
    endloop
  endfacet
  facet normal 0 -0.378196 0
    outer loop
      vertex 2.61893 17.955 6
      vertex 1.96484 17.955 6
      vertex 2.54872 17.955 5.4218
    endloop
  endfacet
  facet normal 0 -0.475229 0
    outer loop
      vertex 2.54872 17.955 5.4218
      vertex 1.96484 17.955 6
      vertex 2.32432 17.955 4.8301
    endloop
  endfacet
  facet normal 6.35444e-16 -0.704546 1.70221e-30
    outer loop
      vertex 1.54812 17.955 6
      vertex 1.96484 17.955 4.3093
      vertex 1.96484 17.955 6
    endloop
  endfacet
  facet normal -1.25155e-15 -3.14753 -1.00819e-15
    outer loop
      vertex 0.316409 17.955 3.44414
      vertex 1.96484 17.955 4.3093
      vertex 1.54812 17.955 6
    endloop
  endfacet
  facet normal -9.36382e-16 -2.35491 -7.54301e-16
    outer loop
      vertex 0.626746 17.955 6
      vertex 0.316409 17.955 3.44414
      vertex 1.54812 17.955 6
    endloop
  endfacet
  facet normal 3.51424e-30 -1.61739 -5.96157e-16
    outer loop
      vertex -0.316409 17.955 3.44414
      vertex 0.316409 17.955 3.44414
      vertex 0.626746 17.955 6
    endloop
  endfacet
  facet normal 1.73926e-30 -0.800476 -2.95048e-16
    outer loop
      vertex 0.313554 17.955 6
      vertex -0.316409 17.955 3.44414
      vertex 0.626746 17.955 6
    endloop
  endfacet
  facet normal -6.99662e-17 -0.816918 -2.83864e-16
    outer loop
      vertex -0.316409 17.955 3.44414
      vertex 0.313554 17.955 6
      vertex -0.00607123 17.955 6
    endloop
  endfacet
  facet normal 8.36664e-31 -0.79318 -2.83864e-16
    outer loop
      vertex -0.316409 17.955 6
      vertex -0.316409 17.955 3.44414
      vertex -0.00607123 17.955 6
    endloop
  endfacet
  facet normal 2.18533e-16 -1.6101 -5.76223e-16
    outer loop
      vertex -0.946372 17.955 6
      vertex -0.316409 17.955 3.44414
      vertex -0.316409 17.955 6
    endloop
  endfacet
  facet normal -4.05877e-16 -2.47914 -1.07021e-15
    outer loop
      vertex -1.49117 17.955 6
      vertex -1.49117 17.955 3.88967
      vertex -0.316409 17.955 3.44414
    endloop
  endfacet
  facet normal -2.27964e-16 -1.39243 -6.01093e-16
    outer loop
      vertex -0.946372 17.955 6
      vertex -1.49117 17.955 6
      vertex -0.316409 17.955 3.44414
    endloop
  endfacet
  facet normal 1.11133e-15 -1.75823 -7.59004e-16
    outer loop
      vertex -2.32432 17.955 4.8301
      vertex -1.49117 17.955 3.88967
      vertex -1.49117 17.955 6
    endloop
  endfacet
  facet normal 4.02858e-16 -0.637358 -2.75139e-16
    outer loop
      vertex -2.03597 17.955 6
      vertex -2.32432 17.955 4.8301
      vertex -1.49117 17.955 6
    endloop
  endfacet
  facet normal -3.77607e-16 -0.171159 4.58497e-17
    outer loop
      vertex -2.32432 17.955 4.8301
      vertex -2.03597 17.955 6
      vertex -2.18227 17.955 6
    endloop
  endfacet
  facet normal 0 -0.0882081 0
    outer loop
      vertex -2.61893 17.955 6
      vertex -2.54872 17.955 5.4218
      vertex -2.32432 17.955 4.8301
    endloop
  endfacet
  facet normal 0 -0.510846 0
    outer loop
      vertex -2.18227 17.955 6
      vertex -2.61893 17.955 6
      vertex -2.32432 17.955 4.8301
    endloop
  endfacet
  facet normal 0.447034 0 0.0542798
    outer loop
      vertex -2.61893 17.1819 6
      vertex -2.54872 17.955 5.4218
      vertex -2.61893 17.955 6
    endloop
  endfacet
  facet normal 0.485691 -5.39225e-16 0.0589736
    outer loop
      vertex -2.61893 17.115 6
      vertex -2.54872 17.115 5.4218
      vertex -2.54872 17.955 5.4218
    endloop
  endfacet
  facet normal 0.0386571 -4.29179e-17 0.00469382
    outer loop
      vertex -2.61893 17.1819 6
      vertex -2.61893 17.115 6
      vertex -2.54872 17.955 5.4218
    endloop
  endfacet
  facet normal 0 -0.532988 0
    outer loop
      vertex -3.465 17.115 5
      vertex -1.96484 17.115 4.3093
      vertex -2.32432 17.115 4.8301
    endloop
  endfacet
  facet normal 0 -0.0713573 0
    outer loop
      vertex -3.045 17.115 5
      vertex -3.465 17.115 5
      vertex -2.32432 17.115 4.8301
    endloop
  endfacet
  facet normal 0 -0.388296 0
    outer loop
      vertex -2.54872 17.115 5.4218
      vertex -3.045 17.115 5
      vertex -2.32432 17.115 4.8301
    endloop
  endfacet
  facet normal 0 -0.246356 0
    outer loop
      vertex -3.045 17.115 6
      vertex -2.54872 17.115 5.4218
      vertex -2.61893 17.115 6
    endloop
  endfacet
  facet normal 0 -0.496278 0
    outer loop
      vertex -3.045 17.115 6
      vertex -3.045 17.115 5
      vertex -2.54872 17.115 5.4218
    endloop
  endfacet
  facet normal -1.89 0 0
    outer loop
      vertex -3.045 17.115 6
      vertex -3.045 19.005 6
      vertex -3.045 17.115 5
    endloop
  endfacet
  facet normal -1.89 0 0
    outer loop
      vertex -3.045 17.115 5
      vertex -3.045 19.005 6
      vertex -3.045 19.005 5
    endloop
  endfacet
  facet normal 0 -0.42 0
    outer loop
      vertex -3.465 19.005 5
      vertex -3.045 19.005 5
      vertex -3.045 19.005 6
    endloop
  endfacet
  facet normal 0 -0.42 0
    outer loop
      vertex -3.465 19.005 6
      vertex -3.465 19.005 5
      vertex -3.045 19.005 6
    endloop
  endfacet
  facet normal 1.89 0 -6.97039e-08
    outer loop
      vertex -3.465 17.115 5
      vertex -3.465 19.005 5
      vertex -3.465 19.005 6
    endloop
  endfacet
  facet normal 1.89 0 -6.97039e-08
    outer loop
      vertex -3.465 17.115 6
      vertex -3.465 17.115 5
      vertex -3.465 19.005 6
    endloop
  endfacet
  facet normal 0 -3.67079 0
    outer loop
      vertex -6.26122 17.115 5.35677
      vertex -5.9539 17.115 4.00479
      vertex -3.465 17.115 5
    endloop
  endfacet
  facet normal 0 -1.79862 0
    outer loop
      vertex -6.26122 17.115 6
      vertex -6.26122 17.115 5.35677
      vertex -3.465 17.115 6
    endloop
  endfacet
  facet normal 0 -2.79622 0
    outer loop
      vertex -3.465 17.115 6
      vertex -6.26122 17.115 5.35677
      vertex -3.465 17.115 5
    endloop
  endfacet
  facet normal 9.65088 -0.0231438 0
    outer loop
      vertex -6.2972 2.11128 6
      vertex -6.26122 17.115 5.35677
      vertex -6.26122 17.115 6
    endloop
  endfacet
  facet normal 1.3902 0.0026811 0.140302
    outer loop
      vertex -6.2972 2.11128 6
      vertex -6.29495 0.945 6
      vertex -6.17466 0.945 4.808
    endloop
  endfacet
  facet normal 18.6347 0.0359381 1.88064
    outer loop
      vertex -6.26122 17.115 5.35677
      vertex -6.2972 2.11128 6
      vertex -6.17466 0.945 4.808
    endloop
  endfacet
  facet normal 0 -2.23716 0
    outer loop
      vertex -6.3 0.945 0.8
      vertex -5.20202 0.945 2.52233
      vertex -5.80368 0.945 3.61608
    endloop
  endfacet
  facet normal 0 -1.63628 0
    outer loop
      vertex -6.17466 0.945 4.808
      vertex -6.3 0.945 0.8
      vertex -5.80368 0.945 3.61608
    endloop
  endfacet
  facet normal 0 -0.631569 0
    outer loop
      vertex -6.17466 0.945 4.808
      vertex -6.29495 0.945 6
      vertex -6.3 0.945 0.8
    endloop
  endfacet
  facet normal 0 -0.0262396 0
    outer loop
      vertex -6.29495 0.945 6
      vertex -6.3 0.945 6
      vertex -6.3 0.945 0.8
    endloop
  endfacet
  facet normal 0 0 119.07
    outer loop
      vertex -6.3 -8.505 0.8
      vertex 6.3 -8.505 0.8
      vertex 6.3 0.945 0.8
    endloop
  endfacet
  facet normal -0 -0 157.044
    outer loop
      vertex 3.41209 17.115 0.8
      vertex -6.3 -8.505 0.8
      vertex 3.41209 0.945 0.8
    endloop
  endfacet
  facet normal -0 -0 27.2908
    outer loop
      vertex 3.41209 0.945 0.8
      vertex -6.3 -8.505 0.8
      vertex 6.3 0.945 0.8
    endloop
  endfacet
  facet normal -0 -0 17.7908
    outer loop
      vertex -3.41209 0.945 0.8
      vertex -6.3 -8.505 0.8
      vertex 3.41209 17.115 0.8
    endloop
  endfacet
  facet normal -0 -0 110.347
    outer loop
      vertex -3.41209 17.115 0.8
      vertex -3.41209 0.945 0.8
      vertex 3.41209 17.115 0.8
    endloop
  endfacet
  facet normal -0 -0 27.2908
    outer loop
      vertex -3.41209 0.945 0.8
      vertex -6.3 0.945 0.8
      vertex -6.3 -8.505 0.8
    endloop
  endfacet
  facet normal 3.21244e-15 -2.43645 -2.04792e-15
    outer loop
      vertex -6.3 0.945 0.8
      vertex -4.39396 0.945 1.57084
      vertex -5.20202 0.945 2.52233
    endloop
  endfacet
  facet normal 0 -2.22613 5.38646e-15
    outer loop
      vertex -6.3 0.945 0.8
      vertex -3.41209 0.945 0.8
      vertex -4.39396 0.945 1.57084
    endloop
  endfacet
  facet normal -0.347916 -6.69673e-16 0.131947
    outer loop
      vertex 1.85946 -8.505 5.07408
      vertex 2.03898 -9.24 5.54744
      vertex 2.03898 -8.505 5.54744
    endloop
  endfacet
  facet normal -0.347916 6.54664e-16 0.131947
    outer loop
      vertex 1.85946 -9.24 5.07408
      vertex 2.03898 -9.24 5.54744
      vertex 1.85946 -8.505 5.07408
    endloop
  endfacet
  facet normal -0.30623 9.28637e-17 0.211375
    outer loop
      vertex 1.57187 -8.505 4.65744
      vertex 1.85946 -9.24 5.07408
      vertex 1.85946 -8.505 5.07408
    endloop
  endfacet
  facet normal -0.30623 4.81416e-16 0.211375
    outer loop
      vertex 1.57187 -9.24 4.65744
      vertex 1.85946 -9.24 5.07408
      vertex 1.57187 -8.505 4.65744
    endloop
  endfacet
  facet normal -0.246746 -1.61256e-16 0.278518
    outer loop
      vertex 1.19294 -8.505 4.32173
      vertex 1.57187 -9.24 4.65744
      vertex 1.57187 -8.505 4.65744
    endloop
  endfacet
  facet normal -0.246746 1.09105e-15 0.278518
    outer loop
      vertex 1.19294 -9.24 4.32173
      vertex 1.57187 -9.24 4.65744
      vertex 1.19294 -8.505 4.32173
    endloop
  endfacet
  facet normal -0.172922 8.30759e-17 0.329475
    outer loop
      vertex 0.74467 -8.505 4.08647
      vertex 1.19294 -9.24 4.32173
      vertex 1.19294 -8.505 4.32173
    endloop
  endfacet
  facet normal -0.172922 7.413e-16 0.329475
    outer loop
      vertex 0.74467 -9.24 4.08647
      vertex 1.19294 -9.24 4.32173
      vertex 0.74467 -8.505 4.08647
    endloop
  endfacet
  facet normal -0.0890486 -5.90769e-16 0.361284
    outer loop
      vertex 0.253127 -8.505 3.96531
      vertex 0.74467 -9.24 4.08647
      vertex 0.74467 -8.505 4.08647
    endloop
  endfacet
  facet normal -0.0890486 1.46883e-15 0.361284
    outer loop
      vertex 0.253127 -9.24 3.96531
      vertex 0.74467 -9.24 4.08647
      vertex 0.253127 -8.505 3.96531
    endloop
  endfacet
  facet normal 0 0 0.372097
    outer loop
      vertex -0.253127 -8.505 3.96531
      vertex 0.253127 -9.24 3.96531
      vertex 0.253127 -8.505 3.96531
    endloop
  endfacet
  facet normal 2.74181e-15 1.8885e-15 0.372097
    outer loop
      vertex -0.253127 -9.24 3.96531
      vertex 0.253127 -9.24 3.96531
      vertex -0.253127 -8.505 3.96531
    endloop
  endfacet
  facet normal 0.0890486 3.64795e-16 0.361284
    outer loop
      vertex -0.74467 -8.505 4.08647
      vertex -0.253127 -9.24 3.96531
      vertex -0.253127 -8.505 3.96531
    endloop
  endfacet
  facet normal 0.0890486 4.77782e-16 0.361284
    outer loop
      vertex -0.74467 -9.24 4.08647
      vertex -0.253127 -9.24 3.96531
      vertex -0.74467 -8.505 4.08647
    endloop
  endfacet
  facet normal 0.172922 -9.60708e-16 0.329475
    outer loop
      vertex -1.19294 -8.505 4.32173
      vertex -0.74467 -9.24 4.08647
      vertex -0.74467 -8.505 4.08647
    endloop
  endfacet
  facet normal 0.172922 9.30888e-16 0.329475
    outer loop
      vertex -1.19294 -9.24 4.32173
      vertex -0.74467 -9.24 4.08647
      vertex -1.19294 -8.505 4.32173
    endloop
  endfacet
  facet normal 0.246746 -6.16721e-16 0.278518
    outer loop
      vertex -1.57187 -9.24 4.65744
      vertex -1.19294 -9.24 4.32173
      vertex -1.19294 -8.505 4.32173
    endloop
  endfacet
  facet normal 0.246746 3.22512e-16 0.278518
    outer loop
      vertex -1.57187 -9.24 4.65744
      vertex -1.19294 -8.505 4.32173
      vertex -1.57187 -8.505 4.65744
    endloop
  endfacet
  facet normal 0.30623 -9.62832e-16 0.211375
    outer loop
      vertex -1.85946 -8.505 5.07408
      vertex -1.57187 -9.24 4.65744
      vertex -1.57187 -8.505 4.65744
    endloop
  endfacet
  facet normal 0.30623 8.87065e-16 0.211375
    outer loop
      vertex -1.85946 -9.24 5.07408
      vertex -1.57187 -9.24 4.65744
      vertex -1.85946 -8.505 5.07408
    endloop
  endfacet
  facet normal 0.347916 -6.39655e-16 0.131947
    outer loop
      vertex -2.03898 -8.505 5.54744
      vertex -1.85946 -9.24 5.07408
      vertex -1.85946 -8.505 5.07408
    endloop
  endfacet
  facet normal 0.347916 2.43236e-16 0.131947
    outer loop
      vertex -2.03898 -9.24 5.54744
      vertex -1.85946 -9.24 5.07408
      vertex -2.03898 -8.505 5.54744
    endloop
  endfacet
  facet normal -3.46674 1.59914e-16 1.31476
    outer loop
      vertex 1.39459 -19.005 5.31806
      vertex 1.52923 -9.24 5.67308
      vertex 1.39459 -9.24 5.31806
    endloop
  endfacet
  facet normal -3.46674 -5.02255e-16 1.31476
    outer loop
      vertex 1.39459 -19.005 5.31806
      vertex 1.52923 -19.005 5.67308
      vertex 1.52923 -9.24 5.67308
    endloop
  endfacet
  facet normal -3.05136 -2.21766e-16 2.1062
    outer loop
      vertex 1.1789 -9.24 5.00558
      vertex 1.39459 -19.005 5.31806
      vertex 1.39459 -9.24 5.31806
    endloop
  endfacet
  facet normal -2.45865 -3.5575e-16 2.77524
    outer loop
      vertex 0.894702 -9.24 4.7538
      vertex 1.1789 -19.005 5.00558
      vertex 1.1789 -9.24 5.00558
    endloop
  endfacet
  facet normal -3.05136 6.96478e-17 2.1062
    outer loop
      vertex 1.1789 -19.005 5.00558
      vertex 1.39459 -19.005 5.31806
      vertex 1.1789 -9.24 5.00558
    endloop
  endfacet
  facet normal -1.72304 -2.66805e-16 3.28299
    outer loop
      vertex 0.558503 -9.24 4.57735
      vertex 0.894702 -19.005 4.7538
      vertex 0.894702 -9.24 4.7538
    endloop
  endfacet
  facet normal -2.45865 3.48674e-16 2.77524
    outer loop
      vertex 0.894702 -19.005 4.7538
      vertex 1.1789 -19.005 5.00558
      vertex 0.894702 -9.24 4.7538
    endloop
  endfacet
  facet normal -1.72304 6.23069e-17 3.28299
    outer loop
      vertex 0.558503 -19.005 4.57735
      vertex 0.894702 -19.005 4.7538
      vertex 0.558503 -9.24 4.57735
    endloop
  endfacet
  facet normal -0.887305 -6.97298e-16 3.59994
    outer loop
      vertex 0.189845 -9.24 4.48648
      vertex 0.558503 -19.005 4.57735
      vertex 0.558503 -9.24 4.57735
    endloop
  endfacet
  facet normal 0 0 3.70768
    outer loop
      vertex -0.189845 -19.005 4.48648
      vertex 0.189845 -19.005 4.48648
      vertex 0.189845 -9.24 4.48648
    endloop
  endfacet
  facet normal 0 0 3.70768
    outer loop
      vertex -0.189845 -9.24 4.48648
      vertex -0.189845 -19.005 4.48648
      vertex 0.189845 -9.24 4.48648
    endloop
  endfacet
  facet normal -0.887305 7.62663e-16 3.59994
    outer loop
      vertex 0.189845 -19.005 4.48648
      vertex 0.558503 -19.005 4.57735
      vertex 0.189845 -9.24 4.48648
    endloop
  endfacet
  facet normal 0.887305 6.12558e-16 3.59994
    outer loop
      vertex -0.558503 -19.005 4.57735
      vertex -0.189845 -9.24 4.48648
      vertex -0.558503 -9.24 4.57735
    endloop
  endfacet
  facet normal 0.887305 -8.47404e-16 3.59994
    outer loop
      vertex -0.558503 -19.005 4.57735
      vertex -0.189845 -19.005 4.48648
      vertex -0.189845 -9.24 4.48648
    endloop
  endfacet
  facet normal 1.72304 -2.26863e-16 3.28299
    outer loop
      vertex -0.894702 -9.24 4.7538
      vertex -0.558503 -19.005 4.57735
      vertex -0.558503 -9.24 4.57735
    endloop
  endfacet
  facet normal 2.45865 -8.18291e-16 2.77524
    outer loop
      vertex -1.1789 -9.24 5.00558
      vertex -0.894702 -19.005 4.7538
      vertex -0.894702 -9.24 4.7538
    endloop
  endfacet
  facet normal 1.72304 -6.23069e-17 3.28299
    outer loop
      vertex -0.894702 -19.005 4.7538
      vertex -0.558503 -19.005 4.57735
      vertex -0.894702 -9.24 4.7538
    endloop
  endfacet
  facet normal 3.05136 -1.39296e-16 2.1062
    outer loop
      vertex -1.39459 -9.24 5.31806
      vertex -1.1789 -19.005 5.00558
      vertex -1.1789 -9.24 5.00558
    endloop
  endfacet
  facet normal 2.45865 7.115e-16 2.77524
    outer loop
      vertex -1.1789 -19.005 5.00558
      vertex -0.894702 -19.005 4.7538
      vertex -1.1789 -9.24 5.00558
    endloop
  endfacet
  facet normal 3.05136 4.43533e-16 2.1062
    outer loop
      vertex -1.39459 -19.005 5.31806
      vertex -1.1789 -19.005 5.00558
      vertex -1.39459 -9.24 5.31806
    endloop
  endfacet
  facet normal 3.46674 -3.19827e-16 1.31476
    outer loop
      vertex -1.52923 -9.24 5.67308
      vertex -1.39459 -19.005 5.31806
      vertex -1.39459 -9.24 5.31806
    endloop
  endfacet
  facet normal 3.46674 3.42341e-16 1.31476
    outer loop
      vertex -1.52923 -19.005 5.67308
      vertex -1.39459 -19.005 5.31806
      vertex -1.52923 -9.24 5.67308
    endloop
  endfacet
  facet normal 0 -2.22613 5.38646e-15
    outer loop
      vertex 3.41209 0.945 0.8
      vertex 6.3 0.945 0.8
      vertex 4.39397 0.945 1.57084
    endloop
  endfacet
  facet normal -3.21244e-15 -2.43645 -2.04792e-15
    outer loop
      vertex 4.39397 0.945 1.57084
      vertex 6.3 0.945 0.8
      vertex 5.20203 0.945 2.52233
    endloop
  endfacet
  facet normal -15.3855 0.015485 13.0663
    outer loop
      vertex 4.39397 0.945 1.57084
      vertex 5.20203 0.945 2.52233
      vertex 4.493 17.115 1.66829
    endloop
  endfacet
  facet normal -17.5651 -0.0343954 13.9314
    outer loop
      vertex 4.493 17.115 1.66829
      vertex 5.20203 0.945 2.52233
      vertex 5.35456 17.115 2.75456
    endloop
  endfacet
  facet normal -17.686 0.0271055 9.7287
    outer loop
      vertex 5.20203 0.945 2.52233
      vertex 5.80368 0.945 3.61608
      vertex 5.35456 17.115 2.75456
    endloop
  endfacet
  facet normal -19.2733 0.0348558 5.99873
    outer loop
      vertex 5.80368 0.945 3.61608
      vertex 6.17466 0.945 4.808
      vertex 5.9539 17.115 4.00479
    endloop
  endfacet
  facet normal -20.2162 -0.0451533 9.69147
    outer loop
      vertex 5.35456 17.115 2.75456
      vertex 5.80368 0.945 3.61608
      vertex 5.9539 17.115 4.00479
    endloop
  endfacet
  facet normal -21.8615 -0.0516102 4.96935
    outer loop
      vertex 5.9539 17.115 4.00479
      vertex 6.17466 0.945 4.808
      vertex 6.26122 17.115 5.35677
    endloop
  endfacet
  facet normal 1.01305e-15 -3.98716 -8.0348e-16
    outer loop
      vertex 3.465 17.115 5
      vertex 4.493 17.115 1.66829
      vertex 5.35456 17.115 2.75456
    endloop
  endfacet
  facet normal 6.44135e-16 -5.70813 -1.39903e-15
    outer loop
      vertex 1.96484 17.115 4.3093
      vertex 4.493 17.115 1.66829
      vertex 3.465 17.115 5
    endloop
  endfacet
  facet normal 0 0 0.7938
    outer loop
      vertex 3.045 17.115 5
      vertex 3.465 17.115 5
      vertex 3.465 19.005 5
    endloop
  endfacet
  facet normal 0 0 0.7938
    outer loop
      vertex 3.045 19.005 5
      vertex 3.045 17.115 5
      vertex 3.465 19.005 5
    endloop
  endfacet
  facet normal -9.28119e-16 -3.70817 -2.32112e-15
    outer loop
      vertex 3.465 17.115 5
      vertex 5.35456 17.115 2.75456
      vertex 5.9539 17.115 4.00479
    endloop
  endfacet
  facet normal -2.07163e-15 -2.31188 -2.79946e-15
    outer loop
      vertex 1.49117 17.115 3.88967
      vertex 4.493 17.115 1.66829
      vertex 1.96484 17.115 4.3093
    endloop
  endfacet
  facet normal -0.352494 1.94494e-15 0.397883
    outer loop
      vertex 1.49117 17.115 3.88967
      vertex 1.96484 17.115 4.3093
      vertex 1.49117 17.955 3.88967
    endloop
  endfacet
  facet normal -0.352494 -1.3874e-15 0.397883
    outer loop
      vertex 1.49117 17.955 3.88967
      vertex 1.96484 17.115 4.3093
      vertex 1.96484 17.955 4.3093
    endloop
  endfacet
  facet normal -0.437471 8.33929e-16 0.301964
    outer loop
      vertex 1.96484 17.115 4.3093
      vertex 2.32432 17.115 4.8301
      vertex 1.96484 17.955 4.3093
    endloop
  endfacet
  facet normal -0.437471 -1.37451e-16 0.301964
    outer loop
      vertex 1.96484 17.955 4.3093
      vertex 2.32432 17.115 4.8301
      vertex 2.32432 17.955 4.8301
    endloop
  endfacet
  facet normal -0.497024 1.90318e-15 0.188496
    outer loop
      vertex 2.32432 17.115 4.8301
      vertex 2.54872 17.115 5.4218
      vertex 2.32432 17.955 4.8301
    endloop
  endfacet
  facet normal -0.497024 -1.14114e-15 0.188496
    outer loop
      vertex 2.32432 17.955 4.8301
      vertex 2.54872 17.115 5.4218
      vertex 2.54872 17.955 5.4218
    endloop
  endfacet
  facet normal 2.7426e-16 -0.0958359 -5.22559e-16
    outer loop
      vertex 0.930838 17.955 3.59558
      vertex 1.49117 17.955 3.88967
      vertex 1.96484 17.955 4.3093
    endloop
  endfacet
  facet normal 1.41234e-16 -0.281938 -5.73009e-16
    outer loop
      vertex 0.316409 17.955 3.44414
      vertex 0.930838 17.955 3.59558
      vertex 1.96484 17.955 4.3093
    endloop
  endfacet
  facet normal -0.127212 -3.22914e-17 0.51612
    outer loop
      vertex 0.316409 17.955 3.44414
      vertex 0.930838 17.115 3.59558
      vertex 0.930838 17.955 3.59558
    endloop
  endfacet
  facet normal -0.127212 2.25974e-15 0.51612
    outer loop
      vertex 0.316409 17.115 3.44414
      vertex 0.930838 17.115 3.59558
      vertex 0.316409 17.955 3.44414
    endloop
  endfacet
  facet normal -3.13349e-15 5.5662e-29 0.531567
    outer loop
      vertex -0.316409 17.955 3.44414
      vertex 0.316409 17.115 3.44414
      vertex 0.316409 17.955 3.44414
    endloop
  endfacet
  facet normal 0 2.36063e-15 0.531567
    outer loop
      vertex -0.316409 17.115 3.44414
      vertex 0.316409 17.115 3.44414
      vertex -0.316409 17.955 3.44414
    endloop
  endfacet
  facet normal 0.127212 3.22914e-17 0.51612
    outer loop
      vertex -0.930838 17.955 3.59558
      vertex -0.316409 17.115 3.44414
      vertex -0.316409 17.955 3.44414
    endloop
  endfacet
  facet normal 0 -0.0958359 0
    outer loop
      vertex -1.49117 17.955 3.88967
      vertex -0.930838 17.955 3.59558
      vertex -0.316409 17.955 3.44414
    endloop
  endfacet
  facet normal 0.247031 6.1509e-16 0.470679
    outer loop
      vertex -1.49117 17.955 3.88967
      vertex -0.930838 17.115 3.59558
      vertex -0.930838 17.955 3.59558
    endloop
  endfacet
  facet normal 0.247031 1.71213e-15 0.470679
    outer loop
      vertex -1.49117 17.115 3.88967
      vertex -0.930838 17.115 3.59558
      vertex -1.49117 17.955 3.88967
    endloop
  endfacet
  facet normal 0.352494 1.17926e-17 0.397883
    outer loop
      vertex -1.96484 17.955 4.3093
      vertex -1.49117 17.115 3.88967
      vertex -1.49117 17.955 3.88967
    endloop
  endfacet
  facet normal 4.8569e-16 -0.0958359 3.35248e-16
    outer loop
      vertex -2.32432 17.955 4.8301
      vertex -1.96484 17.955 4.3093
      vertex -1.49117 17.955 3.88967
    endloop
  endfacet
  facet normal 0.437471 -2.32159e-16 0.301964
    outer loop
      vertex -2.32432 17.955 4.8301
      vertex -1.96484 17.115 4.3093
      vertex -1.96484 17.955 4.3093
    endloop
  endfacet
  facet normal 0.437471 -1.1608e-16 0.301964
    outer loop
      vertex -2.32432 17.115 4.8301
      vertex -1.96484 17.115 4.3093
      vertex -2.32432 17.955 4.8301
    endloop
  endfacet
  facet normal 0.497024 -8.1833e-16 0.188496
    outer loop
      vertex -2.54872 17.955 5.4218
      vertex -2.32432 17.115 4.8301
      vertex -2.32432 17.955 4.8301
    endloop
  endfacet
  facet normal 0.497024 -5.51807e-16 0.188496
    outer loop
      vertex -2.54872 17.115 5.4218
      vertex -2.32432 17.115 4.8301
      vertex -2.54872 17.955 5.4218
    endloop
  endfacet
  facet normal -1.01305e-15 -3.98716 -8.0348e-16
    outer loop
      vertex -5.35456 17.115 2.75456
      vertex -4.49299 17.115 1.66829
      vertex -3.465 17.115 5
    endloop
  endfacet
  facet normal 9.28119e-16 -3.70817 -2.32112e-15
    outer loop
      vertex -5.9539 17.115 4.00479
      vertex -5.35456 17.115 2.75456
      vertex -3.465 17.115 5
    endloop
  endfacet
  facet normal 0 0 0.7938
    outer loop
      vertex -3.465 17.115 5
      vertex -3.045 17.115 5
      vertex -3.045 19.005 5
    endloop
  endfacet
  facet normal 0 0 0.7938
    outer loop
      vertex -3.465 19.005 5
      vertex -3.465 17.115 5
      vertex -3.045 19.005 5
    endloop
  endfacet
  facet normal -6.44135e-16 -5.70813 -1.39903e-15
    outer loop
      vertex -4.49299 17.115 1.66829
      vertex -1.96484 17.115 4.3093
      vertex -3.465 17.115 5
    endloop
  endfacet
  facet normal 2.07163e-15 -2.31188 -2.79946e-15
    outer loop
      vertex -4.49299 17.115 1.66829
      vertex -1.49117 17.115 3.88967
      vertex -1.96484 17.115 4.3093
    endloop
  endfacet
  facet normal 0.352494 1.18583e-15 0.397883
    outer loop
      vertex -1.96484 17.115 4.3093
      vertex -1.49117 17.115 3.88967
      vertex -1.96484 17.955 4.3093
    endloop
  endfacet
  facet normal 21.8615 -0.0516102 4.96935
    outer loop
      vertex -6.26122 17.115 5.35677
      vertex -6.17466 0.945 4.808
      vertex -5.9539 17.115 4.00479
    endloop
  endfacet
  facet normal 20.2162 -0.0451533 9.69147
    outer loop
      vertex -5.9539 17.115 4.00479
      vertex -5.80368 0.945 3.61608
      vertex -5.35456 17.115 2.75456
    endloop
  endfacet
  facet normal 19.2733 0.0348558 5.99873
    outer loop
      vertex -6.17466 0.945 4.808
      vertex -5.80368 0.945 3.61608
      vertex -5.9539 17.115 4.00479
    endloop
  endfacet
  facet normal 17.686 0.0271055 9.7287
    outer loop
      vertex -5.80368 0.945 3.61608
      vertex -5.20202 0.945 2.52233
      vertex -5.35456 17.115 2.75456
    endloop
  endfacet
  facet normal 17.5651 -0.0343954 13.9314
    outer loop
      vertex -5.35456 17.115 2.75456
      vertex -5.20202 0.945 2.52233
      vertex -4.49299 17.115 1.66829
    endloop
  endfacet
  facet normal 15.3855 0.015485 13.0663
    outer loop
      vertex -5.20202 0.945 2.52233
      vertex -4.39396 0.945 1.57084
      vertex -4.49299 17.115 1.66829
    endloop
  endfacet
  facet normal 12.4645 0 15.877
    outer loop
      vertex -4.39396 0.945 1.57084
      vertex -3.41209 0.945 0.8
      vertex -3.41209 17.115 0.8
    endloop
  endfacet
  facet normal 0 -18.0441 6.36414e-15
    outer loop
      vertex -3.41209 17.115 0.8
      vertex 3.41209 17.115 0.8
      vertex 0.316409 17.115 3.44414
    endloop
  endfacet
  facet normal 0 -1.67326 5.90158e-16
    outer loop
      vertex -0.316409 17.115 3.44414
      vertex -3.41209 17.115 0.8
      vertex 0.316409 17.115 3.44414
    endloop
  endfacet
  facet normal 14.0402 -0.0193417 17.4783
    outer loop
      vertex -4.49299 17.115 1.66829
      vertex -4.39396 0.945 1.57084
      vertex -3.41209 17.115 0.8
    endloop
  endfacet
  facet normal -2.07163e-15 -5.00755 2.79946e-15
    outer loop
      vertex -4.49299 17.115 1.66829
      vertex -3.41209 17.115 0.8
      vertex -1.49117 17.115 3.88967
    endloop
  endfacet
  facet normal 2.7426e-16 -2.29615 5.22559e-16
    outer loop
      vertex -3.41209 17.115 0.8
      vertex -0.930838 17.115 3.59558
      vertex -1.49117 17.115 3.88967
    endloop
  endfacet
  facet normal 1.41234e-16 -2.09345 5.73009e-16
    outer loop
      vertex -3.41209 17.115 0.8
      vertex -0.316409 17.115 3.44414
      vertex -0.930838 17.115 3.59558
    endloop
  endfacet
  facet normal -1.41234e-16 -2.09345 5.73009e-16
    outer loop
      vertex 0.316409 17.115 3.44414
      vertex 3.41209 17.115 0.8
      vertex 0.930838 17.115 3.59558
    endloop
  endfacet
  facet normal -2.7426e-16 -2.29615 5.22559e-16
    outer loop
      vertex 0.930838 17.115 3.59558
      vertex 3.41209 17.115 0.8
      vertex 1.49117 17.115 3.88967
    endloop
  endfacet
  facet normal 2.07163e-15 -5.00755 2.79946e-15
    outer loop
      vertex 1.49117 17.115 3.88967
      vertex 3.41209 17.115 0.8
      vertex 4.493 17.115 1.66829
    endloop
  endfacet
  facet normal -14.0402 -0.0193417 17.4783
    outer loop
      vertex 3.41209 17.115 0.8
      vertex 4.39397 0.945 1.57084
      vertex 4.493 17.115 1.66829
    endloop
  endfacet
  facet normal -12.4645 0 15.877
    outer loop
      vertex 3.41209 0.945 0.8
      vertex 4.39397 0.945 1.57084
      vertex 3.41209 17.115 0.8
    endloop
  endfacet
  facet normal -0.247031 2.29792e-15 0.470679
    outer loop
      vertex 0.930838 17.115 3.59558
      vertex 1.49117 17.115 3.88967
      vertex 0.930838 17.955 3.59558
    endloop
  endfacet
  facet normal -0.247031 -3.4083e-16 0.470679
    outer loop
      vertex 0.930838 17.955 3.59558
      vertex 1.49117 17.115 3.88967
      vertex 1.49117 17.955 3.88967
    endloop
  endfacet
  facet normal 0.127212 2.74803e-15 0.51612
    outer loop
      vertex -0.930838 17.115 3.59558
      vertex -0.316409 17.115 3.44414
      vertex -0.930838 17.955 3.59558
    endloop
  endfacet
endsolid polyhedron
