solid polyhedron
  facet normal -249 -0 0
    outer loop
      vertex -20.75 -20.75 3
      vertex -20.75 20.75 3
      vertex -20.75 -20.75 -3
    endloop
  endfacet
  facet normal -249 -0 0
    outer loop
      vertex -20.75 -20.75 -3
      vertex -20.75 20.75 3
      vertex -20.75 20.75 -3
    endloop
  endfacet
  facet normal -0 249 -0
    outer loop
      vertex -20.75 20.75 3
      vertex 20.75 20.75 3
      vertex -20.75 20.75 -3
    endloop
  endfacet
  facet normal 0 249 0
    outer loop
      vertex -20.75 20.75 -3
      vertex 20.75 20.75 3
      vertex 20.75 20.75 -3
    endloop
  endfacet
  facet normal -0 0 487.625
    outer loop
      vertex 9 -15.2 3
      vertex 20.75 -20.75 3
      vertex 20.75 20.75 3
    endloop
  endfacet
  facet normal -0 -0 357.2
    outer loop
      vertex 9 15.2 3
      vertex 9 -15.2 3
      vertex 20.75 20.75 3
    endloop
  endfacet
  facet normal 0 0 230.325
    outer loop
      vertex -20.75 -20.75 3
      vertex 20.75 -20.75 3
      vertex -9 -15.2 3
    endloop
  endfacet
  facet normal -0 0 230.325
    outer loop
      vertex -20.75 20.75 3
      vertex -9 15.2 3
      vertex 20.75 20.75 3
    endloop
  endfacet
  facet normal -0 -0 487.625
    outer loop
      vertex -20.75 20.75 3
      vertex -20.75 -20.75 3
      vertex -9 15.2 3
    endloop
  endfacet
  facet normal 0 0 27.75
    outer loop
      vertex -9 15.2 3
      vertex -4 15.2 3
      vertex 20.75 20.75 3
    endloop
  endfacet
  facet normal -0 -0 48.8
    outer loop
      vertex -4 -12.2 3
      vertex 6 12.2 3
      vertex -6 -12.2 3
    endloop
  endfacet
  facet normal -0 -0 48.8
    outer loop
      vertex 4 12.2 3
      vertex -6 -12.2 3
      vertex 6 12.2 3
    endloop
  endfacet
  facet normal 0 0 27.75
    outer loop
      vertex 4 15.2 3
      vertex 9 15.2 3
      vertex 20.75 20.75 3
    endloop
  endfacet
  facet normal -0 0 27.75
    outer loop
      vertex -9 -15.2 3
      vertex 20.75 -20.75 3
      vertex -4 -15.2 3
    endloop
  endfacet
  facet normal -0 -0 195.2
    outer loop
      vertex -4 12.2 3
      vertex -6 -12.2 3
      vertex 4 12.2 3
    endloop
  endfacet
  facet normal 0 0 44.4
    outer loop
      vertex -4 15.2 3
      vertex 4 15.2 3
      vertex 20.75 20.75 3
    endloop
  endfacet
  facet normal -0 -0 24
    outer loop
      vertex -4 15.2 3
      vertex -4 12.2 3
      vertex 4 15.2 3
    endloop
  endfacet
  facet normal -0 -0 195.2
    outer loop
      vertex 4 -12.2 3
      vertex 6 12.2 3
      vertex -4 -12.2 3
    endloop
  endfacet
  facet normal -0 -0 48.8
    outer loop
      vertex 6 -12.2 3
      vertex 6 12.2 3
      vertex 4 -12.2 3
    endloop
  endfacet
  facet normal 0 -0 24
    outer loop
      vertex 4 -15.2 3
      vertex 4 -12.2 3
      vertex -4 -12.2 3
    endloop
  endfacet
  facet normal -0 -0 24
    outer loop
      vertex 4 12.2 3
      vertex 4 15.2 3
      vertex -4 12.2 3
    endloop
  endfacet
  facet normal -0 -0 27.75
    outer loop
      vertex 9 -15.2 3
      vertex 4 -15.2 3
      vertex 20.75 -20.75 3
    endloop
  endfacet
  facet normal -0 -0 48.8
    outer loop
      vertex -6 12.2 3
      vertex -6 -12.2 3
      vertex -4 12.2 3
    endloop
  endfacet
  facet normal -0 -0 44.4
    outer loop
      vertex 4 -15.2 3
      vertex -4 -15.2 3
      vertex 20.75 -20.75 3
    endloop
  endfacet
  facet normal -0 -0 24
    outer loop
      vertex -4 -12.2 3
      vertex -4 -15.2 3
      vertex 4 -15.2 3
    endloop
  endfacet
  facet normal -0 -0 357.2
    outer loop
      vertex -9 -15.2 3
      vertex -9 15.2 3
      vertex -20.75 -20.75 3
    endloop
  endfacet
  facet normal -0 -249 0
    outer loop
      vertex -20.75 -20.75 -3
      vertex 20.75 -20.75 -3
      vertex 20.75 -20.75 3
    endloop
  endfacet
  facet normal -0 -249 0
    outer loop
      vertex -20.75 -20.75 3
      vertex -20.75 -20.75 -3
      vertex 20.75 -20.75 3
    endloop
  endfacet
  facet normal -0 0 -487.625
    outer loop
      vertex 9 -15.2 -3
      vertex 20.75 20.75 -3
      vertex 20.75 -20.75 -3
    endloop
  endfacet
  facet normal -0 0 -357.2
    outer loop
      vertex 9 15.2 -3
      vertex 20.75 20.75 -3
      vertex 9 -15.2 -3
    endloop
  endfacet
  facet normal -0 0 -230.325
    outer loop
      vertex -20.75 -20.75 -3
      vertex -9 -15.2 -3
      vertex 20.75 -20.75 -3
    endloop
  endfacet
  facet normal -0 0 -99.9
    outer loop
      vertex -9 -15.2 -3
      vertex 9 -15.2 -3
      vertex 20.75 -20.75 -3
    endloop
  endfacet
  facet normal -0 0 -230.325
    outer loop
      vertex -20.75 20.75 -3
      vertex 20.75 20.75 -3
      vertex 9 15.2 -3
    endloop
  endfacet
  facet normal -0 0 -99.9
    outer loop
      vertex -20.75 20.75 -3
      vertex 9 15.2 -3
      vertex -9 15.2 -3
    endloop
  endfacet
  facet normal -0 0 -487.625
    outer loop
      vertex -20.75 20.75 -3
      vertex -9 15.2 -3
      vertex -20.75 -20.75 -3
    endloop
  endfacet
  facet normal -0 -0 -357.2
    outer loop
      vertex -9 -15.2 -3
      vertex -20.75 -20.75 -3
      vertex -9 15.2 -3
    endloop
  endfacet
  facet normal 249 0 0
    outer loop
      vertex 20.75 -20.75 -3
      vertex 20.75 20.75 -3
      vertex 20.75 20.75 3
    endloop
  endfacet
  facet normal 249 -0 -0
    outer loop
      vertex 20.75 -20.75 3
      vertex 20.75 -20.75 -3
      vertex 20.75 20.75 3
    endloop
  endfacet
  facet normal 182.4 0 0
    outer loop
      vertex -9 -15.2 -3
      vertex -9 15.2 -3
      vertex -9 15.2 3
    endloop
  endfacet
  facet normal 182.4 -0 -0
    outer loop
      vertex -9 -15.2 3
      vertex -9 -15.2 -3
      vertex -9 15.2 3
    endloop
  endfacet
  facet normal -0 30 -0
    outer loop
      vertex -9 -15.2 3
      vertex -4 -15.2 3
      vertex -9 -15.2 -3
    endloop
  endfacet
  facet normal 0 22.5 0
    outer loop
      vertex -9 -15.2 -3
      vertex -4 -15.2 3
      vertex -4 -15.2 -1.5
    endloop
  endfacet
  facet normal 0 12 0
    outer loop
      vertex -9 -15.2 -3
      vertex -4 -15.2 -1.5
      vertex 4 -15.2 -1.5
    endloop
  endfacet
  facet normal 0 22.5 0
    outer loop
      vertex 4 -15.2 -1.5
      vertex 4 -15.2 3
      vertex 9 -15.2 3
    endloop
  endfacet
  facet normal -0 30 0
    outer loop
      vertex 4 -15.2 -1.5
      vertex 9 -15.2 3
      vertex 9 -15.2 -3
    endloop
  endfacet
  facet normal -0 27 -0
    outer loop
      vertex 4 -15.2 -1.5
      vertex 9 -15.2 -3
      vertex -9 -15.2 -3
    endloop
  endfacet
  facet normal -13.5 -0 0
    outer loop
      vertex -4 -15.2 3
      vertex -4 -12.2 3
      vertex -4 -15.2 -1.5
    endloop
  endfacet
  facet normal -13.5 -0 0
    outer loop
      vertex -4 -15.2 -1.5
      vertex -4 -12.2 3
      vertex -4 -12.2 -1.5
    endloop
  endfacet
  facet normal -0 -9 0
    outer loop
      vertex -6 -12.2 -1.5
      vertex -4 -12.2 -1.5
      vertex -4 -12.2 3
    endloop
  endfacet
  facet normal -0 -9 0
    outer loop
      vertex -6 -12.2 3
      vertex -6 -12.2 -1.5
      vertex -4 -12.2 3
    endloop
  endfacet
  facet normal -109.8 -0 0
    outer loop
      vertex -6 -12.2 3
      vertex -6 12.2 3
      vertex -6 -12.2 -1.5
    endloop
  endfacet
  facet normal -109.8 -0 0
    outer loop
      vertex -6 -12.2 -1.5
      vertex -6 12.2 3
      vertex -6 12.2 -1.5
    endloop
  endfacet
  facet normal -0 9 -0
    outer loop
      vertex -6 12.2 3
      vertex -4 12.2 3
      vertex -6 12.2 -1.5
    endloop
  endfacet
  facet normal 0 9 0
    outer loop
      vertex -6 12.2 -1.5
      vertex -4 12.2 3
      vertex -4 12.2 -1.5
    endloop
  endfacet
  facet normal -13.5 -0 0
    outer loop
      vertex -4 12.2 3
      vertex -4 15.2 3
      vertex -4 12.2 -1.5
    endloop
  endfacet
  facet normal -13.5 -0 0
    outer loop
      vertex -4 12.2 -1.5
      vertex -4 15.2 3
      vertex -4 15.2 -1.5
    endloop
  endfacet
  facet normal -0 -30 0
    outer loop
      vertex 4 15.2 -1.5
      vertex 9 15.2 -3
      vertex 9 15.2 3
    endloop
  endfacet
  facet normal -0 -27 0
    outer loop
      vertex -9 15.2 -3
      vertex 9 15.2 -3
      vertex 4 15.2 -1.5
    endloop
  endfacet
  facet normal -0 -22.5 -0
    outer loop
      vertex -4 15.2 -1.5
      vertex -4 15.2 3
      vertex -9 15.2 -3
    endloop
  endfacet
  facet normal 0 -12 0
    outer loop
      vertex -9 15.2 -3
      vertex 4 15.2 -1.5
      vertex -4 15.2 -1.5
    endloop
  endfacet
  facet normal -0 -30 0
    outer loop
      vertex -9 15.2 3
      vertex -9 15.2 -3
      vertex -4 15.2 3
    endloop
  endfacet
  facet normal -0 -22.5 0
    outer loop
      vertex 4 15.2 3
      vertex 4 15.2 -1.5
      vertex 9 15.2 3
    endloop
  endfacet
  facet normal -0 9 -0
    outer loop
      vertex 4 12.2 3
      vertex 6 12.2 3
      vertex 4 12.2 -1.5
    endloop
  endfacet
  facet normal 0 9 0
    outer loop
      vertex 4 12.2 -1.5
      vertex 6 12.2 3
      vertex 6 12.2 -1.5
    endloop
  endfacet
  facet normal 13.5 0 0
    outer loop
      vertex 4 12.2 -1.5
      vertex 4 15.2 -1.5
      vertex 4 15.2 3
    endloop
  endfacet
  facet normal 13.5 -0 -0
    outer loop
      vertex 4 12.2 3
      vertex 4 12.2 -1.5
      vertex 4 15.2 3
    endloop
  endfacet
  facet normal 109.8 0 0
    outer loop
      vertex 6 -12.2 -1.5
      vertex 6 12.2 -1.5
      vertex 6 12.2 3
    endloop
  endfacet
  facet normal 109.8 -0 -0
    outer loop
      vertex 6 -12.2 3
      vertex 6 -12.2 -1.5
      vertex 6 12.2 3
    endloop
  endfacet
  facet normal -0 -9 0
    outer loop
      vertex 4 -12.2 -1.5
      vertex 6 -12.2 -1.5
      vertex 6 -12.2 3
    endloop
  endfacet
  facet normal -0 -9 0
    outer loop
      vertex 4 -12.2 3
      vertex 4 -12.2 -1.5
      vertex 6 -12.2 3
    endloop
  endfacet
  facet normal 13.5 0 0
    outer loop
      vertex 4 -15.2 -1.5
      vertex 4 -12.2 -1.5
      vertex 4 -12.2 3
    endloop
  endfacet
  facet normal 13.5 -0 -0
    outer loop
      vertex 4 -15.2 3
      vertex 4 -15.2 -1.5
      vertex 4 -12.2 3
    endloop
  endfacet
  facet normal -182.4 -0 0
    outer loop
      vertex 9 -15.2 3
      vertex 9 15.2 3
      vertex 9 -15.2 -3
    endloop
  endfacet
  facet normal -182.4 -0 0
    outer loop
      vertex 9 -15.2 -3
      vertex 9 15.2 3
      vertex 9 15.2 -3
    endloop
  endfacet
  facet normal -0 0 -48.8
    outer loop
      vertex -6 12.2 -1.5
      vertex -4 12.2 -1.5
      vertex -6 -12.2 -1.5
    endloop
  endfacet
  facet normal -0 -0 -24
    outer loop
      vertex 4 15.2 -1.5
      vertex -4 12.2 -1.5
      vertex -4 15.2 -1.5
    endloop
  endfacet
  facet normal 0 0 -189.2
    outer loop
      vertex -6 -12.2 -1.5
      vertex -4 12.2 -1.5
      vertex 4 15.2 -1.5
    endloop
  endfacet
  facet normal 0 0 -30
    outer loop
      vertex -6 -12.2 -1.5
      vertex 4 15.2 -1.5
      vertex 4 12.2 -1.5
    endloop
  endfacet
  facet normal 0 0 -48.8
    outer loop
      vertex -6 -12.2 -1.5
      vertex 4 12.2 -1.5
      vertex 6 12.2 -1.5
    endloop
  endfacet
  facet normal -0 0 -48.8
    outer loop
      vertex 4 -12.2 -1.5
      vertex 6 12.2 -1.5
      vertex 6 -12.2 -1.5
    endloop
  endfacet
  facet normal -0 0 -48.8
    outer loop
      vertex -6 -12.2 -1.5
      vertex 6 12.2 -1.5
      vertex -4 -12.2 -1.5
    endloop
  endfacet
  facet normal -0 -0 -24
    outer loop
      vertex 4 -12.2 -1.5
      vertex 4 -15.2 -1.5
      vertex -4 -12.2 -1.5
    endloop
  endfacet
  facet normal 0 -0 -195.2
    outer loop
      vertex 4 -12.2 -1.5
      vertex -4 -12.2 -1.5
      vertex 6 12.2 -1.5
    endloop
  endfacet
  facet normal -0 0 -24
    outer loop
      vertex -4 -12.2 -1.5
      vertex 4 -15.2 -1.5
      vertex -4 -15.2 -1.5
    endloop
  endfacet
endsolid polyhedron
