solid polyhedron
  facet normal -249 -0 0
    outer loop
      vertex -20.75 -20.75 3
      vertex -20.75 20.75 3
      vertex -20.75 -20.75 -3
    endloop
  endfacet
  facet normal -249 -0 0
    outer loop
      vertex -20.75 -20.75 -3
      vertex -20.75 20.75 3
      vertex -20.75 20.75 -3
    endloop
  endfacet
  facet normal -0 64.5 -0
    outer loop
      vertex -20.75 20.75 3
      vertex -10 20.75 3
      vertex -20.75 20.75 -3
    endloop
  endfacet
  facet normal 0 10.75 0
    outer loop
      vertex -20.75 20.75 -3
      vertex -10 20.75 3
      vertex -10 20.75 2
    endloop
  endfacet
  facet normal 0 100 0
    outer loop
      vertex -20.75 20.75 -3
      vertex -10 20.75 2
      vertex 10 20.75 2
    endloop
  endfacet
  facet normal 0 10.75 0
    outer loop
      vertex 10 20.75 2
      vertex 10 20.75 3
      vertex 20.75 20.75 3
    endloop
  endfacet
  facet normal -0 23 -0
    outer loop
      vertex 10 20.75 2
      vertex 20.75 20.75 3
      vertex -20.75 20.75 -3
    endloop
  endfacet
  facet normal 0 249 0
    outer loop
      vertex -20.75 20.75 -3
      vertex 20.75 20.75 3
      vertex 20.75 20.75 -3
    endloop
  endfacet
  facet normal 0 0 446.125
    outer loop
      vertex -20.75 -20.75 3
      vertex -10 -20.75 3
      vertex -10 20.75 3
    endloop
  endfacet
  facet normal -0 -0 446.125
    outer loop
      vertex -20.75 20.75 3
      vertex -20.75 -20.75 3
      vertex -10 20.75 3
    endloop
  endfacet
  facet normal -0 0 -1722.25
    outer loop
      vertex -20.75 20.75 -3
      vertex 20.75 20.75 -3
      vertex -20.75 -20.75 -3
    endloop
  endfacet
  facet normal -0 0 -1722.25
    outer loop
      vertex -20.75 -20.75 -3
      vertex 20.75 20.75 -3
      vertex 20.75 -20.75 -3
    endloop
  endfacet
  facet normal -0 -249 0
    outer loop
      vertex -20.75 -20.75 -3
      vertex 20.75 -20.75 -3
      vertex 20.75 -20.75 3
    endloop
  endfacet
  facet normal -0 -23 -0
    outer loop
      vertex 10 -20.75 2
      vertex -20.75 -20.75 -3
      vertex 20.75 -20.75 3
    endloop
  endfacet
  facet normal -0 -10.75 0
    outer loop
      vertex 10 -20.75 3
      vertex 10 -20.75 2
      vertex 20.75 -20.75 3
    endloop
  endfacet
  facet normal -0 -10.75 -0
    outer loop
      vertex -10 -20.75 3
      vertex -20.75 -20.75 -3
      vertex -10 -20.75 2
    endloop
  endfacet
  facet normal -0 -64.5 0
    outer loop
      vertex -20.75 -20.75 3
      vertex -20.75 -20.75 -3
      vertex -10 -20.75 3
    endloop
  endfacet
  facet normal -0 -100 -0
    outer loop
      vertex 10 -20.75 2
      vertex -10 -20.75 2
      vertex -20.75 -20.75 -3
    endloop
  endfacet
  facet normal 249 0 0
    outer loop
      vertex 20.75 -20.75 -3
      vertex 20.75 20.75 -3
      vertex 20.75 20.75 3
    endloop
  endfacet
  facet normal 249 -0 -0
    outer loop
      vertex 20.75 -20.75 3
      vertex 20.75 -20.75 -3
      vertex 20.75 20.75 3
    endloop
  endfacet
  facet normal 0 0 446.125
    outer loop
      vertex 10 -20.75 3
      vertex 20.75 -20.75 3
      vertex 20.75 20.75 3
    endloop
  endfacet
  facet normal -0 -0 446.125
    outer loop
      vertex 10 20.75 3
      vertex 10 -20.75 3
      vertex 20.75 20.75 3
    endloop
  endfacet
  facet normal -41.5 -0 0
    outer loop
      vertex 10 -20.75 3
      vertex 10 20.75 3
      vertex 10 -20.75 2
    endloop
  endfacet
  facet normal -41.5 -0 0
    outer loop
      vertex 10 -20.75 2
      vertex 10 20.75 3
      vertex 10 20.75 2
    endloop
  endfacet
  facet normal 0 0 830
    outer loop
      vertex -10 -20.75 2
      vertex 10 -20.75 2
      vertex 10 20.75 2
    endloop
  endfacet
  facet normal -0 -0 830
    outer loop
      vertex -10 20.75 2
      vertex -10 -20.75 2
      vertex 10 20.75 2
    endloop
  endfacet
  facet normal 41.5 0 0
    outer loop
      vertex -10 -20.75 2
      vertex -10 20.75 2
      vertex -10 20.75 3
    endloop
  endfacet
  facet normal 41.5 -0 -0
    outer loop
      vertex -10 -20.75 3
      vertex -10 -20.75 2
      vertex -10 20.75 3
    endloop
  endfacet
endsolid polyhedron
