solid polyhedron
  facet normal -498 -0 0
    outer loop
      vertex -20.75 -20.75 6
      vertex -20.75 20.75 6
      vertex -20.75 -20.75 -6
    endloop
  endfacet
  facet normal -498 -0 0
    outer loop
      vertex -20.75 -20.75 -6
      vertex -20.75 20.75 6
      vertex -20.75 20.75 -6
    endloop
  endfacet
  facet normal -0 498 -0
    outer loop
      vertex -20.75 20.75 6
      vertex 20.75 20.75 6
      vertex -20.75 20.75 -6
    endloop
  endfacet
  facet normal 0 498 0
    outer loop
      vertex -20.75 20.75 -6
      vertex 20.75 20.75 6
      vertex 20.75 20.75 -6
    endloop
  endfacet
  facet normal -0 0 612.357
    outer loop
      vertex 5.99441 3.23255 6
      vertex 20.75 -20.75 6
      vertex 20.75 20.75 6
    endloop
  endfacet
  facet normal -0 -0 0.0235405
    outer loop
      vertex -5.98991 0.9 6
      vertex -5.99441 3.23255 6
      vertex -6 0.9 6
    endloop
  endfacet
  facet normal 0 -0 30.2732
    outer loop
      vertex -1.48786 -18.1 6
      vertex -1.48786 -11.3907 6
      vertex -6 -8.1 6
    endloop
  endfacet
  facet normal -0 -0 2.00411e-16
    outer loop
      vertex -1.42016 17.1 6
      vertex -2.08471 17.1 6
      vertex -1.95193 17.1 6
    endloop
  endfacet
  facet normal -0 -0 612.125
    outer loop
      vertex -20.75 20.75 6
      vertex -20.75 -20.75 6
      vertex -6 0.9 6
    endloop
  endfacet
  facet normal -0 -0 129.235
    outer loop
      vertex 1.48786 -11.3907 6
      vertex 1.48786 -18.1 6
      vertex 20.75 -20.75 6
    endloop
  endfacet
  facet normal 0 -0 2.22172
    outer loop
      vertex -1.98786 -8.8 6
      vertex -1.98786 -8.24625 6
      vertex -6 -8.1 6
    endloop
  endfacet
  facet normal -0 0 34.5162
    outer loop
      vertex -20.75 20.75 6
      vertex -6 0.9 6
      vertex -5.99441 3.23255 6
    endloop
  endfacet
  facet normal -0 0 193.367
    outer loop
      vertex -20.75 20.75 6
      vertex -5.99441 3.23255 6
      vertex -5.96307 16.3 6
    endloop
  endfacet
  facet normal -0 -0 0.0551094
    outer loop
      vertex -2.48786 16.3 6
      vertex -2.48786 16.4337 6
      vertex -2.9 16.3 6
    endloop
  endfacet
  facet normal -0 0 109.975
    outer loop
      vertex -20.75 20.75 6
      vertex -3.3 18.1 6
      vertex 20.75 20.75 6
    endloop
  endfacet
  facet normal -0 0 38.4671
    outer loop
      vertex -20.75 20.75 6
      vertex -5.96307 16.3 6
      vertex -3.3 18.1 6
    endloop
  endfacet
  facet normal 0 0 1.06
    outer loop
      vertex -3.3 18.1 6
      vertex -2.9 18.1 6
      vertex 20.75 20.75 6
    endloop
  endfacet
  facet normal -0 -0 31.41
    outer loop
      vertex 3.3 18.1 6
      vertex 3.3 16.3 6
      vertex 20.75 20.75 6
    endloop
  endfacet
  facet normal -0 0 193.367
    outer loop
      vertex 5.96307 16.3 6
      vertex 5.99441 3.23255 6
      vertex 20.75 20.75 6
    endloop
  endfacet
  facet normal -0 -0 7.77624e-18
    outer loop
      vertex 0.590541 17.1 6
      vertex -0.0121423 17.1 6
      vertex 0.285712 17.1 6
    endloop
  endfacet
  facet normal -0 -0 6.33712e-18
    outer loop
      vertex 2.48786 17.1 6
      vertex 0.590541 17.1 6
      vertex 1.87128 17.1 6
    endloop
  endfacet
  facet normal -0 -0 4.47472e-16
    outer loop
      vertex 1.87128 17.1 6
      vertex 0.590541 17.1 6
      vertex 1.48731 17.1 6
    endloop
  endfacet
  facet normal 0 -0 0.274604
    outer loop
      vertex 2.9 16.3 6
      vertex 2.48786 17.1 6
      vertex 2.48786 16.4337 6
    endloop
  endfacet
  facet normal -0 -0 0.0551094
    outer loop
      vertex 2.9 16.3 6
      vertex 2.48786 16.4337 6
      vertex 2.48786 16.3 6
    endloop
  endfacet
  facet normal 0 0 15.37
    outer loop
      vertex -2.9 18.1 6
      vertex 2.9 18.1 6
      vertex 20.75 20.75 6
    endloop
  endfacet
  facet normal -0 0 5.8
    outer loop
      vertex -2.9 18.1 6
      vertex -2.48786 17.1 6
      vertex 2.9 18.1 6
    endloop
  endfacet
  facet normal 0 0 1.06
    outer loop
      vertex 2.9 18.1 6
      vertex 3.3 18.1 6
      vertex 20.75 20.75 6
    endloop
  endfacet
  facet normal 0 0 11.8507
    outer loop
      vertex 3.3 16.3 6
      vertex 5.96307 16.3 6
      vertex 20.75 20.75 6
    endloop
  endfacet
  facet normal -0 -0 34.284
    outer loop
      vertex 6 0.9 6
      vertex 20.75 -20.75 6
      vertex 5.99441 3.23255 6
    endloop
  endfacet
  facet normal 0 0 0.0235404
    outer loop
      vertex 5.98991 0.9 6
      vertex 6 0.9 6
      vertex 5.99441 3.23255 6
    endloop
  endfacet
  facet normal -0 0 50.7536
    outer loop
      vertex 1.98786 -8.1 6
      vertex 20.75 -20.75 6
      vertex 6 -8.1 6
    endloop
  endfacet
  facet normal -0 0 2.74397
    outer loop
      vertex 1.98786 -8.24625 6
      vertex 20.75 -20.75 6
      vertex 1.98786 -8.1 6
    endloop
  endfacet
  facet normal -0 0 10.3895
    outer loop
      vertex 1.98786 -8.8 6
      vertex 20.75 -20.75 6
      vertex 1.98786 -8.24625 6
    endloop
  endfacet
  facet normal -0 0 5.975
    outer loop
      vertex 1.48786 -8.8 6
      vertex 20.75 -20.75 6
      vertex 1.98786 -8.8 6
    endloop
  endfacet
  facet normal 0 -0 0.586777
    outer loop
      vertex -1.98786 -8.24625 6
      vertex -1.98786 -8.1 6
      vertex -6 -8.1 6
    endloop
  endfacet
  facet normal -0 0 49.9028
    outer loop
      vertex 1.48786 -11.3907 6
      vertex 20.75 -20.75 6
      vertex 1.48786 -8.8 6
    endloop
  endfacet
  facet normal 0 -0 1.29536
    outer loop
      vertex -1.48786 -11.3907 6
      vertex -1.48786 -8.8 6
      vertex -1.98786 -8.8 6
    endloop
  endfacet
  facet normal 0 -0 10.0443
    outer loop
      vertex -1.48786 -11.3907 6
      vertex -1.98786 -8.8 6
      vertex -6 -8.1 6
    endloop
  endfacet
  facet normal 0 0 109.975
    outer loop
      vertex -20.75 -20.75 6
      vertex 20.75 -20.75 6
      vertex 1.48786 -18.1 6
    endloop
  endfacet
  facet normal 0 0 204.579
    outer loop
      vertex -20.75 -20.75 6
      vertex -1.48786 -18.1 6
      vertex -6 -8.1 6
    endloop
  endfacet
  facet normal 0 0 7.88565
    outer loop
      vertex -20.75 -20.75 6
      vertex 1.48786 -18.1 6
      vertex -1.48786 -18.1 6
    endloop
  endfacet
  facet normal -0 -0 132.75
    outer loop
      vertex 6 0.9 6
      vertex 6 -8.1 6
      vertex 20.75 -20.75 6
    endloop
  endfacet
  facet normal -0 -0 132.75
    outer loop
      vertex -6 -8.1 6
      vertex -6 0.9 6
      vertex -20.75 -20.75 6
    endloop
  endfacet
  facet normal -0 -0 4.22066e-17
    outer loop
      vertex 2.48786 17.1 6
      vertex -0.0121423 17.1 6
      vertex 0.590541 17.1 6
    endloop
  endfacet
  facet normal -0 -0 9.34789e-17
    outer loop
      vertex -0.301342 17.1 6
      vertex -1.42016 17.1 6
      vertex -0.888396 17.1 6
    endloop
  endfacet
  facet normal -0 -0 2.13447e-18
    outer loop
      vertex -0.0121423 17.1 6
      vertex -1.42016 17.1 6
      vertex -0.301342 17.1 6
    endloop
  endfacet
  facet normal -0 -0 4.79352
    outer loop
      vertex -3.3 16.3 6
      vertex -3.3 18.1 6
      vertex -5.96307 16.3 6
    endloop
  endfacet
  facet normal -0 0 0.274604
    outer loop
      vertex -2.9 18.1 6
      vertex -2.48786 16.4337 6
      vertex -2.48786 17.1 6
    endloop
  endfacet
  facet normal -0 -0 0.741856
    outer loop
      vertex -2.9 18.1 6
      vertex -2.9 16.3 6
      vertex -2.48786 16.4337 6
    endloop
  endfacet
  facet normal -0 -0 1.74032e-17
    outer loop
      vertex -1.42016 17.1 6
      vertex -2.48786 17.1 6
      vertex -2.08471 17.1 6
    endloop
  endfacet
  facet normal -0 -0 1.0677
    outer loop
      vertex -1.42016 17.1 6
      vertex 2.9 18.1 6
      vertex -2.48786 17.1 6
    endloop
  endfacet
  facet normal -0 -0 1.40802
    outer loop
      vertex -0.0121423 17.1 6
      vertex 2.9 18.1 6
      vertex -1.42016 17.1 6
    endloop
  endfacet
  facet normal -0 -0 2.5
    outer loop
      vertex 2.48786 17.1 6
      vertex 2.9 18.1 6
      vertex -0.0121423 17.1 6
    endloop
  endfacet
  facet normal 0 -0 0.741856
    outer loop
      vertex 2.9 16.3 6
      vertex 2.9 18.1 6
      vertex 2.48786 17.1 6
    endloop
  endfacet
  facet normal -0 0 -1722.25
    outer loop
      vertex -20.75 20.75 -6
      vertex 20.75 20.75 -6
      vertex -20.75 -20.75 -6
    endloop
  endfacet
  facet normal -0 0 -1722.25
    outer loop
      vertex -20.75 -20.75 -6
      vertex 20.75 20.75 -6
      vertex 20.75 -20.75 -6
    endloop
  endfacet
  facet normal -0 -498 0
    outer loop
      vertex -20.75 -20.75 -6
      vertex 20.75 -20.75 -6
      vertex 20.75 -20.75 6
    endloop
  endfacet
  facet normal -0 -498 0
    outer loop
      vertex -20.75 -20.75 6
      vertex -20.75 -20.75 -6
      vertex 20.75 -20.75 6
    endloop
  endfacet
  facet normal 498 0 0
    outer loop
      vertex 20.75 -20.75 -6
      vertex 20.75 20.75 -6
      vertex 20.75 20.75 6
    endloop
  endfacet
  facet normal 498 -0 -0
    outer loop
      vertex 20.75 -20.75 6
      vertex 20.75 -20.75 -6
      vertex 20.75 20.75 6
    endloop
  endfacet
  facet normal 44.1 0 0
    outer loop
      vertex -6 -8.1 1.1
      vertex -6 0.9 1.1
      vertex -6 0.9 6
    endloop
  endfacet
  facet normal 44.1 -0 -0
    outer loop
      vertex -6 -8.1 6
      vertex -6 -8.1 1.1
      vertex -6 0.9 6
    endloop
  endfacet
  facet normal -0 19.6595 -0
    outer loop
      vertex -6 -8.1 6
      vertex -1.98786 -8.1 6
      vertex -6 -8.1 1.1
    endloop
  endfacet
  facet normal 0 1.7444 0
    outer loop
      vertex -6 -8.1 1.1
      vertex -1.98786 -8.1 6
      vertex -1.94188 -8.1 5.62137
    endloop
  endfacet
  facet normal 0 2.60249 0
    outer loop
      vertex -6 -8.1 1.1
      vertex -1.94188 -8.1 5.62137
      vertex -1.77091 -8.1 5.17055
    endloop
  endfacet
  facet normal -0 2.79298 -0
    outer loop
      vertex -1.77091 -8.1 5.17055
      vertex -1.49702 -8.1 4.77375
      vertex -6 -8.1 1.1
    endloop
  endfacet
  facet normal -0 2.76553 -0
    outer loop
      vertex -1.49702 -8.1 4.77375
      vertex -1.13613 -8.1 4.45403
      vertex -6 -8.1 1.1
    endloop
  endfacet
  facet normal -0 2.52172 -0
    outer loop
      vertex -1.13613 -8.1 4.45403
      vertex -0.70921 -8.1 4.22997
      vertex -6 -8.1 1.1
    endloop
  endfacet
  facet normal -0 2.07573 -0
    outer loop
      vertex -0.70921 -8.1 4.22997
      vertex -0.241073 -8.1 4.11458
      vertex -6 -8.1 1.1
    endloop
  endfacet
  facet normal -0 1.45347 -0
    outer loop
      vertex -0.241073 -8.1 4.11458
      vertex 0.241073 -8.1 4.11458
      vertex -6 -8.1 1.1
    endloop
  endfacet
  facet normal -0 0.691108 -0
    outer loop
      vertex 0.241073 -8.1 4.11458
      vertex 0.70921 -8.1 4.22997
      vertex -6 -8.1 1.1
    endloop
  endfacet
  facet normal -0 4.68448 -0
    outer loop
      vertex 0.70921 -8.1 4.22997
      vertex 6 -8.1 6
      vertex -6 -8.1 1.1
    endloop
  endfacet
  facet normal -0 0.429818 -0
    outer loop
      vertex 1.13613 -8.1 4.45403
      vertex 6 -8.1 6
      vertex 0.70921 -8.1 4.22997
    endloop
  endfacet
  facet normal -0 0.997161 -0
    outer loop
      vertex 1.49702 -8.1 4.77375
      vertex 6 -8.1 6
      vertex 1.13613 -8.1 4.45403
    endloop
  endfacet
  facet normal -0 1.45092 -0
    outer loop
      vertex 1.77091 -8.1 5.17055
      vertex 6 -8.1 6
      vertex 1.49702 -8.1 4.77375
    endloop
  endfacet
  facet normal 0 1.51912 0
    outer loop
      vertex 1.94188 -8.1 5.62137
      vertex 1.98786 -8.1 6
      vertex 6 -8.1 6
    endloop
  endfacet
  facet normal -0 1.76472 -0
    outer loop
      vertex 1.94188 -8.1 5.62137
      vertex 6 -8.1 6
      vertex 1.77091 -8.1 5.17055
    endloop
  endfacet
  facet normal 0 58.8 0
    outer loop
      vertex -6 -8.1 1.1
      vertex 6 -8.1 6
      vertex 6 -8.1 1.1
    endloop
  endfacet
  facet normal 0.265042 -8.5517e-16 0.0321819
    outer loop
      vertex -1.98786 -8.24625 6
      vertex -1.94188 -8.8 5.62137
      vertex -1.94188 -8.1 5.62137
    endloop
  endfacet
  facet normal 0.055375 -1.7867e-16 0.00672374
    outer loop
      vertex -1.98786 -8.1 6
      vertex -1.98786 -8.24625 6
      vertex -1.94188 -8.1 5.62137
    endloop
  endfacet
  facet normal 0.209667 5.16832e-16 0.0254582
    outer loop
      vertex -1.98786 -8.24625 6
      vertex -1.98786 -8.8 6
      vertex -1.94188 -8.8 5.62137
    endloop
  endfacet
  facet normal -0 0.129487 -0
    outer loop
      vertex -1.48786 -8.8 6
      vertex -1.45641 -8.8 5.74103
      vertex -1.98786 -8.8 6
    endloop
  endfacet
  facet normal -0 0.14648 0
    outer loop
      vertex -1.98786 -8.8 6
      vertex -1.45641 -8.8 5.74103
      vertex -1.32818 -8.8 5.40292
    endloop
  endfacet
  facet normal -0 0.0736665 -0
    outer loop
      vertex -1.32818 -8.8 5.40292
      vertex -1.12277 -8.8 5.10532
      vertex -1.98786 -8.8 6
    endloop
  endfacet
  facet normal -0 0.0682391 -0
    outer loop
      vertex -1.12277 -8.8 5.10532
      vertex -0.241073 -8.8 4.11458
      vertex -1.98786 -8.8 6
    endloop
  endfacet
  facet normal -0 0.0736665 -0
    outer loop
      vertex 1.32818 -8.8 5.40292
      vertex 1.98786 -8.8 6
      vertex 1.12277 -8.8 5.10532
    endloop
  endfacet
  facet normal 0 0.129487 0
    outer loop
      vertex 1.45641 -8.8 5.74103
      vertex 1.48786 -8.8 6
      vertex 1.98786 -8.8 6
    endloop
  endfacet
  facet normal -0 0.14648 -0
    outer loop
      vertex 1.45641 -8.8 5.74103
      vertex 1.98786 -8.8 6
      vertex 1.32818 -8.8 5.40292
    endloop
  endfacet
  facet normal 0 0.286418 0
    outer loop
      vertex 1.12277 -8.8 5.10532
      vertex 1.98786 -8.8 6
      vertex 1.94188 -8.8 5.62137
    endloop
  endfacet
  facet normal -0 0.0567382 -0
    outer loop
      vertex 1.12277 -8.8 5.10532
      vertex 1.94188 -8.8 5.62137
      vertex 0.852097 -8.8 4.86552
    endloop
  endfacet
  facet normal 0 0.362064 0
    outer loop
      vertex 0.852097 -8.8 4.86552
      vertex 1.94188 -8.8 5.62137
      vertex 1.77091 -8.8 5.17055
    endloop
  endfacet
  facet normal -0 0.0567382 -0
    outer loop
      vertex 0.852097 -8.8 4.86552
      vertex 1.77091 -8.8 5.17055
      vertex 0.531907 -8.8 4.69748
    endloop
  endfacet
  facet normal 0 0.362064 0
    outer loop
      vertex 0.531907 -8.8 4.69748
      vertex 1.77091 -8.8 5.17055
      vertex 1.49702 -8.8 4.77375
    endloop
  endfacet
  facet normal -0 0.0567382 -0
    outer loop
      vertex 0.531907 -8.8 4.69748
      vertex 1.49702 -8.8 4.77375
      vertex 0.180805 -8.8 4.61094
    endloop
  endfacet
  facet normal -0 0.362064 0
    outer loop
      vertex 0.180805 -8.8 4.61094
      vertex 1.49702 -8.8 4.77375
      vertex 1.13613 -8.8 4.45403
    endloop
  endfacet
  facet normal -0 0.0567382 -0
    outer loop
      vertex 0.180805 -8.8 4.61094
      vertex 1.13613 -8.8 4.45403
      vertex -0.180805 -8.8 4.61094
    endloop
  endfacet
  facet normal -0 0.362064 0
    outer loop
      vertex -0.180805 -8.8 4.61094
      vertex 1.13613 -8.8 4.45403
      vertex 0.70921 -8.8 4.22997
    endloop
  endfacet
  facet normal -0 0.0567382 -0
    outer loop
      vertex -0.180805 -8.8 4.61094
      vertex 0.70921 -8.8 4.22997
      vertex -0.531907 -8.8 4.69748
    endloop
  endfacet
  facet normal -0 0.362064 0
    outer loop
      vertex -0.531907 -8.8 4.69748
      vertex 0.70921 -8.8 4.22997
      vertex 0.241073 -8.8 4.11458
    endloop
  endfacet
  facet normal -0 0.0567382 -0
    outer loop
      vertex -0.531907 -8.8 4.69748
      vertex 0.241073 -8.8 4.11458
      vertex -0.852097 -8.8 4.86552
    endloop
  endfacet
  facet normal -0 0.362064 0
    outer loop
      vertex -0.852097 -8.8 4.86552
      vertex 0.241073 -8.8 4.11458
      vertex -0.241073 -8.8 4.11458
    endloop
  endfacet
  facet normal -0 0.0567382 -0
    outer loop
      vertex -0.852097 -8.8 4.86552
      vertex -0.241073 -8.8 4.11458
      vertex -1.12277 -8.8 5.10532
    endloop
  endfacet
  facet normal -0 0.68108 0
    outer loop
      vertex -1.98786 -8.8 6
      vertex -0.241073 -8.8 4.11458
      vertex -0.70921 -8.8 4.22997
    endloop
  endfacet
  facet normal -0 0.469162 0
    outer loop
      vertex -1.98786 -8.8 6
      vertex -0.70921 -8.8 4.22997
      vertex -1.13613 -8.8 4.45403
    endloop
  endfacet
  facet normal -0 0.285611 0
    outer loop
      vertex -1.98786 -8.8 6
      vertex -1.13613 -8.8 4.45403
      vertex -1.49702 -8.8 4.77375
    endloop
  endfacet
  facet normal -0 0.141094 0
    outer loop
      vertex -1.98786 -8.8 6
      vertex -1.49702 -8.8 4.77375
      vertex -1.77091 -8.8 5.17055
    endloop
  endfacet
  facet normal -0 0.0440094 0
    outer loop
      vertex -1.98786 -8.8 6
      vertex -1.77091 -8.8 5.17055
      vertex -1.94188 -8.8 5.62137
    endloop
  endfacet
  facet normal 2.40845 -2.36599e-16 0.292439
    outer loop
      vertex -1.48786 -11.3907 6
      vertex -1.45641 -18.1 5.74103
      vertex -1.45641 -8.8 5.74103
    endloop
  endfacet
  facet normal 0.670928 -6.59098e-17 0.0814654
    outer loop
      vertex -1.48786 -8.8 6
      vertex -1.48786 -11.3907 6
      vertex -1.45641 -8.8 5.74103
    endloop
  endfacet
  facet normal 1.73753 1.61189e-16 0.210974
    outer loop
      vertex -1.48786 -11.3907 6
      vertex -1.48786 -18.1 6
      vertex -1.45641 -18.1 5.74103
    endloop
  endfacet
  facet normal -0 0.770631 -0
    outer loop
      vertex 1.48786 -18.1 6
      vertex 1.45641 -18.1 5.74103
      vertex -1.48786 -18.1 6
    endloop
  endfacet
  facet normal -0 1.0287 0
    outer loop
      vertex -1.48786 -18.1 6
      vertex 1.45641 -18.1 5.74103
      vertex 1.32818 -18.1 5.40292
    endloop
  endfacet
  facet normal -0 0.960704 0
    outer loop
      vertex -1.48786 -18.1 6
      vertex 1.32818 -18.1 5.40292
      vertex 1.12277 -18.1 5.10532
    endloop
  endfacet
  facet normal -0 0.868169 0
    outer loop
      vertex -1.48786 -18.1 6
      vertex 1.12277 -18.1 5.10532
      vertex 0.852097 -18.1 4.86552
    endloop
  endfacet
  facet normal -0 0.756474 0
    outer loop
      vertex -1.48786 -18.1 6
      vertex 0.852097 -18.1 4.86552
      vertex 0.531907 -18.1 4.69748
    endloop
  endfacet
  facet normal -0 0.632108 0
    outer loop
      vertex -1.48786 -18.1 6
      vertex 0.531907 -18.1 4.69748
      vertex 0.180805 -18.1 4.61094
    endloop
  endfacet
  facet normal -0 0.502299 0
    outer loop
      vertex -1.48786 -18.1 6
      vertex 0.180805 -18.1 4.61094
      vertex -0.180805 -18.1 4.61094
    endloop
  endfacet
  facet normal -0 0.374592 0
    outer loop
      vertex -1.48786 -18.1 6
      vertex -0.180805 -18.1 4.61094
      vertex -0.531907 -18.1 4.69748
    endloop
  endfacet
  facet normal -0 0.256409 0
    outer loop
      vertex -1.48786 -18.1 6
      vertex -0.531907 -18.1 4.69748
      vertex -0.852097 -18.1 4.86552
    endloop
  endfacet
  facet normal -0 0.154617 0
    outer loop
      vertex -1.48786 -18.1 6
      vertex -0.852097 -18.1 4.86552
      vertex -1.12277 -18.1 5.10532
    endloop
  endfacet
  facet normal -0 0.0751331 0
    outer loop
      vertex -1.48786 -18.1 6
      vertex -1.12277 -18.1 5.10532
      vertex -1.32818 -18.1 5.40292
    endloop
  endfacet
  facet normal -0 0.0225759 0
    outer loop
      vertex -1.48786 -18.1 6
      vertex -1.32818 -18.1 5.40292
      vertex -1.45641 -18.1 5.74103
    endloop
  endfacet
  facet normal -1.73753 0 0.210974
    outer loop
      vertex 1.45641 -18.1 5.74103
      vertex 1.48786 -18.1 6
      vertex 1.48786 -11.3907 6
    endloop
  endfacet
  facet normal -0.670928 -3.11208e-17 0.0814654
    outer loop
      vertex 1.48786 -11.3907 6
      vertex 1.48786 -8.8 6
      vertex 1.45641 -18.1 5.74103
    endloop
  endfacet
  facet normal -2.40845 -1.11715e-16 0.292439
    outer loop
      vertex 1.45641 -18.1 5.74103
      vertex 1.48786 -8.8 6
      vertex 1.45641 -8.8 5.74103
    endloop
  endfacet
  facet normal -0.209667 0 0.0254582
    outer loop
      vertex 1.94188 -8.8 5.62137
      vertex 1.98786 -8.8 6
      vertex 1.98786 -8.24625 6
    endloop
  endfacet
  facet normal -0.055375 -3.4125e-17 0.00672374
    outer loop
      vertex 1.98786 -8.24625 6
      vertex 1.98786 -8.1 6
      vertex 1.94188 -8.8 5.62137
    endloop
  endfacet
  facet normal -0.265042 -1.63333e-16 0.0321819
    outer loop
      vertex 1.94188 -8.8 5.62137
      vertex 1.98786 -8.1 6
      vertex 1.94188 -8.1 5.62137
    endloop
  endfacet
  facet normal -44.1 -0 0
    outer loop
      vertex 6 -8.1 6
      vertex 6 0.9 6
      vertex 6 -8.1 1.1
    endloop
  endfacet
  facet normal -44.1 -0 0
    outer loop
      vertex 6 -8.1 1.1
      vertex 6 0.9 6
      vertex 6 0.9 1.1
    endloop
  endfacet
  facet normal -0 -0.584942 0
    outer loop
      vertex 5.88062 0.9 4.91714
      vertex 6 0.9 1.1
      vertex 6 0.9 6
    endloop
  endfacet
  facet normal -0 -1.48416 0
    outer loop
      vertex 5.52731 0.9 3.78198
      vertex 6 0.9 1.1
      vertex 5.88062 0.9 4.91714
    endloop
  endfacet
  facet normal -0 -2.02917 0
    outer loop
      vertex 4.95431 0.9 2.74031
      vertex 6 0.9 1.1
      vertex 5.52731 0.9 3.78198
    endloop
  endfacet
  facet normal -0 -0.0109284 -0
    outer loop
      vertex 5.98991 0.9 6
      vertex 5.88062 0.9 4.91714
      vertex 6 0.9 6
    endloop
  endfacet
  facet normal -2.52583 0.00487124 0.25491
    outer loop
      vertex 5.98991 0.9 6
      vertex 5.99441 3.23255 6
      vertex 5.88062 0.9 4.91714
    endloop
  endfacet
  facet normal -15.457 0.0298099 1.55994
    outer loop
      vertex 5.88062 0.9 4.91714
      vertex 5.99441 3.23255 6
      vertex 5.96307 16.3 5.43978
    endloop
  endfacet
  facet normal -7.32067 -0.0175555 0
    outer loop
      vertex 5.96307 16.3 5.43978
      vertex 5.99441 3.23255 6
      vertex 5.96307 16.3 6
    endloop
  endfacet
  facet normal 0 -3.32951 0
    outer loop
      vertex 3.3 16.3 5.1
      vertex 5.67038 16.3 4.15218
      vertex 5.96307 16.3 5.43978
    endloop
  endfacet
  facet normal 0 -2.39676 0
    outer loop
      vertex 3.3 16.3 6
      vertex 3.3 16.3 5.1
      vertex 5.96307 16.3 6
    endloop
  endfacet
  facet normal 0 -1.49191 0
    outer loop
      vertex 5.96307 16.3 6
      vertex 3.3 16.3 5.1
      vertex 5.96307 16.3 5.43978
    endloop
  endfacet
  facet normal -1.62 0 5.97462e-08
    outer loop
      vertex 3.3 16.3 6
      vertex 3.3 18.1 6
      vertex 3.3 16.3 5.1
    endloop
  endfacet
  facet normal -1.62 0 5.97462e-08
    outer loop
      vertex 3.3 16.3 5.1
      vertex 3.3 18.1 6
      vertex 3.3 18.1 5.1
    endloop
  endfacet
  facet normal -0 -0.36 0
    outer loop
      vertex 2.9 18.1 5.1
      vertex 3.3 18.1 5.1
      vertex 3.3 18.1 6
    endloop
  endfacet
  facet normal -0 -0.36 0
    outer loop
      vertex 2.9 18.1 6
      vertex 2.9 18.1 5.1
      vertex 3.3 18.1 6
    endloop
  endfacet
  facet normal 1.62 0 0
    outer loop
      vertex 2.9 16.3 5.1
      vertex 2.9 18.1 5.1
      vertex 2.9 18.1 6
    endloop
  endfacet
  facet normal 1.62 -0 -0
    outer loop
      vertex 2.9 16.3 6
      vertex 2.9 16.3 5.1
      vertex 2.9 18.1 6
    endloop
  endfacet
  facet normal 0 -0.263123 0
    outer loop
      vertex 1.87128 16.3 4.44219
      vertex 3.3 16.3 5.1
      vertex 2.9 16.3 5.1
    endloop
  endfacet
  facet normal 0 -0.285037 0
    outer loop
      vertex 2.21364 16.3 4.93819
      vertex 1.87128 16.3 4.44219
      vertex 2.9 16.3 5.1
    endloop
  endfacet
  facet normal 0 -0.205366 0
    outer loop
      vertex 2.9 16.3 6
      vertex 2.48786 16.3 6
      vertex 2.42735 16.3 5.50171
    endloop
  endfacet
  facet normal 0 -0.617724 0
    outer loop
      vertex 2.9 16.3 6
      vertex 2.21364 16.3 4.93819
      vertex 2.9 16.3 5.1
    endloop
  endfacet
  facet normal 0 -0.159853 0
    outer loop
      vertex 2.42735 16.3 5.50171
      vertex 2.21364 16.3 4.93819
      vertex 2.9 16.3 6
    endloop
  endfacet
  facet normal -0.0666285 1.5218e-16 0.00809016
    outer loop
      vertex 2.48786 16.3 6
      vertex 2.48786 16.4337 6
      vertex 2.42735 16.3 5.50171
    endloop
  endfacet
  facet normal -0.398631 9.10476e-16 0.0484026
    outer loop
      vertex 2.42735 16.3 5.50171
      vertex 2.48786 16.4337 6
      vertex 2.42735 17.1 5.50171
    endloop
  endfacet
  facet normal -0.332003 -7.16093e-16 0.0403125
    outer loop
      vertex 2.42735 17.1 5.50171
      vertex 2.48786 16.4337 6
      vertex 2.48786 17.1 6
    endloop
  endfacet
  facet normal -0 -0.533336 0
    outer loop
      vertex 1.87128 17.1 6
      vertex 1.87128 17.1 4.44219
      vertex 2.21364 17.1 4.93819
    endloop
  endfacet
  facet normal -0 -0.307236 -0
    outer loop
      vertex 2.48786 17.1 6
      vertex 1.87128 17.1 6
      vertex 2.42735 17.1 5.50171
    endloop
  endfacet
  facet normal -0 -0.419852 -0
    outer loop
      vertex 2.42735 17.1 5.50171
      vertex 1.87128 17.1 6
      vertex 2.21364 17.1 4.93819
    endloop
  endfacet
  facet normal 5.39477e-16 -0.598143 1.44514e-30
    outer loop
      vertex 1.48731 17.1 6
      vertex 1.87128 17.1 4.44219
      vertex 1.87128 17.1 6
    endloop
  endfacet
  facet normal -1.09827e-15 -2.76203 -8.84706e-16
    outer loop
      vertex 0.301342 17.1 3.61823
      vertex 1.87128 17.1 4.44219
      vertex 1.48731 17.1 6
    endloop
  endfacet
  facet normal -8.493e-16 -2.1359 -6.84152e-16
    outer loop
      vertex 0.590541 17.1 6
      vertex 0.301342 17.1 3.61823
      vertex 1.48731 17.1 6
    endloop
  endfacet
  facet normal 3.11893e-30 -1.43545 -5.29096e-16
    outer loop
      vertex -0.301342 17.1 3.61823
      vertex 0.301342 17.1 3.61823
      vertex 0.590541 17.1 6
    endloop
  endfacet
  facet normal 1.57751e-30 -0.726033 -2.67609e-16
    outer loop
      vertex 0.285712 17.1 6
      vertex -0.301342 17.1 3.61823
      vertex 0.590541 17.1 6
    endloop
  endfacet
  facet normal -6.07595e-17 -0.709422 -2.46511e-16
    outer loop
      vertex -0.301342 17.1 3.61823
      vertex 0.285712 17.1 6
      vertex -0.0121423 17.1 6
    endloop
  endfacet
  facet normal 7.26569e-31 -0.688807 -2.46511e-16
    outer loop
      vertex -0.301342 17.1 6
      vertex -0.301342 17.1 3.61823
      vertex -0.0121423 17.1 6
    endloop
  endfacet
  facet normal 1.89776e-16 -1.39823 -5.00399e-16
    outer loop
      vertex -0.888396 17.1 6
      vertex -0.301342 17.1 3.61823
      vertex -0.301342 17.1 6
    endloop
  endfacet
  facet normal -3.58548e-16 -2.19005 -9.45414e-16
    outer loop
      vertex -1.42016 17.1 6
      vertex -1.42016 17.1 4.04254
      vertex -0.301342 17.1 3.61823
    endloop
  endfacet
  facet normal -2.07355e-16 -1.26655 -5.46751e-16
    outer loop
      vertex -0.888396 17.1 6
      vertex -1.42016 17.1 6
      vertex -0.301342 17.1 3.61823
    endloop
  endfacet
  facet normal 9.81739e-16 -1.5532 -6.70497e-16
    outer loop
      vertex -2.21364 17.1 4.93819
      vertex -1.42016 17.1 4.04254
      vertex -1.42016 17.1 6
    endloop
  endfacet
  facet normal 3.5689e-16 -0.564633 -2.43745e-16
    outer loop
      vertex -1.95193 17.1 6
      vertex -2.21364 17.1 4.93819
      vertex -1.42016 17.1 6
    endloop
  endfacet
  facet normal -3.11054e-16 -0.140993 3.77687e-17
    outer loop
      vertex -2.21364 17.1 4.93819
      vertex -1.95193 17.1 6
      vertex -2.08471 17.1 6
    endloop
  endfacet
  facet normal -0 -0.0723969 0
    outer loop
      vertex -2.48786 17.1 6
      vertex -2.42735 17.1 5.50171
      vertex -2.21364 17.1 4.93819
    endloop
  endfacet
  facet normal -0 -0.428062 -0
    outer loop
      vertex -2.08471 17.1 6
      vertex -2.48786 17.1 6
      vertex -2.21364 17.1 4.93819
    endloop
  endfacet
  facet normal 0.332003 0 0.0403125
    outer loop
      vertex -2.48786 16.4337 6
      vertex -2.42735 17.1 5.50171
      vertex -2.48786 17.1 6
    endloop
  endfacet
  facet normal 0.398631 -4.4257e-16 0.0484026
    outer loop
      vertex -2.48786 16.3 6
      vertex -2.42735 16.3 5.50171
      vertex -2.42735 17.1 5.50171
    endloop
  endfacet
  facet normal 0.0666285 -7.39725e-17 0.00809016
    outer loop
      vertex -2.48786 16.4337 6
      vertex -2.48786 16.3 6
      vertex -2.42735 17.1 5.50171
    endloop
  endfacet
  facet normal 0 -0.483436 0
    outer loop
      vertex -3.3 16.3 5.1
      vertex -1.87128 16.3 4.44219
      vertex -2.21364 16.3 4.93819
    endloop
  endfacet
  facet normal 0 -0.0647232 0
    outer loop
      vertex -2.9 16.3 5.1
      vertex -3.3 16.3 5.1
      vertex -2.21364 16.3 4.93819
    endloop
  endfacet
  facet normal 0 -0.352196 0
    outer loop
      vertex -2.42735 16.3 5.50171
      vertex -2.9 16.3 5.1
      vertex -2.21364 16.3 4.93819
    endloop
  endfacet
  facet normal 0 -0.205366 0
    outer loop
      vertex -2.9 16.3 6
      vertex -2.42735 16.3 5.50171
      vertex -2.48786 16.3 6
    endloop
  endfacet
  facet normal 0 -0.425381 0
    outer loop
      vertex -2.9 16.3 6
      vertex -2.9 16.3 5.1
      vertex -2.42735 16.3 5.50171
    endloop
  endfacet
  facet normal -1.62 -0 0
    outer loop
      vertex -2.9 16.3 6
      vertex -2.9 18.1 6
      vertex -2.9 16.3 5.1
    endloop
  endfacet
  facet normal -1.62 -0 0
    outer loop
      vertex -2.9 16.3 5.1
      vertex -2.9 18.1 6
      vertex -2.9 18.1 5.1
    endloop
  endfacet
  facet normal -0 -0.36 0
    outer loop
      vertex -3.3 18.1 5.1
      vertex -2.9 18.1 5.1
      vertex -2.9 18.1 6
    endloop
  endfacet
  facet normal -0 -0.36 -0
    outer loop
      vertex -3.3 18.1 6
      vertex -3.3 18.1 5.1
      vertex -2.9 18.1 6
    endloop
  endfacet
  facet normal 1.62 0 -5.97462e-08
    outer loop
      vertex -3.3 16.3 5.1
      vertex -3.3 18.1 5.1
      vertex -3.3 18.1 6
    endloop
  endfacet
  facet normal 1.62 0 -5.97462e-08
    outer loop
      vertex -3.3 16.3 6
      vertex -3.3 16.3 5.1
      vertex -3.3 18.1 6
    endloop
  endfacet
  facet normal 0 -3.32951 0
    outer loop
      vertex -5.96307 16.3 5.43978
      vertex -5.67038 16.3 4.15218
      vertex -3.3 16.3 5.1
    endloop
  endfacet
  facet normal 0 -1.49191 0
    outer loop
      vertex -5.96307 16.3 6
      vertex -5.96307 16.3 5.43978
      vertex -3.3 16.3 6
    endloop
  endfacet
  facet normal 0 -2.39676 0
    outer loop
      vertex -3.3 16.3 6
      vertex -5.96307 16.3 5.43978
      vertex -3.3 16.3 5.1
    endloop
  endfacet
  facet normal 7.32067 -0.0175557 0
    outer loop
      vertex -5.99441 3.23255 6
      vertex -5.96307 16.3 5.43978
      vertex -5.96307 16.3 6
    endloop
  endfacet
  facet normal 2.52583 0.00487122 0.25491
    outer loop
      vertex -5.99441 3.23255 6
      vertex -5.98991 0.9 6
      vertex -5.88062 0.9 4.91714
    endloop
  endfacet
  facet normal 15.457 0.0298097 1.55994
    outer loop
      vertex -5.96307 16.3 5.43978
      vertex -5.99441 3.23255 6
      vertex -5.88062 0.9 4.91714
    endloop
  endfacet
  facet normal 0 -2.02917 0
    outer loop
      vertex -6 0.9 1.1
      vertex -4.95431 0.9 2.74031
      vertex -5.52731 0.9 3.78198
    endloop
  endfacet
  facet normal -0 -1.48416 -0
    outer loop
      vertex -5.88062 0.9 4.91714
      vertex -6 0.9 1.1
      vertex -5.52731 0.9 3.78198
    endloop
  endfacet
  facet normal -0 -0.54642 -0
    outer loop
      vertex -5.88062 0.9 4.91714
      vertex -5.98991 0.9 6
      vertex -6 0.9 1.1
    endloop
  endfacet
  facet normal -0 -0.0494516 -0
    outer loop
      vertex -5.98991 0.9 6
      vertex -6 0.9 6
      vertex -6 0.9 1.1
    endloop
  endfacet
  facet normal 0 0 108
    outer loop
      vertex -6 -8.1 1.1
      vertex 6 -8.1 1.1
      vertex 6 0.9 1.1
    endloop
  endfacet
  facet normal 0 0 142.444
    outer loop
      vertex 3.24961 16.3 1.1
      vertex -6 -8.1 1.1
      vertex 3.24961 0.9 1.1
    endloop
  endfacet
  facet normal 0 0 24.7535
    outer loop
      vertex 3.24961 0.9 1.1
      vertex -6 -8.1 1.1
      vertex 6 0.9 1.1
    endloop
  endfacet
  facet normal 0 0 16.1368
    outer loop
      vertex -3.24961 0.9 1.1
      vertex -6 -8.1 1.1
      vertex 3.24961 16.3 1.1
    endloop
  endfacet
  facet normal 0 0 100.088
    outer loop
      vertex -3.24961 16.3 1.1
      vertex -3.24961 0.9 1.1
      vertex 3.24961 16.3 1.1
    endloop
  endfacet
  facet normal 0 0 24.7536
    outer loop
      vertex -3.24961 0.9 1.1
      vertex -6 0.9 1.1
      vertex -6 -8.1 1.1
    endloop
  endfacet
  facet normal 2.91378e-15 -2.20993 -1.85752e-15
    outer loop
      vertex -6 0.9 1.1
      vertex -4.18473 0.9 1.83414
      vertex -4.95431 0.9 2.74031
    endloop
  endfacet
  facet normal 0 -2.01916 4.88568e-15
    outer loop
      vertex -6 0.9 1.1
      vertex -3.24961 0.9 1.1
      vertex -4.18473 0.9 1.83414
    endloop
  endfacet
  facet normal -0.315571 -6.07413e-16 0.11968
    outer loop
      vertex 1.77091 -8.1 5.17055
      vertex 1.94188 -8.8 5.62137
      vertex 1.94188 -8.1 5.62137
    endloop
  endfacet
  facet normal -0.315571 5.93799e-16 0.11968
    outer loop
      vertex 1.77091 -8.8 5.17055
      vertex 1.94188 -8.8 5.62137
      vertex 1.77091 -8.1 5.17055
    endloop
  endfacet
  facet normal -0.277759 8.42301e-17 0.191723
    outer loop
      vertex 1.49702 -8.1 4.77375
      vertex 1.77091 -8.8 5.17055
      vertex 1.77091 -8.1 5.17055
    endloop
  endfacet
  facet normal -0.223806 -1.46264e-16 0.252624
    outer loop
      vertex 1.13613 -8.1 4.45403
      vertex 1.49702 -8.8 4.77375
      vertex 1.49702 -8.1 4.77375
    endloop
  endfacet
  facet normal -0.277759 4.36658e-16 0.191723
    outer loop
      vertex 1.49702 -8.8 4.77375
      vertex 1.77091 -8.8 5.17055
      vertex 1.49702 -8.1 4.77375
    endloop
  endfacet
  facet normal -0.223806 9.89618e-16 0.252624
    outer loop
      vertex 1.13613 -8.8 4.45403
      vertex 1.49702 -8.8 4.77375
      vertex 1.13613 -8.1 4.45403
    endloop
  endfacet
  facet normal -0.156845 7.53523e-17 0.298844
    outer loop
      vertex 0.70921 -8.1 4.22997
      vertex 1.13613 -8.8 4.45403
      vertex 1.13613 -8.1 4.45403
    endloop
  endfacet
  facet normal -0.156845 6.72381e-16 0.298844
    outer loop
      vertex 0.70921 -8.8 4.22997
      vertex 1.13613 -8.8 4.45403
      vertex 0.70921 -8.1 4.22997
    endloop
  endfacet
  facet normal -0.0807697 -5.35845e-16 0.327695
    outer loop
      vertex 0.241073 -8.1 4.11458
      vertex 0.70921 -8.8 4.22997
      vertex 0.70921 -8.1 4.22997
    endloop
  endfacet
  facet normal 0 0 0.337503
    outer loop
      vertex -0.241073 -8.1 4.11458
      vertex 0.241073 -8.8 4.11458
      vertex 0.241073 -8.1 4.11458
    endloop
  endfacet
  facet normal -0.0807697 1.33228e-15 0.327695
    outer loop
      vertex 0.241073 -8.8 4.11458
      vertex 0.70921 -8.8 4.22997
      vertex 0.241073 -8.1 4.11458
    endloop
  endfacet
  facet normal 0.0807697 3.3088e-16 0.327695
    outer loop
      vertex -0.70921 -8.1 4.22997
      vertex -0.241073 -8.8 4.11458
      vertex -0.241073 -8.1 4.11458
    endloop
  endfacet
  facet normal 2.4869e-15 1.71293e-15 0.337503
    outer loop
      vertex -0.241073 -8.8 4.11458
      vertex 0.241073 -8.8 4.11458
      vertex -0.241073 -8.1 4.11458
    endloop
  endfacet
  facet normal 0.0807697 4.33362e-16 0.327695
    outer loop
      vertex -0.70921 -8.8 4.22997
      vertex -0.241073 -8.8 4.11458
      vertex -0.70921 -8.1 4.22997
    endloop
  endfacet
  facet normal 0.156845 -8.7139e-16 0.298844
    outer loop
      vertex -1.13613 -8.1 4.45403
      vertex -0.70921 -8.8 4.22997
      vertex -0.70921 -8.1 4.22997
    endloop
  endfacet
  facet normal 0.156845 8.44343e-16 0.298844
    outer loop
      vertex -1.13613 -8.8 4.45403
      vertex -0.70921 -8.8 4.22997
      vertex -1.13613 -8.1 4.45403
    endloop
  endfacet
  facet normal 0.223806 -5.59384e-16 0.252624
    outer loop
      vertex -1.49702 -8.8 4.77375
      vertex -1.13613 -8.8 4.45403
      vertex -1.13613 -8.1 4.45403
    endloop
  endfacet
  facet normal 0.223806 2.92528e-16 0.252624
    outer loop
      vertex -1.49702 -8.8 4.77375
      vertex -1.13613 -8.1 4.45403
      vertex -1.49702 -8.1 4.77375
    endloop
  endfacet
  facet normal 0.277759 -8.73317e-16 0.191723
    outer loop
      vertex -1.77091 -8.1 5.17055
      vertex -1.49702 -8.8 4.77375
      vertex -1.49702 -8.1 4.77375
    endloop
  endfacet
  facet normal 0.277759 8.04594e-16 0.191723
    outer loop
      vertex -1.77091 -8.8 5.17055
      vertex -1.49702 -8.8 4.77375
      vertex -1.77091 -8.1 5.17055
    endloop
  endfacet
  facet normal 0.315571 -5.80186e-16 0.11968
    outer loop
      vertex -1.94188 -8.1 5.62137
      vertex -1.77091 -8.8 5.17055
      vertex -1.77091 -8.1 5.17055
    endloop
  endfacet
  facet normal 0.315571 2.20623e-16 0.11968
    outer loop
      vertex -1.94188 -8.8 5.62137
      vertex -1.77091 -8.8 5.17055
      vertex -1.94188 -8.1 5.62137
    endloop
  endfacet
  facet normal -3.14443 1.45046e-16 1.19253
    outer loop
      vertex 1.32818 -18.1 5.40292
      vertex 1.45641 -8.8 5.74103
      vertex 1.32818 -8.8 5.40292
    endloop
  endfacet
  facet normal -3.14443 -4.5556e-16 1.19253
    outer loop
      vertex 1.32818 -18.1 5.40292
      vertex 1.45641 -18.1 5.74103
      vertex 1.45641 -8.8 5.74103
    endloop
  endfacet
  facet normal -2.76767 -2.01149e-16 1.91039
    outer loop
      vertex 1.12277 -8.8 5.10532
      vertex 1.32818 -18.1 5.40292
      vertex 1.32818 -8.8 5.40292
    endloop
  endfacet
  facet normal -2.23006 -3.22676e-16 2.51722
    outer loop
      vertex 0.852097 -8.8 4.86552
      vertex 1.12277 -18.1 5.10532
      vertex 1.12277 -8.8 5.10532
    endloop
  endfacet
  facet normal -2.76767 6.31726e-17 1.91039
    outer loop
      vertex 1.12277 -18.1 5.10532
      vertex 1.32818 -18.1 5.40292
      vertex 1.12277 -8.8 5.10532
    endloop
  endfacet
  facet normal -1.56285 -2.42e-16 2.97777
    outer loop
      vertex 0.531907 -8.8 4.69748
      vertex 0.852097 -18.1 4.86552
      vertex 0.852097 -8.8 4.86552
    endloop
  endfacet
  facet normal -2.23006 3.16258e-16 2.51722
    outer loop
      vertex 0.852097 -18.1 4.86552
      vertex 1.12277 -18.1 5.10532
      vertex 0.852097 -8.8 4.86552
    endloop
  endfacet
  facet normal -0.804812 -6.3247e-16 3.26525
    outer loop
      vertex 0.180805 -8.8 4.61094
      vertex 0.531907 -18.1 4.69748
      vertex 0.531907 -8.8 4.69748
    endloop
  endfacet
  facet normal -1.56285 5.65142e-17 2.97777
    outer loop
      vertex 0.531907 -18.1 4.69748
      vertex 0.852097 -18.1 4.86552
      vertex 0.531907 -8.8 4.69748
    endloop
  endfacet
  facet normal 0 0 3.36297
    outer loop
      vertex -0.180805 -18.1 4.61094
      vertex 0.180805 -18.1 4.61094
      vertex 0.180805 -8.8 4.61094
    endloop
  endfacet
  facet normal 0 0 3.36297
    outer loop
      vertex -0.180805 -8.8 4.61094
      vertex -0.180805 -18.1 4.61094
      vertex 0.180805 -8.8 4.61094
    endloop
  endfacet
  facet normal -0.804812 6.91758e-16 3.26525
    outer loop
      vertex 0.180805 -18.1 4.61094
      vertex 0.531907 -18.1 4.69748
      vertex 0.180805 -8.8 4.61094
    endloop
  endfacet
  facet normal 0.804812 5.55608e-16 3.26525
    outer loop
      vertex -0.531907 -18.1 4.69748
      vertex -0.180805 -8.8 4.61094
      vertex -0.531907 -8.8 4.69748
    endloop
  endfacet
  facet normal 0.804812 -7.6862e-16 3.26525
    outer loop
      vertex -0.531907 -18.1 4.69748
      vertex -0.180805 -18.1 4.61094
      vertex -0.180805 -8.8 4.61094
    endloop
  endfacet
  facet normal 1.56285 -2.05771e-16 2.97777
    outer loop
      vertex -0.852097 -8.8 4.86552
      vertex -0.531907 -18.1 4.69748
      vertex -0.531907 -8.8 4.69748
    endloop
  endfacet
  facet normal 2.23006 -7.42214e-16 2.51722
    outer loop
      vertex -1.12277 -8.8 5.10532
      vertex -0.852097 -18.1 4.86552
      vertex -0.852097 -8.8 4.86552
    endloop
  endfacet
  facet normal 1.56285 -5.65142e-17 2.97777
    outer loop
      vertex -0.852097 -18.1 4.86552
      vertex -0.531907 -18.1 4.69748
      vertex -0.852097 -8.8 4.86552
    endloop
  endfacet
  facet normal 2.76767 -1.26345e-16 1.91039
    outer loop
      vertex -1.32818 -8.8 5.40292
      vertex -1.12277 -18.1 5.10532
      vertex -1.12277 -8.8 5.10532
    endloop
  endfacet
  facet normal 2.23006 6.45351e-16 2.51722
    outer loop
      vertex -1.12277 -18.1 5.10532
      vertex -0.852097 -18.1 4.86552
      vertex -1.12277 -8.8 5.10532
    endloop
  endfacet
  facet normal 2.76767 4.02297e-16 1.91039
    outer loop
      vertex -1.32818 -18.1 5.40292
      vertex -1.12277 -18.1 5.10532
      vertex -1.32818 -8.8 5.40292
    endloop
  endfacet
  facet normal 3.14443 -2.90093e-16 1.19253
    outer loop
      vertex -1.45641 -8.8 5.74103
      vertex -1.32818 -18.1 5.40292
      vertex -1.32818 -8.8 5.40292
    endloop
  endfacet
  facet normal 3.14443 3.10513e-16 1.19253
    outer loop
      vertex -1.45641 -18.1 5.74103
      vertex -1.32818 -18.1 5.40292
      vertex -1.45641 -8.8 5.74103
    endloop
  endfacet
  facet normal 0 -2.01916 4.88568e-15
    outer loop
      vertex 3.24961 0.9 1.1
      vertex 6 0.9 1.1
      vertex 4.18473 0.9 1.83414
    endloop
  endfacet
  facet normal -2.91378e-15 -2.20993 -1.85752e-15
    outer loop
      vertex 4.18473 0.9 1.83414
      vertex 6 0.9 1.1
      vertex 4.95431 0.9 2.74031
    endloop
  endfacet
  facet normal -13.9551 0.0140454 11.8515
    outer loop
      vertex 4.18473 0.9 1.83414
      vertex 4.95431 0.9 2.74031
      vertex 4.27904 16.3 1.92694
    endloop
  endfacet
  facet normal -15.9321 -0.0311976 12.6362
    outer loop
      vertex 4.27904 16.3 1.92694
      vertex 4.95431 0.9 2.74031
      vertex 5.09958 16.3 2.96149
    endloop
  endfacet
  facet normal -16.0417 0.0245855 8.82422
    outer loop
      vertex 4.95431 0.9 2.74031
      vertex 5.52731 0.9 3.78198
      vertex 5.09958 16.3 2.96149
    endloop
  endfacet
  facet normal -17.4814 0.0316152 5.44102
    outer loop
      vertex 5.52731 0.9 3.78198
      vertex 5.88062 0.9 4.91714
      vertex 5.67038 16.3 4.15218
    endloop
  endfacet
  facet normal -18.3367 -0.0409554 8.79044
    outer loop
      vertex 5.09958 16.3 2.96149
      vertex 5.52731 0.9 3.78198
      vertex 5.67038 16.3 4.15218
    endloop
  endfacet
  facet normal -19.829 -0.046812 4.50734
    outer loop
      vertex 5.67038 16.3 4.15218
      vertex 5.88062 0.9 4.91714
      vertex 5.96307 16.3 5.43978
    endloop
  endfacet
  facet normal 9.18865e-16 -3.61647 -7.2878e-16
    outer loop
      vertex 3.3 16.3 5.1
      vertex 4.27904 16.3 1.92694
      vertex 5.09958 16.3 2.96149
    endloop
  endfacet
  facet normal 5.8425e-16 -5.17745 -1.26896e-15
    outer loop
      vertex 1.87128 16.3 4.44219
      vertex 4.27904 16.3 1.92694
      vertex 3.3 16.3 5.1
    endloop
  endfacet
  facet normal 0 0 0.72
    outer loop
      vertex 2.9 16.3 5.1
      vertex 3.3 16.3 5.1
      vertex 3.3 18.1 5.1
    endloop
  endfacet
  facet normal 0 0 0.72
    outer loop
      vertex 2.9 18.1 5.1
      vertex 2.9 16.3 5.1
      vertex 3.3 18.1 5.1
    endloop
  endfacet
  facet normal -8.41832e-16 -3.36342 -2.10532e-15
    outer loop
      vertex 3.3 16.3 5.1
      vertex 5.09958 16.3 2.96149
      vertex 5.67038 16.3 4.15218
    endloop
  endfacet
  facet normal -1.87903e-15 -2.09694 -2.5392e-15
    outer loop
      vertex 1.42016 16.3 4.04254
      vertex 4.27904 16.3 1.92694
      vertex 1.87128 16.3 4.44219
    endloop
  endfacet
  facet normal -0.319722 1.76412e-15 0.360892
    outer loop
      vertex 1.42016 16.3 4.04254
      vertex 1.87128 16.3 4.44219
      vertex 1.42016 17.1 4.04254
    endloop
  endfacet
  facet normal -0.319722 -1.25842e-15 0.360892
    outer loop
      vertex 1.42016 17.1 4.04254
      vertex 1.87128 16.3 4.44219
      vertex 1.87128 17.1 4.44219
    endloop
  endfacet
  facet normal -0.396799 7.56398e-16 0.273891
    outer loop
      vertex 1.87128 16.3 4.44219
      vertex 2.21364 16.3 4.93819
      vertex 1.87128 17.1 4.44219
    endloop
  endfacet
  facet normal -0.450815 1.72624e-15 0.170972
    outer loop
      vertex 2.21364 16.3 4.93819
      vertex 2.42735 16.3 5.50171
      vertex 2.21364 17.1 4.93819
    endloop
  endfacet
  facet normal -0.396799 -1.24672e-16 0.273891
    outer loop
      vertex 1.87128 17.1 4.44219
      vertex 2.21364 16.3 4.93819
      vertex 2.21364 17.1 4.93819
    endloop
  endfacet
  facet normal -0.450815 -1.03504e-15 0.170972
    outer loop
      vertex 2.21364 17.1 4.93819
      vertex 2.42735 16.3 5.50171
      vertex 2.42735 17.1 5.50171
    endloop
  endfacet
  facet normal 2.48762e-16 -0.086926 -4.73976e-16
    outer loop
      vertex 0.886512 17.1 3.76246
      vertex 1.42016 17.1 4.04254
      vertex 1.87128 17.1 4.44219
    endloop
  endfacet
  facet normal 1.28103e-16 -0.255726 -5.19736e-16
    outer loop
      vertex 0.301342 17.1 3.61823
      vertex 0.886512 17.1 3.76246
      vertex 1.87128 17.1 4.44219
    endloop
  endfacet
  facet normal -0.115385 -2.92893e-17 0.468136
    outer loop
      vertex 0.301342 17.1 3.61823
      vertex 0.886512 16.3 3.76246
      vertex 0.886512 17.1 3.76246
    endloop
  endfacet
  facet normal -0.115385 2.04965e-15 0.468136
    outer loop
      vertex 0.301342 16.3 3.61823
      vertex 0.886512 16.3 3.76246
      vertex 0.301342 17.1 3.61823
    endloop
  endfacet
  facet normal -2.84217e-15 5.04871e-29 0.482147
    outer loop
      vertex -0.301342 17.1 3.61823
      vertex 0.301342 16.3 3.61823
      vertex 0.301342 17.1 3.61823
    endloop
  endfacet
  facet normal 0 2.14116e-15 0.482147
    outer loop
      vertex -0.301342 16.3 3.61823
      vertex 0.301342 16.3 3.61823
      vertex -0.301342 17.1 3.61823
    endloop
  endfacet
  facet normal 0.115385 2.92893e-17 0.468136
    outer loop
      vertex -0.886512 17.1 3.76246
      vertex -0.301342 16.3 3.61823
      vertex -0.301342 17.1 3.61823
    endloop
  endfacet
  facet normal 0 -0.086926 0
    outer loop
      vertex -1.42016 17.1 4.04254
      vertex -0.886512 17.1 3.76246
      vertex -0.301342 17.1 3.61823
    endloop
  endfacet
  facet normal 0.224065 5.57905e-16 0.42692
    outer loop
      vertex -1.42016 17.1 4.04254
      vertex -0.886512 16.3 3.76246
      vertex -0.886512 17.1 3.76246
    endloop
  endfacet
  facet normal 0.224065 1.55295e-15 0.42692
    outer loop
      vertex -1.42016 16.3 4.04254
      vertex -0.886512 16.3 3.76246
      vertex -1.42016 17.1 4.04254
    endloop
  endfacet
  facet normal 0.319722 1.06962e-17 0.360892
    outer loop
      vertex -1.87128 17.1 4.44219
      vertex -1.42016 16.3 4.04254
      vertex -1.42016 17.1 4.04254
    endloop
  endfacet
  facet normal 4.40535e-16 -0.086926 3.0408e-16
    outer loop
      vertex -2.21364 17.1 4.93819
      vertex -1.87128 17.1 4.44219
      vertex -1.42016 17.1 4.04254
    endloop
  endfacet
  facet normal 0.396799 -2.10575e-16 0.273891
    outer loop
      vertex -2.21364 17.1 4.93819
      vertex -1.87128 16.3 4.44219
      vertex -1.87128 17.1 4.44219
    endloop
  endfacet
  facet normal 0.396799 -1.05288e-16 0.273891
    outer loop
      vertex -2.21364 16.3 4.93819
      vertex -1.87128 16.3 4.44219
      vertex -2.21364 17.1 4.93819
    endloop
  endfacet
  facet normal 0.450815 -7.42249e-16 0.170972
    outer loop
      vertex -2.42735 17.1 5.50171
      vertex -2.21364 16.3 4.93819
      vertex -2.21364 17.1 4.93819
    endloop
  endfacet
  facet normal 0.450815 -5.00505e-16 0.170972
    outer loop
      vertex -2.42735 16.3 5.50171
      vertex -2.21364 16.3 4.93819
      vertex -2.42735 17.1 5.50171
    endloop
  endfacet
  facet normal -9.18865e-16 -3.61647 -7.2878e-16
    outer loop
      vertex -5.09958 16.3 2.96149
      vertex -4.27904 16.3 1.92694
      vertex -3.3 16.3 5.1
    endloop
  endfacet
  facet normal 8.41832e-16 -3.36342 -2.10532e-15
    outer loop
      vertex -5.67038 16.3 4.15218
      vertex -5.09958 16.3 2.96149
      vertex -3.3 16.3 5.1
    endloop
  endfacet
  facet normal 0 0 0.72
    outer loop
      vertex -3.3 16.3 5.1
      vertex -2.9 16.3 5.1
      vertex -2.9 18.1 5.1
    endloop
  endfacet
  facet normal 0 0 0.72
    outer loop
      vertex -3.3 18.1 5.1
      vertex -3.3 16.3 5.1
      vertex -2.9 18.1 5.1
    endloop
  endfacet
  facet normal -5.8425e-16 -5.17745 -1.26896e-15
    outer loop
      vertex -4.27904 16.3 1.92694
      vertex -1.87128 16.3 4.44219
      vertex -3.3 16.3 5.1
    endloop
  endfacet
  facet normal 1.87903e-15 -2.09694 -2.5392e-15
    outer loop
      vertex -4.27904 16.3 1.92694
      vertex -1.42016 16.3 4.04254
      vertex -1.87128 16.3 4.44219
    endloop
  endfacet
  facet normal 0.319722 1.07559e-15 0.360892
    outer loop
      vertex -1.87128 16.3 4.44219
      vertex -1.42016 16.3 4.04254
      vertex -1.87128 17.1 4.44219
    endloop
  endfacet
  facet normal 19.829 -0.046812 4.50734
    outer loop
      vertex -5.96307 16.3 5.43978
      vertex -5.88062 0.9 4.91714
      vertex -5.67038 16.3 4.15218
    endloop
  endfacet
  facet normal 18.3367 -0.0409554 8.79044
    outer loop
      vertex -5.67038 16.3 4.15218
      vertex -5.52731 0.9 3.78198
      vertex -5.09958 16.3 2.96149
    endloop
  endfacet
  facet normal 17.4814 0.0316152 5.44102
    outer loop
      vertex -5.88062 0.9 4.91714
      vertex -5.52731 0.9 3.78198
      vertex -5.67038 16.3 4.15218
    endloop
  endfacet
  facet normal 16.0417 0.0245855 8.82422
    outer loop
      vertex -5.52731 0.9 3.78198
      vertex -4.95431 0.9 2.74031
      vertex -5.09958 16.3 2.96149
    endloop
  endfacet
  facet normal 15.9321 -0.0311976 12.6362
    outer loop
      vertex -5.09958 16.3 2.96149
      vertex -4.95431 0.9 2.74031
      vertex -4.27904 16.3 1.92694
    endloop
  endfacet
  facet normal 13.9551 0.0140454 11.8515
    outer loop
      vertex -4.95431 0.9 2.74031
      vertex -4.18473 0.9 1.83414
      vertex -4.27904 16.3 1.92694
    endloop
  endfacet
  facet normal 11.3057 0 14.4009
    outer loop
      vertex -4.18473 0.9 1.83414
      vertex -3.24961 0.9 1.1
      vertex -3.24961 16.3 1.1
    endloop
  endfacet
  facet normal 12.7349 -0.0175435 15.8533
    outer loop
      vertex -4.27904 16.3 1.92694
      vertex -4.18473 0.9 1.83414
      vertex -3.24961 16.3 1.1
    endloop
  endfacet
  facet normal -1.87903e-15 -4.542 2.5392e-15
    outer loop
      vertex -4.27904 16.3 1.92694
      vertex -3.24961 16.3 1.1
      vertex -1.42016 16.3 4.04254
    endloop
  endfacet
  facet normal 2.48762e-16 -2.08268 4.73976e-16
    outer loop
      vertex -3.24961 16.3 1.1
      vertex -0.886512 16.3 3.76246
      vertex -1.42016 16.3 4.04254
    endloop
  endfacet
  facet normal 1.28103e-16 -1.89883 5.19736e-16
    outer loop
      vertex -3.24961 16.3 1.1
      vertex -0.301342 16.3 3.61823
      vertex -0.886512 16.3 3.76246
    endloop
  endfacet
  facet normal 0 -16.3665 5.77246e-15
    outer loop
      vertex -3.24961 16.3 1.1
      vertex 3.24961 16.3 1.1
      vertex 0.301342 16.3 3.61823
    endloop
  endfacet
  facet normal 0 -1.51769 5.3529e-16
    outer loop
      vertex -0.301342 16.3 3.61823
      vertex -3.24961 16.3 1.1
      vertex 0.301342 16.3 3.61823
    endloop
  endfacet
  facet normal -1.28103e-16 -1.89883 5.19736e-16
    outer loop
      vertex 0.301342 16.3 3.61823
      vertex 3.24961 16.3 1.1
      vertex 0.886512 16.3 3.76246
    endloop
  endfacet
  facet normal -2.48762e-16 -2.08268 4.73976e-16
    outer loop
      vertex 0.886512 16.3 3.76246
      vertex 3.24961 16.3 1.1
      vertex 1.42016 16.3 4.04254
    endloop
  endfacet
  facet normal 1.87903e-15 -4.542 2.5392e-15
    outer loop
      vertex 1.42016 16.3 4.04254
      vertex 3.24961 16.3 1.1
      vertex 4.27904 16.3 1.92694
    endloop
  endfacet
  facet normal -12.7349 -0.0175435 15.8533
    outer loop
      vertex 3.24961 16.3 1.1
      vertex 4.18473 0.9 1.83414
      vertex 4.27904 16.3 1.92694
    endloop
  endfacet
  facet normal -11.3057 0 14.4009
    outer loop
      vertex 3.24961 0.9 1.1
      vertex 4.18473 0.9 1.83414
      vertex 3.24961 16.3 1.1
    endloop
  endfacet
  facet normal -0.224065 2.08429e-15 0.42692
    outer loop
      vertex 0.886512 16.3 3.76246
      vertex 1.42016 16.3 4.04254
      vertex 0.886512 17.1 3.76246
    endloop
  endfacet
  facet normal -0.224065 -3.09143e-16 0.42692
    outer loop
      vertex 0.886512 17.1 3.76246
      vertex 1.42016 16.3 4.04254
      vertex 1.42016 17.1 4.04254
    endloop
  endfacet
  facet normal 0.115385 2.49254e-15 0.468136
    outer loop
      vertex -0.886512 16.3 3.76246
      vertex -0.301342 16.3 3.61823
      vertex -0.886512 17.1 3.76246
    endloop
  endfacet
endsolid polyhedron
