solid polyhedron
  facet normal -0 0 -1640.25
    outer loop
      vertex -20.25 20.25 -4
      vertex 20.25 20.25 -4
      vertex -20.25 -20.25 -4
    endloop
  endfacet
  facet normal -0 0 -1640.25
    outer loop
      vertex -20.25 -20.25 -4
      vertex 20.25 20.25 -4
      vertex 20.25 -20.25 -4
    endloop
  endfacet
  facet normal -324 -0 0
    outer loop
      vertex -20.25 -20.25 4
      vertex -20.25 20.25 4
      vertex -20.25 -20.25 -4
    endloop
  endfacet
  facet normal -324 -0 0
    outer loop
      vertex -20.25 -20.25 -4
      vertex -20.25 20.25 4
      vertex -20.25 20.25 -4
    endloop
  endfacet
  facet normal -1.59872e-14 -324 0
    outer loop
      vertex -20.25 -20.25 -4
      vertex 20.25 -20.25 -4
      vertex 20.25 -20.25 4
    endloop
  endfacet
  facet normal -1.59872e-14 -324 0
    outer loop
      vertex -20.25 -20.25 4
      vertex -20.25 -20.25 -4
      vertex 20.25 -20.25 4
    endloop
  endfacet
  facet normal 324 0 0
    outer loop
      vertex 20.25 -20.25 -4
      vertex 20.25 20.25 -4
      vertex 20.25 20.25 4
    endloop
  endfacet
  facet normal 324 -0 -0
    outer loop
      vertex 20.25 -20.25 4
      vertex 20.25 -20.25 -4
      vertex 20.25 20.25 4
    endloop
  endfacet
  facet normal -0 324 -0
    outer loop
      vertex -20.25 20.25 4
      vertex 20.25 20.25 4
      vertex -20.25 20.25 -4
    endloop
  endfacet
  facet normal 0 324 0
    outer loop
      vertex -20.25 20.25 -4
      vertex 20.25 20.25 4
      vertex 20.25 20.25 -4
    endloop
  endfacet
  facet normal -0 0 435.375
    outer loop
      vertex 9.5 -15.7 4
      vertex 20.25 -20.25 4
      vertex 20.25 20.25 4
    endloop
  endfacet
  facet normal -0 -0 337.55
    outer loop
      vertex 9.5 15.7 4
      vertex 9.5 -15.7 4
      vertex 20.25 20.25 4
    endloop
  endfacet
  facet normal 0 0 184.275
    outer loop
      vertex -20.25 -20.25 4
      vertex 20.25 -20.25 4
      vertex -9.5 -15.7 4
    endloop
  endfacet
  facet normal -0 0 184.275
    outer loop
      vertex -20.25 20.25 4
      vertex -9.5 15.7 4
      vertex 20.25 20.25 4
    endloop
  endfacet
  facet normal -0 -0 435.375
    outer loop
      vertex -20.25 20.25 4
      vertex -20.25 -20.25 4
      vertex -9.5 15.7 4
    endloop
  endfacet
  facet normal 0 0 86.45
    outer loop
      vertex -9.5 15.7 4
      vertex 9.5 15.7 4
      vertex 20.25 20.25 4
    endloop
  endfacet
  facet normal -0 0 86.45
    outer loop
      vertex -9.5 -15.7 4
      vertex 20.25 -20.25 4
      vertex 9.5 -15.7 4
    endloop
  endfacet
  facet normal -0 -0 337.55
    outer loop
      vertex -9.5 -15.7 4
      vertex -9.5 15.7 4
      vertex -20.25 -20.25 4
    endloop
  endfacet
  facet normal 62.8 0 0
    outer loop
      vertex -9.5 -15.7 2
      vertex -9.5 15.7 2
      vertex -9.5 15.7 4
    endloop
  endfacet
  facet normal 62.8 0 0
    outer loop
      vertex -9.5 -15.7 4
      vertex -9.5 -15.7 2
      vertex -9.5 15.7 4
    endloop
  endfacet
  facet normal 0 38 0
    outer loop
      vertex -9.5 -15.7 4
      vertex 9.5 -15.7 4
      vertex -9.5 -15.7 2
    endloop
  endfacet
  facet normal 0 38 0
    outer loop
      vertex -9.5 -15.7 2
      vertex 9.5 -15.7 4
      vertex 9.5 -15.7 2
    endloop
  endfacet
  facet normal -62.8 0 0
    outer loop
      vertex 9.5 -15.7 4
      vertex 9.5 15.7 4
      vertex 9.5 -15.7 2
    endloop
  endfacet
  facet normal -62.8 0 0
    outer loop
      vertex 9.5 -15.7 2
      vertex 9.5 15.7 4
      vertex 9.5 15.7 2
    endloop
  endfacet
  facet normal 0 -38 0
    outer loop
      vertex -9.5 15.7 2
      vertex 9.5 15.7 2
      vertex 9.5 15.7 4
    endloop
  endfacet
  facet normal 0 -38 0
    outer loop
      vertex -9.5 15.7 4
      vertex -9.5 15.7 2
      vertex 9.5 15.7 4
    endloop
  endfacet
  facet normal 0 0 596.6
    outer loop
      vertex -9.5 -15.7 2
      vertex 9.5 -15.7 2
      vertex 9.5 15.7 2
    endloop
  endfacet
  facet normal 0 0 596.6
    outer loop
      vertex -9.5 15.7 2
      vertex -9.5 -15.7 2
      vertex 9.5 15.7 2
    endloop
  endfacet
endsolid polyhedron
