solid polyhedron
  facet normal -0 0 -1640.25
    outer loop
      vertex -20.25 20.25 -4
      vertex 20.25 20.25 -4
      vertex -20.25 -20.25 -4
    endloop
  endfacet
  facet normal -0 0 -1640.25
    outer loop
      vertex -20.25 -20.25 -4
      vertex 20.25 20.25 -4
      vertex 20.25 -20.25 -4
    endloop
  endfacet
  facet normal -324 -0 0
    outer loop
      vertex -20.25 -20.25 4
      vertex -20.25 20.25 4
      vertex -20.25 -20.25 -4
    endloop
  endfacet
  facet normal -324 -0 0
    outer loop
      vertex -20.25 -20.25 -4
      vertex -20.25 20.25 4
      vertex -20.25 20.25 -4
    endloop
  endfacet
  facet normal -1.59872e-14 -324 0
    outer loop
      vertex -20.25 -20.25 -4
      vertex 20.25 -20.25 -4
      vertex 20.25 -20.25 4
    endloop
  endfacet
  facet normal -1.59872e-14 -324 0
    outer loop
      vertex -20.25 -20.25 4
      vertex -20.25 -20.25 -4
      vertex 20.25 -20.25 4
    endloop
  endfacet
  facet normal 324 0 0
    outer loop
      vertex 20.25 -20.25 -4
      vertex 20.25 20.25 -4
      vertex 20.25 20.25 4
    endloop
  endfacet
  facet normal 324 -0 -0
    outer loop
      vertex 20.25 -20.25 4
      vertex 20.25 -20.25 -4
      vertex 20.25 20.25 4
    endloop
  endfacet
  facet normal -0 324 -0
    outer loop
      vertex -20.25 20.25 4
      vertex 20.25 20.25 4
      vertex -20.25 20.25 -4
    endloop
  endfacet
  facet normal 0 324 0
    outer loop
      vertex -20.25 20.25 -4
      vertex 20.25 20.25 4
      vertex 20.25 20.25 -4
    endloop
  endfacet
  facet normal -0 0 556.875
    outer loop
      vertex 6.5 -0.924862 4
      vertex 20.25 -20.25 4
      vertex 20.25 20.25 4
    endloop
  endfacet
  facet normal -0 -0 0.979091
    outer loop
      vertex 4.33333 -16.7503 4
      vertex 4.33333 -17.5911 4
      vertex 5.49783 -16.7503 4
    endloop
  endfacet
  facet normal -0 -0 556.875
    outer loop
      vertex -20.25 20.25 4
      vertex -20.25 -20.25 4
      vertex -6.5 -0.924862 4
    endloop
  endfacet
  facet normal -0 -0 45.1063
    outer loop
      vertex 1.61304 18.6 4
      vertex 1.61304 16.1797 4
      vertex 20.25 20.25 4
    endloop
  endfacet
  facet normal -0 0 127.169
    outer loop
      vertex -20.25 20.25 4
      vertex -6.5 -0.924862 4
      vertex -6.5 8.32376 4
    endloop
  endfacet
  facet normal 0 0 51.823
    outer loop
      vertex 2.15471 8.32376 4
      vertex 6.5 8.32376 4
      vertex 20.25 20.25 4
    endloop
  endfacet
  facet normal 0 0 2.53204
    outer loop
      vertex -6.5 8.32376 4
      vertex -2.15471 8.32376 4
      vertex -2.15471 8.90647 4
    endloop
  endfacet
  facet normal -0 -0 133.005
    outer loop
      vertex 1.61304 16.1797 4
      vertex 1.61304 9.04309 4
      vertex 20.25 20.25 4
    endloop
  endfacet
  facet normal 0 0 0.593687
    outer loop
      vertex -6.5 8.32376 4
      vertex -2.15471 8.90647 4
      vertex -2.15471 9.04309 4
    endloop
  endfacet
  facet normal -0 -0 127.169
    outer loop
      vertex 6.5 8.32376 4
      vertex 6.5 -0.924862 4
      vertex 20.25 20.25 4
    endloop
  endfacet
  facet normal -0 0 166.303
    outer loop
      vertex -20.25 20.25 4
      vertex -6.5 8.32376 4
      vertex -1.61304 16.1797 4
    endloop
  endfacet
  facet normal -0 0 66.825
    outer loop
      vertex -20.25 20.25 4
      vertex -1.61304 18.6 4
      vertex 20.25 20.25 4
    endloop
  endfacet
  facet normal -0 0 45.1063
    outer loop
      vertex -20.25 20.25 4
      vertex -1.61304 16.1797 4
      vertex -1.61304 18.6 4
    endloop
  endfacet
  facet normal 0 0 5.32304
    outer loop
      vertex -1.61304 18.6 4
      vertex 1.61304 18.6 4
      vertex 20.25 20.25 4
    endloop
  endfacet
  facet normal 0 0 6.07041
    outer loop
      vertex 1.61304 9.04309 4
      vertex 2.15471 9.04309 4
      vertex 20.25 20.25 4
    endloop
  endfacet
  facet normal -0 -0 10.5443
    outer loop
      vertex 2.15471 9.04309 4
      vertex 2.15471 8.46038 4
      vertex 20.25 20.25 4
    endloop
  endfacet
  facet normal -0 -0 2.47232
    outer loop
      vertex 2.15471 8.46038 4
      vertex 2.15471 8.32376 4
      vertex 20.25 20.25 4
    endloop
  endfacet
  facet normal -0 0 30.0688
    outer loop
      vertex 6.49449 -3.10394 4
      vertex 20.25 -20.25 4
      vertex 6.5 -0.924862 4
    endloop
  endfacet
  facet normal -0 0 0.0216583
    outer loop
      vertex 6.49006 -0.924862 4
      vertex 6.49449 -3.10394 4
      vertex 6.5 -0.924862 4
    endloop
  endfacet
  facet normal -0 -0 0.808968
    outer loop
      vertex 5.49783 -16.7503 4
      vertex 4.33333 -17.5911 4
      vertex 6.45999 -16.7503 4
    endloop
  endfacet
  facet normal -0 0 188.304
    outer loop
      vertex 6.45999 -16.7503 4
      vertex 20.25 -20.25 4
      vertex 6.49449 -3.10394 4
    endloop
  endfacet
  facet normal -0 0 19.0371
    outer loop
      vertex 4.33333 -17.5911 4
      vertex 20.25 -20.25 4
      vertex 6.45999 -16.7503 4
    endloop
  endfacet
  facet normal -0 -0 13.3825
    outer loop
      vertex -4.33333 -18.6 4
      vertex -4.33333 -17.7592 4
      vertex -20.25 -20.25 4
    endloop
  endfacet
  facet normal -0 0 16.059
    outer loop
      vertex 4.33333 -18.6 4
      vertex 20.25 -20.25 4
      vertex 4.33333 -17.5911 4
    endloop
  endfacet
  facet normal 0 0 66.825
    outer loop
      vertex -20.25 -20.25 4
      vertex 20.25 -20.25 4
      vertex 4.33333 -18.6 4
    endloop
  endfacet
  facet normal 0 0 7.8
    outer loop
      vertex -20.25 -20.25 4
      vertex 4.33333 -18.6 4
      vertex -0.39394 -18.6 4
    endloop
  endfacet
  facet normal 0 0 6.5
    outer loop
      vertex -20.25 -20.25 4
      vertex -0.39394 -18.6 4
      vertex -4.33333 -18.6 4
    endloop
  endfacet
  facet normal 0 0 16.059
    outer loop
      vertex -20.25 -20.25 4
      vertex -4.33333 -17.7592 4
      vertex -4.33333 -16.7503 4
    endloop
  endfacet
  facet normal 0 0 4.07542
    outer loop
      vertex -20.25 -20.25 4
      vertex -4.33333 -16.7503 4
      vertex -5.49783 -16.7503 4
    endloop
  endfacet
  facet normal 0 0 3.36729
    outer loop
      vertex -20.25 -20.25 4
      vertex -5.49783 -16.7503 4
      vertex -6.45999 -16.7503 4
    endloop
  endfacet
  facet normal -0 -0 30.0688
    outer loop
      vertex -6.5 -0.924862 4
      vertex -20.25 -20.25 4
      vertex -6.49449 -3.10394 4
    endloop
  endfacet
  facet normal -0 0 0.0216584
    outer loop
      vertex -6.5 -0.924862 4
      vertex -6.49449 -3.10394 4
      vertex -6.49006 -0.924862 4
    endloop
  endfacet
  facet normal -0 -0 188.304
    outer loop
      vertex -6.45999 -16.7503 4
      vertex -6.49449 -3.10394 4
      vertex -20.25 -20.25 4
    endloop
  endfacet
  facet normal -0 -0 30.6212
    outer loop
      vertex -2.15471 9.04309 4
      vertex -1.61304 16.1797 4
      vertex -6.5 8.32376 4
    endloop
  endfacet
  facet normal -0 -0 3.86568
    outer loop
      vertex -1.61304 9.04309 4
      vertex -1.61304 16.1797 4
      vertex -2.15471 9.04309 4
    endloop
  endfacet
  facet normal 49.9425 0 0
    outer loop
      vertex -6.5 -0.924862 -1.4
      vertex -6.5 8.32376 -1.4
      vertex -6.5 8.32376 4
    endloop
  endfacet
  facet normal 49.9425 0 0
    outer loop
      vertex -6.5 -0.924862 4
      vertex -6.5 -0.924862 -1.4
      vertex -6.5 8.32376 4
    endloop
  endfacet
  facet normal 0 0.0536719 0
    outer loop
      vertex -6.5 -0.924862 4
      vertex -6.49006 -0.924862 4
      vertex -6.5 -0.924862 -1.4
    endloop
  endfacet
  facet normal 0 0.656617 0
    outer loop
      vertex -6.5 -0.924862 -1.4
      vertex -6.49006 -0.924862 4
      vertex -6.37068 -0.924862 2.79885
    endloop
  endfacet
  facet normal 0 1.76862 0
    outer loop
      vertex -6.5 -0.924862 -1.4
      vertex -6.37068 -0.924862 2.79885
      vertex -5.98792 -0.924862 1.55018
    endloop
  endfacet
  facet normal 0 2.41809 0
    outer loop
      vertex -5.98792 -0.924862 1.55018
      vertex -5.36717 -0.924862 0.404343
      vertex -6.5 -0.924862 -1.4
    endloop
  endfacet
  facet normal 0 2.6335 0
    outer loop
      vertex -5.36717 -0.924862 0.404343
      vertex -4.53346 -0.924862 -0.592451
      vertex -6.5 -0.924862 -1.4
    endloop
  endfacet
  facet normal 0 2.40617 0
    outer loop
      vertex -4.53346 -0.924862 -0.592451
      vertex -3.52041 -0.924862 -1.4
      vertex -6.5 -0.924862 -1.4
    endloop
  endfacet
  facet normal 17.7559 -0.0360997 1.7648
    outer loop
      vertex -6.49449 -3.10394 4
      vertex -6.45999 -16.7503 3.37376
      vertex -6.37068 -0.924862 2.79885
    endloop
  endfacet
  facet normal 2.61739 -0.00532145 0.260149
    outer loop
      vertex -6.49006 -0.924862 4
      vertex -6.49449 -3.10394 4
      vertex -6.37068 -0.924862 2.79885
    endloop
  endfacet
  facet normal 8.54593 0.021605 1.35761e-17
    outer loop
      vertex -6.49449 -3.10394 4
      vertex -6.45999 -16.7503 4
      vertex -6.45999 -16.7503 3.37376
    endloop
  endfacet
  facet normal 1.06258e-16 0.96216 6.04602e-16
    outer loop
      vertex -5.49783 -16.7503 4
      vertex -4.33333 -16.7503 3
      vertex -6.45999 -16.7503 4
    endloop
  endfacet
  facet normal 1.4708e-16 1.33181 8.3688e-16
    outer loop
      vertex -6.45999 -16.7503 4
      vertex -4.33333 -16.7503 3
      vertex -6.45999 -16.7503 3.37376
    endloop
  endfacet
  facet normal -9.14646e-16 1.1645 -4.83115e-16
    outer loop
      vertex -5.49783 -16.7503 4
      vertex -4.33333 -16.7503 4
      vertex -4.33333 -16.7503 3
    endloop
  endfacet
  facet normal 1.84972 -1.41944e-22 6.71849e-08
    outer loop
      vertex -4.33333 -17.7592 4
      vertex -4.33333 -18.6 3
      vertex -4.33333 -16.7503 3
    endloop
  endfacet
  facet normal 1.00894 -7.74241e-23 3.66463e-08
    outer loop
      vertex -4.33333 -16.7503 4
      vertex -4.33333 -17.7592 4
      vertex -4.33333 -16.7503 3
    endloop
  endfacet
  facet normal 0.840783 0 3.05386e-08
    outer loop
      vertex -4.33333 -18.6 4
      vertex -4.33333 -18.6 3
      vertex -4.33333 -17.7592 4
    endloop
  endfacet
  facet normal -9.27304e-24 3.93939 -3.26867e-15
    outer loop
      vertex -4.33333 -18.6 4
      vertex -0.39394 -18.6 4
      vertex -4.33333 -18.6 3
    endloop
  endfacet
  facet normal 0 4.72727 -3.92241e-15
    outer loop
      vertex -0.39394 -18.6 4
      vertex 4.33333 -18.6 4
      vertex -4.33333 -18.6 3
    endloop
  endfacet
  facet normal 0 8.66667 -7.19108e-15
    outer loop
      vertex -4.33333 -18.6 3
      vertex 4.33333 -18.6 4
      vertex 4.33333 -18.6 3
    endloop
  endfacet
  facet normal -1.00894 7.74241e-23 -3.66463e-08
    outer loop
      vertex 4.33333 -17.5911 4
      vertex 4.33333 -16.7503 3
      vertex 4.33333 -18.6 4
    endloop
  endfacet
  facet normal -1.84972 1.41944e-22 -6.71849e-08
    outer loop
      vertex 4.33333 -18.6 4
      vertex 4.33333 -16.7503 3
      vertex 4.33333 -18.6 3
    endloop
  endfacet
  facet normal -0.840783 0 -3.05386e-08
    outer loop
      vertex 4.33333 -17.5911 4
      vertex 4.33333 -16.7503 4
      vertex 4.33333 -16.7503 3
    endloop
  endfacet
  facet normal 9.14646e-16 1.1645 -4.83115e-16
    outer loop
      vertex 4.33333 -16.7503 4
      vertex 5.49783 -16.7503 4
      vertex 4.33333 -16.7503 3
    endloop
  endfacet
  facet normal -1.06258e-16 0.96216 6.04602e-16
    outer loop
      vertex 5.49783 -16.7503 4
      vertex 6.45999 -16.7503 4
      vertex 4.33333 -16.7503 3
    endloop
  endfacet
  facet normal -1.4708e-16 1.33181 8.3688e-16
    outer loop
      vertex 4.33333 -16.7503 3
      vertex 6.45999 -16.7503 4
      vertex 6.45999 -16.7503 3.37376
    endloop
  endfacet
  facet normal -8.54593 0.0216048 1.3576e-17
    outer loop
      vertex 6.45999 -16.7503 4
      vertex 6.49449 -3.10394 4
      vertex 6.45999 -16.7503 3.37376
    endloop
  endfacet
  facet normal -17.7559 -0.0360999 1.7648
    outer loop
      vertex 6.45999 -16.7503 3.37376
      vertex 6.49449 -3.10394 4
      vertex 6.37068 -0.924862 2.79885
    endloop
  endfacet
  facet normal -2.61739 -0.00532148 0.260148
    outer loop
      vertex 6.37068 -0.924862 2.79885
      vertex 6.49449 -3.10394 4
      vertex 6.49006 -0.924862 4
    endloop
  endfacet
  facet normal 0 2.40617 0
    outer loop
      vertex 4.53346 -0.924862 -0.592451
      vertex 6.5 -0.924862 -1.4
      vertex 3.52041 -0.924862 -1.4
    endloop
  endfacet
  facet normal 0 2.6335 0
    outer loop
      vertex 4.53346 -0.924862 -0.592451
      vertex 5.36717 -0.924862 0.404343
      vertex 6.5 -0.924862 -1.4
    endloop
  endfacet
  facet normal 0 2.41809 0
    outer loop
      vertex 5.36717 -0.924862 0.404343
      vertex 5.98792 -0.924862 1.55018
      vertex 6.5 -0.924862 -1.4
    endloop
  endfacet
  facet normal 0 0.0119385 0
    outer loop
      vertex 6.5 -0.924862 4
      vertex 6.37068 -0.924862 2.79885
      vertex 6.49006 -0.924862 4
    endloop
  endfacet
  facet normal 0 0.698349 0
    outer loop
      vertex 6.5 -0.924862 -1.4
      vertex 6.37068 -0.924862 2.79885
      vertex 6.5 -0.924862 4
    endloop
  endfacet
  facet normal 0 1.76862 0
    outer loop
      vertex 5.98792 -0.924862 1.55018
      vertex 6.37068 -0.924862 2.79885
      vertex 6.5 -0.924862 -1.4
    endloop
  endfacet
  facet normal -49.9425 0 0
    outer loop
      vertex 6.5 -0.924862 4
      vertex 6.5 8.32376 4
      vertex 6.5 -0.924862 -1.4
    endloop
  endfacet
  facet normal -49.9425 0 0
    outer loop
      vertex 6.5 -0.924862 -1.4
      vertex 6.5 8.32376 4
      vertex 6.5 8.32376 -1.4
    endloop
  endfacet
  facet normal 0 -70.2 0
    outer loop
      vertex -6.5 8.32376 -1.4
      vertex 6.5 8.32376 -1.4
      vertex 6.5 8.32376 4
    endloop
  endfacet
  facet normal 0 -5.50966 0
    outer loop
      vertex 0.768311 8.32376 2.04296
      vertex -6.5 8.32376 -1.4
      vertex 6.5 8.32376 4
    endloop
  endfacet
  facet normal 0 -1.85324 0
    outer loop
      vertex 2.15471 8.32376 4
      vertex 2.10371 8.32376 3.57351
      vertex 6.5 8.32376 4
    endloop
  endfacet
  facet normal 0 -2.10111 0
    outer loop
      vertex 2.10371 8.32376 3.57351
      vertex 1.91849 8.32376 3.07761
      vertex 6.5 8.32376 4
    endloop
  endfacet
  facet normal 0 -3.00505 0
    outer loop
      vertex -0.768311 8.32376 2.04296
      vertex -1.23081 8.32376 2.28944
      vertex -6.5 8.32376 -1.4
    endloop
  endfacet
  facet normal 0 -1.72605 0
    outer loop
      vertex 1.91849 8.32376 3.07761
      vertex 1.62177 8.32376 2.64113
      vertex 6.5 8.32376 4
    endloop
  endfacet
  facet normal 0 -1.18437 0
    outer loop
      vertex 1.62177 8.32376 2.64113
      vertex 1.23081 8.32376 2.28944
      vertex 6.5 8.32376 4
    endloop
  endfacet
  facet normal 0 -0.507575 0
    outer loop
      vertex 1.23081 8.32376 2.28944
      vertex 0.768311 8.32376 2.04296
      vertex 6.5 8.32376 4
    endloop
  endfacet
  facet normal 0 -1.73205 0
    outer loop
      vertex 0.261163 8.32376 1.91604
      vertex -0.261163 8.32376 1.91604
      vertex -6.5 8.32376 -1.4
    endloop
  endfacet
  facet normal 0 -3.29559 0
    outer loop
      vertex -1.62177 8.32376 2.64113
      vertex -6.5 8.32376 -1.4
      vertex -1.23081 8.32376 2.28944
    endloop
  endfacet
  facet normal 0 -3.32831 0
    outer loop
      vertex -1.91849 8.32376 3.07761
      vertex -6.5 8.32376 -1.4
      vertex -1.62177 8.32376 2.64113
    endloop
  endfacet
  facet normal 0 -3.1013 0
    outer loop
      vertex -2.10371 8.32376 3.57351
      vertex -6.5 8.32376 -1.4
      vertex -1.91849 8.32376 3.07761
    endloop
  endfacet
  facet normal 0 -2.12865 0
    outer loop
      vertex -2.15471 8.32376 4
      vertex -6.5 8.32376 -1.4
      vertex -2.10371 8.32376 3.57351
    endloop
  endfacet
  facet normal 0 -23.4646 0
    outer loop
      vertex -6.5 8.32376 4
      vertex -6.5 8.32376 -1.4
      vertex -2.15471 8.32376 4
    endloop
  endfacet
  facet normal 0 -0.82357 0
    outer loop
      vertex 0.768311 8.32376 2.04296
      vertex 0.261163 8.32376 1.91604
      vertex -6.5 8.32376 -1.4
    endloop
  endfacet
  facet normal 0 -2.47358 0
    outer loop
      vertex -0.261163 8.32376 1.91604
      vertex -0.768311 8.32376 2.04296
      vertex -6.5 8.32376 -1.4
    endloop
  endfacet
  facet normal -0.0582709 -3.78564e-17 0.00696817
    outer loop
      vertex 2.15471 8.32376 4
      vertex 2.15471 8.46038 4
      vertex 2.10371 8.32376 3.57351
    endloop
  endfacet
  facet normal -0.306793 -1.99312e-16 0.036687
    outer loop
      vertex 2.10371 8.32376 3.57351
      vertex 2.15471 8.46038 4
      vertex 2.10371 9.04309 3.57351
    endloop
  endfacet
  facet normal -0.248522 0 0.0297189
    outer loop
      vertex 2.10371 9.04309 3.57351
      vertex 2.15471 8.46038 4
      vertex 2.15471 9.04309 4
    endloop
  endfacet
  facet normal 0 -0.0537037 0
    outer loop
      vertex -2.15471 9.04309 4
      vertex -2.10371 9.04309 3.57351
      vertex -1.91849 9.04309 3.07761
    endloop
  endfacet
  facet normal 0 -0.343842 0
    outer loop
      vertex -1.23081 9.04309 2.28944
      vertex -2.15471 9.04309 4
      vertex -1.62177 9.04309 2.64113
    endloop
  endfacet
  facet normal 0 -0.170582 0
    outer loop
      vertex -1.62177 9.04309 2.64113
      vertex -2.15471 9.04309 4
      vertex -1.91849 9.04309 3.07761
    endloop
  endfacet
  facet normal 0 -0.563415 0
    outer loop
      vertex -0.768311 9.04309 2.04296
      vertex -2.15471 9.04309 4
      vertex -1.23081 9.04309 2.28944
    endloop
  endfacet
  facet normal 0 -0.816539 0
    outer loop
      vertex -0.261163 9.04309 1.91604
      vertex -2.15471 9.04309 4
      vertex -0.768311 9.04309 2.04296
    endloop
  endfacet
  facet normal 0 -0.0730698 0
    outer loop
      vertex -1.21633 9.04309 3.00585
      vertex -2.15471 9.04309 4
      vertex -0.261163 9.04309 1.91604
    endloop
  endfacet
  facet normal 0 -0.085952 0
    outer loop
      vertex -1.21633 9.04309 3.00585
      vertex -1.43887 9.04309 3.33321
      vertex -2.15471 9.04309 4
    endloop
  endfacet
  facet normal 0 -0.164167 0
    outer loop
      vertex -0.195872 9.04309 2.46203
      vertex -0.576233 9.04309 2.55722
      vertex 0.261163 9.04309 1.91604
    endloop
  endfacet
  facet normal 0 -0.213888 0
    outer loop
      vertex 1.21633 9.04309 3.00585
      vertex 0.923105 9.04309 2.74208
      vertex 1.62177 9.04309 2.64113
    endloop
  endfacet
  facet normal 0 -0.213888 0
    outer loop
      vertex 1.43887 9.04309 3.33321
      vertex 1.21633 9.04309 3.00585
      vertex 1.91849 9.04309 3.07761
    endloop
  endfacet
  facet normal 0 -0.231018 0
    outer loop
      vertex 2.15471 9.04309 4
      vertex 1.61304 9.04309 4
      vertex 2.10371 9.04309 3.57351
    endloop
  endfacet
  facet normal 0 -0.159722 0
    outer loop
      vertex 1.61304 9.04309 4
      vertex 1.57778 9.04309 3.70513
      vertex 2.10371 9.04309 3.57351
    endloop
  endfacet
  facet normal 0 -0.285184 0
    outer loop
      vertex 2.10371 9.04309 3.57351
      vertex 1.43887 9.04309 3.33321
      vertex 1.91849 9.04309 3.07761
    endloop
  endfacet
  facet normal 0 -0.285184 0
    outer loop
      vertex 1.91849 9.04309 3.07761
      vertex 1.21633 9.04309 3.00585
      vertex 1.62177 9.04309 2.64113
    endloop
  endfacet
  facet normal 0 -0.285184 0
    outer loop
      vertex 1.62177 9.04309 2.64113
      vertex 0.923105 9.04309 2.74208
      vertex 1.23081 9.04309 2.28944
    endloop
  endfacet
  facet normal 0 -0.285184 0
    outer loop
      vertex 1.23081 9.04309 2.28944
      vertex 0.576233 9.04309 2.55722
      vertex 0.768311 9.04309 2.04296
    endloop
  endfacet
  facet normal 0 -0.213888 0
    outer loop
      vertex 0.576233 9.04309 2.55722
      vertex 0.195872 9.04309 2.46203
      vertex 0.768311 9.04309 2.04296
    endloop
  endfacet
  facet normal 0 -0.334906 0
    outer loop
      vertex 0.768311 9.04309 2.04296
      vertex -0.195872 9.04309 2.46203
      vertex 0.261163 9.04309 1.91604
    endloop
  endfacet
  facet normal 0 -0.334906 0
    outer loop
      vertex 0.261163 9.04309 1.91604
      vertex -0.576233 9.04309 2.55722
      vertex -0.261163 9.04309 1.91604
    endloop
  endfacet
  facet normal 0 -0.164167 0
    outer loop
      vertex -0.576233 9.04309 2.55722
      vertex -0.923105 9.04309 2.74208
      vertex -0.261163 9.04309 1.91604
    endloop
  endfacet
  facet normal 0 -0.067613 0
    outer loop
      vertex -0.923105 9.04309 2.74208
      vertex -1.21633 9.04309 3.00585
      vertex -0.261163 9.04309 1.91604
    endloop
  endfacet
  facet normal 0 -0.159722 0
    outer loop
      vertex -1.57778 9.04309 3.70513
      vertex -1.61304 9.04309 4
      vertex -2.15471 9.04309 4
    endloop
  endfacet
  facet normal 0 -0.164167 0
    outer loop
      vertex 0.195872 9.04309 2.46203
      vertex -0.195872 9.04309 2.46203
      vertex 0.768311 9.04309 2.04296
    endloop
  endfacet
  facet normal 0 -0.213888 0
    outer loop
      vertex 1.57778 9.04309 3.70513
      vertex 1.43887 9.04309 3.33321
      vertex 2.10371 9.04309 3.57351
    endloop
  endfacet
  facet normal 0 -0.213888 0
    outer loop
      vertex 0.923105 9.04309 2.74208
      vertex 0.576233 9.04309 2.55722
      vertex 1.23081 9.04309 2.28944
    endloop
  endfacet
  facet normal 0 -0.173611 0
    outer loop
      vertex -1.43887 9.04309 3.33321
      vertex -1.57778 9.04309 3.70513
      vertex -2.15471 9.04309 4
    endloop
  endfacet
  facet normal -2.10439 1.02903e-16 0.251648
    outer loop
      vertex 1.57778 9.04309 3.70513
      vertex 1.61304 9.04309 4
      vertex 1.61304 16.1797 4
    endloop
  endfacet
  facet normal -0.713664 0 0.0853416
    outer loop
      vertex 1.61304 16.1797 4
      vertex 1.61304 18.6 4
      vertex 1.57778 9.04309 3.70513
    endloop
  endfacet
  facet normal -2.81805 0 0.336989
    outer loop
      vertex 1.57778 9.04309 3.70513
      vertex 1.61304 18.6 4
      vertex 1.57778 18.6 3.70513
    endloop
  endfacet
  facet normal 0 -0.0278473 0
    outer loop
      vertex -1.61304 18.6 4
      vertex -1.57778 18.6 3.70513
      vertex -1.43887 18.6 3.33321
    endloop
  endfacet
  facet normal 0 -0.186869 0
    outer loop
      vertex -0.923105 18.6 2.74208
      vertex -1.61304 18.6 4
      vertex -1.21633 18.6 3.00585
    endloop
  endfacet
  facet normal 0 -0.0913675 0
    outer loop
      vertex -1.21633 18.6 3.00585
      vertex -1.61304 18.6 4
      vertex -1.43887 18.6 3.33321
    endloop
  endfacet
  facet normal 0 -0.308802 0
    outer loop
      vertex -0.576233 18.6 2.55722
      vertex -1.61304 18.6 4
      vertex -0.923105 18.6 2.74208
    endloop
  endfacet
  facet normal 0 -0.450079 0
    outer loop
      vertex -0.195872 18.6 2.46203
      vertex -1.61304 18.6 4
      vertex -0.576233 18.6 2.55722
    endloop
  endfacet
  facet normal 0 -0.602491 0
    outer loop
      vertex 0.195872 18.6 2.46203
      vertex -1.61304 18.6 4
      vertex -0.195872 18.6 2.46203
    endloop
  endfacet
  facet normal 0 -0.757179 0
    outer loop
      vertex 0.576233 18.6 2.55722
      vertex -1.61304 18.6 4
      vertex 0.195872 18.6 2.46203
    endloop
  endfacet
  facet normal 0 -0.905154 0
    outer loop
      vertex 0.923105 18.6 2.74208
      vertex -1.61304 18.6 4
      vertex 0.576233 18.6 2.55722
    endloop
  endfacet
  facet normal 0 -1.03782 0
    outer loop
      vertex 1.21633 18.6 3.00585
      vertex -1.61304 18.6 4
      vertex 0.923105 18.6 2.74208
    endloop
  endfacet
  facet normal 0 -1.14746 0
    outer loop
      vertex 1.43887 18.6 3.33321
      vertex -1.61304 18.6 4
      vertex 1.21633 18.6 3.00585
    endloop
  endfacet
  facet normal 0 -1.2277 0
    outer loop
      vertex 1.57778 18.6 3.70513
      vertex -1.61304 18.6 4
      vertex 1.43887 18.6 3.33321
    endloop
  endfacet
  facet normal 0 -0.951278 0
    outer loop
      vertex 1.61304 18.6 4
      vertex -1.61304 18.6 4
      vertex 1.57778 18.6 3.70513
    endloop
  endfacet
  facet normal 2.81805 -1.54043e-16 0.336989
    outer loop
      vertex -1.61304 16.1797 4
      vertex -1.57778 9.04309 3.70513
      vertex -1.57778 18.6 3.70513
    endloop
  endfacet
  facet normal 0.713664 -3.90111e-17 0.0853416
    outer loop
      vertex -1.61304 18.6 4
      vertex -1.61304 16.1797 4
      vertex -1.57778 18.6 3.70513
    endloop
  endfacet
  facet normal 2.10439 3.08709e-16 0.251648
    outer loop
      vertex -1.61304 16.1797 4
      vertex -1.61304 9.04309 4
      vertex -1.57778 9.04309 3.70513
    endloop
  endfacet
  facet normal 0.306793 -1.04355e-15 0.036687
    outer loop
      vertex -2.15471 8.90647 4
      vertex -2.10371 8.32376 3.57351
      vertex -2.10371 9.04309 3.57351
    endloop
  endfacet
  facet normal 0.0582709 -1.98206e-16 0.00696817
    outer loop
      vertex -2.15471 9.04309 4
      vertex -2.15471 8.90647 4
      vertex -2.10371 9.04309 3.57351
    endloop
  endfacet
  facet normal 0.248522 6.45822e-16 0.0297189
    outer loop
      vertex -2.15471 8.90647 4
      vertex -2.15471 8.32376 4
      vertex -2.10371 8.32376 3.57351
    endloop
  endfacet
  facet normal 0 0 65.1178
    outer loop
      vertex -3.52041 -0.924862 -1.4
      vertex 3.52041 -0.924862 -1.4
      vertex 6.5 8.32376 -1.4
    endloop
  endfacet
  facet normal 0 0 27.5571
    outer loop
      vertex -6.5 -0.924862 -1.4
      vertex -3.52041 -0.924862 -1.4
      vertex 6.5 8.32376 -1.4
    endloop
  endfacet
  facet normal 0 0 27.5571
    outer loop
      vertex 3.52041 -0.924862 -1.4
      vertex 6.5 -0.924862 -1.4
      vertex 6.5 8.32376 -1.4
    endloop
  endfacet
  facet normal 0 0 120.232
    outer loop
      vertex -6.5 8.32376 -1.4
      vertex -6.5 -0.924862 -1.4
      vertex 6.5 8.32376 -1.4
    endloop
  endfacet
  facet normal 0 4.12731e-14 111.424
    outer loop
      vertex -3.52041 -16.7503 -1.4
      vertex 3.52041 -16.7503 -1.4
      vertex 3.52041 -0.924862 -1.4
    endloop
  endfacet
  facet normal 0 4.12731e-14 111.424
    outer loop
      vertex -3.52041 -0.924862 -1.4
      vertex -3.52041 -16.7503 -1.4
      vertex 3.52041 -0.924862 -1.4
    endloop
  endfacet
  facet normal 12.7798 5.93848e-15 16.0319
    outer loop
      vertex -4.53346 -0.924862 -0.592451
      vertex -3.52041 -16.7503 -1.4
      vertex -3.52041 -0.924862 -1.4
    endloop
  endfacet
  facet normal 14.3953 0.020906 17.6489
    outer loop
      vertex -4.63563 -16.7503 -0.490367
      vertex -3.52041 -16.7503 -1.4
      vertex -4.53346 -0.924862 -0.592451
    endloop
  endfacet
  facet normal 15.7747 -0.0167374 13.1938
    outer loop
      vertex -5.36717 -0.924862 0.404343
      vertex -4.63563 -16.7503 -0.490367
      vertex -4.53346 -0.924862 -0.592451
    endloop
  endfacet
  facet normal 18.0094 0.0371771 14.0674
    outer loop
      vertex -5.52454 -16.7503 0.647638
      vertex -4.63563 -16.7503 -0.490367
      vertex -5.36717 -0.924862 0.404343
    endloop
  endfacet
  facet normal 18.1334 -0.0292977 9.82365
    outer loop
      vertex -5.98792 -0.924862 1.55018
      vertex -5.52454 -16.7503 0.647638
      vertex -5.36717 -0.924862 0.404343
    endloop
  endfacet
  facet normal 20.7275 0.0488052 9.78605
    outer loop
      vertex -6.14292 -16.7503 1.9574
      vertex -5.52454 -16.7503 0.647638
      vertex -5.98792 -0.924862 1.55018
    endloop
  endfacet
  facet normal 19.7608 -0.0376748 6.05727
    outer loop
      vertex -6.37068 -0.924862 2.79885
      vertex -6.14292 -16.7503 1.9574
      vertex -5.98792 -0.924862 1.55018
    endloop
  endfacet
  facet normal 22.4144 0.0557843 5.01784
    outer loop
      vertex -6.45999 -16.7503 3.37376
      vertex -6.14292 -16.7503 1.9574
      vertex -6.37068 -0.924862 2.79885
    endloop
  endfacet
  facet normal 0 2.8936 0
    outer loop
      vertex -6.45999 -16.7503 3.37376
      vertex -4.33333 -16.7503 3
      vertex -6.14292 -16.7503 1.9574
    endloop
  endfacet
  facet normal -3.21275e-15 -7.23409e-15 3.42403
    outer loop
      vertex -4.33333 -18.6 3
      vertex -2.48223 -17.5724 3
      vertex -4.33333 -16.7503 3
    endloop
  endfacet
  facet normal -9.51596e-16 3.01484 1.65163e-15
    outer loop
      vertex -6.14292 -16.7503 1.9574
      vertex -4.33333 -16.7503 3
      vertex -5.52454 -16.7503 0.647638
    endloop
  endfacet
  facet normal 5.33274e-15 3.44664 -1.36314e-15
    outer loop
      vertex -5.52454 -16.7503 0.647638
      vertex -4.33333 -16.7503 3
      vertex -4.63563 -16.7503 -0.490367
    endloop
  endfacet
  facet normal -5.01735e-16 7.72791 -1.97736e-15
    outer loop
      vertex -4.63563 -16.7503 -0.490367
      vertex -4.33333 -16.7503 3
      vertex -2.16688 -16.7503 2.45028
    endloop
  endfacet
  facet normal 0 1.01758 0
    outer loop
      vertex -4.33333 -16.7503 3
      vertex -2.48223 -16.7503 3
      vertex -2.16688 -16.7503 2.45028
    endloop
  endfacet
  facet normal 0 0 1.52179
    outer loop
      vertex -4.33333 -16.7503 3
      vertex -2.48223 -17.5724 3
      vertex -2.48223 -16.7503 3
    endloop
  endfacet
  facet normal 0 -3.38692e-14 8.90608
    outer loop
      vertex -4.33333 -18.6 3
      vertex 4.33333 -18.6 3
      vertex 2.48223 -17.5724 3
    endloop
  endfacet
  facet normal 0 -1.9401e-14 5.1016
    outer loop
      vertex -2.48223 -17.5724 3
      vertex -4.33333 -18.6 3
      vertex 2.48223 -17.5724 3
    endloop
  endfacet
  facet normal 3.21275e-15 -7.23409e-15 3.42403
    outer loop
      vertex 2.48223 -17.5724 3
      vertex 4.33333 -18.6 3
      vertex 4.33333 -16.7503 3
    endloop
  endfacet
  facet normal 0 0 1.52179
    outer loop
      vertex 2.48223 -17.5724 3
      vertex 4.33333 -16.7503 3
      vertex 2.48223 -16.7503 3
    endloop
  endfacet
  facet normal 0 1.01758 0
    outer loop
      vertex 2.16688 -16.7503 2.45028
      vertex 2.48223 -16.7503 3
      vertex 4.33333 -16.7503 3
    endloop
  endfacet
  facet normal 5.01735e-16 7.72791 -1.97736e-15
    outer loop
      vertex 2.16688 -16.7503 2.45028
      vertex 4.33333 -16.7503 3
      vertex 4.63563 -16.7503 -0.490367
    endloop
  endfacet
  facet normal -5.33274e-15 3.44664 -1.36314e-15
    outer loop
      vertex 4.33333 -16.7503 3
      vertex 5.52454 -16.7503 0.647638
      vertex 4.63563 -16.7503 -0.490367
    endloop
  endfacet
  facet normal 9.51596e-16 3.01484 1.65163e-15
    outer loop
      vertex 4.33333 -16.7503 3
      vertex 6.14292 -16.7503 1.9574
      vertex 5.52454 -16.7503 0.647638
    endloop
  endfacet
  facet normal 0 2.8936 0
    outer loop
      vertex 4.33333 -16.7503 3
      vertex 6.45999 -16.7503 3.37376
      vertex 6.14292 -16.7503 1.9574
    endloop
  endfacet
  facet normal -22.4144 0.0557843 5.01784
    outer loop
      vertex 6.14292 -16.7503 1.9574
      vertex 6.45999 -16.7503 3.37376
      vertex 6.37068 -0.924862 2.79885
    endloop
  endfacet
  facet normal -19.7608 -0.0376748 6.05727
    outer loop
      vertex 5.98792 -0.924862 1.55018
      vertex 6.14292 -16.7503 1.9574
      vertex 6.37068 -0.924862 2.79885
    endloop
  endfacet
  facet normal -12.7798 5.93848e-15 16.0319
    outer loop
      vertex 3.52041 -16.7503 -1.4
      vertex 4.53346 -0.924862 -0.592451
      vertex 3.52041 -0.924862 -1.4
    endloop
  endfacet
  facet normal -20.7275 0.0488052 9.78605
    outer loop
      vertex 5.52454 -16.7503 0.647638
      vertex 6.14292 -16.7503 1.9574
      vertex 5.98792 -0.924862 1.55018
    endloop
  endfacet
  facet normal -18.1334 -0.0292977 9.82365
    outer loop
      vertex 5.36717 -0.924862 0.404343
      vertex 5.52454 -16.7503 0.647638
      vertex 5.98792 -0.924862 1.55018
    endloop
  endfacet
  facet normal -18.0094 0.0371771 14.0674
    outer loop
      vertex 4.63563 -16.7503 -0.490367
      vertex 5.52454 -16.7503 0.647638
      vertex 5.36717 -0.924862 0.404343
    endloop
  endfacet
  facet normal -15.7747 -0.0167374 13.1938
    outer loop
      vertex 4.53346 -0.924862 -0.592451
      vertex 4.63563 -16.7503 -0.490367
      vertex 5.36717 -0.924862 0.404343
    endloop
  endfacet
  facet normal -14.3953 0.020906 17.6489
    outer loop
      vertex 3.52041 -16.7503 -1.4
      vertex 4.63563 -16.7503 -0.490367
      vertex 4.53346 -0.924862 -0.592451
    endloop
  endfacet
  facet normal 0.356717 2.62909e-16 0.133235
    outer loop
      vertex -2.10371 8.32376 3.57351
      vertex -1.91849 8.32376 3.07761
      vertex -2.10371 9.04309 3.57351
    endloop
  endfacet
  facet normal 0.313975 9.58808e-16 0.213438
    outer loop
      vertex -1.91849 8.32376 3.07761
      vertex -1.62177 8.32376 2.64113
      vertex -1.91849 9.04309 3.07761
    endloop
  endfacet
  facet normal 0.356717 -6.91388e-16 0.133235
    outer loop
      vertex -2.10371 9.04309 3.57351
      vertex -1.91849 8.32376 3.07761
      vertex -1.91849 9.04309 3.07761
    endloop
  endfacet
  facet normal 0.252987 1.11254e-15 0.281237
    outer loop
      vertex -1.62177 8.32376 2.64113
      vertex -1.23081 8.32376 2.28944
      vertex -1.62177 9.04309 2.64113
    endloop
  endfacet
  facet normal 0.313975 -4.60924e-16 0.213438
    outer loop
      vertex -1.91849 9.04309 3.07761
      vertex -1.62177 8.32376 2.64113
      vertex -1.62177 9.04309 2.64113
    endloop
  endfacet
  facet normal 0.252987 9.73459e-17 0.281237
    outer loop
      vertex -1.62177 9.04309 2.64113
      vertex -1.23081 8.32376 2.28944
      vertex -1.23081 9.04309 2.28944
    endloop
  endfacet
  facet normal 0.177296 1.90989e-15 0.332691
    outer loop
      vertex -1.23081 8.32376 2.28944
      vertex -0.768311 8.32376 2.04296
      vertex -1.23081 9.04309 2.28944
    endloop
  endfacet
  facet normal 0.177296 1.67274e-15 0.332691
    outer loop
      vertex -1.23081 9.04309 2.28944
      vertex -0.768311 8.32376 2.04296
      vertex -0.768311 9.04309 2.04296
    endloop
  endfacet
  facet normal 0.091301 3.48931e-15 0.36481
    outer loop
      vertex -0.768311 8.32376 2.04296
      vertex -0.261163 8.32376 1.91604
      vertex -0.768311 9.04309 2.04296
    endloop
  endfacet
  facet normal 0.091301 1.50739e-15 0.36481
    outer loop
      vertex -0.768311 9.04309 2.04296
      vertex -0.261163 8.32376 1.91604
      vertex -0.261163 9.04309 1.91604
    endloop
  endfacet
  facet normal 2.81116e-15 3.06186e-15 0.375728
    outer loop
      vertex -0.261163 8.32376 1.91604
      vertex 0.261163 8.32376 1.91604
      vertex -0.261163 9.04309 1.91604
    endloop
  endfacet
  facet normal 0 1.02062e-15 0.375728
    outer loop
      vertex -0.261163 9.04309 1.91604
      vertex 0.261163 8.32376 1.91604
      vertex 0.261163 9.04309 1.91604
    endloop
  endfacet
  facet normal -0.091301 2.70072e-15 0.36481
    outer loop
      vertex 0.261163 8.32376 1.91604
      vertex 0.768311 8.32376 2.04296
      vertex 0.261163 9.04309 1.91604
    endloop
  endfacet
  facet normal -0.177296 1.94212e-15 0.332691
    outer loop
      vertex 0.768311 8.32376 2.04296
      vertex 1.23081 8.32376 2.28944
      vertex 0.768311 9.04309 2.04296
    endloop
  endfacet
  facet normal -0.091301 4.7454e-16 0.36481
    outer loop
      vertex 0.261163 9.04309 1.91604
      vertex 0.768311 8.32376 2.04296
      vertex 0.768311 9.04309 2.04296
    endloop
  endfacet
  facet normal -0.252987 1.94324e-15 0.281237
    outer loop
      vertex 1.23081 8.32376 2.28944
      vertex 1.62177 8.32376 2.64113
      vertex 1.23081 9.04309 2.28944
    endloop
  endfacet
  facet normal -0.177296 9.93509e-16 0.332691
    outer loop
      vertex 0.768311 9.04309 2.04296
      vertex 1.23081 8.32376 2.28944
      vertex 1.23081 9.04309 2.28944
    endloop
  endfacet
  facet normal -0.313975 1.10013e-15 0.213438
    outer loop
      vertex 1.62177 8.32376 2.64113
      vertex 1.91849 8.32376 3.07761
      vertex 1.62177 9.04309 2.64113
    endloop
  endfacet
  facet normal -0.252987 5.89648e-16 0.281237
    outer loop
      vertex 1.23081 9.04309 2.28944
      vertex 1.62177 8.32376 2.64113
      vertex 1.62177 9.04309 2.64113
    endloop
  endfacet
  facet normal -0.356717 1.18476e-15 0.133235
    outer loop
      vertex 1.91849 8.32376 3.07761
      vertex 2.10371 8.32376 3.57351
      vertex 1.91849 9.04309 3.07761
    endloop
  endfacet
  facet normal -0.313975 5.20351e-16 0.213438
    outer loop
      vertex 1.62177 9.04309 2.64113
      vertex 1.91849 8.32376 3.07761
      vertex 1.91849 9.04309 3.07761
    endloop
  endfacet
  facet normal -0.356717 -7.23834e-16 0.133235
    outer loop
      vertex 1.91849 9.04309 3.07761
      vertex 2.10371 8.32376 3.57351
      vertex 2.10371 9.04309 3.57351
    endloop
  endfacet
  facet normal 3.55443 9.12904e-16 1.32759
    outer loop
      vertex -1.57778 9.04309 3.70513
      vertex -1.43887 9.04309 3.33321
      vertex -1.57778 18.6 3.70513
    endloop
  endfacet
  facet normal 3.55443 1.97181e-16 1.32759
    outer loop
      vertex -1.57778 18.6 3.70513
      vertex -1.43887 9.04309 3.33321
      vertex -1.43887 18.6 3.33321
    endloop
  endfacet
  facet normal 3.12854 1.34907e-15 2.12676
    outer loop
      vertex -1.43887 9.04309 3.33321
      vertex -1.21633 9.04309 3.00585
      vertex -1.43887 18.6 3.33321
    endloop
  endfacet
  facet normal 3.12854 7.19106e-16 2.12676
    outer loop
      vertex -1.43887 18.6 3.33321
      vertex -1.21633 9.04309 3.00585
      vertex -1.21633 18.6 3.00585
    endloop
  endfacet
  facet normal 2.52083 1.91496e-15 2.80232
    outer loop
      vertex -1.21633 9.04309 3.00585
      vertex -0.923105 9.04309 2.74208
      vertex -1.21633 18.6 3.00585
    endloop
  endfacet
  facet normal 1.76663 1.28823e-15 3.31503
    outer loop
      vertex -0.923105 9.04309 2.74208
      vertex -0.576233 9.04309 2.55722
      vertex -0.923105 18.6 2.74208
    endloop
  endfacet
  facet normal 2.52083 2.61446e-16 2.80232
    outer loop
      vertex -1.21633 18.6 3.00585
      vertex -0.923105 9.04309 2.74208
      vertex -0.923105 18.6 2.74208
    endloop
  endfacet
  facet normal 1.76663 6.1044e-16 3.31503
    outer loop
      vertex -0.923105 18.6 2.74208
      vertex -0.576233 9.04309 2.55722
      vertex -0.576233 18.6 2.55722
    endloop
  endfacet
  facet normal 0.909749 1.49692e-15 3.63507
    outer loop
      vertex -0.576233 9.04309 2.55722
      vertex -0.195872 9.04309 2.46203
      vertex -0.576233 18.6 2.55722
    endloop
  endfacet
  facet normal 0.909749 -1.72717e-16 3.63507
    outer loop
      vertex -0.576233 18.6 2.55722
      vertex -0.195872 9.04309 2.46203
      vertex -0.195872 18.6 2.46203
    endloop
  endfacet
  facet normal 0 7.65465e-16 3.74386
    outer loop
      vertex -0.195872 9.04309 2.46203
      vertex 0.195872 9.04309 2.46203
      vertex 0.195872 18.6 2.46203
    endloop
  endfacet
  facet normal 0 7.65465e-16 3.74386
    outer loop
      vertex -0.195872 18.6 2.46203
      vertex -0.195872 9.04309 2.46203
      vertex 0.195872 18.6 2.46203
    endloop
  endfacet
  facet normal -0.909749 1.65916e-15 3.63507
    outer loop
      vertex 0.195872 9.04309 2.46203
      vertex 0.576233 9.04309 2.55722
      vertex 0.195872 18.6 2.46203
    endloop
  endfacet
  facet normal -0.909749 -1.04709e-17 3.63507
    outer loop
      vertex 0.195872 18.6 2.46203
      vertex 0.576233 9.04309 2.55722
      vertex 0.576233 18.6 2.55722
    endloop
  endfacet
  facet normal -1.76663 7.45132e-16 3.31503
    outer loop
      vertex 0.576233 9.04309 2.55722
      vertex 0.923105 9.04309 2.74208
      vertex 0.576233 18.6 2.55722
    endloop
  endfacet
  facet normal -1.76663 1.06719e-15 3.31503
    outer loop
      vertex 0.576233 18.6 2.55722
      vertex 0.923105 9.04309 2.74208
      vertex 0.923105 18.6 2.74208
    endloop
  endfacet
  facet normal -2.52083 1.52279e-15 2.80232
    outer loop
      vertex 0.923105 9.04309 2.74208
      vertex 1.21633 9.04309 3.00585
      vertex 0.923105 18.6 2.74208
    endloop
  endfacet
  facet normal -3.12854 1.25993e-15 2.12676
    outer loop
      vertex 1.21633 9.04309 3.00585
      vertex 1.43887 9.04309 3.33321
      vertex 1.21633 18.6 3.00585
    endloop
  endfacet
  facet normal -2.52083 1.01519e-15 2.80232
    outer loop
      vertex 0.923105 18.6 2.74208
      vertex 1.21633 9.04309 3.00585
      vertex 1.21633 18.6 3.00585
    endloop
  endfacet
  facet normal -3.12854 6.29966e-16 2.12676
    outer loop
      vertex 1.21633 18.6 3.00585
      vertex 1.43887 9.04309 3.33321
      vertex 1.43887 18.6 3.33321
    endloop
  endfacet
  facet normal -3.55443 7.15722e-16 1.32759
    outer loop
      vertex 1.43887 9.04309 3.33321
      vertex 1.57778 18.6 3.70513
      vertex 1.43887 18.6 3.33321
    endloop
  endfacet
  facet normal -3.55443 0 1.32759
    outer loop
      vertex 1.43887 9.04309 3.33321
      vertex 1.57778 9.04309 3.70513
      vertex 1.57778 18.6 3.70513
    endloop
  endfacet
  facet normal 0 19.3622 -1.28525e-14
    outer loop
      vertex -3.52041 -16.7503 -1.4
      vertex -1.45286e-07 -16.7503 1.35
      vertex 3.52041 -16.7503 -1.4
    endloop
  endfacet
  facet normal -1.34325e-16 1.97046 -1.13602e-15
    outer loop
      vertex -3.52041 -16.7503 -1.4
      vertex -0.622332 -16.7503 1.42359
      vertex -1.45286e-07 -16.7503 1.35
    endloop
  endfacet
  facet normal -3.95787e-16 2.29152 -1.07523e-15
    outer loop
      vertex -3.52041 -16.7503 -1.4
      vertex -1.21136 -16.7503 1.6404
      vertex -0.622332 -16.7503 1.42359
    endloop
  endfacet
  facet normal -3.41109e-15 2.39836 1.15061e-15
    outer loop
      vertex -3.52041 -16.7503 -1.4
      vertex -1.73556 -16.7503 1.98885
      vertex -1.21136 -16.7503 1.6404
    endloop
  endfacet
  facet normal -8.30235e-16 5.40289 -1.01788e-15
    outer loop
      vertex -4.63563 -16.7503 -0.490367
      vertex -1.73556 -16.7503 1.98885
      vertex -3.52041 -16.7503 -1.4
    endloop
  endfacet
  facet normal 8.30235e-16 5.40289 -1.01788e-15
    outer loop
      vertex 1.73556 -16.7503 1.98885
      vertex 4.63563 -16.7503 -0.490367
      vertex 3.52041 -16.7503 -1.4
    endloop
  endfacet
  facet normal 3.41109e-15 2.39836 1.15061e-15
    outer loop
      vertex 1.21136 -16.7503 1.6404
      vertex 1.73556 -16.7503 1.98885
      vertex 3.52041 -16.7503 -1.4
    endloop
  endfacet
  facet normal 3.95787e-16 2.29152 -1.07523e-15
    outer loop
      vertex 0.622332 -16.7503 1.42359
      vertex 1.21136 -16.7503 1.6404
      vertex 3.52041 -16.7503 -1.4
    endloop
  endfacet
  facet normal 1.34325e-16 1.97046 -1.13602e-15
    outer loop
      vertex -1.45286e-07 -16.7503 1.35
      vertex 0.622332 -16.7503 1.42359
      vertex 3.52041 -16.7503 -1.4
    endloop
  endfacet
  facet normal -4.21154e-16 2.40751 -3.93669e-16
    outer loop
      vertex -4.63563 -16.7503 -0.490367
      vertex -2.16688 -16.7503 2.45028
      vertex -1.73556 -16.7503 1.98885
    endloop
  endfacet
  facet normal 0 2.72905 0
    outer loop
      vertex 2.48223 -17.5724 3
      vertex 2.16688 -17.5724 2.45028
      vertex -2.48223 -17.5724 3
    endloop
  endfacet
  facet normal 0 2.38234 0
    outer loop
      vertex -2.48223 -17.5724 3
      vertex 2.16688 -17.5724 2.45028
      vertex -2.16688 -17.5724 2.45028
    endloop
  endfacet
  facet normal 0.451923 0 0.259252
    outer loop
      vertex -2.48223 -17.5724 3
      vertex -2.16688 -17.5724 2.45028
      vertex -2.16688 -16.7503 2.45028
    endloop
  endfacet
  facet normal 0.451923 0 0.259252
    outer loop
      vertex -2.48223 -16.7503 3
      vertex -2.48223 -17.5724 3
      vertex -2.16688 -16.7503 2.45028
    endloop
  endfacet
  facet normal 0.379341 0 0.354586
    outer loop
      vertex -2.16688 -17.5724 2.45028
      vertex -1.73556 -17.5724 1.98885
      vertex -1.73556 -16.7503 1.98885
    endloop
  endfacet
  facet normal 0.379341 0 0.354586
    outer loop
      vertex -2.16688 -16.7503 2.45028
      vertex -2.16688 -17.5724 2.45028
      vertex -1.73556 -16.7503 1.98885
    endloop
  endfacet
  facet normal -0.451923 0 0.259252
    outer loop
      vertex 2.48223 -17.5724 3
      vertex 2.48223 -16.7503 3
      vertex 2.16688 -17.5724 2.45028
    endloop
  endfacet
  facet normal -0.451923 0 0.259252
    outer loop
      vertex 2.16688 -17.5724 2.45028
      vertex 2.48223 -16.7503 3
      vertex 2.16688 -16.7503 2.45028
    endloop
  endfacet
  facet normal -0.379341 0 0.354586
    outer loop
      vertex 2.16688 -17.5724 2.45028
      vertex 2.16688 -16.7503 2.45028
      vertex 1.73556 -17.5724 1.98885
    endloop
  endfacet
  facet normal -0.379341 0 0.354586
    outer loop
      vertex 1.73556 -17.5724 1.98885
      vertex 2.16688 -16.7503 2.45028
      vertex 1.73556 -16.7503 1.98885
    endloop
  endfacet
  facet normal 4.21154e-16 2.40751 -3.93669e-16
    outer loop
      vertex 1.73556 -16.7503 1.98885
      vertex 2.16688 -16.7503 2.45028
      vertex 4.63563 -16.7503 -0.490367
    endloop
  endfacet
  facet normal -0.0604946 0 0.511619
    outer loop
      vertex -1.45286e-07 -17.5724 1.35
      vertex 0.622332 -17.5724 1.42359
      vertex 0.622332 -16.7503 1.42359
    endloop
  endfacet
  facet normal -0.0604946 0 0.511619
    outer loop
      vertex -1.45286e-07 -16.7503 1.35
      vertex -1.45286e-07 -17.5724 1.35
      vertex 0.622332 -16.7503 1.42359
    endloop
  endfacet
  facet normal 0.0604946 0 0.511619
    outer loop
      vertex -0.622332 -16.7503 1.42359
      vertex -1.45286e-07 -17.5724 1.35
      vertex -1.45286e-07 -16.7503 1.35
    endloop
  endfacet
  facet normal 0.0604946 -1.41607e-16 0.511619
    outer loop
      vertex -0.622332 -17.5724 1.42359
      vertex -1.45286e-07 -17.5724 1.35
      vertex -0.622332 -16.7503 1.42359
    endloop
  endfacet
  facet normal 0.178246 -4.17243e-16 0.484239
    outer loop
      vertex -1.21136 -16.7503 1.6404
      vertex -0.622332 -17.5724 1.42359
      vertex -0.622332 -16.7503 1.42359
    endloop
  endfacet
  facet normal 0.178246 0 0.484239
    outer loop
      vertex -1.21136 -17.5724 1.6404
      vertex -0.622332 -17.5724 1.42359
      vertex -1.21136 -16.7503 1.6404
    endloop
  endfacet
  facet normal 0.286459 0 0.430944
    outer loop
      vertex -1.73556 -17.5724 1.98885
      vertex -1.21136 -17.5724 1.6404
      vertex -1.21136 -16.7503 1.6404
    endloop
  endfacet
  facet normal 0.286459 0 0.430944
    outer loop
      vertex -1.73556 -16.7503 1.98885
      vertex -1.73556 -17.5724 1.98885
      vertex -1.21136 -16.7503 1.6404
    endloop
  endfacet
  facet normal -0.286459 0 0.430944
    outer loop
      vertex 1.21136 -17.5724 1.6404
      vertex 1.73556 -17.5724 1.98885
      vertex 1.73556 -16.7503 1.98885
    endloop
  endfacet
  facet normal -0.286459 0 0.430944
    outer loop
      vertex 1.21136 -16.7503 1.6404
      vertex 1.21136 -17.5724 1.6404
      vertex 1.73556 -16.7503 1.98885
    endloop
  endfacet
  facet normal -0.178246 0 0.484239
    outer loop
      vertex 0.622332 -17.5724 1.42359
      vertex 1.21136 -17.5724 1.6404
      vertex 1.21136 -16.7503 1.6404
    endloop
  endfacet
  facet normal -0.178246 0 0.484239
    outer loop
      vertex 0.622332 -16.7503 1.42359
      vertex 0.622332 -17.5724 1.42359
      vertex 1.21136 -16.7503 1.6404
    endloop
  endfacet
  facet normal -8.42307e-16 0.844192 -7.87339e-16
    outer loop
      vertex -2.16688 -17.5724 2.45028
      vertex 0.622332 -17.5724 1.42359
      vertex -1.73556 -17.5724 1.98885
    endloop
  endfacet
  facet normal 0 4.44945 7.91095e-15
    outer loop
      vertex -2.16688 -17.5724 2.45028
      vertex 2.16688 -17.5724 2.45028
      vertex 0.622332 -17.5724 1.42359
    endloop
  endfacet
  facet normal -3.95787e-16 0.269866 1.07523e-15
    outer loop
      vertex 0.622332 -17.5724 1.42359
      vertex 2.16688 -17.5724 2.45028
      vertex 1.21136 -17.5724 1.6404
    endloop
  endfacet
  facet normal 8.42307e-16 0.0915893 -7.87339e-16
    outer loop
      vertex 1.21136 -17.5724 1.6404
      vertex 2.16688 -17.5724 2.45028
      vertex 1.73556 -17.5724 1.98885
    endloop
  endfacet
  facet normal 3.95787e-16 0.52529 3.34727e-15
    outer loop
      vertex -1.73556 -17.5724 1.98885
      vertex 0.622332 -17.5724 1.42359
      vertex -1.21136 -17.5724 1.6404
    endloop
  endfacet
  facet normal 0 0.269866 0
    outer loop
      vertex 0.622332 -17.5724 1.42359
      vertex -1.45286e-07 -17.5724 1.35
      vertex -1.21136 -17.5724 1.6404
    endloop
  endfacet
  facet normal 0 0.0915893 0
    outer loop
      vertex -1.21136 -17.5724 1.6404
      vertex -1.45286e-07 -17.5724 1.35
      vertex -0.622332 -17.5724 1.42359
    endloop
  endfacet
endsolid polyhedron
