solid polyhedron
  facet normal -498 -0 0
    outer loop
      vertex -20.75 -20.75 6
      vertex -20.75 20.75 6
      vertex -20.75 -20.75 -6
    endloop
  endfacet
  facet normal -498 -0 0
    outer loop
      vertex -20.75 -20.75 -6
      vertex -20.75 20.75 6
      vertex -20.75 20.75 -6
    endloop
  endfacet
  facet normal -0 498 -0
    outer loop
      vertex -20.75 20.75 6
      vertex 20.75 20.75 6
      vertex -20.75 20.75 -6
    endloop
  endfacet
  facet normal 0 498 0
    outer loop
      vertex -20.75 20.75 -6
      vertex 20.75 20.75 6
      vertex 20.75 20.75 -6
    endloop
  endfacet
  facet normal -0 0 487.625
    outer loop
      vertex 9 -15.2 6
      vertex 20.75 -20.75 6
      vertex 20.75 20.75 6
    endloop
  endfacet
  facet normal -0 -0 357.2
    outer loop
      vertex 9 15.2 6
      vertex 9 -15.2 6
      vertex 20.75 20.75 6
    endloop
  endfacet
  facet normal 0 0 230.325
    outer loop
      vertex -20.75 -20.75 6
      vertex 20.75 -20.75 6
      vertex -9 -15.2 6
    endloop
  endfacet
  facet normal -0 0 230.325
    outer loop
      vertex -20.75 20.75 6
      vertex -9 15.2 6
      vertex 20.75 20.75 6
    endloop
  endfacet
  facet normal -0 -0 487.625
    outer loop
      vertex -20.75 20.75 6
      vertex -20.75 -20.75 6
      vertex -9 15.2 6
    endloop
  endfacet
  facet normal 0 0 99.9
    outer loop
      vertex -9 15.2 6
      vertex 9 15.2 6
      vertex 20.75 20.75 6
    endloop
  endfacet
  facet normal -0 0 99.9
    outer loop
      vertex -9 -15.2 6
      vertex 20.75 -20.75 6
      vertex 9 -15.2 6
    endloop
  endfacet
  facet normal -0 -0 357.2
    outer loop
      vertex -9 -15.2 6
      vertex -9 15.2 6
      vertex -20.75 -20.75 6
    endloop
  endfacet
  facet normal -0 -498 0
    outer loop
      vertex -20.75 -20.75 -6
      vertex 20.75 -20.75 -6
      vertex 20.75 -20.75 6
    endloop
  endfacet
  facet normal -0 -498 0
    outer loop
      vertex -20.75 -20.75 6
      vertex -20.75 -20.75 -6
      vertex 20.75 -20.75 6
    endloop
  endfacet
  facet normal -0 0 -1722.25
    outer loop
      vertex -20.75 20.75 -6
      vertex 20.75 20.75 -6
      vertex -20.75 -20.75 -6
    endloop
  endfacet
  facet normal -0 0 -1722.25
    outer loop
      vertex -20.75 -20.75 -6
      vertex 20.75 20.75 -6
      vertex 20.75 -20.75 -6
    endloop
  endfacet
  facet normal 498 0 0
    outer loop
      vertex 20.75 -20.75 -6
      vertex 20.75 20.75 -6
      vertex 20.75 20.75 6
    endloop
  endfacet
  facet normal 498 -0 -0
    outer loop
      vertex 20.75 -20.75 6
      vertex 20.75 -20.75 -6
      vertex 20.75 20.75 6
    endloop
  endfacet
  facet normal 60.8 0 0
    outer loop
      vertex -9 -15.2 4
      vertex -9 15.2 4
      vertex -9 15.2 6
    endloop
  endfacet
  facet normal 60.8 -0 -0
    outer loop
      vertex -9 -15.2 6
      vertex -9 -15.2 4
      vertex -9 15.2 6
    endloop
  endfacet
  facet normal -0 36 -0
    outer loop
      vertex -9 -15.2 6
      vertex 9 -15.2 6
      vertex -9 -15.2 4
    endloop
  endfacet
  facet normal 0 36 0
    outer loop
      vertex -9 -15.2 4
      vertex 9 -15.2 6
      vertex 9 -15.2 4
    endloop
  endfacet
  facet normal -60.8 -0 0
    outer loop
      vertex 9 -15.2 6
      vertex 9 15.2 6
      vertex 9 -15.2 4
    endloop
  endfacet
  facet normal -60.8 -0 0
    outer loop
      vertex 9 -15.2 4
      vertex 9 15.2 6
      vertex 9 15.2 4
    endloop
  endfacet
  facet normal -0 -36 0
    outer loop
      vertex -9 15.2 4
      vertex 9 15.2 4
      vertex 9 15.2 6
    endloop
  endfacet
  facet normal -0 -36 0
    outer loop
      vertex -9 15.2 6
      vertex -9 15.2 4
      vertex 9 15.2 6
    endloop
  endfacet
  facet normal 0 0 547.2
    outer loop
      vertex -9 -15.2 4
      vertex 9 -15.2 4
      vertex 9 15.2 4
    endloop
  endfacet
  facet normal 0 0 547.2
    outer loop
      vertex -9 15.2 4
      vertex -9 -15.2 4
      vertex 9 15.2 4
    endloop
  endfacet
endsolid polyhedron
