solid 
 facet normal -1.000000e+00  0.000000e+00  0.000000e+00
   outer loop
     vertex -6.908069e+01  2.212048e+01  3.111219e+01
     vertex -6.908069e+01  1.812048e+01  4.611219e+01
     vertex -6.908069e+01  2.212048e+01  4.611219e+01
   endloop
 endfacet
 facet normal -1.000000e+00  0.000000e+00  0.000000e+00
   outer loop
     vertex -6.908069e+01  2.212048e+01  3.111219e+01
     vertex -6.908069e+01  1.812048e+01  3.111219e+01
     vertex -6.908069e+01  1.812048e+01  4.611219e+01
   endloop
 endfacet
 facet normal -0.000000e+00  0.000000e+00  1.000000e+00
   outer loop
     vertex -6.908069e+01  2.212048e+01  4.611219e+01
     vertex -5.408069e+01  1.812048e+01  4.611219e+01
     vertex -5.408069e+01  2.212048e+01  4.611219e+01
   endloop
 endfacet
 facet normal  0.000000e+00  0.000000e+00  1.000000e+00
   outer loop
     vertex -6.908069e+01  2.212048e+01  4.611219e+01
     vertex -6.908069e+01  1.812048e+01  4.611219e+01
     vertex -5.408069e+01  1.812048e+01  4.611219e+01
   endloop
 endfacet
 facet normal  1.000000e+00  0.000000e+00  0.000000e+00
   outer loop
     vertex -5.408069e+01  2.212048e+01  4.611219e+01
     vertex -5.408069e+01  1.812048e+01  3.111219e+01
     vertex -5.408069e+01  2.212048e+01  3.111219e+01
   endloop
 endfacet
 facet normal  1.000000e+00  0.000000e+00  0.000000e+00
   outer loop
     vertex -5.408069e+01  2.212048e+01  4.611219e+01
     vertex -5.408069e+01  1.812048e+01  4.611219e+01
     vertex -5.408069e+01  1.812048e+01  3.111219e+01
   endloop
 endfacet
 facet normal -0.000000e+00  0.000000e+00 -1.000000e+00
   outer loop
     vertex -5.408069e+01  2.212048e+01  3.111219e+01
     vertex -6.908069e+01  1.812048e+01  3.111219e+01
     vertex -6.908069e+01  2.212048e+01  3.111219e+01
   endloop
 endfacet
 facet normal  0.000000e+00 -0.000000e+00 -1.000000e+00
   outer loop
     vertex -5.408069e+01  2.212048e+01  3.111219e+01
     vertex -5.408069e+01  1.812048e+01  3.111219e+01
     vertex -6.908069e+01  1.812048e+01  3.111219e+01
   endloop
 endfacet
 facet normal  0.000000e+00  1.000000e+00  0.000000e+00
   outer loop
     vertex -6.908069e+01  2.212048e+01  4.611219e+01
     vertex -5.408069e+01  2.212048e+01  3.111219e+01
     vertex -6.908069e+01  2.212048e+01  3.111219e+01
   endloop
 endfacet
 facet normal  0.000000e+00  1.000000e+00  0.000000e+00
   outer loop
     vertex -5.408069e+01  2.212048e+01  4.611219e+01
     vertex -5.408069e+01  2.212048e+01  3.111219e+01
     vertex -6.908069e+01  2.212048e+01  4.611219e+01
   endloop
 endfacet
 facet normal  0.000000e+00 -1.000000e+00  0.000000e+00
   outer loop
     vertex -6.908069e+01  1.812048e+01  4.611219e+01
     vertex -6.908069e+01  1.812048e+01  3.111219e+01
     vertex -5.408069e+01  1.812048e+01  3.111219e+01
   endloop
 endfacet
 facet normal -0.000000e+00 -1.000000e+00 -0.000000e+00
   outer loop
     vertex -5.408069e+01  1.812048e+01  4.611219e+01
     vertex -6.908069e+01  1.812048e+01  4.611219e+01
     vertex -5.408069e+01  1.812048e+01  3.111219e+01
   endloop
 endfacet
 facet normal  1.000000e+00  0.000000e+00  0.000000e+00
   outer loop
     vertex -6.408069e+01  1.812048e+01  5.111219e+01
     vertex -6.408069e+01  1.312048e+01  4.111219e+01
     vertex -6.408069e+01  1.812048e+01  4.111219e+01
   endloop
 endfacet
 facet normal  1.000000e+00  0.000000e+00  0.000000e+00
   outer loop
     vertex -6.408069e+01  1.812048e+01  5.111219e+01
     vertex -6.408069e+01  1.312048e+01  5.111219e+01
     vertex -6.408069e+01  1.312048e+01  4.111219e+01
   endloop
 endfacet
 facet normal -0.000000e+00  0.000000e+00 -1.000000e+00
   outer loop
     vertex -6.408069e+01  1.812048e+01  4.111219e+01
     vertex -7.408069e+01  1.312048e+01  4.111219e+01
     vertex -7.408069e+01  1.812048e+01  4.111219e+01
   endloop
 endfacet
 facet normal  0.000000e+00 -0.000000e+00 -1.000000e+00
   outer loop
     vertex -6.408069e+01  1.812048e+01  4.111219e+01
     vertex -6.408069e+01  1.312048e+01  4.111219e+01
     vertex -7.408069e+01  1.312048e+01  4.111219e+01
   endloop
 endfacet
 facet normal -1.000000e+00  0.000000e+00  0.000000e+00
   outer loop
     vertex -7.408069e+01  1.812048e+01  4.111219e+01
     vertex -7.408069e+01  1.312048e+01  5.111219e+01
     vertex -7.408069e+01  1.812048e+01  5.111219e+01
   endloop
 endfacet
 facet normal -1.000000e+00  0.000000e+00  0.000000e+00
   outer loop
     vertex -7.408069e+01  1.812048e+01  4.111219e+01
     vertex -7.408069e+01  1.312048e+01  4.111219e+01
     vertex -7.408069e+01  1.312048e+01  5.111219e+01
   endloop
 endfacet
 facet normal -0.000000e+00  0.000000e+00  1.000000e+00
   outer loop
     vertex -7.408069e+01  1.812048e+01  5.111219e+01
     vertex -6.408069e+01  1.312048e+01  5.111219e+01
     vertex -6.408069e+01  1.812048e+01  5.111219e+01
   endloop
 endfacet
 facet normal  0.000000e+00  0.000000e+00  1.000000e+00
   outer loop
     vertex -7.408069e+01  1.812048e+01  5.111219e+01
     vertex -7.408069e+01  1.312048e+01  5.111219e+01
     vertex -6.408069e+01  1.312048e+01  5.111219e+01
   endloop
 endfacet
 facet normal  0.000000e+00  1.000000e+00 -0.000000e+00
   outer loop
     vertex -6.408069e+01  1.812048e+01  4.111219e+01
     vertex -7.408069e+01  1.812048e+01  5.111219e+01
     vertex -6.408069e+01  1.812048e+01  5.111219e+01
   endloop
 endfacet
 facet normal  0.000000e+00  1.000000e+00  0.000000e+00
   outer loop
     vertex -6.408069e+01  1.812048e+01  4.111219e+01
     vertex -7.408069e+01  1.812048e+01  4.111219e+01
     vertex -7.408069e+01  1.812048e+01  5.111219e+01
   endloop
 endfacet
 facet normal  0.000000e+00 -1.000000e+00  0.000000e+00
   outer loop
     vertex -6.408069e+01  1.312048e+01  4.111219e+01
     vertex -6.408069e+01  1.312048e+01  5.111219e+01
     vertex -7.408069e+01  1.312048e+01  5.111219e+01
   endloop
 endfacet
 facet normal  0.000000e+00 -1.000000e+00  0.000000e+00
   outer loop
     vertex -6.408069e+01  1.312048e+01  4.111219e+01
     vertex -7.408069e+01  1.312048e+01  5.111219e+01
     vertex -7.408069e+01  1.312048e+01  4.111219e+01
   endloop
 endfacet
endsolid
