solid polyhedron
  facet normal -0 -0 -830
    outer loop
      vertex 10 20.75 0.5
      vertex -10 -20.75 0.5
      vertex -10 20.75 0.5
    endloop
  endfacet
  facet normal 0 0 830
    outer loop
      vertex -10 -20.75 6.5
      vertex 10 20.75 6.5
      vertex -10 20.75 6.5
    endloop
  endfacet
  facet normal 249 -120 -0
    outer loop
      vertex -10 -20.75 0.5
      vertex 10 20.75 0.5
      vertex 10 20.75 6.5
    endloop
  endfacet
  facet normal -0 120 -0
    outer loop
      vertex 10 20.75 0.5
      vertex -10 20.75 0.5
      vertex -10 20.75 6.5
    endloop
  endfacet
  facet normal -249 0 -0
    outer loop
      vertex -10 20.75 0.5
      vertex -10 -20.75 0.5
      vertex -10 -20.75 6.5
    endloop
  endfacet
  facet normal -0 120 0
    outer loop
      vertex -10 20.75 6.5
      vertex 10 20.75 6.5
      vertex 10 20.75 0.5
    endloop
  endfacet
  facet normal 249 -120 -0
    outer loop
      vertex 10 20.75 6.5
      vertex -10 -20.75 6.5
      vertex -10 -20.75 0.5
    endloop
  endfacet
  facet normal -249 -0 0
    outer loop
      vertex -10 -20.75 6.5
      vertex -10 20.75 6.5
      vertex -10 20.75 0.5
    endloop
  endfacet
endsolid polyhedron
