solid 
 facet normal -1.000000e+00  0.000000e+00  0.000000e+00
   outer loop
     vertex  2.982121e+00  2.182121e+00  8.916436e+00
     vertex  2.982121e+00  2.721788e+01  3.916436e+00
     vertex  2.982121e+00  2.182121e+00  3.916436e+00
   endloop
 endfacet
 facet normal -1.000000e+00  0.000000e+00  0.000000e+00
   outer loop
     vertex  2.982121e+00  2.182121e+00  8.916436e+00
     vertex  2.982121e+00  2.721788e+01  8.916436e+00
     vertex  2.982121e+00  2.721788e+01  3.916436e+00
   endloop
 endfacet
 facet normal  1.000000e+00  0.000000e+00  0.000000e+00
   outer loop
     vertex  1.501788e+01  2.182121e+00  8.916436e+00
     vertex  1.501788e+01  2.182121e+00  3.916436e+00
     vertex  1.501788e+01  2.721788e+01  3.916436e+00
   endloop
 endfacet
 facet normal  1.000000e+00 -0.000000e+00  0.000000e+00
   outer loop
     vertex  1.501788e+01  2.182121e+00  8.916436e+00
     vertex  1.501788e+01  2.721788e+01  3.916436e+00
     vertex  1.501788e+01  2.721788e+01  8.916436e+00
   endloop
 endfacet
 facet normal  0.000000e+00 -1.000000e+00 -0.000000e+00
   outer loop
     vertex  1.501788e+01  2.182121e+00  8.916436e+00
     vertex  2.982121e+00  2.182121e+00  3.916436e+00
     vertex  1.501788e+01  2.182121e+00  3.916436e+00
   endloop
 endfacet
 facet normal -0.000000e+00 -1.000000e+00  0.000000e+00
   outer loop
     vertex  1.501788e+01  2.182121e+00  8.916436e+00
     vertex  2.982121e+00  2.182121e+00  8.916436e+00
     vertex  2.982121e+00  2.182121e+00  3.916436e+00
   endloop
 endfacet
 facet normal  0.000000e+00  1.000000e+00  0.000000e+00
   outer loop
     vertex  1.501788e+01  2.721788e+01  8.916436e+00
     vertex  1.501788e+01  2.721788e+01  3.916436e+00
     vertex  2.982121e+00  2.721788e+01  3.916436e+00
   endloop
 endfacet
 facet normal  0.000000e+00  1.000000e+00  0.000000e+00
   outer loop
     vertex  1.501788e+01  2.721788e+01  8.916436e+00
     vertex  2.982121e+00  2.721788e+01  3.916436e+00
     vertex  2.982121e+00  2.721788e+01  8.916436e+00
   endloop
 endfacet
 facet normal -0.000000e+00  0.000000e+00 -1.000000e+00
   outer loop
     vertex  1.501788e+01  2.721788e+01  3.916436e+00
     vertex  2.982121e+00  2.182121e+00  3.916436e+00
     vertex  2.982121e+00  2.721788e+01  3.916436e+00
   endloop
 endfacet
 facet normal  0.000000e+00 -0.000000e+00 -1.000000e+00
   outer loop
     vertex  1.501788e+01  2.721788e+01  3.916436e+00
     vertex  1.501788e+01  2.182121e+00  3.916436e+00
     vertex  2.982121e+00  2.182121e+00  3.916436e+00
   endloop
 endfacet
 facet normal  0.000000e+00  0.000000e+00  1.000000e+00
   outer loop
     vertex  1.501788e+01  2.721788e+01  8.916436e+00
     vertex  2.982121e+00  2.721788e+01  8.916436e+00
     vertex  2.982121e+00  2.182121e+00  8.916436e+00
   endloop
 endfacet
 facet normal  0.000000e+00  0.000000e+00  1.000000e+00
   outer loop
     vertex  1.501788e+01  2.721788e+01  8.916436e+00
     vertex  2.982121e+00  2.182121e+00  8.916436e+00
     vertex  1.501788e+01  2.182121e+00  8.916436e+00
   endloop
 endfacet
endsolid
