solid 
 facet normal -1.000000e+00  0.000000e+00  0.000000e+00
   outer loop
     vertex  2.971184e+00  3.169025e+00  6.969025e+00
     vertex  2.971184e+00  2.723098e+01  1.969025e+00
     vertex  2.971184e+00  3.169025e+00  1.969025e+00
   endloop
 endfacet
 facet normal -1.000000e+00  0.000000e+00  0.000000e+00
   outer loop
     vertex  2.971184e+00  3.169025e+00  6.969025e+00
     vertex  2.971184e+00  2.723098e+01  6.969025e+00
     vertex  2.971184e+00  2.723098e+01  1.969025e+00
   endloop
 endfacet
 facet normal  1.000000e+00  0.000000e+00  0.000000e+00
   outer loop
     vertex  1.502882e+01  3.169025e+00  6.969025e+00
     vertex  1.502882e+01  3.169025e+00  1.969025e+00
     vertex  1.502882e+01  2.723098e+01  1.969025e+00
   endloop
 endfacet
 facet normal  1.000000e+00 -0.000000e+00  0.000000e+00
   outer loop
     vertex  1.502882e+01  3.169025e+00  6.969025e+00
     vertex  1.502882e+01  2.723098e+01  1.969025e+00
     vertex  1.502882e+01  2.723098e+01  6.969025e+00
   endloop
 endfacet
 facet normal  0.000000e+00 -1.000000e+00  0.000000e+00
   outer loop
     vertex  1.502882e+01  3.169025e+00  1.969025e+00
     vertex  2.971184e+00  3.169025e+00  6.969025e+00
     vertex  2.971184e+00  3.169025e+00  1.969025e+00
   endloop
 endfacet
 facet normal -0.000000e+00 -1.000000e+00 -0.000000e+00
   outer loop
     vertex  1.502882e+01  3.169025e+00  6.969025e+00
     vertex  2.971184e+00  3.169025e+00  6.969025e+00
     vertex  1.502882e+01  3.169025e+00  1.969025e+00
   endloop
 endfacet
 facet normal  0.000000e+00  1.000000e+00  0.000000e+00
   outer loop
     vertex  1.502882e+01  2.723098e+01  1.969025e+00
     vertex  2.971184e+00  2.723098e+01  1.969025e+00
     vertex  2.971184e+00  2.723098e+01  6.969025e+00
   endloop
 endfacet
 facet normal  0.000000e+00  1.000000e+00  0.000000e+00
   outer loop
     vertex  1.502882e+01  2.723098e+01  6.969025e+00
     vertex  1.502882e+01  2.723098e+01  1.969025e+00
     vertex  2.971184e+00  2.723098e+01  6.969025e+00
   endloop
 endfacet
 facet normal  0.000000e+00  0.000000e+00 -1.000000e+00
   outer loop
     vertex  2.971184e+00  2.723098e+01  1.969025e+00
     vertex  1.502882e+01  3.169025e+00  1.969025e+00
     vertex  2.971184e+00  3.169025e+00  1.969025e+00
   endloop
 endfacet
 facet normal -0.000000e+00 -0.000000e+00 -1.000000e+00
   outer loop
     vertex  1.502882e+01  2.723098e+01  1.969025e+00
     vertex  1.502882e+01  3.169025e+00  1.969025e+00
     vertex  2.971184e+00  2.723098e+01  1.969025e+00
   endloop
 endfacet
 facet normal  0.000000e+00  0.000000e+00  1.000000e+00
   outer loop
     vertex  2.971184e+00  2.723098e+01  6.969025e+00
     vertex  2.971184e+00  3.169025e+00  6.969025e+00
     vertex  1.502882e+01  3.169025e+00  6.969025e+00
   endloop
 endfacet
 facet normal  0.000000e+00  0.000000e+00  1.000000e+00
   outer loop
     vertex  1.502882e+01  2.723098e+01  6.969025e+00
     vertex  2.971184e+00  2.723098e+01  6.969025e+00
     vertex  1.502882e+01  3.169025e+00  6.969025e+00
   endloop
 endfacet
endsolid
