solid 
 facet normal -1.000000e+00  0.000000e+00  0.000000e+00
   outer loop
     vertex  2.982942e+00  3.182942e+00  7.917257e+00
     vertex  2.982942e+00  2.721706e+01  2.917257e+00
     vertex  2.982942e+00  3.182942e+00  2.917257e+00
   endloop
 endfacet
 facet normal -1.000000e+00  0.000000e+00  0.000000e+00
   outer loop
     vertex  2.982942e+00  3.182942e+00  7.917257e+00
     vertex  2.982942e+00  2.721706e+01  7.917257e+00
     vertex  2.982942e+00  2.721706e+01  2.917257e+00
   endloop
 endfacet
 facet normal  1.000000e+00  0.000000e+00  0.000000e+00
   outer loop
     vertex  1.501706e+01  3.182942e+00  7.917257e+00
     vertex  1.501706e+01  3.182942e+00  2.917257e+00
     vertex  1.501706e+01  2.721706e+01  2.917257e+00
   endloop
 endfacet
 facet normal  1.000000e+00 -0.000000e+00  0.000000e+00
   outer loop
     vertex  1.501706e+01  3.182942e+00  7.917257e+00
     vertex  1.501706e+01  2.721706e+01  2.917257e+00
     vertex  1.501706e+01  2.721706e+01  7.917257e+00
   endloop
 endfacet
 facet normal  0.000000e+00 -1.000000e+00 -0.000000e+00
   outer loop
     vertex  1.501706e+01  3.182942e+00  7.917257e+00
     vertex  2.982942e+00  3.182942e+00  2.917257e+00
     vertex  1.501706e+01  3.182942e+00  2.917257e+00
   endloop
 endfacet
 facet normal -0.000000e+00 -1.000000e+00  0.000000e+00
   outer loop
     vertex  1.501706e+01  3.182942e+00  7.917257e+00
     vertex  2.982942e+00  3.182942e+00  7.917257e+00
     vertex  2.982942e+00  3.182942e+00  2.917257e+00
   endloop
 endfacet
 facet normal  0.000000e+00  1.000000e+00  0.000000e+00
   outer loop
     vertex  1.501706e+01  2.721706e+01  7.917257e+00
     vertex  1.501706e+01  2.721706e+01  2.917257e+00
     vertex  2.982942e+00  2.721706e+01  2.917257e+00
   endloop
 endfacet
 facet normal  0.000000e+00  1.000000e+00  0.000000e+00
   outer loop
     vertex  1.501706e+01  2.721706e+01  7.917257e+00
     vertex  2.982942e+00  2.721706e+01  2.917257e+00
     vertex  2.982942e+00  2.721706e+01  7.917257e+00
   endloop
 endfacet
 facet normal -0.000000e+00  0.000000e+00 -1.000000e+00
   outer loop
     vertex  1.501706e+01  2.721706e+01  2.917257e+00
     vertex  2.982942e+00  3.182942e+00  2.917257e+00
     vertex  2.982942e+00  2.721706e+01  2.917257e+00
   endloop
 endfacet
 facet normal  0.000000e+00 -0.000000e+00 -1.000000e+00
   outer loop
     vertex  1.501706e+01  2.721706e+01  2.917257e+00
     vertex  1.501706e+01  3.182942e+00  2.917257e+00
     vertex  2.982942e+00  3.182942e+00  2.917257e+00
   endloop
 endfacet
 facet normal  0.000000e+00  0.000000e+00  1.000000e+00
   outer loop
     vertex  1.501706e+01  2.721706e+01  7.917257e+00
     vertex  2.982942e+00  2.721706e+01  7.917257e+00
     vertex  2.982942e+00  3.182942e+00  7.917257e+00
   endloop
 endfacet
 facet normal  0.000000e+00  0.000000e+00  1.000000e+00
   outer loop
     vertex  1.501706e+01  2.721706e+01  7.917257e+00
     vertex  2.982942e+00  3.182942e+00  7.917257e+00
     vertex  1.501706e+01  3.182942e+00  7.917257e+00
   endloop
 endfacet
endsolid
