solid 
 facet normal -1.000000e+00  0.000000e+00  0.000000e+00
   outer loop
     vertex  2.985009e+00  2.185009e+00  4.919324e+00
     vertex  2.985009e+00  3.651499e+01  9.919324e+00
     vertex  2.985009e+00  3.651499e+01  4.919324e+00
   endloop
 endfacet
 facet normal -1.000000e+00  0.000000e+00  0.000000e+00
   outer loop
     vertex  2.985009e+00  2.185009e+00  9.919324e+00
     vertex  2.985009e+00  3.651499e+01  9.919324e+00
     vertex  2.985009e+00  2.185009e+00  4.919324e+00
   endloop
 endfacet
 facet normal  1.000000e+00  0.000000e+00  0.000000e+00
   outer loop
     vertex  1.501499e+01  2.185009e+00  4.919324e+00
     vertex  1.501499e+01  3.651499e+01  4.919324e+00
     vertex  1.501499e+01  3.651499e+01  9.919324e+00
   endloop
 endfacet
 facet normal  1.000000e+00 -0.000000e+00  0.000000e+00
   outer loop
     vertex  1.501499e+01  2.185009e+00  9.919324e+00
     vertex  1.501499e+01  2.185009e+00  4.919324e+00
     vertex  1.501499e+01  3.651499e+01  9.919324e+00
   endloop
 endfacet
 facet normal  0.000000e+00 -1.000000e+00 -0.000000e+00
   outer loop
     vertex  1.501499e+01  2.185009e+00  9.919324e+00
     vertex  2.985009e+00  2.185009e+00  4.919324e+00
     vertex  1.501499e+01  2.185009e+00  4.919324e+00
   endloop
 endfacet
 facet normal -0.000000e+00 -1.000000e+00  0.000000e+00
   outer loop
     vertex  1.501499e+01  2.185009e+00  9.919324e+00
     vertex  2.985009e+00  2.185009e+00  9.919324e+00
     vertex  2.985009e+00  2.185009e+00  4.919324e+00
   endloop
 endfacet
 facet normal  0.000000e+00  1.000000e+00  0.000000e+00
   outer loop
     vertex  1.501499e+01  3.651499e+01  9.919324e+00
     vertex  1.501499e+01  3.651499e+01  4.919324e+00
     vertex  2.985009e+00  3.651499e+01  4.919324e+00
   endloop
 endfacet
 facet normal  0.000000e+00  1.000000e+00  0.000000e+00
   outer loop
     vertex  1.501499e+01  3.651499e+01  9.919324e+00
     vertex  2.985009e+00  3.651499e+01  4.919324e+00
     vertex  2.985009e+00  3.651499e+01  9.919324e+00
   endloop
 endfacet
 facet normal -0.000000e+00  0.000000e+00 -1.000000e+00
   outer loop
     vertex  1.501499e+01  3.651499e+01  4.919324e+00
     vertex  2.985009e+00  2.185009e+00  4.919324e+00
     vertex  2.985009e+00  3.651499e+01  4.919324e+00
   endloop
 endfacet
 facet normal  0.000000e+00 -0.000000e+00 -1.000000e+00
   outer loop
     vertex  1.501499e+01  3.651499e+01  4.919324e+00
     vertex  1.501499e+01  2.185009e+00  4.919324e+00
     vertex  2.985009e+00  2.185009e+00  4.919324e+00
   endloop
 endfacet
 facet normal  0.000000e+00  0.000000e+00  1.000000e+00
   outer loop
     vertex  1.501499e+01  3.651499e+01  9.919324e+00
     vertex  2.985009e+00  3.651499e+01  9.919324e+00
     vertex  2.985009e+00  2.185009e+00  9.919324e+00
   endloop
 endfacet
 facet normal  0.000000e+00  0.000000e+00  1.000000e+00
   outer loop
     vertex  1.501499e+01  3.651499e+01  9.919324e+00
     vertex  2.985009e+00  2.185009e+00  9.919324e+00
     vertex  1.501499e+01  2.185009e+00  9.919324e+00
   endloop
 endfacet
endsolid
